<svg width="1921" height="1309" viewBox="0 0 1921 1309" fill="none" xmlns="http://www.w3.org/2000/svg">
<g clip-path="url(#clip0_4419_103508)">
<path d="M1921 0H0V1309H1921V0Z" fill="url(#paint0_linear_4419_103508)"/>
<mask id="mask0_4419_103508" style="mask-type:alpha" maskUnits="userSpaceOnUse" x="-1" y="0" width="1920" height="1309">
<g opacity="0.7">
<path d="M1919 0H-1V1309H1919V0Z" fill="white"/>
<path d="M1919 0H-1V1309H1919V0Z" fill="black"/>
</g>
</mask>
<g mask="url(#mask0_4419_103508)">
<mask id="mask1_4419_103508" style="mask-type:alpha" maskUnits="userSpaceOnUse" x="-1" y="0" width="1922" height="1309">
<path d="M1921 0H-1V1309H1921V0Z" fill="white"/>
<path d="M1921 0H-1V1309H1921V0Z" fill="url(#paint1_linear_4419_103508)"/>
</mask>
<g mask="url(#mask1_4419_103508)">
<g style="mix-blend-mode:lighten" filter="url(#filter0_f_4419_103508)">
<g filter="url(#filter1_f_4419_103508)">
<path d="M491.672 934.602C173.868 633.274 -221.265 517.929 -390.882 676.971C-560.499 836.012 -440.368 1209.22 -122.564 1510.54C195.241 1811.87 590.374 1927.22 759.99 1768.17C929.607 1609.13 809.477 1235.93 491.672 934.602Z" fill="url(#paint2_linear_4419_103508)"/>
</g>
</g>
<mask id="mask2_4419_103508" style="mask-type:alpha" maskUnits="userSpaceOnUse" x="0" y="0" width="1921" height="1309">
<path d="M1921 0H0V1309H1921V0Z" fill="url(#paint3_linear_4419_103508)"/>
</mask>
<g mask="url(#mask2_4419_103508)">
<path d="M282.316 746.002C214.457 798.023 189.91 896.827 227.767 965.565L385.522 1251.99C423.379 1320.72 540.849 1390.62 646.561 1407.33L1087.09 1476.95C1192.8 1493.65 1334.82 1464.76 1402.67 1412.74L1685.44 1195.94C1753.3 1143.92 1777.85 1045.11 1739.99 976.376L1582.24 689.956C1544.38 621.219 1426.91 551.317 1321.2 534.614L880.671 464.991C774.959 448.289 632.947 477.183 565.088 529.204L282.316 746.002Z" stroke="url(#paint4_linear_4419_103508)" stroke-miterlimit="10"/>
<path d="M274.593 718.078C202.821 770.063 173.421 871.732 209.264 944.008L358.623 1245.2C394.466 1317.48 511.841 1393.22 619.451 1413.52L1067.9 1498.09C1175.51 1518.38 1322.29 1492.46 1394.07 1440.48L1693.16 1223.86C1764.93 1171.87 1794.33 1070.2 1758.49 997.928L1609.13 696.735C1573.29 624.459 1455.91 548.716 1348.3 528.416L899.852 443.843C792.237 423.552 645.462 449.478 573.683 501.458L274.593 718.078Z" stroke="url(#paint5_linear_4419_103508)" stroke-miterlimit="10"/>
<path d="M267.887 688.935C192.099 740.766 157.604 845.265 191.229 921.165L331.344 1237.43C364.97 1313.33 481.994 1395.11 591.407 1419.18L1047.33 1519.47C1156.75 1543.54 1308.27 1520.82 1384.05 1468.99L1699.87 1253.01C1775.66 1201.18 1810.15 1096.68 1776.53 1020.78L1636.41 704.519C1602.79 628.619 1485.76 546.837 1376.35 522.768L920.42 422.48C811.007 398.41 659.488 421.127 583.7 472.958L267.887 688.935Z" stroke="url(#paint6_linear_4419_103508)" stroke-miterlimit="10"/>
<path d="M262.267 658.549C182.372 710.104 142.536 817.403 173.732 896.987L303.732 1228.61C334.928 1308.19 451.345 1396.23 562.428 1424.26L1025.34 1541.04C1136.43 1569.06 1292.69 1549.8 1372.57 1498.24L1705.49 1283.39C1785.38 1231.83 1825.22 1124.54 1794.03 1044.95L1664.03 713.33C1632.83 633.747 1516.41 545.708 1405.33 517.685L942.417 400.904C831.334 372.88 675.072 392.137 595.185 443.697L262.267 658.549Z" stroke="url(#paint7_linear_4419_103508)" stroke-miterlimit="10"/>
<path d="M257.808 626.909C173.723 678.073 128.282 788.102 156.833 871.435L275.795 1218.69C304.347 1302.02 419.857 1396.52 532.493 1428.69L1001.86 1562.75C1114.49 1594.92 1275.45 1579.38 1359.53 1528.22L1709.93 1315.03C1794.02 1263.87 1839.46 1153.84 1810.91 1070.5L1691.94 723.254C1663.39 639.921 1547.88 545.423 1435.25 513.254L965.882 379.193C853.246 347.024 692.29 362.563 608.209 413.719L257.808 626.909Z" stroke="url(#paint8_linear_4419_103508)" stroke-miterlimit="10"/>
<path d="M254.603 594.006C166.239 644.636 114.941 757.353 140.616 844.495L247.607 1207.62C273.283 1294.76 387.601 1395.93 501.64 1432.44L976.874 1584.58C1090.91 1621.09 1256.53 1609.55 1344.89 1558.92L1713.14 1347.94C1801.51 1297.31 1852.81 1184.59 1827.13 1097.45L1720.14 734.326C1694.46 647.184 1580.15 546.015 1466.11 509.503L990.873 357.362C876.833 320.851 711.218 332.398 622.853 383.029L254.603 594.006Z" stroke="url(#paint9_linear_4419_103508)" stroke-miterlimit="10"/>
<path d="M252.732 559.823C159.999 609.778 102.589 725.115 125.157 816.123L219.207 1195.36C241.775 1286.37 354.58 1394.41 469.873 1435.46L950.344 1606.5C1065.64 1647.56 1235.85 1640.26 1328.59 1590.3L1715.01 1382.12C1807.75 1332.17 1865.16 1216.83 1842.59 1125.82L1748.55 746.592C1725.98 655.584 1613.17 547.541 1497.88 506.493L1017.41 335.445C902.109 294.392 731.902 301.691 639.169 351.647L252.732 559.823Z" stroke="url(#paint10_linear_4419_103508)" stroke-miterlimit="10"/>
<path d="M252.283 524.357C155.104 573.491 91.3213 691.369 110.535 786.292L190.613 1181.85C209.828 1276.77 320.786 1391.89 437.179 1437.68L922.208 1628.47C1038.6 1674.25 1213.34 1671.51 1310.52 1622.36L1715.47 1417.59C1812.65 1368.46 1876.43 1250.58 1857.22 1155.66L1777.14 760.101C1757.93 665.178 1646.97 550.057 1530.58 504.269L1045.55 313.483C929.153 267.695 754.417 270.443 657.233 319.586L252.283 524.357Z" stroke="url(#paint11_linear_4419_103508)" stroke-miterlimit="10"/>
<path d="M253.352 487.601C151.65 535.769 81.2235 656.089 96.8366 754.975L161.903 1167.05C177.516 1265.94 286.27 1388.35 403.585 1439.06L892.428 1650.42C1009.74 1701.15 1188.92 1703.23 1290.63 1655.06L1714.4 1454.35C1816.11 1406.18 1886.53 1285.86 1870.92 1186.97L1805.85 774.9C1790.24 676.014 1681.49 553.604 1564.17 502.886L1075.33 291.527C958.016 240.801 778.831 238.718 677.129 286.886L253.352 487.601Z" stroke="url(#paint12_linear_4419_103508)" stroke-miterlimit="10"/>
<path d="M256.017 449.548C149.728 496.58 72.3876 619.243 84.137 722.131L133.111 1150.89C144.86 1253.78 251.053 1383.67 369.086 1439.54L860.963 1672.32C978.997 1728.18 1162.53 1735.4 1268.82 1688.37L1711.73 1492.38C1818.02 1445.35 1895.36 1322.69 1883.61 1219.8L1834.63 791.038C1822.88 688.15 1716.69 558.259 1598.66 502.394L1106.78 269.616C988.747 213.751 805.209 206.532 698.92 253.564L256.017 449.548Z" stroke="url(#paint13_linear_4419_103508)" stroke-miterlimit="10"/>
<path d="M260.393 410.2C149.454 455.925 64.9194 580.83 72.5424 687.759L104.305 1133.36C111.928 1240.29 215.165 1377.86 333.735 1439.07L827.789 1694.13C946.351 1755.34 1134.13 1768.01 1245.07 1722.28L1707.37 1531.74C1818.31 1486.02 1902.84 1361.11 1895.22 1254.18L1863.45 808.584C1855.83 701.655 1752.59 564.083 1634.02 502.874L1139.97 247.809C1021.41 186.606 833.629 173.933 722.69 219.659L260.393 410.2Z" stroke="url(#paint14_linear_4419_103508)" stroke-miterlimit="10"/>
<path d="M266.565 369.554C150.909 413.789 58.9151 540.808 62.1332 651.808L75.533 1114.37C78.7511 1225.37 178.635 1370.81 297.505 1437.58L792.845 1715.79C911.712 1782.55 1103.6 1800.98 1219.25 1756.74L1701.19 1572.39C1816.85 1528.15 1908.84 1401.13 1905.63 1290.13L1892.23 827.573C1889.01 716.573 1789.12 571.131 1670.25 504.359L1174.91 226.152C1056.05 159.393 864.162 140.965 748.506 185.2L266.565 369.554Z" stroke="url(#paint15_linear_4419_103508)" stroke-miterlimit="10"/>
<path d="M274.634 327.617C154.214 370.18 54.4803 499.176 53.0072 614.27L46.8631 1093.88C45.39 1208.98 141.499 1362.48 260.45 1435.01L756.111 1737.23C875.058 1809.76 1070.9 1834.27 1191.32 1791.7L1693.13 1614.32C1813.55 1571.75 1913.28 1442.76 1914.76 1327.66L1920.9 848.051C1922.37 732.956 1826.26 579.449 1707.31 506.927L1211.65 204.701C1092.71 132.171 896.863 107.659 776.439 150.231L274.634 327.617Z" stroke="url(#paint16_linear_4419_103508)" stroke-miterlimit="10"/>
<path d="M284.701 284.394C159.468 325.092 51.7255 455.924 45.2717 575.124L18.3678 1071.84C11.914 1191.04 103.81 1352.8 222.586 1431.29L717.54 1758.41C836.32 1836.91 1035.96 1867.84 1161.2 1827.13L1683.05 1657.53C1808.29 1616.84 1916.03 1486 1922.48 1366.8L1949.38 870.093C1955.84 750.893 1863.94 589.135 1745.17 510.644L1250.21 183.526C1131.44 105.028 931.793 74.0972 806.555 114.802L284.701 284.394Z" stroke="url(#paint17_linear_4419_103508)" stroke-miterlimit="10"/>
<path d="M296.88 239.912C166.796 278.544 50.7617 411.041 39.0172 534.358L-9.89393 1048.22C-21.6339 1171.53 65.5953 1341.71 183.934 1426.4L677.095 1779.28C795.447 1863.96 998.703 1901.64 1128.79 1863.01L1670.86 1702.03C1800.94 1663.4 1916.98 1530.9 1928.72 1407.58L1977.63 893.72C1989.37 770.411 1902.14 600.226 1783.8 515.541L1290.64 162.662C1172.29 77.9796 969.036 40.2971 838.952 78.9291L296.88 239.912Z" stroke="url(#paint18_linear_4419_103508)" stroke-miterlimit="10"/>
<path d="M311.268 194.16C176.297 230.508 51.6953 364.504 34.3672 491.937L-37.8413 1022.94C-55.1649 1150.37 26.9078 1329.14 144.542 1420.22L634.76 1799.75C752.399 1890.82 959.074 1935.6 1094.04 1899.26L1656.48 1747.78C1791.45 1711.44 1916.05 1577.44 1933.38 1450.01L2005.59 919.003C2022.91 791.578 1940.84 612.802 1823.2 521.721L1332.99 142.194C1215.35 51.1209 1008.67 6.34055 873.702 42.6878L311.268 194.16Z" stroke="url(#paint19_linear_4419_103508)" stroke-miterlimit="10"/>
<path d="M327.986 147.171C188.112 181.015 54.6644 316.33 31.4282 447.859L-65.3858 995.963C-88.6142 1127.5 -12.1877 1315.03 104.45 1412.71L590.505 1819.77C707.143 1917.45 917.021 1969.68 1056.89 1935.82L1639.76 1794.77C1779.63 1760.93 1913.08 1625.61 1936.32 1494.09L2033.13 945.982C2056.36 814.449 1979.94 626.915 1863.3 529.231L1377.24 122.178C1260.6 24.4944 1050.73 -27.7368 910.855 6.12037L327.986 147.171Z" stroke="url(#paint20_linear_4419_103508)" stroke-miterlimit="10"/>
<path d="M347.135 98.9495C202.342 130.072 59.772 266.485 30.3145 402.105L-92.4476 967.233C-121.905 1102.85 -51.6426 1299.3 63.6853 1403.8L544.291 1839.24C659.627 1943.74 872.459 2003.78 1017.25 1972.67L1620.62 1843C1765.41 1811.88 1907.98 1675.46 1937.44 1539.84L2060.2 974.717C2089.66 839.096 2019.4 642.646 1904.07 538.153L1423.46 102.704C1308.13 -1.79343 1095.3 -61.8307 950.507 -30.7161L347.135 98.9495Z" stroke="url(#paint21_linear_4419_103508)" stroke-miterlimit="10"/>
<path d="M368.827 49.5406C219.109 77.6859 67.1469 215 31.1247 354.67L-118.962 936.692C-154.977 1076.37 -91.4193 1281.88 22.2842 1393.41L496.088 1858.13C609.789 1969.64 825.319 2037.86 975.029 2009.71L1598.92 1892.4C1748.64 1864.25 1900.61 1726.94 1936.63 1587.27L2086.71 1005.24C2122.73 865.57 2059.17 660.059 1945.47 548.529L1471.66 83.8107C1357.96 -27.7061 1142.43 -95.9209 992.722 -67.7709L368.827 49.5406Z" stroke="url(#paint22_linear_4419_103508)" stroke-miterlimit="10"/>
<path d="M393.178 -1.03939C238.536 23.8982 76.9118 161.862 34.005 305.553L-144.81 904.313C-187.725 1048 -131.419 1262.72 -19.6917 1381.47L445.882 1876.32C557.609 1995.07 775.539 2071.83 930.181 2046.89L1574.57 1942.98C1729.21 1918.05 1890.84 1780.08 1933.74 1636.39L2112.56 1037.63C2155.47 893.945 2099.17 679.22 1987.44 560.471L1521.87 65.6225C1410.14 -53.1264 1192.21 -129.888 1037.57 -104.95L393.178 -1.03939Z" stroke="url(#paint23_linear_4419_103508)" stroke-miterlimit="10"/>
<path d="M420.309 -52.7613C260.77 -31.2895 89.2087 107.081 39.0626 254.732L-169.909 870.025C-220.055 1017.68 -171.59 1241.73 -62.1891 1367.92L393.656 1893.75C503.044 2019.94 723.084 2105.62 882.622 2084.15L1547.44 1994.7C1706.98 1973.23 1878.54 1834.86 1928.69 1687.2L2137.66 1071.91C2187.81 924.259 2139.34 700.203 2029.94 574.019L1574.1 48.1881C1464.71 -77.9998 1244.67 -163.682 1085.13 -142.21L420.309 -52.7613Z" stroke="url(#paint24_linear_4419_103508)" stroke-miterlimit="10"/>
<path d="M450.335 -105.567C285.923 -87.8322 104.158 50.6854 46.4264 202.241L-194.165 833.809C-251.901 985.373 -211.848 1218.86 -105.169 1352.69L339.382 1910.34C446.062 2044.16 667.864 2139.15 832.288 2121.41L1517.41 2047.51C1681.82 2029.78 1863.59 1891.26 1921.32 1739.7L2161.91 1108.14C2219.65 956.572 2179.59 723.08 2072.92 589.259L1628.36 31.6027C1521.69 -102.219 1299.88 -197.205 1135.46 -179.467L450.335 -105.567Z" stroke="url(#paint25_linear_4419_103508)" stroke-miterlimit="10"/>
<path d="M483.373 -159.441C314.119 -145.71 121.911 -7.33296 56.2305 148.062L-217.455 795.594C-283.136 950.989 -252.124 1194.03 -148.56 1335.69L283.049 1926.01C386.621 2067.67 609.843 2172.34 779.096 2158.61L1484.39 2101.38C1653.63 2087.65 1845.84 1949.27 1911.52 1793.88L2185.2 1146.35C2250.88 990.955 2219.87 747.914 2116.31 606.255L1684.71 15.9399C1581.13 -125.724 1357.91 -230.389 1188.66 -216.658L483.373 -159.441Z" stroke="url(#paint26_linear_4419_103508)" stroke-miterlimit="10"/>
<path d="M519.545 -214.319C345.511 -204.873 142.588 -66.9441 68.6101 92.1997L-239.677 755.346C-313.663 914.485 -292.328 1167.16 -192.276 1316.85L224.652 1940.63C324.704 2090.31 548.963 2205.06 722.989 2195.61L1448.21 2156.26C1622.24 2146.81 1825.16 2008.88 1899.14 1849.74L2207.43 1186.59C2281.41 1027.45 2260.08 774.773 2160.03 625.088L1743.1 1.30989C1643.05 -148.375 1418.79 -263.125 1244.76 -253.675L519.545 -214.319Z" stroke="url(#paint27_linear_4419_103508)" stroke-miterlimit="10"/>
<path d="M558.97 -270.153C380.222 -265.282 166.34 -128.102 83.689 34.6738L-260.73 713.014C-343.386 875.798 -332.375 1138.18 -236.282 1296.1L164.174 1954.13C260.279 2112.04 485.155 2237.26 663.904 2232.39L1408.78 2212.09C1587.53 2207.22 1801.41 2070.05 1884.06 1907.26L2228.48 1228.92C2311.14 1066.14 2300.13 803.752 2204.03 645.839L1803.58 -12.1924C1707.47 -170.102 1482.6 -295.319 1303.85 -290.449L558.97 -270.153Z" stroke="url(#paint28_linear_4419_103508)" stroke-miterlimit="10"/>
<path d="M601.773 -326.878C418.387 -326.876 193.312 -190.795 101.618 -24.4799L-280.489 668.586C-372.183 834.902 -372.183 1107.06 -280.492 1273.38L101.613 1966.43C193.305 2132.74 418.38 2268.82 601.766 2268.82H1365.97C1549.37 2268.83 1774.44 2132.74 1866.14 1966.43L2248.24 1273.36C2339.94 1107.05 2339.94 834.886 2248.25 668.572L1866.14 -24.4892C1774.45 -190.803 1549.37 -326.884 1365.99 -326.882L601.773 -326.878Z" stroke="url(#paint29_linear_4419_103508)" stroke-miterlimit="10"/>
</g>
</g>
<g style="mix-blend-mode:lighten" filter="url(#filter2_f_4419_103508)">
<path d="M2473.76 1322.35C2619.6 1077.56 2502.17 702.921 2211.48 485.562C1920.78 268.204 1566.9 290.439 1421.06 535.226C1275.22 780.014 1392.65 1154.66 1683.34 1372.02C1974.04 1589.37 2327.92 1567.14 2473.76 1322.35Z" fill="url(#paint30_linear_4419_103508)" fill-opacity="0.8"/>
</g>
</g>
</g>
<defs>
<filter id="filter0_f_4419_103508" x="-1055.84" y="17.5139" width="2480.79" height="2410.12" filterUnits="userSpaceOnUse" color-interpolation-filters="sRGB">
<feFlood flood-opacity="0" result="BackgroundImageFix"/>
<feBlend mode="normal" in="SourceGraphic" in2="BackgroundImageFix" result="shape"/>
<feGaussianBlur stdDeviation="294" result="effect1_foregroundBlur_4419_103508"/>
</filter>
<filter id="filter1_f_4419_103508" x="-921.838" y="151.514" width="2212.79" height="2142.12" filterUnits="userSpaceOnUse" color-interpolation-filters="sRGB">
<feFlood flood-opacity="0" result="BackgroundImageFix"/>
<feBlend mode="normal" in="SourceGraphic" in2="BackgroundImageFix" result="shape"/>
<feGaussianBlur stdDeviation="227" result="effect1_foregroundBlur_4419_103508"/>
</filter>
<filter id="filter2_f_4419_103508" x="904.408" y="-117.958" width="2086" height="2093.49" filterUnits="userSpaceOnUse" color-interpolation-filters="sRGB">
<feFlood flood-opacity="0" result="BackgroundImageFix"/>
<feBlend mode="normal" in="SourceGraphic" in2="BackgroundImageFix" result="shape"/>
<feGaussianBlur stdDeviation="227" result="effect1_foregroundBlur_4419_103508"/>
</filter>
<linearGradient id="paint0_linear_4419_103508" x1="780.5" y1="654.5" x2="1621.89" y2="1744.99" gradientUnits="userSpaceOnUse">
<stop/>
<stop offset="1" stop-color="#001768"/>
</linearGradient>
<linearGradient id="paint1_linear_4419_103508" x1="960" y1="0" x2="960" y2="1309" gradientUnits="userSpaceOnUse">
<stop/>
<stop offset="1" stop-opacity="0"/>
</linearGradient>
<linearGradient id="paint2_linear_4419_103508" x1="-511" y1="231" x2="478.867" y2="2010.96" gradientUnits="userSpaceOnUse">
<stop offset="0.00225508" stop-color="#32C5FF"/>
<stop offset="1" stop-color="#8C20E0"/>
</linearGradient>
<linearGradient id="paint3_linear_4419_103508" x1="1007" y1="1309" x2="1265.5" y2="-44" gradientUnits="userSpaceOnUse">
<stop/>
<stop offset="0.777242" stop-opacity="0.762487"/>
<stop offset="1" stop-opacity="0"/>
</linearGradient>
<linearGradient id="paint4_linear_4419_103508" x1="923.992" y1="94.138" x2="1993.3" y2="599.52" gradientUnits="userSpaceOnUse">
<stop stop-color="white" stop-opacity="0"/>
<stop offset="1" stop-color="#94ACFF"/>
</linearGradient>
<linearGradient id="paint5_linear_4419_103508" x1="923.992" y1="94.1381" x2="1993.3" y2="599.52" gradientUnits="userSpaceOnUse">
<stop stop-color="white" stop-opacity="0"/>
<stop offset="1" stop-color="#94ACFF"/>
</linearGradient>
<linearGradient id="paint6_linear_4419_103508" x1="923.992" y1="94.1381" x2="1993.3" y2="599.52" gradientUnits="userSpaceOnUse">
<stop stop-color="white" stop-opacity="0"/>
<stop offset="1" stop-color="#94ACFF"/>
</linearGradient>
<linearGradient id="paint7_linear_4419_103508" x1="923.992" y1="94.1382" x2="1993.3" y2="599.52" gradientUnits="userSpaceOnUse">
<stop stop-color="white" stop-opacity="0"/>
<stop offset="1" stop-color="#94ACFF"/>
</linearGradient>
<linearGradient id="paint8_linear_4419_103508" x1="923.992" y1="94.138" x2="1993.3" y2="599.52" gradientUnits="userSpaceOnUse">
<stop stop-color="white" stop-opacity="0"/>
<stop offset="1" stop-color="#94ACFF"/>
</linearGradient>
<linearGradient id="paint9_linear_4419_103508" x1="923.992" y1="94.138" x2="1993.3" y2="599.52" gradientUnits="userSpaceOnUse">
<stop stop-color="white" stop-opacity="0"/>
<stop offset="1" stop-color="#94ACFF"/>
</linearGradient>
<linearGradient id="paint10_linear_4419_103508" x1="923.992" y1="94.1379" x2="1993.3" y2="599.52" gradientUnits="userSpaceOnUse">
<stop stop-color="white" stop-opacity="0"/>
<stop offset="1" stop-color="#94ACFF"/>
</linearGradient>
<linearGradient id="paint11_linear_4419_103508" x1="923.992" y1="94.1379" x2="1993.3" y2="599.52" gradientUnits="userSpaceOnUse">
<stop stop-color="white" stop-opacity="0"/>
<stop offset="1" stop-color="#94ACFF"/>
</linearGradient>
<linearGradient id="paint12_linear_4419_103508" x1="923.992" y1="94.1379" x2="1993.3" y2="599.52" gradientUnits="userSpaceOnUse">
<stop stop-color="white" stop-opacity="0"/>
<stop offset="1" stop-color="#94ACFF"/>
</linearGradient>
<linearGradient id="paint13_linear_4419_103508" x1="923.992" y1="94.1379" x2="1993.3" y2="599.52" gradientUnits="userSpaceOnUse">
<stop stop-color="white" stop-opacity="0"/>
<stop offset="1" stop-color="#94ACFF"/>
</linearGradient>
<linearGradient id="paint14_linear_4419_103508" x1="923.992" y1="94.1381" x2="1993.3" y2="599.52" gradientUnits="userSpaceOnUse">
<stop stop-color="white" stop-opacity="0"/>
<stop offset="1" stop-color="#94ACFF"/>
</linearGradient>
<linearGradient id="paint15_linear_4419_103508" x1="923.992" y1="94.1379" x2="1993.3" y2="599.52" gradientUnits="userSpaceOnUse">
<stop stop-color="white" stop-opacity="0"/>
<stop offset="1" stop-color="#94ACFF"/>
</linearGradient>
<linearGradient id="paint16_linear_4419_103508" x1="923.992" y1="94.1381" x2="1993.3" y2="599.52" gradientUnits="userSpaceOnUse">
<stop stop-color="white" stop-opacity="0"/>
<stop offset="1" stop-color="#94ACFF"/>
</linearGradient>
<linearGradient id="paint17_linear_4419_103508" x1="923.992" y1="94.1382" x2="1993.3" y2="599.52" gradientUnits="userSpaceOnUse">
<stop stop-color="white" stop-opacity="0"/>
<stop offset="1" stop-color="#94ACFF"/>
</linearGradient>
<linearGradient id="paint18_linear_4419_103508" x1="923.992" y1="94.138" x2="1993.3" y2="599.52" gradientUnits="userSpaceOnUse">
<stop stop-color="white" stop-opacity="0"/>
<stop offset="1" stop-color="#94ACFF"/>
</linearGradient>
<linearGradient id="paint19_linear_4419_103508" x1="923.992" y1="94.138" x2="1993.3" y2="599.52" gradientUnits="userSpaceOnUse">
<stop stop-color="white" stop-opacity="0"/>
<stop offset="1" stop-color="#94ACFF"/>
</linearGradient>
<linearGradient id="paint20_linear_4419_103508" x1="923.992" y1="94.1381" x2="1993.3" y2="599.52" gradientUnits="userSpaceOnUse">
<stop stop-color="white" stop-opacity="0"/>
<stop offset="1" stop-color="#94ACFF"/>
</linearGradient>
<linearGradient id="paint21_linear_4419_103508" x1="923.992" y1="94.138" x2="1993.3" y2="599.52" gradientUnits="userSpaceOnUse">
<stop stop-color="white" stop-opacity="0"/>
<stop offset="1" stop-color="#94ACFF"/>
</linearGradient>
<linearGradient id="paint22_linear_4419_103508" x1="923.992" y1="94.138" x2="1993.3" y2="599.52" gradientUnits="userSpaceOnUse">
<stop stop-color="white" stop-opacity="0"/>
<stop offset="1" stop-color="#94ACFF"/>
</linearGradient>
<linearGradient id="paint23_linear_4419_103508" x1="923.992" y1="94.138" x2="1993.3" y2="599.52" gradientUnits="userSpaceOnUse">
<stop stop-color="white" stop-opacity="0"/>
<stop offset="1" stop-color="#94ACFF"/>
</linearGradient>
<linearGradient id="paint24_linear_4419_103508" x1="923.992" y1="94.138" x2="1993.3" y2="599.52" gradientUnits="userSpaceOnUse">
<stop stop-color="white" stop-opacity="0"/>
<stop offset="1" stop-color="#94ACFF"/>
</linearGradient>
<linearGradient id="paint25_linear_4419_103508" x1="923.992" y1="94.1381" x2="1993.3" y2="599.52" gradientUnits="userSpaceOnUse">
<stop stop-color="white" stop-opacity="0"/>
<stop offset="1" stop-color="#94ACFF"/>
</linearGradient>
<linearGradient id="paint26_linear_4419_103508" x1="923.992" y1="94.138" x2="1993.3" y2="599.52" gradientUnits="userSpaceOnUse">
<stop stop-color="white" stop-opacity="0"/>
<stop offset="1" stop-color="#94ACFF"/>
</linearGradient>
<linearGradient id="paint27_linear_4419_103508" x1="923.992" y1="94.1381" x2="1993.3" y2="599.52" gradientUnits="userSpaceOnUse">
<stop stop-color="white" stop-opacity="0"/>
<stop offset="1" stop-color="#94ACFF"/>
</linearGradient>
<linearGradient id="paint28_linear_4419_103508" x1="923.992" y1="94.138" x2="1993.3" y2="599.52" gradientUnits="userSpaceOnUse">
<stop stop-color="white" stop-opacity="0"/>
<stop offset="1" stop-color="#94ACFF"/>
</linearGradient>
<linearGradient id="paint29_linear_4419_103508" x1="923.992" y1="94.1381" x2="1993.3" y2="599.52" gradientUnits="userSpaceOnUse">
<stop stop-color="white" stop-opacity="0"/>
<stop offset="1" stop-color="#94ACFF"/>
</linearGradient>
<linearGradient id="paint30_linear_4419_103508" x1="2099.5" y1="457" x2="1482.18" y2="1625.62" gradientUnits="userSpaceOnUse">
<stop offset="0.00225508" stop-color="#32C5FF"/>
<stop offset="0.607592" stop-color="#8C20E0"/>
</linearGradient>
<clipPath id="clip0_4419_103508">
<rect width="1921" height="1309" fill="white"/>
</clipPath>
</defs>
</svg>
