<?xml version="1.0" encoding="utf-8"?>
<!-- Generator: Adobe Illustrator 27.0.0, SVG Export Plug-In . SVG Version: 6.00 Build 0)  -->
<svg version="1.1" id="Layer_1" xmlns="http://www.w3.org/2000/svg" xmlns:xlink="http://www.w3.org/1999/xlink" x="0px" y="0px"
	 viewBox="0 0 16 16" style="enable-background:new 0 0 16 16;" xml:space="preserve">
<style type="text/css">
	.st0{fill-rule:evenodd;clip-rule:evenodd;fill:#FFFFFF;}
</style>
<path class="st0" d="M1,8c0,3.9,3.1,7,7,7s7-3.1,7-7s-3.1-7-7-7S1,4.1,1,8z M16,8c0,4.4-3.6,8-8,8s-8-3.6-8-8s3.6-8,8-8S16,3.6,16,8
	z M4.5,7.5C4.2,7.5,4,7.7,4,8c0,0.3,0.2,0.5,0.5,0.5h5.8l-2.1,2.1c-0.2,0.2-0.2,0.5,0,0.7s0.5,0.2,0.7,0l3-3c0.2-0.2,0.2-0.5,0-0.7
	c0,0,0,0,0,0l-3-3c-0.2-0.2-0.5-0.2-0.7,0S8,5.2,8.1,5.4l2.1,2.1H4.5z"/>
</svg>
