<svg width="62" height="63" viewBox="0 0 62 63" fill="none" xmlns="http://www.w3.org/2000/svg">
<path fill-rule="evenodd" clip-rule="evenodd" d="M34.4793 2.68664C34.6049 1.71318 35.4338 0.984375 36.4153 0.984375V0.984375C37.5926 0.984375 38.502 2.01866 38.3513 3.18625L30.9821 60.298C30.8565 61.2714 30.0276 62.0002 29.0461 62.0002V62.0002C27.8688 62.0002 26.9594 60.966 27.11 59.7984L34.4793 2.68664Z" fill="white"/>
<mask id="mask0_1551_6748" style="mask-type:alpha" maskUnits="userSpaceOnUse" x="0" y="0" width="31" height="63">
<path d="M0.0492117 0L30.5917 0L22.6349 62.9841H0L0.0492117 0Z" fill="white"/>
</mask>
<g mask="url(#mask0_1551_6748)">
<path d="M26.5215 46.8721H20.7819C18.8983 46.8721 17.3713 48.399 17.3713 50.2826C17.3713 52.1662 18.8983 53.6931 20.7819 53.6931H26.5215C28.4051 53.6931 29.9321 52.1662 29.9321 50.2826C29.9321 48.399 28.4051 46.8721 26.5215 46.8721Z" fill="#5E89FF"/>
<path d="M11.59 52.6948C12.9453 52.6948 14.0439 51.6147 14.0439 50.2824C14.0439 48.9502 12.9453 47.8701 11.59 47.8701C10.2348 47.8701 9.13611 48.9502 9.13611 50.2824C9.13611 51.6147 10.2348 52.6948 11.59 52.6948Z" fill="#5E89FF"/>
<path d="M14.0855 43.2958C15.6245 43.2958 16.8721 42.0668 16.8721 40.5507C16.8721 39.0347 15.6245 37.8057 14.0855 37.8057C12.5465 37.8057 11.2988 39.0347 11.2988 40.5507C11.2988 42.0668 12.5465 43.2958 14.0855 43.2958Z" fill="#285AE6"/>
<path d="M21.7384 43.2958C23.2775 43.2958 24.5251 42.0668 24.5251 40.5507C24.5251 39.0347 23.2775 37.8057 21.7384 37.8057C20.1994 37.8057 18.9518 39.0347 18.9518 40.5507C18.9518 42.0668 20.1994 43.2958 21.7384 43.2958Z" fill="#285AE6"/>
<path d="M6.43259 42.7139C7.60408 42.7139 8.55377 41.7828 8.55377 40.6343C8.55377 39.4858 7.60408 38.5547 6.43259 38.5547C5.26109 38.5547 4.3114 39.4858 4.3114 40.6343C4.3114 41.7828 5.26109 42.7139 6.43259 42.7139Z" fill="#5E89FF"/>
<path d="M12.1724 34.2283C14.033 34.2283 15.5413 32.7013 15.5413 30.8178C15.5413 28.9342 14.033 27.4072 12.1724 27.4072C10.3118 27.4072 8.80347 28.9342 8.80347 30.8178C8.80347 32.7013 10.3118 34.2283 12.1724 34.2283Z" fill="#5E89FF"/>
<path d="M3.10531 32.8975C4.27681 32.8975 5.2265 31.9664 5.2265 30.8179C5.2265 29.6693 4.27681 28.7383 3.10531 28.7383C1.93382 28.7383 0.984131 29.6693 0.984131 30.8179C0.984131 31.9664 1.93382 32.8975 3.10531 32.8975Z" fill="#5E89FF"/>
<path d="M27.8525 27.4072H22.1128C20.2292 27.4072 18.7023 28.9342 18.7023 30.8178C18.7023 32.7013 20.2292 34.2283 22.1128 34.2283H27.8525C29.7361 34.2283 31.263 32.7013 31.263 30.8178C31.263 28.9342 29.7361 27.4072 27.8525 27.4072Z" fill="#285AE6"/>
<path d="M16.2899 18.0908H11.7148C10.1987 18.0908 8.96973 19.3198 8.96973 20.8359C8.96973 22.3519 10.1987 23.5809 11.7148 23.5809H16.2899C17.8059 23.5809 19.035 22.3519 19.035 20.8359C19.035 19.3198 17.8059 18.0908 16.2899 18.0908Z" fill="#285AE6"/>
<path d="M3.52118 23.2485C4.87644 23.2485 5.9751 22.1684 5.9751 20.8362C5.9751 19.5039 4.87644 18.4238 3.52118 18.4238C2.16592 18.4238 1.06726 19.5039 1.06726 20.8362C1.06726 22.1684 2.16592 23.2485 3.52118 23.2485Z" fill="#5E89FF"/>
<path d="M24.5667 23.7477C26.1976 23.7477 27.5197 22.4442 27.5197 20.8362C27.5197 19.2283 26.1976 17.9248 24.5667 17.9248C22.9358 17.9248 21.6136 19.2283 21.6136 20.8362C21.6136 22.4442 22.9358 23.7477 24.5667 23.7477Z" fill="#285AE6"/>
<path d="M10.0096 14.0151C11.3648 14.0151 12.4635 12.935 12.4635 11.6028C12.4635 10.2705 11.3648 9.19043 10.0096 9.19043C8.65432 9.19043 7.55566 10.2705 7.55566 11.6028C7.55566 12.935 8.65432 14.0151 10.0096 14.0151Z" fill="#5E89FF"/>
<path d="M23.3606 8.85742H18.7855C17.2694 8.85742 16.0404 10.0864 16.0404 11.6025C16.0404 13.1185 17.2694 14.3475 18.7855 14.3475H23.3606C24.8766 14.3475 26.1056 13.1185 26.1056 11.6025C26.1056 10.0864 24.8766 8.85742 23.3606 8.85742Z" fill="#5E89FF"/>
</g>
<path d="M62.0001 17.0363C62.0001 17.1945 61.995 17.3517 61.9849 17.508L62.0001 17.508V45.809L61.9849 45.809C61.5276 52.8882 50.8009 57.9649 37.83 58.0711L37.415 58.0728C37.115 58.0728 36.8162 58.0702 36.5187 58.0649L36.9853 54.2973C36.9942 54.2974 37.0031 54.2975 37.0119 54.2976L37.415 54.2993C48.9973 54.2993 58.1436 49.9198 58.1436 45.3373C58.1436 44.6772 57.9511 44.0082 57.56 43.3396L57.4503 43.4189C53.0459 46.5966 45.869 48.5716 37.83 48.6374L37.6849 48.6381L38.1528 44.8597C49.3833 44.6787 58.1436 40.3884 58.1436 35.9037C58.1436 35.2438 57.9513 34.5752 57.5606 33.9069L57.5411 33.9192C53.3313 36.9992 46.5318 38.9655 38.8549 39.1849L39.3241 35.392C49.9866 34.9441 58.1436 30.7976 58.1436 26.47C58.1436 25.8101 57.9513 25.1415 57.5606 24.4732L57.5411 24.4855C53.5471 27.4077 47.2218 29.3274 40.0279 29.7038L40.4991 25.8935C50.58 25.2028 58.1436 21.2035 58.1436 17.0363C58.1436 13.1734 51.6444 9.45479 42.6653 8.38212L43.1289 4.63184C53.8746 5.90272 62.0001 10.7162 62.0001 17.0363Z" fill="white"/>
</svg>
