<svg width="66" height="58" viewBox="0 0 66 58" fill="none" xmlns="http://www.w3.org/2000/svg">
<path fill-rule="evenodd" clip-rule="evenodd" d="M52.4377 2C56.5779 2 58.1053 2.36549 59.6259 3.17871C61.0034 3.91544 62.0846 4.99655 62.8213 6.37411C63.6345 7.8947 64 9.42211 64 13.5623V36.1107C64 40.2509 63.6345 41.7783 62.8213 43.2989C62.0846 44.6765 61.0034 45.7576 59.6259 46.4943C58.1053 47.3075 56.5779 47.673 52.4377 47.673H13.5623C9.42211 47.673 7.8947 47.3075 6.37411 46.4943C4.99655 45.7576 3.91544 44.6765 3.17871 43.2989C2.36549 41.7783 2 40.2509 2 36.1107V13.5623C2 9.42211 2.36549 7.8947 3.17871 6.37411C3.91544 4.99655 4.99655 3.91544 6.37411 3.17871C7.8947 2.36549 9.42211 2 13.5623 2H52.4377Z" stroke="white" stroke-width="3.85559"/>
<mask id="mask0_1543_5324" style="mask-type:alpha" maskUnits="userSpaceOnUse" x="6" y="6" width="54" height="38">
<path fill-rule="evenodd" clip-rule="evenodd" d="M40.6548 38.9997C46.0027 34.4209 48.7142 29.385 48.7142 24.0317V13.1624C48.7142 12.2894 48.083 11.543 47.2136 11.3875C42.5593 10.5556 38.3374 8.20939 35.9501 6.66699H54.3868C56.1258 6.66699 56.7564 6.84806 57.3922 7.18807C58.028 7.52807 58.5269 8.02702 58.8669 8.66278C59.2069 9.29853 59.388 9.92914 59.388 11.6682V38.0054C59.388 39.7444 59.2069 40.375 58.8669 41.0108C58.5269 41.6465 58.028 42.1455 57.3922 42.4855C56.7564 42.8255 56.1258 43.0066 54.3868 43.0066H34.9966C36.5637 42.0877 38.6194 40.7423 40.6548 38.9997ZM31.0047 43.0066H11.6155C9.87653 43.0066 9.24592 42.8255 8.61016 42.4855C7.97441 42.1455 7.47546 41.6465 7.13545 41.0108C6.79545 40.375 6.61438 39.7444 6.61438 38.0054V11.6682C6.61438 9.92914 6.79545 9.29853 7.13545 8.66278C7.47546 8.02702 7.97441 7.52807 8.61016 7.18807C9.24592 6.84806 9.87653 6.66699 11.6155 6.66699H30.0485C27.6613 8.20939 23.4394 10.5555 18.7852 11.3874C17.9157 11.5428 17.2846 12.2893 17.2846 13.1623V24.0318C17.2846 33.7004 26.3282 40.2609 31.0047 43.0066Z" fill="#C4C4C4"/>
</mask>
<g mask="url(#mask0_1543_5324)">
<path d="M15.5158 29.1016H11.0483C9.55577 29.1016 8.34583 30.3115 8.34583 31.8041C8.34583 33.2966 9.55577 34.5065 11.0483 34.5065H15.5158C17.0083 34.5065 18.2183 33.2966 18.2183 31.8041C18.2183 30.3115 17.0083 29.1016 15.5158 29.1016Z" fill="#A560FF"/>
<path d="M23.8998 12.2253C25.3923 12.2253 26.6023 11.0154 26.6023 9.52281C26.6023 8.03026 25.3923 6.82031 23.8998 6.82031C22.4072 6.82031 21.1973 8.03026 21.1973 9.52281C21.1973 11.0154 22.4072 12.2253 23.8998 12.2253Z" fill="#C294FF"/>
<path d="M16.0667 6.54395H11.5992C10.1067 6.54395 8.89673 7.75389 8.89673 9.24644C8.89673 10.739 10.1067 11.9489 11.5992 11.9489H16.0667C17.5592 11.9489 18.7692 10.739 18.7692 9.24644C18.7692 7.75389 17.5592 6.54395 16.0667 6.54395Z" fill="#A560FF"/>
<path d="M16.1769 19.6706C17.6694 19.6706 18.8794 18.4607 18.8794 16.9681C18.8794 15.4756 17.6694 14.2656 16.1769 14.2656C14.6843 14.2656 13.4744 15.4756 13.4744 16.9681C13.4744 18.4607 14.6843 19.6706 16.1769 19.6706Z" fill="#C294FF"/>
<path d="M7.46437 14.8174H3.87891C2.69101 14.8174 1.72803 15.7804 1.72803 16.9683C1.72803 18.1562 2.69101 19.1192 3.87891 19.1192H7.46437C8.65227 19.1192 9.61525 18.1562 9.61525 16.9683C9.61525 15.7804 8.65227 14.8174 7.46437 14.8174Z" fill="#A560FF"/>
<path d="M28.8618 14.2656H24.3944C22.9018 14.2656 21.6919 15.4756 21.6919 16.9681C21.6919 18.4607 22.9018 19.6706 24.3944 19.6706H28.8618C30.3544 19.6706 31.5643 18.4607 31.5643 16.9681C31.5643 15.4756 30.3544 14.2656 28.8618 14.2656Z" fill="#8A30FF"/>
<path d="M10.5841 27.1159C12.0766 27.1159 13.2866 25.906 13.2866 24.4134C13.2866 22.9209 12.0766 21.7109 10.5841 21.7109C9.09154 21.7109 7.88159 22.9209 7.88159 24.4134C7.88159 25.906 9.09154 27.1159 10.5841 27.1159Z" fill="#C294FF"/>
<path d="M23.215 21.7109H18.7475C17.255 21.7109 16.045 22.9209 16.045 24.4134C16.045 25.906 17.255 27.1159 18.7475 27.1159H23.215C24.7075 27.1159 25.9175 25.906 25.9175 24.4134C25.9175 22.9209 24.7075 21.7109 23.215 21.7109Z" fill="#A560FF"/>
<path d="M8.01487 41.9519C9.50742 41.9519 10.7174 40.7419 10.7174 39.2494C10.7174 37.7568 9.50742 36.5469 8.01487 36.5469C6.52232 36.5469 5.31238 37.7568 5.31238 39.2494C5.31238 40.7419 6.52232 41.9519 8.01487 41.9519Z" fill="#A560FF"/>
<path d="M20.4345 36.5469H15.967C14.4745 36.5469 13.2645 37.7568 13.2645 39.2494C13.2645 40.7419 14.4745 41.9519 15.967 41.9519H20.4345C21.927 41.9519 23.137 40.7419 23.137 39.2494C23.137 37.7568 21.927 36.5469 20.4345 36.5469Z" fill="#C294FF"/>
<path d="M45.8368 12.1465H50.3042C51.7968 12.1465 53.0067 10.9365 53.0067 9.44399C53.0067 7.95144 51.7968 6.7415 50.3042 6.7415L45.8368 6.7415C44.3442 6.7415 43.1343 7.95144 43.1343 9.44399C43.1343 10.9365 44.3442 12.1465 45.8368 12.1465Z" fill="#C294FF"/>
<path d="M38.1162 6.7415C36.6237 6.7415 35.4137 7.95144 35.4137 9.44399C35.4137 10.9365 36.6237 12.1465 38.1162 12.1465C39.6088 12.1465 40.8187 10.9365 40.8187 9.44399C40.8187 7.95144 39.6088 6.7415 38.1162 6.7415Z" fill="#A560FF"/>
<path d="M58.0272 6.7415C56.5347 6.7415 55.3248 7.95144 55.3248 9.44399C55.3248 10.9365 56.5347 12.1465 58.0272 12.1465C59.5198 12.1465 60.7297 10.9365 60.7297 9.44399C60.7297 7.95144 59.5198 6.7415 58.0272 6.7415Z" fill="#A560FF"/>
<path d="M52.8651 41.5439H56.4506C57.6385 41.5439 58.6014 40.581 58.6014 39.3931C58.6014 38.2052 57.6385 37.2422 56.4506 37.2422H52.8651C51.6772 37.2422 50.7142 38.2052 50.7142 39.3931C50.7142 40.581 51.6772 41.5439 52.8651 41.5439Z" fill="#A560FF"/>
<path d="M45.4649 36.6907C43.9723 36.6907 42.7624 37.9007 42.7624 39.3932C42.7624 40.8858 43.9723 42.0957 45.4649 42.0957C46.9574 42.0957 48.1674 40.8858 48.1674 39.3932C48.1674 37.9007 46.9574 36.6907 45.4649 36.6907Z" fill="#C294FF"/>
<path d="M37.5141 36.6907C36.0215 36.6907 34.8116 37.9007 34.8116 39.3932C34.8116 40.8858 36.0215 42.0957 37.5141 42.0957C39.0066 42.0957 40.2166 40.8858 40.2166 39.3932C40.2166 37.9007 39.0066 36.6907 37.5141 36.6907Z" fill="#A560FF"/>
<path d="M28.3833 36.6907C26.8908 36.6907 25.6808 37.9007 25.6808 39.3932C25.6808 40.8858 26.8908 42.0957 28.3833 42.0957C29.8759 42.0957 31.0858 40.8858 31.0858 39.3932C31.0858 37.9007 29.8759 36.6907 28.3833 36.6907Z" fill="#C294FF"/>
<path d="M57.5861 29.2991C56.0935 29.2991 54.8836 30.5091 54.8836 32.0016C54.8836 33.4942 56.0935 34.7041 57.5861 34.7041C59.0786 34.7041 60.2886 33.4942 60.2886 32.0016C60.2886 30.5091 59.0786 29.2991 57.5861 29.2991Z" fill="#A560FF"/>
<path d="M37.4546 29.0237C35.9621 29.0237 34.7521 30.2337 34.7521 31.7262C34.7521 33.2188 35.9621 34.4287 37.4546 34.4287C38.9472 34.4287 40.1571 33.2188 40.1571 31.7262C40.1571 30.2337 38.9472 29.0237 37.4546 29.0237Z" fill="#8A30FF"/>
<path d="M45.2858 34.7041H49.7532C51.2457 34.7041 52.4557 33.4942 52.4557 32.0016C52.4557 30.5091 51.2457 29.2991 49.7532 29.2991H45.2858C43.7932 29.2991 42.5833 30.5091 42.5833 32.0016C42.5833 33.4942 43.7932 34.7041 45.2858 34.7041Z" fill="#C294FF"/>
<path d="M45.1742 21.5774C43.6817 21.5774 42.4717 22.7874 42.4717 24.2799C42.4717 25.7725 43.6817 26.9824 45.1742 26.9824C46.6668 26.9824 47.8767 25.7725 47.8767 24.2799C47.8767 22.7874 46.6668 21.5774 45.1742 21.5774Z" fill="#8A30FF"/>
<path d="M52.0309 26.4316H55.6163C56.8042 26.4316 57.7672 25.4687 57.7672 24.2808C57.7672 23.0929 56.8042 22.1299 55.6163 22.1299H52.0309C50.843 22.1299 49.88 23.0929 49.88 24.2808C49.88 25.4687 50.843 26.4316 52.0309 26.4316Z" fill="#C294FF"/>
<path d="M32.49 26.9824H36.9574C38.45 26.9824 39.6599 25.7725 39.6599 24.2799C39.6599 22.7874 38.45 21.5774 36.9574 21.5774H32.49C30.9974 21.5774 29.7875 22.7874 29.7875 24.2799C29.7875 25.7725 30.9974 26.9824 32.49 26.9824Z" fill="#8A30FF"/>
<path d="M57.2544 14.6836C56.0665 14.6836 55.1035 15.6466 55.1035 16.8345C55.1035 18.0224 56.0665 18.9854 57.2544 18.9854C58.4423 18.9854 59.4053 18.0224 59.4053 16.8345C59.4053 15.6466 58.4423 14.6836 57.2544 14.6836Z" fill="#C294FF"/>
<path d="M49.5877 14.1321C48.0951 14.1321 46.8852 15.3421 46.8852 16.8346C46.8852 18.3272 48.0951 19.5371 49.5877 19.5371C51.0802 19.5371 52.2902 18.3272 52.2902 16.8346C52.2902 15.3421 51.0802 14.1321 49.5877 14.1321Z" fill="#A560FF"/>
<path d="M36.9582 19.5371H41.4257C42.9182 19.5371 44.1282 18.3272 44.1282 16.8346C44.1282 15.3421 42.9182 14.1321 41.4257 14.1321H36.9582C35.4657 14.1321 34.2557 15.3421 34.2557 16.8346C34.2557 18.3272 35.4657 19.5371 36.9582 19.5371Z" fill="#8A30FF"/>
</g>
<path d="M33.0016 8.91699C33.7109 8.91699 34.3992 9.12745 34.9921 9.52559C36.8515 10.7737 40.5915 12.9788 44.7489 13.7219C45.4674 13.8504 45.989 14.4672 45.989 15.1888V24.1717C45.989 28.5959 43.7481 32.7577 39.3284 36.5419C36.7592 38.7415 34.1509 40.1753 33.0017 40.7572C30.3603 39.4186 20.0142 33.5731 20.0142 24.1717V15.1886C20.0142 14.4671 20.5357 13.8502 21.2543 13.7218C25.4117 12.9787 29.1518 10.7737 31.0111 9.52551C31.604 9.12745 32.2924 8.91699 33.0016 8.91699ZM40.3218 17.0777L30.6897 27.8504L25.5875 23.0863L23.547 25.26L30.8821 32.1093L42.5501 19.0596L40.3218 17.0777Z" fill="white"/>
<path d="M20.614 55.0977H45.2587" stroke="white" stroke-width="3.85559" stroke-linecap="round"/>
</svg>
