<svg width="66" height="57" viewBox="0 0 66 57" fill="none" xmlns="http://www.w3.org/2000/svg">
<path fill-rule="evenodd" clip-rule="evenodd" d="M52.4377 2C56.5779 2 58.1053 2.36549 59.6259 3.17871C61.0034 3.91544 62.0846 4.99655 62.8213 6.37411C63.6345 7.8947 64 9.42211 64 13.5623V36.1107C64 40.2509 63.6345 41.7783 62.8213 43.2989C62.0846 44.6765 61.0034 45.7576 59.6259 46.4943C58.1053 47.3075 56.5779 47.673 52.4377 47.673H13.5623C9.42211 47.673 7.8947 47.3075 6.37411 46.4943C4.99655 45.7576 3.91544 44.6765 3.17871 43.2989C2.36549 41.7783 2 40.2509 2 36.1107V13.5623C2 9.42211 2.36549 7.8947 3.17871 6.37411C3.91544 4.99655 4.99655 3.91544 6.37411 3.17871C7.8947 2.36549 9.42211 2 13.5623 2H52.4377Z" stroke="#212121" stroke-width="3.26761"/>
<mask id="mask0_1492_4509" style="mask-type:alpha" maskUnits="userSpaceOnUse" x="6" y="6" width="54" height="38">
<path fill-rule="evenodd" clip-rule="evenodd" d="M40.655 38.9996C46.0029 34.4208 48.7144 29.385 48.7144 24.0317V13.1624C48.7144 12.2893 48.0832 11.5429 47.2138 11.3875C42.5596 10.5555 38.3377 8.20939 35.9504 6.66699H54.3869C56.126 6.66699 56.7566 6.84806 57.3923 7.18807C58.0281 7.52807 58.527 8.02702 58.867 8.66278C59.207 9.29853 59.3881 9.92914 59.3881 11.6682V38.0054C59.3881 39.7444 59.207 40.375 58.867 41.0108C58.527 41.6465 58.0281 42.1455 57.3923 42.4855C56.7566 42.8255 56.126 43.0066 54.3869 43.0066H34.9967C36.5639 42.0877 38.6196 40.7423 40.655 38.9996ZM31.005 43.0066H11.6157C9.87665 43.0066 9.24604 42.8255 8.61029 42.4855C7.97453 42.1455 7.47558 41.6465 7.13558 41.0108C6.79557 40.375 6.6145 39.7444 6.6145 38.0054V11.6682C6.6145 9.92914 6.79557 9.29853 7.13558 8.66278C7.47558 8.02702 7.97453 7.52807 8.61029 7.18807C9.24604 6.84806 9.87665 6.66699 11.6157 6.66699H30.0487C27.6615 8.20939 23.4396 10.5555 18.7854 11.3873C17.9159 11.5427 17.2848 12.2892 17.2848 13.1622V24.0318C17.2848 33.7004 26.3285 40.2609 31.005 43.0066Z" fill="#C4C4C4"/>
</mask>
<g mask="url(#mask0_1492_4509)">
<path d="M15.516 29.1016H11.0486C9.55602 29.1016 8.34607 30.3115 8.34607 31.8041C8.34607 33.2966 9.55602 34.5065 11.0486 34.5065H15.516C17.0086 34.5065 18.2185 33.2966 18.2185 31.8041C18.2185 30.3115 17.0086 29.1016 15.516 29.1016Z" fill="#A560FF"/>
<path d="M23.9 12.2253C25.3925 12.2253 26.6025 11.0154 26.6025 9.52281C26.6025 8.03026 25.3925 6.82031 23.9 6.82031C22.4075 6.82031 21.1975 8.03026 21.1975 9.52281C21.1975 11.0154 22.4075 12.2253 23.9 12.2253Z" fill="#C294FF"/>
<path d="M16.0669 6.54395H11.5995C10.1069 6.54395 8.89697 7.75389 8.89697 9.24644C8.89697 10.739 10.1069 11.9489 11.5995 11.9489H16.0669C17.5595 11.9489 18.7694 10.739 18.7694 9.24644C18.7694 7.75389 17.5595 6.54395 16.0669 6.54395Z" fill="#A560FF"/>
<path d="M16.177 19.6706C17.6695 19.6706 18.8795 18.4607 18.8795 16.9681C18.8795 15.4756 17.6695 14.2656 16.177 14.2656C14.6844 14.2656 13.4745 15.4756 13.4745 16.9681C13.4745 18.4607 14.6844 19.6706 16.177 19.6706Z" fill="#C294FF"/>
<path d="M7.46473 14.8174H3.87928C2.69138 14.8174 1.72839 15.7804 1.72839 16.9683C1.72839 18.1562 2.69138 19.1192 3.87928 19.1192H7.46473C8.65263 19.1192 9.61562 18.1562 9.61562 16.9683C9.61562 15.7804 8.65263 14.8174 7.46473 14.8174Z" fill="#A560FF"/>
<path d="M28.862 14.2656H24.3945C22.902 14.2656 21.692 15.4756 21.692 16.9681C21.692 18.4607 22.902 19.6706 24.3945 19.6706H28.862C30.3545 19.6706 31.5644 18.4607 31.5644 16.9681C31.5644 15.4756 30.3545 14.2656 28.862 14.2656Z" fill="#8A30FF"/>
<path d="M10.5843 27.1159C12.0769 27.1159 13.2868 25.906 13.2868 24.4134C13.2868 22.9209 12.0769 21.7109 10.5843 21.7109C9.09178 21.7109 7.88184 22.9209 7.88184 24.4134C7.88184 25.906 9.09178 27.1159 10.5843 27.1159Z" fill="#C294FF"/>
<path d="M23.2152 21.7109H18.7478C17.2552 21.7109 16.0453 22.9209 16.0453 24.4134C16.0453 25.906 17.2552 27.1159 18.7478 27.1159H23.2152C24.7078 27.1159 25.9177 25.906 25.9177 24.4134C25.9177 22.9209 24.7078 21.7109 23.2152 21.7109Z" fill="#A560FF"/>
<path d="M8.01499 41.9519C9.50754 41.9519 10.7175 40.7419 10.7175 39.2494C10.7175 37.7568 9.50754 36.5469 8.01499 36.5469C6.52245 36.5469 5.3125 37.7568 5.3125 39.2494C5.3125 40.7419 6.52245 41.9519 8.01499 41.9519Z" fill="#A560FF"/>
<path d="M20.4347 36.5469H15.9673C14.4747 36.5469 13.2648 37.7568 13.2648 39.2494C13.2648 40.7419 14.4747 41.9519 15.9673 41.9519H20.4347C21.9273 41.9519 23.1372 40.7419 23.1372 39.2494C23.1372 37.7568 21.9273 36.5469 20.4347 36.5469Z" fill="#C294FF"/>
<path d="M45.8369 12.1465H50.3043C51.7969 12.1465 53.0068 10.9365 53.0068 9.44399C53.0068 7.95144 51.7969 6.7415 50.3043 6.7415L45.8369 6.7415C44.3444 6.7415 43.1344 7.95144 43.1344 9.44399C43.1344 10.9365 44.3444 12.1465 45.8369 12.1465Z" fill="#C294FF"/>
<path d="M38.1164 6.7415C36.6238 6.7415 35.4139 7.95144 35.4139 9.44399C35.4139 10.9365 36.6238 12.1465 38.1164 12.1465C39.6089 12.1465 40.8188 10.9365 40.8188 9.44399C40.8188 7.95144 39.6089 6.7415 38.1164 6.7415Z" fill="#A560FF"/>
<path d="M58.0272 6.7415C56.5347 6.7415 55.3248 7.95144 55.3248 9.44399C55.3248 10.9365 56.5347 12.1465 58.0272 12.1465C59.5198 12.1465 60.7297 10.9365 60.7297 9.44399C60.7297 7.95144 59.5198 6.7415 58.0272 6.7415Z" fill="#A560FF"/>
<path d="M52.8652 41.5439H56.4507C57.6386 41.5439 58.6016 40.581 58.6016 39.3931C58.6016 38.2052 57.6386 37.2422 56.4507 37.2422H52.8652C51.6773 37.2422 50.7143 38.2052 50.7143 39.3931C50.7143 40.581 51.6773 41.5439 52.8652 41.5439Z" fill="#A560FF"/>
<path d="M45.4651 36.6907C43.9726 36.6907 42.7626 37.9007 42.7626 39.3932C42.7626 40.8858 43.9726 42.0957 45.4651 42.0957C46.9577 42.0957 48.1676 40.8858 48.1676 39.3932C48.1676 37.9007 46.9577 36.6907 45.4651 36.6907Z" fill="#C294FF"/>
<path d="M37.5143 36.6907C36.0218 36.6907 34.8118 37.9007 34.8118 39.3932C34.8118 40.8858 36.0218 42.0957 37.5143 42.0957C39.0068 42.0957 40.2168 40.8858 40.2168 39.3932C40.2168 37.9007 39.0068 36.6907 37.5143 36.6907Z" fill="#A560FF"/>
<path d="M28.3834 36.6907C26.8909 36.6907 25.681 37.9007 25.681 39.3932C25.681 40.8858 26.8909 42.0957 28.3834 42.0957C29.876 42.0957 31.0859 40.8858 31.0859 39.3932C31.0859 37.9007 29.876 36.6907 28.3834 36.6907Z" fill="#C294FF"/>
<path d="M57.5863 29.2991C56.0938 29.2991 54.8838 30.5091 54.8838 32.0016C54.8838 33.4942 56.0938 34.7041 57.5863 34.7041C59.0789 34.7041 60.2888 33.4942 60.2888 32.0016C60.2888 30.5091 59.0789 29.2991 57.5863 29.2991Z" fill="#A560FF"/>
<path d="M37.4547 29.0237C35.9622 29.0237 34.7522 30.2337 34.7522 31.7262C34.7522 33.2188 35.9622 34.4287 37.4547 34.4287C38.9473 34.4287 40.1572 33.2188 40.1572 31.7262C40.1572 30.2337 38.9473 29.0237 37.4547 29.0237Z" fill="#8A30FF"/>
<path d="M45.286 34.7041H49.7534C51.246 34.7041 52.4559 33.4942 52.4559 32.0016C52.4559 30.5091 51.246 29.2991 49.7534 29.2991H45.286C43.7935 29.2991 42.5835 30.5091 42.5835 32.0016C42.5835 33.4942 43.7935 34.7041 45.286 34.7041Z" fill="#C294FF"/>
<path d="M45.1745 21.5774C43.6819 21.5774 42.472 22.7874 42.472 24.2799C42.472 25.7725 43.6819 26.9824 45.1745 26.9824C46.667 26.9824 47.877 25.7725 47.877 24.2799C47.877 22.7874 46.667 21.5774 45.1745 21.5774Z" fill="#8A30FF"/>
<path d="M52.0312 26.4316H55.6167C56.8046 26.4316 57.7676 25.4687 57.7676 24.2808C57.7676 23.0929 56.8046 22.1299 55.6167 22.1299H52.0312C50.8433 22.1299 49.8804 23.0929 49.8804 24.2808C49.8804 25.4687 50.8433 26.4316 52.0312 26.4316Z" fill="#C294FF"/>
<path d="M32.4901 26.9824H36.9575C38.4501 26.9824 39.66 25.7725 39.66 24.2799C39.66 22.7874 38.4501 21.5774 36.9575 21.5774H32.4901C30.9976 21.5774 29.7876 22.7874 29.7876 24.2799C29.7876 25.7725 30.9976 26.9824 32.4901 26.9824Z" fill="#8A30FF"/>
<path d="M57.2545 14.6836C56.0666 14.6836 55.1036 15.6466 55.1036 16.8345C55.1036 18.0224 56.0666 18.9854 57.2545 18.9854C58.4424 18.9854 59.4054 18.0224 59.4054 16.8345C59.4054 15.6466 58.4424 14.6836 57.2545 14.6836Z" fill="#C294FF"/>
<path d="M49.5879 14.1321C48.0954 14.1321 46.8854 15.3421 46.8854 16.8346C46.8854 18.3272 48.0954 19.5371 49.5879 19.5371C51.0805 19.5371 52.2904 18.3272 52.2904 16.8346C52.2904 15.3421 51.0805 14.1321 49.5879 14.1321Z" fill="#A560FF"/>
<path d="M36.9584 19.5371H41.4258C42.9183 19.5371 44.1283 18.3272 44.1283 16.8346C44.1283 15.3421 42.9183 14.1321 41.4258 14.1321H36.9584C35.4658 14.1321 34.2559 15.3421 34.2559 16.8346C34.2559 18.3272 35.4658 19.5371 36.9584 19.5371Z" fill="#8A30FF"/>
</g>
<path d="M33.0016 8.91699C33.7109 8.91699 34.3992 9.12745 34.9921 9.52559C36.8515 10.7737 40.5915 12.9788 44.7489 13.7219C45.4674 13.8504 45.989 14.4672 45.989 15.1888V24.1717C45.989 28.5959 43.7481 32.7577 39.3284 36.5419C36.7592 38.7415 34.1509 40.1753 33.0017 40.7572C30.3603 39.4186 20.0142 33.5731 20.0142 24.1717V15.1886C20.0142 14.4671 20.5357 13.8502 21.2543 13.7218C25.4117 12.9787 29.1518 10.7737 31.0111 9.52551C31.604 9.12745 32.2924 8.91699 33.0016 8.91699ZM40.3218 17.0777L30.6897 27.8504L25.5875 23.0863L23.547 25.26L30.8821 32.1093L42.5501 19.0596L40.3218 17.0777Z" fill="#212121"/>
<path d="M20.614 55.0977H45.2587" stroke="#212121" stroke-width="3.26761" stroke-linecap="round"/>
</svg>
