<svg width="59" height="63" viewBox="0 0 59 63" fill="none" xmlns="http://www.w3.org/2000/svg">
<g clip-path="url(#clip0_1551_6915)">
<path d="M26.3947 0.25L26.8403 0.251859C41.0734 0.370726 52.7895 6.17713 52.7895 14.2C52.7895 14.3734 52.784 14.5458 52.7731 14.7172L52.7895 14.7167L52.7897 30.5588C50.6233 29.7012 48.268 29.2168 45.8034 29.185C47.6189 27.7617 48.6491 26.1592 48.6491 24.5333C48.6491 23.8102 48.4425 23.0775 48.0226 22.3451L47.8528 22.47C43.0383 25.9881 35.1737 28.15 26.3947 28.15C17.5121 28.15 9.56564 25.9367 4.76739 22.3449C4.3466 23.0778 4.14035 23.8096 4.14035 24.5333C4.14035 29.5529 13.9598 34.35 26.3947 34.35C28.6033 34.35 30.7293 34.1987 32.7325 33.9216C31.2234 35.2149 29.9138 36.7335 28.855 38.4245C28.0441 38.4641 27.2235 38.4833 26.3947 38.4833C17.5121 38.4833 9.56564 36.2701 4.76739 32.6782C4.3466 33.4111 4.14035 34.1429 4.14035 34.8667C4.14035 39.8278 13.7328 44.5717 25.962 44.6814L26.3137 44.6836C26.028 46.0148 25.8775 47.3962 25.8772 48.8125L26.3947 48.8167C17.5121 48.8167 9.56564 46.6034 4.76739 43.0115C4.3466 43.7444 4.14035 44.4762 4.14035 45.2C4.14035 50.1612 13.7328 54.9051 25.962 55.0147L26.3947 55.0167C26.5561 55.0167 26.7169 55.0159 26.8773 55.0143C27.3573 56.4563 28.0005 57.8243 28.785 59.0962C28.1433 59.1252 27.4945 59.1427 26.8403 59.1481L26.3947 59.15C12.2703 59.15 0.512962 53.5538 0.016333 45.7172L0 45.7167V14.7167L0.016333 14.7172C0.0054753 14.5458 0 14.3734 0 14.2C0 6.09356 11.9615 0.25 26.3947 0.25ZM26.3947 4.38333L25.962 4.38527C13.7328 4.49492 4.14035 9.23884 4.14035 14.2C4.14035 19.2195 13.9598 24.0167 26.3947 24.0167C38.8296 24.0167 48.6491 19.2195 48.6491 14.2C48.6491 9.18047 38.8296 4.38333 26.3947 4.38333Z" fill="white"/>
<path fill-rule="evenodd" clip-rule="evenodd" d="M45.5439 35.3838C52.9756 35.3838 59.0001 41.3981 59.0001 48.8171C59.0001 56.2361 52.9756 62.2505 45.5439 62.2505C38.1123 62.2505 32.0878 56.2361 32.0878 48.8171C32.0878 41.3981 38.1123 35.3838 45.5439 35.3838Z" fill="#285AE6"/>
</g>
<defs>
<clipPath id="clip0_1551_6915">
<rect width="59" height="62" fill="white" transform="translate(0 0.25)"/>
</clipPath>
</defs>
</svg>
