<svg width="62" height="60" viewBox="0 0 62 60" fill="none" xmlns="http://www.w3.org/2000/svg">
<path fill-rule="evenodd" clip-rule="evenodd" d="M35 0C35.9832 0 36.7802 0.797037 36.7802 1.78023C36.7802 1.84917 36.7762 1.91805 36.7682 1.98653L30.2317 58.0135C30.0996 59.146 29.1402 60 28 60C27.0168 60 26.2197 59.203 26.2197 58.2198C26.2197 58.1508 26.2237 58.0819 26.2317 58.0135L32.7682 1.98653C32.9003 0.854007 33.8598 0 35 0Z" fill="#212121"/>
<path d="M26 10C27.1046 10 28 10.8954 28 12C28 13.0544 27.1841 13.9182 26.1493 13.9945L26 14H6C4.94564 14 4.08183 14.8159 4.00549 15.8507L4 16V44C4 45.0544 4.81588 45.9182 5.85074 45.9945L6 46H21C22.1046 46 23 46.8954 23 48C23 49.0544 22.1841 49.9182 21.1493 49.9945L21 50H6C2.7616 50 0.122428 47.4344 0.00413847 44.2249L0 44V16C0 12.7616 2.56557 10.1224 5.77506 10.0041L6 10H26Z" fill="#212121"/>
<path d="M37 50C35.8954 50 35 49.1046 35 48C35 46.9456 35.8159 46.0818 36.8507 46.0055L37 46H56C57.0544 46 57.9182 45.1841 57.9945 44.1493L58 44V16C58 14.9456 57.1841 14.0818 56.1493 14.0055L56 14H41C39.8954 14 39 13.1046 39 12C39 10.9456 39.8159 10.0818 40.8507 10.0055L41 10H56C59.2384 10 61.8776 12.5656 61.9959 15.7751L62 16V44C62 47.2384 59.4344 49.8776 56.2249 49.9959L56 50H37Z" fill="#212121"/>
<path d="M9.92045 35.6279C11.6132 35.6279 12.8778 36.55 13.1277 38.172L13.152 38.3623H11.3764C11.2876 37.6343 10.7656 37.1691 9.96662 37.1691C8.90483 37.1691 8.26562 37.9752 8.26562 39.3637C8.26562 40.809 8.91903 41.5583 9.95596 41.5583C10.6752 41.5583 11.181 41.1964 11.3463 40.5794L11.3764 40.4433L13.152 40.4539C13.0206 41.743 11.9162 43.0995 9.92045 43.0995C7.94602 43.0995 6.4723 41.7572 6.4723 39.3637C6.4723 36.9596 7.98153 35.6279 9.92045 35.6279ZM18.9503 35.7274L21.4041 43.0001H19.5149L19.0355 41.4731H16.5249L16.0455 43.0001H14.1562L16.6101 35.7274H18.9503ZM23.7834 35.7269L22.8744 42.9999L22.6889 43.0001V35.7274L23.7834 35.7269ZM28.4844 40.9653C28.4844 41.4844 28.3043 41.9419 27.9645 42.291L28.246 40.0394C28.3965 40.2971 28.4844 40.6087 28.4844 40.9653ZM17.8068 37.5597H17.75L16.9439 40.1379H18.6165L17.8068 37.5597ZM17.0611 26.6279C18.7538 26.6279 20.0184 27.55 20.2683 29.172L20.2926 29.3623H18.517C18.4283 28.6343 17.9062 28.1691 17.1072 28.1691C16.0455 28.1691 15.4062 28.9752 15.4062 30.3637C15.4062 31.809 16.0597 32.5583 17.0966 32.5583C17.8158 32.5583 18.3216 32.1964 18.4869 31.5794L18.517 31.4433L20.2926 31.4539C20.1612 32.743 19.0568 34.0995 17.0611 34.0995C15.0866 34.0995 13.6129 32.7572 13.6129 30.3637C13.6129 27.9596 15.1222 26.6279 17.0611 26.6279ZM9.58309 26.7274C11.2166 26.7274 12.0618 27.4695 12.0618 28.5668C12.0618 29.3459 11.5686 29.9033 10.8486 30.1075L10.7017 30.1436V30.2146C11.5824 30.2536 12.3459 30.9141 12.3459 31.9653C12.3459 33.0917 11.4979 33.9279 10.0114 33.9956L9.81392 34.0001H6.55043V26.7274H9.58309ZM24.9084 26.7269L24.5394 29.6819L24.0845 31.1379L24.3574 31.1369L24.1904 32.4729L23.6655 32.4731L23.1861 34.0001H21.2969L23.7507 26.7274L24.9084 26.7269ZM9.42684 30.8502H8.30824V32.5832H9.39488C10.1548 32.5832 10.5099 32.2778 10.5099 31.7629C10.5099 31.2053 10.098 30.8502 9.42684 30.8502ZM9.30966 28.123H8.30824V29.7174H9.28125C9.85653 29.7174 10.2685 29.4191 10.2685 28.9078C10.2685 28.4248 9.89559 28.123 9.30966 28.123ZM25.2777 17.6279C25.5422 17.6279 25.7962 17.6504 26.0376 17.6946L25.8449 19.2454C25.6883 19.1954 25.5139 19.1691 25.3239 19.1691C24.2621 19.1691 23.6229 19.9752 23.6229 21.3637C23.6229 22.8053 24.2729 23.5544 25.3051 23.5583L25.1124 25.0959L25.0882 25.0953C23.2097 25.0118 21.8295 23.68 21.8295 21.3637C21.8295 18.9596 23.3388 17.6279 25.2777 17.6279ZM11.0284 17.7274L13.4822 25.0001H11.593L11.1136 23.4731H8.60298L8.12358 25.0001H6.23438L8.68821 17.7274H11.0284ZM17.7997 17.7274C19.4332 17.7274 20.2784 18.4695 20.2784 19.5668C20.2784 20.3459 19.7853 20.9033 19.0653 21.1075L18.9183 21.1436V21.2146C19.799 21.2536 20.5625 21.9141 20.5625 22.9653C20.5625 24.0917 19.7145 24.9279 18.228 24.9956L18.0305 25.0001H14.767V17.7274H17.7997ZM17.6435 21.8502H16.5249V23.5832H17.6115C18.3714 23.5832 18.7266 23.2778 18.7266 22.7629C18.7266 22.2053 18.3146 21.8502 17.6435 21.8502ZM9.88494 19.5597H9.82812L9.02201 22.1379H10.6946L9.88494 19.5597ZM17.5263 19.123H16.5249V20.7174H17.4979C18.0731 20.7174 18.4851 20.4191 18.4851 19.9078C18.4851 19.4248 18.1122 19.123 17.5263 19.123Z" fill="#285AE6"/>
<path d="M53.1832 35.9092L52.9978 38.2742L54.9666 36.9255L55.9062 38.5747L53.7712 39.591L55.9062 40.6073L54.9666 42.2565L52.9978 40.9078L53.1832 43.2728H51.2975L51.4829 40.9078L49.5141 42.2565L48.5745 40.6073L50.7095 39.591L48.5745 38.5747L49.5141 36.9255L51.4829 38.2742L51.2975 35.9092H53.1832ZM44.2013 35.9092L44.016 38.2742L45.9847 36.9255L46.9243 38.5747L44.7894 39.591L46.9243 40.6073L45.9847 42.2565L44.016 40.9078L44.2013 43.2728H42.3157L42.5011 40.9078L40.5323 42.2565L39.5927 40.6073L41.7276 39.591L39.5927 38.5747L40.5323 36.9255L42.5011 38.2742L42.3157 35.9092H44.2013ZM36.6848 40.0082L37.9425 40.6073L37.0029 42.2565L36.4698 41.8912L36.6848 40.0082ZM37.0308 36.9752L37.9425 38.5747L36.7858 39.1242L37.0308 36.9752ZM53.1832 26.9092L52.9978 29.2742L54.9666 27.9255L55.9062 29.5747L53.7712 30.591L55.9062 31.6073L54.9666 33.2565L52.9978 31.9078L53.1832 34.2728H51.2975L51.4829 31.9078L49.5141 33.2565L48.5745 31.6073L50.7095 30.591L48.5745 29.5747L49.5141 27.9255L51.4829 29.2742L51.2975 26.9092H53.1832ZM44.2013 26.9092L44.016 29.2742L45.9847 27.9255L46.9243 29.5747L44.7894 30.591L46.9243 31.6073L45.9847 33.2565L44.016 31.9078L44.2013 34.2728H42.3157L42.5011 31.9078L40.5323 33.2565L39.5927 31.6073L41.7276 30.591L39.5927 29.5747L40.5323 27.9255L42.5011 29.2742L42.3157 26.9092H44.2013ZM37.6598 31.4732L37.9425 31.6073L37.5698 32.2602L37.6598 31.4732ZM53.1832 17.9092L52.9978 20.2742L54.9666 18.9255L55.9062 20.5747L53.7712 21.591L55.9062 22.6073L54.9666 24.2565L52.9978 22.9078L53.1832 25.2728H51.2975L51.4829 22.9078L49.5141 24.2565L48.5745 22.6073L50.7095 21.591L48.5745 20.5747L49.5141 18.9255L51.4829 20.2742L51.2975 17.9092H53.1832ZM44.2013 17.9092L44.016 20.2742L45.9847 18.9255L46.9243 20.5747L44.7894 21.591L46.9243 22.6073L45.9847 24.2565L44.016 22.9078L44.2013 25.2728H42.3157L42.5011 22.9078L40.5323 24.2565L39.5927 22.6073L41.7276 21.591L39.5927 20.5747L40.5323 18.9255L42.5011 20.2742L42.3157 17.9092H44.2013ZM30.9798 19.9262L30.8908 20.7072L30.6108 20.5747L30.9798 19.9262Z" fill="#212121"/>
</svg>
