<?xml version="1.0" encoding="utf-8"?>
<!-- Generator: Adobe Illustrator 27.0.0, SVG Export Plug-In . SVG Version: 6.00 Build 0)  -->
<svg version="1.1" xmlns="http://www.w3.org/2000/svg" xmlns:xlink="http://www.w3.org/1999/xlink" x="0px" y="0px"
	 viewBox="0 0 264 64" style="enable-background:new 0 0 264 64;" xml:space="preserve">
<style type="text/css">
	.st0{fill-rule:evenodd;clip-rule:evenodd;fill:#879198;}
	.st1{fill-rule:evenodd;clip-rule:evenodd;fill:#E0E0E0;}
	.st2{display:none;}
	.st3{display:inline;fill-rule:evenodd;clip-rule:evenodd;fill:#879198;}
	.st4{display:inline;fill:#879198;}
	.st5{display:inline;}
	.st6{fill:#879198;}
</style>
<g id="Layer_1">
	<path class="st0" d="M116.45,12.18h-7l0.02,0.3l0.06,0.27l0.03,0.14l0.03,0.12l0.05,0.13l0.05,0.12l0.06,0.12l0.05,0.1l0.07,0.11
		l0.06,0.11l0.08,0.09l0.08,0.1l0.09,0.1l0.09,0.08l0.09,0.09l0.1,0.08l0.11,0.08l0.1,0.05l0.11,0.06l0.11,0.07l0.12,0.05l0.11,0.05
		l0.12,0.05l0.13,0.03l0.14,0.03l0.14,0.02l0.29,0.03l0.3,0.03h0.19l0.18-0.03l0.18-0.01l0.19-0.02l0.16-0.03l0.17-0.03l0.16-0.03
		l0.15-0.07l0.15-0.05l0.14-0.08l0.14-0.05l0.11-0.09l0.13-0.08l0.11-0.09l0.11-0.09l0.1-0.11l0.89,1.84l-0.16,0.12l-0.16,0.12
		l-0.18,0.1l-0.18,0.1l-0.19,0.09l-0.2,0.09l-0.21,0.09l-0.23,0.05l-0.22,0.05l-0.25,0.07l-0.24,0.03l-0.26,0.03l-0.27,0.03
		l-0.28,0.03l-0.29,0.01h-0.28l-0.28-0.01l-0.27-0.01l-0.27-0.03l-0.25-0.03l-0.25-0.05l-0.25-0.07l-0.23-0.07l-0.24-0.09
		l-0.21-0.09l-0.21-0.1l-0.2-0.12l-0.19-0.11l-0.19-0.13l-0.18-0.14l-0.18-0.16l-0.17-0.17l-0.16-0.18l-0.15-0.19l-0.13-0.2
		l-0.14-0.19l-0.1-0.22l-0.11-0.21l-0.1-0.24l-0.08-0.23l-0.09-0.25l-0.05-0.24l-0.07-0.27l-0.03-0.28l-0.03-0.28l-0.03-0.29
		l-0.01-0.3v-0.59l0.03-0.3l0.03-0.28l0.03-0.29l0.05-0.27l0.07-0.27l0.07-0.26l0.09-0.26l0.1-0.25l0.1-0.23l0.12-0.24l0.12-0.21
		l0.14-0.21l0.14-0.21l0.17-0.2l0.17-0.19l0.18-0.18l0.18-0.18l0.2-0.16l0.19-0.16l0.19-0.12l0.21-0.12l0.2-0.12l0.21-0.1l0.23-0.08
		l0.21-0.09l0.24-0.06l0.23-0.07l0.24-0.03l0.24-0.03l0.25-0.01l0.25-0.01l0.26,0.01l0.26,0.01l0.26,0.03l0.24,0.03l0.24,0.05
		l0.23,0.05l0.23,0.08l0.21,0.07l0.21,0.1l0.2,0.09l0.19,0.11l0.2,0.12l0.18,0.13l0.18,0.14l0.17,0.14l0.17,0.18l0.16,0.17
		l0.15,0.18l0.13,0.18l0.12,0.18l0.12,0.19l0.09,0.21l0.1,0.2l0.09,0.2l0.08,0.22l0.07,0.22l0.05,0.24l0.03,0.22l0.03,0.25
		l0.03,0.23l0.03,0.26v0.26l-0.01,0.24l-0.05,0.31l-0.06,0.37L116.45,12.18z M109.53,10.37h4.82l-0.06-0.28l-0.05-0.26l-0.06-0.24
		l-0.09-0.22l-0.1-0.2l-0.1-0.19l-0.13-0.16l-0.14-0.15l-0.16-0.13l-0.17-0.12l-0.2-0.1l-0.19-0.07L112.7,8.2l-0.24-0.05l-0.24-0.03
		l-0.27-0.01l-0.24,0.01l-0.22,0.03l-0.23,0.05l-0.2,0.05l-0.19,0.07l-0.18,0.1l-0.18,0.12l-0.16,0.13l-0.15,0.15l-0.12,0.16
		l-0.12,0.19l-0.11,0.2l-0.1,0.22l-0.09,0.24l-0.08,0.26L109.53,10.37z M123.9,16.59l-2.52-3.36l-2.26,3.36h-2.72l3.77-5.27
		l-3.46-5.05h2.64l2.06,3.15l2.3-3.15h2.63l-3.78,5.05l4.12,5.27H123.9z M128.54,8.22h-1.12V6.28h1.12V4.19l2.29-0.88v2.97h2.7v1.94
		h-2.7v4.79l0.02,0.24l0.03,0.22l0.03,0.2l0.03,0.19l0.06,0.17l0.08,0.14l0.07,0.11l0.1,0.11l0.1,0.1l0.12,0.08l0.12,0.07l0.16,0.05
		l0.18,0.03l0.18,0.02l0.19,0.01l0.2-0.01l0.21-0.02l0.19-0.03l0.19-0.05l0.2-0.08l0.18-0.07l0.18-0.1l0.18-0.12v2.23l-0.2,0.05
		l-0.24,0.07l-0.25,0.05l-0.28,0.05l-0.29,0.03l-0.32,0.03l-0.34,0.01l-0.36,0.01h-0.18l-0.17-0.01l-0.17-0.03l-0.17-0.03
		l-0.16-0.03l-0.16-0.03l-0.14-0.05l-0.15-0.05l-0.13-0.05l-0.14-0.08l-0.13-0.07l-0.12-0.08l-0.12-0.08l-0.1-0.1l-0.1-0.09
		l-0.11-0.11l-0.09-0.11l-0.09-0.12l-0.08-0.11l-0.08-0.13l-0.07-0.13l-0.07-0.14l-0.06-0.14l-0.05-0.15l-0.06-0.16l-0.05-0.16
		l-0.03-0.17l-0.05-0.18l-0.01-0.18l-0.03-0.2v-0.19l-0.01-0.19L128.54,8.22z M144.27,12.18h-7l0.03,0.3l0.04,0.27l0.02,0.14
		l0.03,0.12l0.05,0.13l0.05,0.12l0.04,0.12l0.07,0.1l0.05,0.11l0.08,0.11l0.07,0.09l0.09,0.1l0.08,0.1l0.09,0.08l0.1,0.09l0.09,0.08
		l0.1,0.08l0.11,0.05l0.1,0.06l0.12,0.07l0.12,0.05l0.12,0.05l0.11,0.05l0.14,0.03l0.13,0.03l0.15,0.02l0.28,0.03l0.32,0.03h0.19
		l0.19-0.03l0.18-0.01l0.17-0.02l0.17-0.03l0.17-0.03l0.16-0.03l0.15-0.07l0.14-0.05l0.15-0.08l0.13-0.05l0.12-0.09l0.12-0.08
		l0.11-0.09l0.11-0.09l0.11-0.11l0.89,1.84l-0.16,0.12l-0.18,0.12l-0.17,0.1l-0.18,0.1l-0.19,0.09l-0.21,0.09l-0.2,0.09l-0.21,0.05
		l-0.24,0.05l-0.24,0.07l-0.25,0.03l-0.27,0.03l-0.27,0.03l-0.27,0.03l-0.28,0.01h-0.29l-0.28-0.01l-0.27-0.01l-0.27-0.03
		l-0.25-0.03l-0.25-0.05l-0.24-0.07l-0.24-0.07l-0.23-0.09l-0.22-0.09l-0.2-0.1l-0.21-0.12l-0.19-0.11l-0.19-0.13l-0.18-0.14
		l-0.17-0.16l-0.18-0.17L136,15.23l-0.15-0.19l-0.12-0.2l-0.13-0.19l-0.12-0.22l-0.1-0.21l-0.09-0.24l-0.09-0.23l-0.09-0.25
		l-0.05-0.24l-0.06-0.27l-0.05-0.28l-0.03-0.28l-0.02-0.29l-0.01-0.3v-0.59l0.01-0.3l0.03-0.28l0.03-0.29l0.05-0.27l0.06-0.27
		l0.08-0.26l0.08-0.26l0.1-0.25l0.11-0.23l0.1-0.24l0.13-0.21l0.15-0.21l0.14-0.21l0.16-0.2l0.18-0.19l0.18-0.18l0.19-0.18
		l0.19-0.16l0.19-0.16l0.2-0.12l0.2-0.12l0.2-0.12l0.22-0.1l0.2-0.08l0.24-0.09l0.21-0.06l0.24-0.07l0.24-0.03l0.24-0.03l0.25-0.01
		l0.25-0.01l0.27,0.01l0.25,0.01l0.26,0.03l0.24,0.03l0.23,0.05l0.24,0.05l0.23,0.08l0.22,0.07l0.2,0.1l0.2,0.09l0.2,0.11l0.19,0.12
		l0.18,0.13l0.18,0.14l0.17,0.14l0.16,0.18l0.17,0.17l0.13,0.18l0.15,0.18l0.12,0.18l0.11,0.19l0.11,0.21l0.09,0.2l0.09,0.2
		l0.07,0.22l0.08,0.22l0.05,0.24l0.05,0.22l0.05,0.25l0.03,0.23l0.01,0.26l0.01,0.26l-0.01,0.24l-0.03,0.31l-0.07,0.37L144.27,12.18
		z M137.33,10.37h4.82l-0.03-0.28l-0.06-0.26L142,9.6l-0.08-0.22l-0.09-0.2l-0.11-0.19l-0.14-0.16l-0.13-0.15l-0.16-0.13l-0.17-0.12
		l-0.19-0.1l-0.2-0.07l-0.21-0.05l-0.23-0.05l-0.25-0.03l-0.27-0.01l-0.24,0.01l-0.22,0.03L139.1,8.2l-0.21,0.05l-0.19,0.07
		l-0.18,0.1l-0.17,0.12l-0.16,0.13l-0.15,0.15l-0.14,0.16l-0.12,0.19l-0.11,0.2l-0.1,0.22l-0.09,0.24l-0.07,0.26L137.33,10.37z
		 M152.48,16.59v-5.95l-0.01-0.33l-0.03-0.28l-0.05-0.28l-0.05-0.26l-0.07-0.22l-0.09-0.22l-0.1-0.18l-0.1-0.17l-0.07-0.08
		l-0.07-0.05l-0.08-0.07l-0.07-0.07l-0.09-0.05l-0.08-0.05l-0.09-0.05l-0.1-0.03l-0.2-0.07l-0.23-0.05l-0.25-0.03l-0.26-0.01h-0.14
		l-0.11,0.01l-0.13,0.03l-0.14,0.03l-0.14,0.05l-0.15,0.05l-0.13,0.05l-0.15,0.08l-0.14,0.07l-0.13,0.09l-0.11,0.09l-0.12,0.09
		l-0.11,0.09l-0.1,0.1l-0.09,0.1l-0.09,0.11v7.45h-2.28V6.28h1.65l0.42,0.96l0.12-0.13l0.13-0.12l0.12-0.12l0.13-0.11l0.16-0.11
		l0.15-0.09l0.17-0.09l0.18-0.08l0.17-0.07l0.18-0.05l0.19-0.05l0.19-0.05l0.21-0.03l0.2-0.03l0.23-0.01l0.21-0.01l0.21,0.01
		l0.21,0.01l0.2,0.03l0.21,0.03l0.19,0.05l0.18,0.05l0.18,0.06l0.17,0.07l0.17,0.08l0.18,0.08l0.16,0.09l0.16,0.1l0.15,0.11
		l0.12,0.11l0.14,0.12l0.13,0.14l0.12,0.14l0.12,0.14l0.09,0.16l0.1,0.17l0.1,0.17l0.08,0.17l0.08,0.18l0.05,0.2l0.07,0.19l0.05,0.2
		l0.03,0.22l0.03,0.21l0.03,0.21l0.03,0.23l0.01,0.25v6.56L152.48,16.59z M163.6,16.59v-0.62l-0.08,0.08l-0.09,0.08l-0.1,0.08
		l-0.11,0.07l-0.12,0.08l-0.15,0.07l-0.15,0.07l-0.17,0.05l-0.17,0.05l-0.17,0.05l-0.18,0.05l-0.17,0.03l-0.18,0.03l-0.17,0.03
		l-0.18,0.01h-0.18l-0.26-0.01l-0.25-0.01l-0.24-0.03l-0.24-0.03l-0.23-0.05l-0.22-0.07l-0.2-0.07l-0.2-0.09l-0.21-0.08l-0.18-0.11
		l-0.19-0.11l-0.17-0.11l-0.18-0.13l-0.17-0.14l-0.16-0.15l-0.15-0.17l-0.14-0.18l-0.14-0.19l-0.11-0.19l-0.12-0.2l-0.1-0.21
		l-0.09-0.21l-0.09-0.22l-0.09-0.24l-0.07-0.23L157,13.29l-0.07-0.27l-0.03-0.27l-0.03-0.27l-0.03-0.29l-0.01-0.29V11.3l0.03-0.29
		l0.03-0.29l0.03-0.29l0.04-0.27l0.07-0.26l0.06-0.27l0.09-0.26l0.08-0.23l0.1-0.25l0.11-0.22l0.13-0.24l0.11-0.21l0.15-0.22
		l0.16-0.19l0.16-0.2l0.18-0.18l0.18-0.19l0.18-0.16l0.18-0.16l0.19-0.12l0.21-0.13l0.19-0.11l0.23-0.11l0.2-0.08l0.21-0.09
		l0.24-0.06l0.23-0.07l0.24-0.03l0.24-0.03l0.25-0.01l0.26-0.01l0.28,0.01l0.26,0.02l0.27,0.03l0.26,0.07l0.25,0.05l0.25,0.09
		l0.24,0.09l0.24,0.11V2.44l2.28-0.58v14.72L163.6,16.59z M163.6,8.74l-0.19-0.14l-0.18-0.12l-0.18-0.1l-0.2-0.09l-0.19-0.05
		l-0.19-0.05l-0.2-0.03l-0.19-0.01l-0.17,0.01l-0.17,0.01l-0.16,0.01l-0.16,0.03l-0.15,0.03l-0.15,0.03l-0.14,0.03l-0.14,0.07
		l-0.12,0.05l-0.13,0.06l-0.1,0.08l-0.12,0.08l-0.11,0.09l-0.11,0.09l-0.09,0.1l-0.1,0.11l-0.08,0.11l-0.09,0.11l-0.09,0.12
		l-0.05,0.14l-0.07,0.14l-0.07,0.14l-0.05,0.14l-0.06,0.16l-0.03,0.16l-0.03,0.17l-0.03,0.18l-0.02,0.17l-0.03,0.2l-0.01,0.19
		l-0.01,0.19v0.2l0.01,0.39l0.05,0.37l0.02,0.17l0.03,0.18l0.03,0.16l0.03,0.16l0.06,0.14l0.05,0.14l0.07,0.13l0.06,0.13l0.07,0.12
		l0.09,0.12l0.09,0.1l0.08,0.11l0.1,0.1l0.09,0.08l0.11,0.09l0.11,0.08l0.12,0.08l0.11,0.05l0.14,0.07l0.14,0.05l0.13,0.05
		l0.16,0.05l0.15,0.03l0.16,0.03l0.17,0.03l0.17,0.01l0.17,0.01l0.19,0.01l0.17-0.03l0.19-0.03l0.23-0.05l0.22-0.1l0.21-0.1
		l0.19-0.1l0.07-0.05l0.07-0.05l0.05-0.05l0.05-0.05L163.6,8.74z M176.8,12.18h-7l0.03,0.3l0.05,0.27l0.04,0.14l0.03,0.12l0.03,0.13
		l0.05,0.12l0.06,0.12l0.05,0.1l0.07,0.11l0.06,0.11l0.09,0.09l0.07,0.1l0.09,0.1l0.09,0.08l0.09,0.09l0.1,0.08l0.1,0.08l0.11,0.05
		l0.11,0.06l0.1,0.07l0.12,0.05l0.12,0.05l0.14,0.05l0.12,0.03l0.15,0.03l0.13,0.02l0.28,0.03l0.3,0.03h0.2l0.18-0.03l0.18-0.01
		l0.18-0.02l0.17-0.03l0.17-0.03l0.16-0.03l0.16-0.07l0.15-0.05l0.12-0.08l0.14-0.05l0.13-0.09l0.12-0.08l0.11-0.09l0.1-0.09
		l0.11-0.11l0.89,1.84l-0.16,0.12l-0.16,0.12l-0.17,0.1l-0.19,0.1L175,16.3l-0.2,0.09l-0.22,0.09l-0.22,0.05l-0.22,0.05l-0.24,0.07
		l-0.26,0.03l-0.25,0.03l-0.27,0.03l-0.28,0.03l-0.29,0.01h-0.29l-0.28-0.01l-0.26-0.01l-0.27-0.03l-0.26-0.03l-0.24-0.05
		l-0.25-0.07l-0.24-0.07l-0.21-0.09l-0.21-0.09l-0.22-0.1l-0.2-0.12l-0.19-0.11l-0.19-0.13l-0.18-0.14l-0.18-0.16l-0.16-0.17
		l-0.16-0.18l-0.16-0.19l-0.14-0.2l-0.12-0.19l-0.12-0.22l-0.1-0.21l-0.1-0.24l-0.09-0.23l-0.07-0.25l-0.08-0.24l-0.05-0.27
		l-0.05-0.28l-0.03-0.28l-0.03-0.29l-0.03-0.3v-0.59l0.03-0.3l0.03-0.28l0.03-0.29l0.06-0.27l0.07-0.27l0.07-0.26l0.09-0.26
		l0.08-0.25l0.11-0.23l0.12-0.24l0.12-0.21l0.13-0.21l0.17-0.21l0.16-0.2l0.17-0.19l0.18-0.18l0.18-0.18l0.19-0.16l0.2-0.16
		l0.2-0.12l0.19-0.12l0.22-0.12l0.2-0.1l0.23-0.08l0.21-0.09l0.22-0.06l0.24-0.07l0.24-0.03l0.24-0.03l0.25-0.01l0.25-0.01
		l0.26,0.01l0.26,0.01l0.25,0.03l0.25,0.03l0.25,0.05l0.23,0.05l0.22,0.08l0.21,0.07l0.2,0.1l0.21,0.09l0.19,0.11L175,6.84
		l0.19,0.13l0.18,0.14l0.17,0.14l0.17,0.18l0.16,0.17l0.15,0.18l0.13,0.18l0.12,0.18l0.11,0.19l0.11,0.21l0.1,0.2l0.08,0.2
		l0.08,0.22l0.05,0.22l0.07,0.24l0.05,0.22l0.03,0.25l0.02,0.23l0.01,0.26v0.26l-0.01,0.24l-0.03,0.31l-0.06,0.37L176.8,12.18z
		 M169.89,10.37h4.81l-0.03-0.28l-0.05-0.26l-0.07-0.24l-0.08-0.22l-0.1-0.2l-0.11-0.19l-0.11-0.16L174,8.68l-0.16-0.13l-0.18-0.12
		l-0.18-0.1l-0.2-0.07l-0.23-0.05l-0.22-0.05l-0.25-0.03l-0.25-0.01l-0.25,0.01l-0.23,0.03l-0.23,0.05l-0.19,0.05l-0.19,0.07
		l-0.19,0.1l-0.17,0.12l-0.16,0.13l-0.15,0.15l-0.15,0.16l-0.12,0.19l-0.1,0.2l-0.1,0.22l-0.08,0.24l-0.09,0.26L169.89,10.37z
		 M185.76,16.59v-0.62l-0.07,0.08l-0.1,0.08l-0.1,0.08l-0.11,0.07l-0.12,0.08l-0.13,0.07l-0.16,0.07l-0.16,0.05l-0.17,0.05
		l-0.18,0.05l-0.18,0.05l-0.17,0.03l-0.18,0.03l-0.17,0.03l-0.18,0.01h-0.18l-0.26-0.01l-0.25-0.01l-0.24-0.03l-0.24-0.03
		l-0.21-0.05l-0.23-0.07l-0.21-0.07l-0.2-0.09l-0.2-0.08l-0.19-0.11L181,16.13l-0.18-0.11l-0.18-0.13l-0.17-0.14l-0.16-0.15
		l-0.15-0.17l-0.15-0.18l-0.13-0.19l-0.11-0.19l-0.11-0.2l-0.11-0.21l-0.09-0.21l-0.09-0.22l-0.07-0.24l-0.08-0.23l-0.06-0.26
		l-0.05-0.27l-0.05-0.27l-0.02-0.27l-0.03-0.29L179,11.91l-0.01-0.31l0.01-0.3l0.01-0.29l0.03-0.29l0.03-0.29l0.05-0.27l0.07-0.26
		l0.07-0.27l0.08-0.26l0.08-0.23l0.11-0.25l0.11-0.22l0.12-0.24l0.12-0.21l0.13-0.22l0.16-0.19l0.18-0.2l0.17-0.18l0.17-0.19
		l0.18-0.16l0.19-0.16l0.2-0.12l0.19-0.13l0.2-0.11l0.21-0.11l0.21-0.08l0.21-0.09l0.23-0.06l0.22-0.07L183,6.14l0.22-0.03
		l0.26-0.01l0.26-0.01l0.27,0.01l0.26,0.02l0.27,0.03l0.26,0.07l0.25,0.05l0.25,0.09l0.25,0.09l0.22,0.11V2.44l2.28-0.58v14.72
		L185.76,16.59z M185.76,8.74l-0.18-0.14l-0.19-0.12l-0.18-0.1l-0.2-0.09l-0.19-0.05l-0.19-0.05l-0.2-0.03l-0.19-0.01l-0.17,0.01
		l-0.17,0.01l-0.16,0.01l-0.15,0.03l-0.16,0.03l-0.15,0.03l-0.13,0.03l-0.14,0.07l-0.13,0.05l-0.12,0.06l-0.11,0.08l-0.12,0.08
		l-0.11,0.09l-0.1,0.09l-0.1,0.1l-0.09,0.11l-0.09,0.11l-0.09,0.11l-0.07,0.12l-0.08,0.14l-0.07,0.14l-0.07,0.14l-0.05,0.14
		l-0.05,0.16l-0.06,0.16l-0.03,0.17l-0.03,0.18l-0.03,0.17l-0.02,0.2l-0.03,0.19v0.78l0.05,0.37l0.03,0.17l0.03,0.18l0.03,0.16
		l0.06,0.16l0.05,0.14l0.05,0.14l0.07,0.13l0.07,0.13l0.08,0.12l0.07,0.12l0.09,0.1l0.08,0.11l0.1,0.1l0.09,0.08l0.11,0.09
		l0.11,0.08l0.12,0.08l0.11,0.05l0.14,0.07l0.13,0.05l0.15,0.05l0.15,0.05l0.15,0.03l0.16,0.03l0.17,0.03l0.17,0.01l0.17,0.01
		l0.19,0.01l0.18-0.03l0.19-0.03l0.21-0.05l0.23-0.1l0.21-0.1l0.19-0.1l0.07-0.05l0.07-0.05l0.04-0.05l0.05-0.05L185.76,8.74z"/>
	<path class="st0" d="M117.34,25.17l-0.19-0.12l-0.18-0.12l-0.19-0.12l-0.18-0.11l-0.21-0.1l-0.19-0.1l-0.2-0.09l-0.19-0.08
		l-0.22-0.08l-0.2-0.05l-0.22-0.06l-0.21-0.05l-0.22-0.03l-0.23-0.03l-0.23-0.03h-0.23l-0.39,0.01l-0.38,0.03l-0.17,0.03l-0.17,0.03
		l-0.16,0.03l-0.16,0.05l-0.15,0.05l-0.15,0.07l-0.14,0.05l-0.14,0.07l-0.14,0.07l-0.11,0.07l-0.11,0.09l-0.11,0.1l-0.11,0.08
		l-0.09,0.1l-0.09,0.09l-0.08,0.11l-0.09,0.1l-0.06,0.11l-0.08,0.1l-0.05,0.11l-0.05,0.11l-0.05,0.1l-0.03,0.12l-0.03,0.12
		l-0.03,0.12l-0.03,0.11l-0.03,0.12v0.14l0.03,0.17l0.01,0.16l0.03,0.16l0.05,0.15l0.05,0.15l0.07,0.15l0.07,0.13l0.09,0.14
		l0.1,0.14l0.1,0.11l0.13,0.12l0.14,0.11l0.16,0.12l0.16,0.09l0.17,0.11l0.19,0.1l0.18,0.07l0.21,0.09l0.26,0.09l0.29,0.1l0.34,0.12
		l0.38,0.14l0.42,0.12l0.46,0.15l0.47,0.16l0.42,0.14l0.39,0.15l0.35,0.14l0.33,0.12l0.26,0.13l0.25,0.1l0.21,0.11l0.3,0.18
		l0.29,0.2l0.26,0.2l0.24,0.2l0.23,0.24l0.22,0.25l0.19,0.26l0.18,0.27l0.08,0.15l0.09,0.13l0.07,0.16l0.07,0.15l0.06,0.16
		l0.06,0.16l0.06,0.16l0.05,0.17l0.07,0.34l0.07,0.36l0.03,0.38l0.01,0.38v0.32l-0.03,0.32L120,36.01l-0.06,0.31l-0.07,0.29
		l-0.08,0.29l-0.09,0.28l-0.11,0.28l-0.13,0.26l-0.15,0.26l-0.15,0.26L119,38.48l-0.18,0.25l-0.19,0.23l-0.23,0.23l-0.22,0.21
		l-0.25,0.2l-0.25,0.2l-0.26,0.18l-0.29,0.17l-0.29,0.15l-0.31,0.15l-0.32,0.12l-0.32,0.11l-0.34,0.1l-0.34,0.09l-0.38,0.07
		L114.46,41l-0.4,0.05l-0.39,0.03l-0.42,0.01l-0.42,0.01l-0.51-0.01l-0.49-0.03l-0.48-0.05l-0.47-0.08l-0.23-0.05l-0.22-0.06
		l-0.23-0.05l-0.22-0.06l-0.22-0.08l-0.21-0.07l-0.19-0.08l-0.21-0.08l-0.39-0.18l-0.37-0.2l-0.37-0.2l-0.33-0.24l-0.32-0.24
		l-0.31-0.25l-0.29-0.27l-0.27-0.28l2.6-2.48l0.18,0.24l0.19,0.23l0.19,0.21l0.22,0.18l0.23,0.18l0.22,0.18l0.25,0.15l0.24,0.12
		l0.26,0.11l0.26,0.11l0.25,0.08l0.27,0.08l0.27,0.05l0.29,0.05l0.29,0.02l0.29,0.01h0.18l0.19-0.01l0.18-0.02l0.17-0.03l0.17-0.03
		l0.18-0.03l0.16-0.03l0.16-0.06l0.15-0.05l0.15-0.05l0.15-0.08l0.13-0.07l0.14-0.08l0.13-0.08l0.12-0.09l0.11-0.1l0.1-0.09
		l0.11-0.11l0.1-0.09l0.08-0.11l0.09-0.11l0.07-0.11l0.07-0.1l0.06-0.12l0.06-0.11l0.05-0.12l0.05-0.11l0.03-0.12l0.03-0.12
		l0.03-0.14l0.01-0.12v-0.12l-0.01-0.19l-0.03-0.18l-0.03-0.17l-0.05-0.16l-0.05-0.16l-0.07-0.16l-0.08-0.14l-0.09-0.14l-0.1-0.14
		l-0.09-0.11l-0.13-0.12l-0.12-0.11l-0.14-0.11l-0.14-0.09l-0.14-0.09l-0.17-0.08l-0.12-0.07l-0.17-0.06l-0.23-0.09l-0.26-0.09
		l-0.31-0.1l-0.35-0.13l-0.41-0.14l-0.44-0.15l-0.46-0.16l-0.41-0.12l-0.37-0.14l-0.34-0.12l-0.29-0.11l-0.25-0.09l-0.21-0.09
		l-0.18-0.07l-0.25-0.14l-0.26-0.14l-0.23-0.15l-0.23-0.15l-0.22-0.15l-0.21-0.16l-0.18-0.16l-0.17-0.17l-0.16-0.17L108.17,30
		l-0.15-0.19l-0.13-0.19l-0.14-0.2l-0.1-0.2l-0.1-0.21l-0.1-0.23l-0.08-0.23l-0.08-0.24l-0.07-0.24l-0.05-0.24l-0.05-0.25
		l-0.03-0.26l-0.03-0.25v-0.27l0.01-0.27l0.01-0.27l0.03-0.27l0.06-0.26l0.05-0.25l0.05-0.26l0.09-0.25l0.09-0.24l0.09-0.24
		l0.11-0.23l0.13-0.24l0.15-0.21l0.15-0.23l0.16-0.2l0.17-0.2l0.18-0.21l0.25-0.24l0.26-0.24l0.27-0.21l0.3-0.2l0.31-0.19l0.32-0.17
		l0.32-0.15l0.34-0.14l0.37-0.11l0.37-0.1l0.39-0.08l0.39-0.08l0.42-0.06l0.42-0.05l0.42-0.03l0.46-0.01l0.46,0.01l0.43,0.03
		l0.44,0.05l0.41,0.06l0.39,0.08l0.39,0.09l0.35,0.11l0.35,0.12l0.4,0.17l0.39,0.18l0.4,0.21l0.35,0.23L117.34,25.17z M133.59,21.49
		v3.07h-4.91v16.01h-3.45V24.56h-4.91v-3.07H133.59z M160.16,33.26v7.31h-3.43v-7.31l-7.1-11.76h4.2l3.58,6.68l0.59,0.95l0.11,0.19
		l0.13,0.26l0.16,0.28l0.16,0.32l0.13-0.27l0.13-0.26l0.12-0.25l0.13-0.25l0.13-0.22l0.14-0.24l0.12-0.22l0.12-0.22l3.67-6.76h4.05
		L160.16,33.26z M131.76,44.16l5.5,13.59l5.28-13.59h3.34l2.36,19.07h-3.33l-1.39-12.42l-5.1,12.42h-2.45l-5.54-13.39l-1.33,13.27
		h-3.26l2.26-18.95H131.76z M151.56,44.16h12.52v3.07h-9.12v4.72H162v3.04h-7.04v5.17h9.59v3.07h-12.99L151.56,44.16z M170.75,56.35
		v6.88h-3.44V44.16h6.54l0.31,0.01l0.31,0.02l0.33,0.03l0.32,0.03l0.31,0.03l0.32,0.05l0.32,0.05l0.32,0.08l0.31,0.08l0.31,0.1
		l0.3,0.11l0.3,0.11l0.3,0.12l0.28,0.14l0.28,0.17l0.27,0.17l0.26,0.19l0.24,0.21l0.23,0.21l0.21,0.23l0.21,0.26l0.18,0.27
		l0.17,0.29l0.15,0.31l0.13,0.32l0.1,0.35l0.09,0.37l0.07,0.38l0.05,0.41l0.02,0.43l-0.01,0.46l-0.01,0.3l-0.05,0.29l-0.03,0.29
		l-0.05,0.26l-0.07,0.28l-0.05,0.26l-0.07,0.25l-0.09,0.24l-0.1,0.22l-0.09,0.23l-0.11,0.21l-0.12,0.22l-0.12,0.2l-0.12,0.19
		l-0.13,0.19l-0.14,0.18l-0.15,0.18l-0.16,0.15l-0.16,0.16l-0.17,0.16l-0.16,0.14l-0.19,0.13l-0.17,0.13l-0.18,0.11L178,55.25
		l-0.18,0.11l-0.2,0.1l-0.19,0.09l-0.19,0.09l-0.2,0.08l-0.19,0.09l-0.2,0.05l5.32,7.36h-4.29l-4.43-6.88L170.75,56.35z
		 M170.75,53.72h2.63l0.43-0.03l0.2-0.03l0.2-0.05l0.19-0.03l0.19-0.05l0.18-0.05l0.18-0.07l0.17-0.05l0.17-0.08l0.16-0.07
		l0.14-0.09l0.15-0.09l0.13-0.1l0.13-0.11l0.11-0.11l0.12-0.13l0.1-0.13l0.1-0.15l0.09-0.16l0.09-0.16l0.07-0.17l0.08-0.19l0.05-0.2
		l0.05-0.2l0.05-0.2l0.03-0.24l0.02-0.23l0.01-0.25v-0.48l-0.01-0.2l-0.02-0.21l-0.03-0.19l-0.05-0.17l-0.05-0.18l-0.05-0.16
		l-0.07-0.16l-0.07-0.14l-0.09-0.13l-0.08-0.13l-0.1-0.12l-0.1-0.1l-0.1-0.11l-0.11-0.1l-0.11-0.08l-0.12-0.09l-0.13-0.07
		l-0.12-0.08l-0.13-0.06l-0.15-0.07l-0.13-0.05l-0.16-0.05l-0.15-0.03l-0.31-0.07l-0.31-0.05l-0.32-0.03h-3.14V53.72z M185.28,63.23
		h3.59V44.16h-3.59V63.23z M205.34,47.97l-0.23-0.16l-0.24-0.15l-0.24-0.14l-0.27-0.12l-0.26-0.1l-0.28-0.1l-0.27-0.07l-0.28-0.08
		l-0.29-0.05l-0.29-0.03l-0.31-0.03l-0.3-0.01l-0.2,0.01l-0.21,0.03l-0.2,0.01l-0.21,0.03l-0.19,0.03l-0.2,0.03l-0.19,0.06
		l-0.21,0.05l-0.19,0.05l-0.19,0.07l-0.2,0.07l-0.19,0.08l-0.19,0.08l-0.2,0.1l-0.18,0.09l-0.19,0.1l-0.18,0.11l-0.18,0.11
		l-0.18,0.12l-0.17,0.14l-0.16,0.14l-0.17,0.14l-0.15,0.15l-0.15,0.16l-0.14,0.16l-0.15,0.16l-0.14,0.17l-0.11,0.17l-0.12,0.18
		l-0.12,0.18l-0.11,0.2l-0.1,0.19l-0.1,0.2l-0.1,0.21l-0.08,0.21l-0.09,0.2l-0.07,0.23l-0.08,0.21l-0.05,0.21l-0.07,0.23l-0.05,0.21
		l-0.03,0.24l-0.03,0.23l-0.02,0.24l-0.03,0.23l-0.03,0.25l-0.01,0.24v0.5l0.01,0.23l0.03,0.24l0.01,0.23l0.04,0.24l0.03,0.22
		l0.03,0.21l0.04,0.23l0.05,0.2l0.06,0.23l0.08,0.2l0.07,0.19l0.08,0.2l0.08,0.21l0.1,0.19l0.09,0.19l0.1,0.18l0.11,0.19l0.12,0.18
		l0.11,0.17l0.12,0.16l0.13,0.16l0.13,0.16l0.15,0.15l0.15,0.15l0.16,0.15l0.16,0.14l0.17,0.11l0.17,0.12l0.17,0.12l0.19,0.11
		l0.18,0.1l0.19,0.1l0.19,0.09l0.2,0.07l0.19,0.07l0.18,0.06l0.19,0.05l0.21,0.03l0.19,0.03l0.4,0.06l0.39,0.01l0.41,0.01h0.41
		l0.29-0.01l0.27-0.01l0.27-0.03l0.27-0.05l0.27-0.06L203.7,60l0.25-0.09l0.25-0.09l0.22-0.1l0.24-0.11l0.21-0.14l0.22-0.15
		l0.2-0.15l0.2-0.17l0.2-0.17l0.18-0.19l2.64,2.52l-0.22,0.2l-0.24,0.2l-0.22,0.18l-0.26,0.18l-0.26,0.18l-0.26,0.16l-0.27,0.16
		l-0.29,0.16l-0.24,0.11l-0.22,0.11l-0.25,0.09l-0.24,0.09l-0.25,0.08l-0.26,0.08l-0.25,0.07l-0.27,0.07l-0.27,0.05L204,63.38
		l-0.27,0.05l-0.28,0.03l-0.29,0.02l-0.29,0.02l-0.29,0.01h-0.71l-0.4-0.01l-0.4-0.01l-0.39-0.03l-0.37-0.02l-0.38-0.06l-0.36-0.05
		l-0.36-0.07l-0.35-0.08l-0.33-0.08l-0.34-0.11l-0.32-0.12l-0.31-0.14l-0.3-0.15l-0.3-0.17l-0.29-0.18l-0.28-0.19l-0.28-0.22
		l-0.27-0.2l-0.25-0.22l-0.24-0.24l-0.25-0.23l-0.22-0.25l-0.22-0.26l-0.21-0.25l-0.2-0.26l-0.2-0.28l-0.18-0.27l-0.18-0.29
		l-0.16-0.29l-0.17-0.3l-0.15-0.31l-0.12-0.27l-0.11-0.27l-0.1-0.26l-0.1-0.27l-0.09-0.28l-0.08-0.28l-0.08-0.27l-0.05-0.28
		l-0.06-0.28l-0.05-0.28l-0.05-0.3l-0.03-0.29l-0.03-0.3l-0.02-0.28l-0.01-0.31l-0.01-0.29l0.01-0.36l0.01-0.35l0.03-0.35l0.03-0.34
		l0.05-0.33l0.07-0.35l0.06-0.33l0.09-0.32l0.08-0.33l0.1-0.32l0.1-0.31l0.12-0.31l0.14-0.31l0.13-0.29l0.16-0.31l0.16-0.29
		l0.17-0.27l0.18-0.28l0.19-0.27l0.18-0.27l0.2-0.25l0.21-0.25l0.2-0.23l0.21-0.24l0.24-0.22l0.22-0.23l0.25-0.19l0.25-0.19
		l0.25-0.19l0.27-0.18l0.27-0.17l0.28-0.17l0.27-0.15l0.28-0.15l0.29-0.14l0.3-0.11l0.3-0.11l0.3-0.11l0.31-0.09l0.31-0.09
		l0.31-0.07l0.34-0.07l0.34-0.05l0.34-0.05l0.33-0.05l0.35-0.03l0.35-0.01l0.36-0.01l0.43,0.01l0.43,0.03l0.41,0.05l0.4,0.05
		l0.39,0.07l0.37,0.08l0.37,0.09l0.35,0.11l0.34,0.12l0.33,0.12l0.31,0.14l0.3,0.15l0.27,0.13l0.28,0.16l0.26,0.18l0.26,0.17
		l0.01,0.01L205.34,47.97z M213.79,58.87l-1.76,4.35h-3.81l8.07-19.07h3.53l8.03,19.07h-3.92l-1.79-4.35H213.79z M214.94,55.96h6.01
		l-2.08-5.14l-0.14-0.31l-0.11-0.31l-0.11-0.31l-0.11-0.32l-0.12-0.32l-0.11-0.33l-0.09-0.35l-0.11-0.35l-0.11,0.36l-0.09,0.36
		l-0.12,0.35l-0.11,0.33l-0.12,0.33l-0.12,0.33l-0.11,0.32l-0.12,0.31L214.94,55.96z M110.98,58.87l-1.76,4.35h-3.82l8.07-19.07
		h3.53l8.03,19.07h-3.92l-1.8-4.35H110.98z M112.13,55.96h5.99l-2.08-5.14l-0.12-0.31l-0.12-0.31l-0.12-0.31l-0.1-0.32l-0.11-0.32
		l-0.11-0.33l-0.1-0.35l-0.11-0.35l-0.1,0.36l-0.1,0.36l-0.11,0.35l-0.11,0.33l-0.12,0.33l-0.12,0.33l-0.11,0.32l-0.14,0.31
		L112.13,55.96z M137.5,36.44l-1.74,4.4h-3.82L140,21.49h3.53l8.03,19.35h-3.92l-1.8-4.4H137.5z M138.66,33.46h5.98l-2.07-5.21
		l-0.12-0.32l-0.12-0.32l-0.12-0.32l-0.11-0.33l-0.1-0.33l-0.11-0.35l-0.11-0.34l-0.1-0.35l-0.1,0.36l-0.11,0.35l-0.11,0.36
		l-0.1,0.34l-0.12,0.34l-0.12,0.33l-0.12,0.33l-0.14,0.32L138.66,33.46z M227.16,43.88l0.14,0.01l0.14,0.01l0.15,0.03l0.15,0.03
		l0.15,0.03l0.15,0.04l0.13,0.07l0.15,0.07l0.14,0.08l0.13,0.08l0.12,0.09l0.1,0.1l0.11,0.11l0.1,0.11l0.08,0.13l0.09,0.13
		l0.07,0.14l0.07,0.13l0.05,0.14l0.06,0.14l0.02,0.13l0.03,0.14l0.03,0.15v0.29l-0.03,0.14l-0.03,0.14l-0.02,0.14l-0.06,0.14
		l-0.04,0.14l-0.08,0.14l-0.07,0.13l-0.08,0.14l-0.09,0.12l-0.1,0.11l-0.09,0.11l-0.11,0.11l-0.12,0.08l-0.14,0.08l-0.14,0.09
		l-0.13,0.07l-0.15,0.05l-0.12,0.05l-0.15,0.05l-0.15,0.02l-0.15,0.02l-0.16,0.03h-0.3l-0.16-0.03l-0.15-0.02l-0.15-0.02l-0.15-0.05
		l-0.15-0.05l-0.14-0.05l-0.14-0.07l-0.14-0.09l-0.14-0.09l-0.11-0.08l-0.11-0.11l-0.1-0.11l-0.1-0.11l-0.09-0.12l-0.08-0.14
		l-0.07-0.13l-0.07-0.14l-0.05-0.14l-0.03-0.14l-0.03-0.14l-0.03-0.14l-0.01-0.14l-0.01-0.15l0.01-0.14l0.01-0.15l0.03-0.14
		l0.03-0.13l0.05-0.14l0.04-0.14l0.07-0.13l0.07-0.14l0.09-0.13l0.09-0.13l0.1-0.11l0.1-0.11l0.12-0.1l0.11-0.09l0.12-0.08
		l0.13-0.08l0.15-0.07l0.15-0.07l0.14-0.04l0.15-0.03l0.15-0.03l0.15-0.03l0.15-0.01L227.16,43.88z M227.16,44.26h-0.12l-0.12,0.01
		l-0.12,0.02l-0.12,0.02l-0.1,0.05l-0.12,0.04l-0.12,0.05l-0.11,0.07l-0.11,0.05l-0.1,0.07l-0.11,0.08l-0.08,0.08l-0.1,0.08
		l-0.07,0.1l-0.08,0.08l-0.07,0.12l-0.07,0.11l-0.05,0.12l-0.05,0.11l-0.05,0.12l-0.03,0.12l-0.03,0.11l-0.01,0.12v0.23l0.01,0.11
		l0.03,0.12l0.03,0.12l0.05,0.11l0.05,0.12l0.05,0.11l0.07,0.12l0.06,0.09l0.07,0.11l0.09,0.09l0.09,0.07l0.09,0.1l0.1,0.07
		l0.1,0.07l0.11,0.07l0.11,0.07l0.12,0.05l0.12,0.04l0.1,0.05l0.12,0.02l0.12,0.02l0.12,0.01h0.25l0.12-0.01l0.12-0.02l0.12-0.02
		l0.12-0.05l0.11-0.04l0.11-0.05l0.12-0.07l0.11-0.07l0.1-0.07l0.1-0.07l0.1-0.1l0.08-0.07l0.08-0.09l0.07-0.11l0.08-0.09l0.05-0.12
		l0.05-0.11l0.05-0.12l0.03-0.11l0.03-0.12l0.01-0.12l0.01-0.11l0.01-0.13l-0.01-0.11l-0.01-0.12l-0.01-0.11l-0.03-0.12l-0.03-0.12
		l-0.04-0.11l-0.06-0.11l-0.05-0.12l-0.07-0.11l-0.07-0.1l-0.09-0.09l-0.08-0.08l-0.1-0.09l-0.1-0.08l-0.1-0.07l-0.11-0.05
		l-0.12-0.07l-0.11-0.05l-0.11-0.04l-0.12-0.05l-0.12-0.02l-0.12-0.02l-0.12-0.01H227.16z M226.9,46.32v0.97h-0.59v-2.42h0.87
		l0.21,0.01l0.2,0.02l0.08,0.02l0.09,0.03l0.05,0.02l0.06,0.03l0.09,0.05l0.05,0.07l0.06,0.05l0.05,0.07l0.03,0.08l0.03,0.08
		l0.03,0.08l0.01,0.1l-0.01,0.13l-0.03,0.11l-0.03,0.09l-0.06,0.1l-0.08,0.07l-0.08,0.07l-0.11,0.05l-0.12,0.05l0.65,1.02h-0.67
		l-0.58-0.97L226.9,46.32z M226.9,45.85h0.34l0.11-0.01l0.07-0.01l0.07-0.03l0.06-0.03l0.03-0.05l0.03-0.07l0.01-0.07v-0.04
		l-0.03-0.05l-0.03-0.04l-0.03-0.03l-0.06-0.03l-0.08-0.01l-0.09-0.03l-0.12-0.01h-0.28L226.9,45.85z"/>
	<path class="st1" d="M61.96,7.11l0.01-0.31l0.03-0.32l0.05-0.3l0.05-0.3l0.08-0.28l0.08-0.29l0.1-0.28l0.1-0.28l0.12-0.28
		l0.13-0.25l0.15-0.27l0.17-0.25l0.17-0.24l0.19-0.24l0.19-0.21l0.2-0.2l0.21-0.21l0.23-0.19l0.24-0.18l0.24-0.17l0.25-0.16
		l0.25-0.14l0.27-0.13l0.28-0.12l0.28-0.11l0.28-0.09l0.29-0.09l0.3-0.06l0.29-0.05l0.31-0.05l0.3-0.01l0.31-0.01l0.32,0.01
		l0.31,0.03l0.3,0.03l0.3,0.07l0.29,0.06l0.29,0.09l0.29,0.09l0.28,0.11l0.26,0.13L71,1.79l0.26,0.14l0.24,0.16l0.25,0.18l0.22,0.18
		l0.23,0.19l0.21,0.2l0.2,0.21l0.19,0.23l0.18,0.22l0.17,0.25L73.29,4l0.14,0.26l0.13,0.27l0.12,0.26l0.11,0.28l0.09,0.29l0.09,0.29
		l0.06,0.29l0.07,0.3l0.03,0.3l0.03,0.31v0.82l-0.03,0.52L74.13,8.7L74.08,9.2l-0.05,0.5l-0.05,0.49l-0.08,0.5l-0.07,0.48
		l-0.09,0.49l-0.08,0.48l-0.1,0.47l-0.11,0.48l-0.11,0.47l-0.13,0.48l-0.14,0.45l-0.13,0.46l-0.18,0.53L72.59,16l-0.2,0.5
		l-0.19,0.52l-0.21,0.49l-0.22,0.48l-0.22,0.48l-0.25,0.48l-0.25,0.47l-0.26,0.47l-0.27,0.46l-0.28,0.45l-0.28,0.45l-0.29,0.44
		l-0.3,0.44l-0.3,0.43l-0.32,0.41l-0.31,0.41l-0.34,0.41l-0.33,0.39l-0.36,0.39l-0.35,0.38l-0.37,0.38l-0.36,0.37l-0.37,0.36
		l-0.39,0.36l-0.39,0.34l-0.38,0.34l-0.4,0.34l-0.4,0.31l-0.41,0.32l-0.43,0.31l-0.43,0.28l-0.43,0.29l-0.42,0.28l-0.44,0.28
		l-0.45,0.27l-0.45,0.25l-0.46,0.25l-0.46,0.23l-0.47,0.24l-0.46,0.21l-0.49,0.22l-0.47,0.19l-0.48,0.19l-0.48,0.18l-0.49,0.19
		l-0.5,0.17l-0.49,0.14l-0.49,0.16l-0.52,0.13l-0.5,0.11l-0.5,0.12l-0.52,0.11l-0.5,0.09l-0.53,0.09l-0.52,0.07l-0.52,0.08
		l-0.53,0.05l-0.54,0.06l-0.52,0.03l-0.54,0.03l-0.53,0.01H47l-0.48-0.03l-0.48-0.02l-0.48-0.03l-0.49-0.06l-0.49-0.05l-0.48-0.08
		l-0.48-0.05L43.12,33l-0.49-0.1l-0.48-0.1l-0.48-0.1l-0.48-0.12l-0.48-0.14l-0.49-0.13l-0.48-0.14l-0.29-0.11l-0.29-0.1l-0.28-0.14
		l-0.26-0.14l-0.27-0.16l-0.26-0.16l-0.24-0.18L37.62,31l-0.21-0.21l-0.22-0.2l-0.19-0.22l-0.19-0.22l-0.17-0.24l-0.18-0.24
		l-0.16-0.26l-0.12-0.25l-0.13-0.27l-0.11-0.27l-0.11-0.28l-0.08-0.27l-0.09-0.28l-0.06-0.29l-0.06-0.29l-0.03-0.3l-0.02-0.29v-0.3
		l0.01-0.3l0.02-0.3l0.03-0.3l0.07-0.3l0.06-0.3l0.1-0.3l0.1-0.3l0.11-0.27l0.12-0.29l0.15-0.27l0.16-0.26l0.17-0.25l0.17-0.25
		l0.2-0.22l0.19-0.24l0.2-0.2l0.22-0.19l0.22-0.2l0.24-0.18l0.25-0.16l0.25-0.16l0.26-0.14l0.27-0.12l0.26-0.11l0.28-0.1l0.28-0.1
		l0.29-0.07l0.29-0.07l0.29-0.05l0.29-0.03l0.3-0.03h0.59l0.3,0.03l0.3,0.05l0.3,0.06l0.3,0.07l0.3,0.09l0.52,0.16l0.5,0.12
		l0.53,0.11l0.5,0.1L46,21.1l0.5,0.05l0.5,0.03l0.52,0.01h0.58l0.27-0.01l0.28-0.03l0.57-0.07l0.57-0.07l0.55-0.1l0.55-0.13
		l0.55-0.14l0.54-0.16l0.54-0.19l0.52-0.2l0.53-0.24l0.5-0.25l0.49-0.27l0.5-0.28l0.47-0.31l0.47-0.31l0.46-0.34l0.44-0.36
		l0.43-0.37l0.4-0.38l0.4-0.4l0.38-0.43l0.37-0.42l0.33-0.44l0.34-0.46l0.3-0.48l0.29-0.48l0.28-0.49l0.25-0.49l0.23-0.51l0.22-0.54
		l0.18-0.54l0.14-0.5l0.13-0.49l0.1-0.5l0.1-0.52l0.08-0.53l0.05-0.53l0.03-0.55L61.96,7.11z"/>
	<path class="st1" d="M62.01,7.17l0.01-0.31l0.03-0.31l0.05-0.3l0.05-0.3l0.07-0.29l0.08-0.29l0.1-0.29l0.1-0.28l0.12-0.26
		l0.14-0.27L62.89,4l0.16-0.25l0.17-0.25l0.18-0.22l0.2-0.23l0.2-0.21l0.2-0.2l0.24-0.19l0.23-0.18l0.24-0.18l0.26-0.16l0.25-0.14
		l0.27-0.14l0.27-0.13l0.28-0.11l0.27-0.09l0.29-0.09l0.3-0.06l0.29-0.07l0.32-0.03l0.31-0.03l0.31-0.01l0.33,0.01l0.32,0.01
		l0.3,0.05l0.3,0.05l0.3,0.06l0.29,0.09l0.27,0.09l0.28,0.11l0.27,0.12l0.27,0.13l0.25,0.14l0.26,0.16l0.25,0.17l0.23,0.18
		l0.23,0.19l0.21,0.21l0.2,0.2l0.2,0.21l0.18,0.24l0.17,0.24l0.16,0.25l0.15,0.27l0.15,0.25l0.12,0.28l0.11,0.28l0.09,0.28
		l0.09,0.29l0.07,0.28l0.05,0.3l0.05,0.3l0.03,0.32v0.31l0.01,0.55l0.03,0.55l0.07,0.53l0.07,0.53l0.1,0.52l0.11,0.5l0.11,0.49
		l0.16,0.5l0.09,0.27l0.1,0.27l0.09,0.27l0.11,0.27l0.12,0.25l0.1,0.27l0.12,0.26l0.13,0.23l0.27,0.49l0.3,0.48l0.3,0.48l0.33,0.46
		l0.35,0.44l0.37,0.42l0.39,0.43l0.39,0.4l0.42,0.38l0.44,0.37l0.43,0.36l0.46,0.34l0.46,0.31l0.5,0.31l0.5,0.28l0.49,0.27
		l0.52,0.25l0.52,0.23l0.52,0.2l0.55,0.19l0.54,0.16l0.54,0.15l0.56,0.13l0.56,0.1l0.56,0.07l0.56,0.07l0.3,0.03l0.28,0.01h0.58
		l0.51-0.01l0.52-0.03l0.52-0.05l0.51-0.07l0.52-0.1l0.52-0.11l0.52-0.12l0.52-0.16l0.3-0.09l0.3-0.07l0.3-0.06l0.31-0.05l0.3-0.03
		h0.61l0.3,0.03l0.29,0.03L96,20.35l0.29,0.07l0.28,0.07l0.28,0.1l0.28,0.1l0.27,0.11l0.26,0.12l0.26,0.14l0.26,0.16l0.24,0.16
		l0.25,0.18l0.21,0.2l0.23,0.19l0.2,0.2l0.21,0.23l0.18,0.22l0.18,0.25l0.17,0.25l0.14,0.26l0.15,0.27l0.14,0.29l0.12,0.27l0.09,0.3
		l0.09,0.3l0.07,0.3l0.07,0.3l0.03,0.3l0.03,0.3l0.01,0.3l-0.01,0.3l-0.01,0.29l-0.03,0.3l-0.05,0.29l-0.08,0.29l-0.07,0.28
		l-0.09,0.27l-0.11,0.28l-0.11,0.27l-0.12,0.27l-0.15,0.25l-0.15,0.26l-0.17,0.23l-0.19,0.24l-0.18,0.22l-0.2,0.22l-0.2,0.2
		l-0.23,0.21l-0.24,0.18l-0.24,0.18L98.1,31.5l-0.26,0.16l-0.27,0.14l-0.28,0.14l-0.3,0.1l-0.3,0.11l-0.48,0.14l-0.48,0.13
		l-0.48,0.14l-0.5,0.12l-0.48,0.1l-0.49,0.1l-0.5,0.1l-0.5,0.08l-0.49,0.05l-0.48,0.08l-0.49,0.05l-0.48,0.06l-0.5,0.03l-0.49,0.02
		l-0.48,0.03h-1.03l-0.53-0.01l-0.54-0.03l-0.53-0.03l-0.53-0.06L85.7,33.2l-0.53-0.08l-0.52-0.07l-0.53-0.09l-0.52-0.09l-0.51-0.11
		l-0.52-0.12l-0.51-0.11l-0.51-0.13l-0.52-0.16l-0.5-0.14l-0.5-0.17l-0.49-0.19l-0.49-0.18l-0.48-0.19l-0.49-0.19l-0.47-0.22
		l-0.47-0.21L76.7,30.5l-0.46-0.23l-0.46-0.25l-0.45-0.25l-0.45-0.27l-0.44-0.28l-0.44-0.28l-0.44-0.29l-0.43-0.28l-0.42-0.31
		l-0.4-0.32l-0.42-0.31l-0.41-0.34l-0.39-0.34l-0.39-0.34l-0.37-0.36l-0.38-0.36l-0.37-0.37l-0.36-0.38l-0.36-0.38l-0.34-0.39
		l-0.34-0.39l-0.35-0.41l-0.33-0.41l-0.32-0.41l-0.3-0.43l-0.31-0.44l-0.29-0.44l-0.29-0.45l-0.28-0.45l-0.26-0.46l-0.26-0.47
		l-0.25-0.47l-0.24-0.48l-0.24-0.48l-0.23-0.48L64.01,17l-0.2-0.52l-0.19-0.5l-0.19-0.5l-0.17-0.52l-0.15-0.46l-0.12-0.45
		l-0.12-0.48l-0.12-0.47l-0.11-0.48l-0.09-0.47l-0.1-0.48l-0.09-0.49l-0.07-0.48l-0.07-0.5l-0.05-0.49l-0.03-0.5l-0.03-0.49
		l-0.05-0.51l-0.01-0.52L62.01,7.17z M89.63,53.82l0.17,0.27l0.17,0.27l0.14,0.28l0.14,0.26l0.11,0.29l0.1,0.28l0.09,0.29l0.07,0.29
		l0.06,0.29l0.05,0.29l0.03,0.29l0.01,0.29v0.29l-0.01,0.29l-0.03,0.3l-0.03,0.29l-0.07,0.28l-0.07,0.29l-0.09,0.27l-0.09,0.28
		l-0.11,0.28l-0.12,0.27L90,60.35l-0.16,0.25l-0.16,0.26l-0.18,0.24l-0.18,0.24l-0.21,0.22l-0.21,0.22l-0.22,0.2l-0.24,0.2
		l-0.26,0.19l-0.25,0.18l-0.28,0.16l-0.27,0.15l-0.28,0.14l-0.28,0.11l-0.29,0.1l-0.28,0.09l-0.28,0.07l-0.29,0.06l-0.3,0.05
		l-0.29,0.03l-0.29,0.01h-0.3L84.2,63.5l-0.29-0.02l-0.29-0.06l-0.29-0.05l-0.28-0.07l-0.29-0.09l-0.27-0.1l-0.27-0.1l-0.28-0.12
		l-0.26-0.15l-0.25-0.15l-0.26-0.16l-0.25-0.18l-0.24-0.19l-0.23-0.2l-0.22-0.21l-0.21-0.22l-0.19-0.24l-0.19-0.26l-0.31-0.42
		L79,60.1l-0.35-0.39l-0.34-0.37l-0.36-0.36l-0.37-0.35L77.2,58.3L76.8,58l-0.12-0.09l-0.14-0.11l-0.44-0.3l-0.45-0.29l-0.48-0.27
		l-0.47-0.24l-0.49-0.24l-0.48-0.2l-0.52-0.18l-0.51-0.17l-0.5-0.15l-0.53-0.12l-0.52-0.11l-0.54-0.08l-0.53-0.08l-0.54-0.05
		l-0.53-0.03l-0.54-0.01l-0.56,0.01l-0.57,0.03l-0.56,0.07l-0.57,0.07l-0.55,0.1l-0.56,0.11l-0.55,0.15l-0.54,0.16l-0.55,0.19
		l-0.53,0.2L62.4,56.6l-0.52,0.25l-0.52,0.27l-0.5,0.27l-0.49,0.31l-0.47,0.34l-0.44,0.31l-0.43,0.34l-0.42,0.36l-0.39,0.37
		l-0.4,0.39l-0.38,0.4l-0.36,0.42l-0.35,0.45l-0.2,0.25l-0.2,0.25l-0.21,0.21l-0.24,0.2l-0.22,0.2l-0.25,0.18l-0.26,0.17l-0.25,0.15
		l-0.27,0.15l-0.27,0.13l-0.27,0.1l-0.28,0.1l-0.27,0.1l-0.29,0.07l-0.29,0.06l-0.29,0.05l-0.29,0.03l-0.29,0.02h-0.29l-0.3-0.01
		l-0.29-0.02l-0.29-0.03l-0.29-0.06l-0.29-0.07l-0.28-0.09l-0.29-0.09l-0.28-0.11l-0.28-0.12l-0.27-0.15l-0.27-0.16l-0.26-0.17
		l-0.26-0.18l-0.25-0.19l-0.22-0.21l-0.24-0.21l-0.2-0.24l-0.19-0.22l-0.19-0.25l-0.17-0.25l-0.15-0.26l-0.14-0.27l-0.12-0.26
		l-0.11-0.27l-0.1-0.28l-0.09-0.28l-0.08-0.29l-0.05-0.29l-0.06-0.28l-0.03-0.29l-0.01-0.29l-0.01-0.29l0.01-0.3l0.03-0.29
		l0.05-0.29l0.06-0.29l0.05-0.29l0.09-0.28l0.1-0.29l0.1-0.28l0.12-0.28l0.15-0.27l0.16-0.26l0.17-0.27l0.18-0.26l0.32-0.41
		l0.34-0.4l0.32-0.39l0.34-0.38l0.34-0.38l0.36-0.36l0.35-0.36l0.36-0.37l0.37-0.34l0.37-0.34l0.38-0.32l0.38-0.33l0.39-0.32
		l0.38-0.3l0.41-0.3l0.4-0.29l0.43-0.3l0.45-0.29l0.45-0.29l0.45-0.27l0.46-0.26l0.46-0.27l0.46-0.25l0.48-0.24l0.47-0.23l0.48-0.21
		l0.47-0.21l0.48-0.2l0.48-0.19l0.51-0.18l0.49-0.17l0.5-0.16l0.5-0.16l0.49-0.15l0.5-0.13l0.52-0.12l0.5-0.1l0.5-0.11l0.53-0.1
		l0.5-0.08l0.51-0.08l0.53-0.05l0.5-0.07l0.53-0.05l0.52-0.03l0.5-0.02l0.53-0.01l0.52-0.01L69,43.06l0.5,0.01l0.5,0.02l0.52,0.03
		l0.5,0.05l0.5,0.05l0.51,0.06l0.5,0.08l0.49,0.07l0.49,0.1l0.51,0.09l0.49,0.11l0.5,0.12l0.5,0.12L76,44.11l0.5,0.14l0.48,0.16
		l0.47,0.18l0.5,0.18l0.47,0.18l0.47,0.19l0.47,0.23l0.47,0.2l0.46,0.22l0.46,0.25l0.45,0.24l0.46,0.26l0.45,0.27l0.44,0.28
		l0.44,0.29l0.44,0.28l0.44,0.32l0.09,0.07l0.11,0.07l0.1,0.08l0.09,0.07l0.38,0.29L85,48.84l0.37,0.3l0.36,0.32l0.35,0.33
		l0.36,0.33l0.34,0.33l0.34,0.36l0.34,0.35l0.33,0.35l0.32,0.38l0.33,0.37l0.3,0.38l0.32,0.39l0.3,0.4L89.63,53.82z"/>
	<path class="st0" d="M57.49,31.44l0.38-0.16l0.37-0.16l0.38-0.17l0.37-0.17l0.37-0.18l0.36-0.18l0.37-0.19l0.35-0.19l0.36-0.2
		l0.36-0.2l0.34-0.2l0.35-0.22l0.68-0.43l0.66-0.46l0.34-0.26l0.35-0.26l0.32-0.25l0.32-0.27l0.32-0.27l0.31-0.27l0.32-0.27
		l0.3-0.29l0.31-0.29l0.29-0.29l0.3-0.3l0.29-0.3l0.29-0.3l0.29-0.32l0.28-0.31l0.27-0.32l-0.39-0.48l-0.39-0.49l-0.37-0.52
		l-0.36-0.5l-0.36-0.52l-0.33-0.54l-0.32-0.54l-0.31-0.55l-0.29-0.57l-0.29-0.56l-0.28-0.57l-0.27-0.59l-0.24-0.59l-0.25-0.59
		l-0.21-0.61l-0.21-0.62l-0.15-0.46l-0.12-0.45l-0.12-0.48l-0.12-0.47l-0.11-0.48l-0.09-0.47l-0.1-0.48l-0.09-0.49l-0.07-0.48
		l-0.07-0.5l-0.05-0.49l-0.03-0.5l-0.03-0.49l-0.05-0.51L62,7.63l-0.01-0.5l-0.01,0.54L61.94,8.2l-0.05,0.53l-0.08,0.52l-0.1,0.5
		l-0.1,0.5l-0.13,0.49l-0.15,0.49l-0.18,0.54l-0.22,0.54l-0.22,0.52l-0.25,0.49l-0.28,0.49l-0.29,0.48l-0.3,0.48l-0.33,0.46
		l-0.34,0.44l-0.37,0.43l-0.38,0.43l-0.4,0.4l-0.4,0.38l-0.42,0.37l-0.44,0.36l-0.46,0.34l-0.47,0.32l-0.47,0.31l-0.5,0.28
		l-0.49,0.27l-0.5,0.25l-0.52,0.24l-0.53,0.2l-0.54,0.19l-0.54,0.16l-0.55,0.15l-0.55,0.13l-0.55,0.1l-0.57,0.07L48.7,21.1
		l-0.28,0.03l-0.27,0.01h-1.02l-0.44-0.03l-0.45-0.05l-0.45-0.05l-0.44-0.07l-0.45-0.08l-0.45-0.11l-0.44-0.1l0.45,0.16L44.93,21
		l0.44,0.17l0.44,0.18l0.44,0.19l0.43,0.21l0.41,0.19l0.41,0.21l0.41,0.22l0.4,0.21l0.39,0.25l0.39,0.23l0.38,0.25l0.39,0.26
		l0.37,0.25l0.38,0.26l0.51,0.38l0.51,0.4l0.49,0.39l0.48,0.43l0.47,0.44l0.47,0.44L54,26.99l0.44,0.46l0.42,0.47l0.43,0.48
		l0.39,0.48l0.39,0.49l0.37,0.52l0.37,0.5l0.35,0.52L57.49,31.44z M39.62,32.12h0.05l0.49,0.14l0.5,0.14l0.49,0.13l0.49,0.12
		l0.49,0.1l0.49,0.1l0.5,0.1l0.49,0.08l0.49,0.05l0.49,0.08l0.5,0.05l0.5,0.06l0.49,0.03l0.49,0.02l0.49,0.03h1.15l0.66-0.03
		l0.65-0.03l0.65-0.06l0.66-0.07l0.65-0.08l0.64-0.1l0.65-0.11l0.62-0.13l0.65-0.13l0.62-0.16l0.61-0.18l0.61-0.18l0.61-0.2
		l0.61-0.22l0.59-0.21l0.23,0.35l0.21,0.36l0.23,0.38l0.19,0.36l0.21,0.38l0.2,0.37l0.18,0.37l0.18,0.39l0.17,0.37l0.17,0.39
		l0.16,0.4l0.16,0.38l0.15,0.39l0.15,0.39l0.15,0.4l0.14,0.39l0.13,0.41l0.11,0.38l0.1,0.4l0.11,0.4l0.1,0.39l0.09,0.4l0.09,0.4
		l0.09,0.4l0.07,0.41l0.06,0.39l0.08,0.41l0.05,0.41l0.06,0.4l0.05,0.42l0.03,0.41l0.03,0.4l-0.59,0.16l-0.59,0.17l-0.59,0.2
		l-0.59,0.19l-0.58,0.21l-0.58,0.23l-0.57,0.24l-0.57,0.26l-0.57,0.27l-0.54,0.26l-0.56,0.29l-0.55,0.3l-0.53,0.32l-0.53,0.32
		l-0.52,0.35l-0.52,0.35l-0.41,0.29l-0.41,0.3l-0.39,0.3l-0.4,0.31l-0.39,0.32l-0.39,0.33l-0.37,0.34l-0.38,0.34l-0.36,0.37
		l-0.35,0.36l-0.36,0.36l-0.34,0.38l-0.34,0.38l-0.33,0.39l-0.34,0.4l-0.32,0.4l-0.05,0.07l-0.03,0.05l0.31-0.44l0.28-0.45
		l0.25-0.45l0.26-0.46l0.21-0.47l0.22-0.46l0.18-0.47l0.17-0.48l0.17-0.54l0.15-0.56l0.12-0.56l0.11-0.56l0.07-0.57l0.06-0.56
		l0.03-0.56l0.01-0.57l-0.01-0.57l-0.03-0.55l-0.07-0.57l-0.07-0.56l-0.1-0.55l-0.12-0.55l-0.15-0.54l-0.16-0.55l-0.18-0.53
		l-0.19-0.52l-0.24-0.51l-0.23-0.5l-0.27-0.49l-0.28-0.49l-0.31-0.47l-0.32-0.46l-0.34-0.46l-0.36-0.43l-0.38-0.43l-0.41-0.41
		l-0.41-0.39l-0.43-0.39l-0.45-0.36l-0.48-0.36l-0.43-0.28l-0.44-0.28l-0.45-0.27l-0.46-0.25l-0.49-0.23l-0.49-0.21l-0.52-0.2
		L39.62,32.12z"/>
	<path class="st0" d="M61.65,43.93l0.05,0.63l0.03,0.63v1.27L61.7,47.1l-0.05,0.63l-0.05,0.63l-0.08,0.62l-0.08,0.63l-0.1,0.63
		l-0.12,0.62l-0.11,0.63l-0.16,0.62l-0.16,0.62l-0.19,0.62l-0.18,0.61l-0.16,0.45l-0.16,0.44l-0.17,0.44l-0.17,0.43l-0.18,0.44
		l-0.2,0.43l-0.19,0.43L59,57.43l-0.22,0.43l-0.22,0.43l-0.24,0.42l-0.24,0.42l-0.25,0.4l-0.27,0.42l-0.26,0.39l-0.27,0.4l0.31-0.38
		L57.69,60l0.34-0.35l0.36-0.36l0.36-0.32l0.36-0.32l0.39-0.3l0.39-0.27l0.47-0.34l0.49-0.31l0.5-0.27l0.52-0.27l0.52-0.25
		l0.54-0.22l0.53-0.21L64,56.02l0.54-0.16l0.55-0.15l0.56-0.11l0.55-0.1l0.57-0.07l0.56-0.07l0.57-0.03l0.56-0.01L69,55.34
		l0.53,0.03l0.54,0.05l0.53,0.08l0.54,0.08l0.52,0.11l0.53,0.12l0.5,0.15l0.5,0.17l0.51,0.18l0.48,0.2l0.49,0.24l0.47,0.24
		l0.48,0.27l0.45,0.29l0.44,0.3l0.13,0.11l0.12,0.09l0.32,0.26l0.31,0.27l0.31,0.28l0.3,0.27l0.29,0.3l0.29,0.32l0.28,0.33
		l0.27,0.34l-0.25-0.38l-0.25-0.38l-0.24-0.39l-0.23-0.38l-0.24-0.4l-0.21-0.41l-0.21-0.39l-0.19-0.41l-0.19-0.4l-0.2-0.41
		l-0.17-0.42l-0.17-0.4l-0.17-0.42l-0.16-0.42l-0.14-0.41L76,53.96l-0.19-0.62l-0.18-0.62l-0.16-0.63l-0.14-0.63l-0.14-0.63
		l-0.12-0.63l-0.1-0.64l-0.08-0.64l-0.08-0.64l-0.05-0.63L74.74,47l-0.03-0.64l-0.03-0.64l0.03-0.63l0.03-0.65l0.03-0.63L74,43.62
		l-0.79-0.15l-0.79-0.14l-0.79-0.1l-0.78-0.08l-0.8-0.05l-0.81-0.03l-0.79-0.01l-0.44,0.01l-0.41,0.01l-0.43,0.01l-0.44,0.02
		l-0.43,0.03l-0.43,0.03l-0.44,0.05l-0.41,0.05l-0.43,0.05l-0.43,0.07l-0.43,0.07l-0.42,0.09l-0.42,0.08l-0.41,0.09l-0.42,0.1
		L61.65,43.93z M73.02,28.35l0.34,0.22l0.34,0.24l0.34,0.21l0.34,0.21l0.35,0.23l0.36,0.2l0.34,0.2l0.36,0.2l0.36,0.19l0.36,0.18
		l0.36,0.18l0.37,0.19l0.37,0.17l0.37,0.17l0.37,0.16l0.38,0.14l0.34-0.53l0.35-0.52l0.37-0.51l0.37-0.5l0.4-0.5l0.39-0.49
		l0.41-0.47l0.43-0.47l0.44-0.46l0.45-0.45l0.47-0.45l0.47-0.43l0.48-0.43l0.5-0.39l0.52-0.41l0.52-0.38l0.38-0.26l0.36-0.25
		l0.39-0.25l0.37-0.25l0.39-0.23l0.39-0.23l0.4-0.22l0.4-0.22l0.4-0.2l0.43-0.2l0.41-0.19l0.43-0.2l0.44-0.18l0.43-0.17l0.45-0.17
		l0.44-0.17l-0.41,0.11l-0.44,0.09l-0.44,0.08l-0.44,0.07l-0.43,0.05l-0.44,0.05l-0.43,0.03h-1l-0.28-0.01l-0.29-0.03l-0.56-0.07
		l-0.56-0.07l-0.56-0.1l-0.56-0.13l-0.54-0.15l-0.54-0.16l-0.55-0.19l-0.52-0.2l-0.52-0.24l-0.52-0.25l-0.49-0.27l-0.49-0.28
		l-0.49-0.31l-0.46-0.31l-0.46-0.34l-0.43-0.36l-0.44-0.37l-0.41-0.38l-0.39-0.4l-0.38-0.43l-0.37-0.43l-0.35-0.44l-0.33-0.46
		l-0.3-0.48l-0.3-0.48l-0.27-0.49l-0.13-0.24l-0.12-0.26l-0.1-0.27l-0.12-0.25l-0.11-0.27l-0.09-0.27l-0.1-0.27l-0.09-0.27
		l-0.14-0.49l-0.12-0.49l-0.11-0.5l-0.1-0.5l-0.07-0.53l-0.05-0.53l-0.03-0.54l-0.03-0.54v0.5l-0.02,0.52l-0.03,0.52l-0.05,0.49
		l-0.05,0.5l-0.05,0.49l-0.08,0.5l-0.07,0.48l-0.09,0.49l-0.08,0.48l-0.1,0.47l-0.11,0.48l-0.11,0.47l-0.14,0.48l-0.13,0.45
		l-0.14,0.46l-0.22,0.62l-0.21,0.61l-0.23,0.59l-0.26,0.59l-0.26,0.59l-0.28,0.57l-0.29,0.56l-0.3,0.57l-0.31,0.55l-0.33,0.54
		l-0.34,0.54l-0.34,0.52l-0.37,0.5l-0.37,0.52l-0.39,0.49l-0.39,0.48l0.27,0.33l0.28,0.31l0.29,0.31l0.28,0.3l0.3,0.3l0.29,0.3
		l0.3,0.29l0.32,0.29l0.3,0.29l0.32,0.27l0.32,0.27l0.32,0.27l0.34,0.27l0.34,0.25l0.32,0.26L73.02,28.35z"/>
	<path class="st0" d="M96.56,32.13l-0.5,0.18l-0.5,0.2l-0.49,0.21l-0.48,0.23l-0.46,0.25l-0.45,0.27l-0.45,0.28l-0.43,0.28
		l-0.46,0.36l-0.45,0.36l-0.43,0.39l-0.41,0.4l-0.39,0.42l-0.37,0.43l-0.35,0.43l-0.35,0.46l-0.32,0.46l-0.29,0.47l-0.28,0.5
		l-0.26,0.5l-0.25,0.51l-0.21,0.51l-0.21,0.53l-0.17,0.53l-0.17,0.55l-0.14,0.54l-0.12,0.55l-0.09,0.55l-0.09,0.56l-0.05,0.58
		l-0.03,0.55l-0.03,0.57l0.03,0.58l0.03,0.56l0.05,0.56l0.08,0.58l0.09,0.56l0.13,0.56l0.15,0.56l0.17,0.54l0.17,0.48l0.18,0.47
		l0.21,0.47l0.22,0.47l0.25,0.46l0.27,0.45l0.28,0.45l0.3,0.44l0.19,0.28l0.16,0.21l0.1,0.13l0.03,0.05l-0.03-0.03l-0.08-0.1
		l-0.16-0.21l-0.2-0.3l-0.29-0.4l-0.3-0.4l-0.31-0.39l-0.3-0.38l-0.32-0.37l-0.32-0.38l-0.32-0.35l-0.34-0.35l-0.34-0.36l-0.34-0.33
		l-0.36-0.33l-0.35-0.33l-0.36-0.32l-0.37-0.3l-0.36-0.29l-0.38-0.3l-0.09-0.07l-0.1-0.08l-0.11-0.07l-0.09-0.07l-0.52-0.37
		l-0.53-0.35l-0.54-0.36l-0.54-0.33l-0.55-0.31l-0.56-0.3l-0.55-0.27l-0.57-0.27l-0.57-0.26l-0.57-0.24l-0.58-0.24l-0.57-0.2
		l-0.59-0.19l-0.58-0.19l-0.6-0.17l-0.59-0.15l0.03-0.41l0.03-0.4l0.05-0.39l0.05-0.41l0.05-0.42l0.07-0.39l0.07-0.4l0.08-0.39
		l0.17-0.81l0.18-0.79l0.22-0.78l0.22-0.78l0.14-0.39l0.13-0.4l0.15-0.4l0.16-0.39l0.14-0.38l0.17-0.4l0.17-0.39l0.17-0.37l0.18-0.4
		l0.19-0.37l0.19-0.37l0.19-0.38l0.2-0.36l0.21-0.38l0.21-0.36l0.22-0.36l0.59,0.23l0.59,0.23l0.6,0.2l0.61,0.18l0.62,0.17
		l0.62,0.16L83,32.75l0.63,0.14L84.26,33l0.64,0.1l0.63,0.08l0.65,0.07l0.64,0.05l0.65,0.03l0.65,0.03h1.13l0.48-0.03l0.48-0.03
		l0.49-0.03l0.48-0.05l0.48-0.05l0.48-0.08l0.48-0.06l0.49-0.08l0.49-0.1l0.48-0.1l0.48-0.1l0.49-0.12l0.48-0.14l0.47-0.14
		l0.48-0.14L96.56,32.13z"/>
</g>
<g id="Layer_2" class="st2">
	<path class="st3" d="M252.49,12.25c0-2.83-2.22-5.09-5-5.09h-0.03c-2.78,0-5.04,2.26-5.04,5.09c0,2.87,2.26,5.11,5.04,5.11
		C250.27,17.36,252.49,15.12,252.49,12.25z M243.39,12.25c0-2.37,1.83-4.3,4.07-4.3h0.03c2.26,0,4.07,1.92,4.07,4.32
		c0,2.39-1.81,4.32-4.07,4.29C245.23,16.56,243.39,14.66,243.39,12.25z M245.61,15.21h0.9v-2.44h0.64c0.72,0,1.09,0.27,1.22,1
		c0.11,0.75,0.25,1.27,0.38,1.45h0.95c-0.09-0.18-0.23-0.52-0.36-1.4c-0.11-0.84-0.45-1.29-0.95-1.38v-0.04
		c0.61-0.18,1.11-0.63,1.11-1.38c0-0.54-0.18-0.93-0.52-1.18c-0.34-0.25-0.91-0.43-1.77-0.43c-0.65,0-1.09,0.06-1.54,0.12
		l-0.07,0.01V15.21z M247.17,12.07h-0.66v-1.92c0.16-0.02,0.36-0.05,0.66-0.05c1.02,0,1.38,0.5,1.38,1
		C248.55,11.79,247.92,12.07,247.17,12.07z M52.68,47.88c-0.04,0.01-0.08,0.02-0.13,0.02l0.01-0.02
		c-6.51,1.31-12.88,1.37-13.82,1.37h-0.01h-0.12l-3.4,8.14h0.19h13.57h0.19L52.68,47.88z M219.82,42.49c14,0,22.49-6.92,22.49-17.66
		c0-10.21-7.75-17.67-22.49-17.67h-26.67v48.17l-14.32-15.57c2.2-1,10.11-4.87,10.11-14.93c0-10.05-8.14-17.67-24.76-17.67h-24.44
		v46.36L121.86,7.16h-20.44l-12.87,31.5L76.4,7.16h-8.62H57.75h-1.76L43.71,37.15c-1.53,0.15-3.18,0.25-5.11,0.25
		c-11.33,0-21.16-6.35-22.18-7.01l-3.93,9.6c0.01,0.01,0.03,0.02,0.05,0.04c0.97,0.66,11.03,7.52,25.47,7.52
		c4.6,0,8.29-0.55,11.95-1.08c3.59-0.53,7.15-1.05,11.49-1.05c11.32,0,19.22,3.99,22.04,5.67l-0.78,1.91
		c-1.75-1.04-5.26-2.92-9.85-4.05l3.05,8.45h18.71l4.13-11.12l0,0c0.29-0.05,4.54-0.8,9.33-0.8c4.84,0,8.93,0.77,9.19,0.82
		l4.03,11.1h36.69V37.16l15.35,20.23h38.04v-14.9H219.82z M62.71,20.84l5.61,15.47l-0.02,0c-0.43-0.08-3.69-0.71-8.09-0.71
		c-1.07,0-2.07,0.02-3,0.06L62.71,20.84z M108.1,21.03l5.6,14.96c-0.27-0.04-3.07-0.39-5.6-0.39c-2.37,0-5.44,0.36-5.7,0.39
		L108.1,21.03z M160.7,15.44c6.96,0,9.47,4.4,9.47,9.39c0,5.8-3.21,9.35-9.47,9.35h-2.68V15.44H160.7z M215.11,15.44
		c5.53,0,8.43,3.93,8.43,9.39c0,5.84-3.24,9.35-8.43,9.35h-3.71V15.44H215.11z"/>
</g>
<g id="Layer_3" class="st2">
	<path class="st4" d="M23.07,47.11c-4.49-0.04-8.82-1.71-12.17-4.66c-0.69-0.61-1.31-1.35-1.76-2.2c-0.25-0.29-0.16-0.69,0.08-0.9
		c0.98-0.82,1.88-1.63,2.82-2.49c0.45-0.45,0.65-0.37,1.02,0.12c3.55,4.74,9.84,6.57,15.39,4.49c3.19-1.06,4.94-4.49,3.88-7.68
		c-0.49-1.51-1.59-2.78-3.02-3.51c-2.33-1.1-4.74-1.96-7.27-2.45c-2.12-0.49-4.25-1.18-6.25-2.08c-7.27-3.27-7.47-13.11-2.45-17.48
		c2.86-2.53,6.57-3.88,10.37-3.76c4.25-0.12,8.37,1.31,11.6,4.04c1.76,1.55,1.76,1.63,0,3.1c-0.61,0.53-1.22,1.06-1.88,1.59
		c-0.65,0.57-0.57,0.29-0.9,0c-3.55-3.63-8.9-4.82-13.64-3.06c-2.9,0.94-4.61,3.96-3.96,6.9c0.25,1.72,1.35,3.14,2.9,3.84
		c2.04,0.98,4.21,1.67,6.41,2.08c2.53,0.57,4.98,1.39,7.31,2.45c4.12,1.76,6.62,5.96,6.21,10.45c-0.08,4.49-2.94,8.49-7.19,9.96
		C28.3,46.83,25.69,47.28,23.07,47.11z"/>
	<path class="st4" d="M240.85,44.62c-4.29,3.76-10.82,3.35-14.58-0.94c-1.23-1.39-2.04-3.06-2.41-4.9
		c-0.41-1.63-0.57-3.31-0.57-4.98V17.83c0-0.82,0.2-1.02,1.02-1.02h2.82c0.9,0,1.18,0.16,1.18,1.14v15.48
		c-0.04,1.55,0.16,3.06,0.65,4.53c0.53,2.21,2.41,3.84,4.65,4.04c2.25,0.25,4.41-0.69,5.72-2.53c1.06-1.43,1.63-3.23,1.55-5.02
		V17.83c0-0.86,0.2-1.06,1.1-1.06h3.1c0.65,0,0.9,0.16,0.9,0.86v31.08c0.04,2.7-0.65,5.35-2.04,7.68c-2.25,3.1-6,4.74-9.8,4.25
		c-0.41,0-0.45-0.24-0.45-0.57V56.1c0-0.53,0.29-0.57,0.65-0.57c0.82,0.04,1.67-0.08,2.45-0.37c2.41-0.82,4-3.06,3.96-5.59
		C240.93,48.09,240.81,46.42,240.85,44.62z"/>
	<path class="st4" d="M48.31,19.02c3.8-3.06,9.15-3.31,13.23-0.65c2.49,1.88,4.08,4.7,4.45,7.8c0.16,1.1,0.25,2.16,0.25,3.27v16.37
		c0,0.74-0.2,1.02-0.94,0.98c-1.06-0.08-2.12-0.08-3.19,0c-0.74,0-0.9-0.2-0.9-0.9V29.63c0-1.47-0.25-2.9-0.74-4.25
		c-1.06-3.06-4.37-4.66-7.43-3.59c-0.9,0.33-1.72,0.86-2.37,1.55c-1.63,1.55-2.49,3.8-2.33,6.04v16.25c0,1.02-0.29,1.27-1.22,1.18
		c-0.94-0.08-1.88,0-2.98,0c-0.78,0-0.9-0.24-0.9-0.94V6.07c0-0.86,0.2-1.06,1.06-1.06h3.1c0.82,0,1.1,0.16,1.1,1.06V18
		c-0.04,0.37-0.04,0.74,0,1.1"/>
	<path class="st4" d="M94.29,27.39c-0.12,2.82,0.2,6.25-0.2,9.68c-0.53,6.17-5.96,10.74-12.13,10.25c-1.71-0.16-3.39-0.69-4.9-1.59
		c-3.23-1.92-5.19-5.35-5.23-9.11c-0.37-5.06-0.16-10.09-0.16-15.19v-3.88c0-0.61,0.2-0.74,0.78-0.78h3.39c0.78,0,0.9,0.25,0.9,0.94
		v16.54c-0.04,1.39,0.2,2.78,0.69,4.08c1.18,3.06,4.66,4.57,7.72,3.39c1.67-0.65,2.94-2.04,3.51-3.76c0.41-1.31,0.65-2.69,0.61-4.08
		V17.79c0-0.78,0.2-1.02,0.94-0.94c1.1,0.04,2.21,0.04,3.31,0c0.65,0,0.82,0.16,0.82,0.82c0,3.02,0,6.04,0,9.72"/>
	<path class="st4" d="M102.66,29.47v-6.82c0-0.57-0.16-0.82-0.78-0.78c-0.61,0.04-1.35,0-2.04,0c-0.69,0-0.9-0.12-0.86-0.78v-3.47
		c0-0.65,0.25-0.82,0.86-0.78c0.61,0.04,1.35,0,2.04,0c0.69,0,0.78-0.29,0.78-0.86V6.11c0-1.02,0.29-1.18,1.23-1.18h3.1
		c0.65,0,0.82,0.2,0.82,0.82v10.05c0,0.82,0.2,1.06,1.02,1.02h5.43c0.74,0,0.94,0.2,0.9,0.94v3.39c0,0.61-0.2,0.78-0.78,0.74h-5.8
		c-0.45,0-0.74,0-0.74,0.61c0,4.37,0,8.78,0.12,13.11c-0.2,3.35,2.37,6.17,5.68,6.37h0.04c0.29,0.04,0.57,0.04,0.86,0
		c0.45,0,0.57,0.08,0.57,0.53v4c0,0.53-0.29,0.61-0.74,0.61c-5.8,0-10-2.33-11.35-8.94C102.62,35.31,102.5,32.41,102.66,29.47z"/>
	<path class="st4" d="M197.93,34.37v11.52c0,0.65-0.2,0.9-0.9,0.86c-1.06-0.08-2.12-0.08-3.19,0c-0.78,0-1.02-0.16-1.02-1.02v-22.7
		c0-0.9-0.2-0.98-1.1-0.98s-1.88,0.2-2.41-0.37c-0.53-0.57-0.37-1.55-0.37-2.41c0-0.86-0.16-1.88,0.33-2.37
		c0.49-0.49,0.94-0.29,2.33-0.29c0.9,0,1.18,0,1.27-0.94c-0.04-3.23,1.22-6.37,3.51-8.66c2.33-2,5.39-2.98,8.45-2.7
		c0.53,0,0.41,0.37,0.41,0.65v3.63c0,0.69-0.2,0.82-0.86,0.82c-2.33-0.16-4.49,1.02-5.6,3.06c-0.53,1.06-0.86,2.25-0.94,3.43
		c0,0.65,0,0.9,0.78,0.9h5.84c0.57,0,0.78,0.16,0.74,0.74c0.08,1.18,0.08,2.37,0,3.55c0,0.65-0.2,0.74-0.78,0.74h-5.8
		c-0.65,0-0.82,0.2-0.82,0.82C197.89,26.57,197.89,30.45,197.93,34.37z"/>
	<path class="st4" d="M127.57,29.47c-0.08,2.29,0,4.61,0.2,6.9c0.16,3.27,2.98,5.8,6.25,5.59h0.24c0.53,0,0.65,0.2,0.65,0.65v3.55
		c0,0.69-0.2,0.9-0.86,0.9c-5.68,0.57-10.74-3.59-11.31-9.27c0-0.04,0-0.04,0-0.08c-0.2-1.43-0.29-2.9-0.2-4.33V22.86
		c0-0.9-0.25-1.1-1.1-1.06c-0.69,0.04-1.35,0.04-2.04,0c-0.69,0-0.57-0.12-0.57-0.57v-3.8c0-0.45,0.12-0.65,0.61-0.61
		c0.49,0.04,1.1,0,1.63,0c1.39,0,1.39,0,1.39-1.47V5.79c0-0.78,0.2-0.94,0.98-0.94h3.35c0.65,0,0.82,0.2,0.82,0.82v10.17
		c0,0.69,0.16,0.94,0.9,0.9h5.72c0.57,0,0.82,0.16,0.78,0.78v3.63c0,0.57-0.2,0.69-0.69,0.69h-5.84c-0.69,0-0.86,0.2-0.86,0.9
		c0,2.12,0,4.29,0,6.78"/>
	<path class="st4" d="M211.85,25.8V5.99c0-0.82,0.16-1.02,0.98-1.02h3.1c0.86,0,1.06,0.25,0.94,1.02c-0.12,0.78,0,1.14,0,1.76v37.94
		c0,0.86-0.16,1.06-1.1,1.1s-1.88,0.04-2.82,0c-0.9,0-1.18-0.16-1.18-1.14c0.16-6.62,0-13.23,0-19.85"/>
	<path class="st4" d="M175.06,20c2.25-2.53,5.55-3.8,8.9-3.35c0.53,0,0.74,0.16,0.74,0.74v3.8c0,0.49-0.12,0.65-0.65,0.57
		c-4.21-0.69-8.21,2.12-8.9,6.33c-0.08,0.53-0.08,1.1,0,1.63v16.05c0,0.78-0.2,0.98-0.98,0.94c-1.06-0.04-2.12-0.04-3.19,0
		c-0.82,0-0.94-0.24-0.94-0.98V17.67c0-0.65,0.2-0.9,0.9-0.86h3.39c0.69,0,0.9,0.2,0.86,0.9c-0.04,0.69,0,1.35,0,2.25"/>
	<path class="st4" d="M163.63,26.04c-1.55-5.1-4.66-8.53-10.09-9.35c-5.1-1.06-10.33,1.18-13.11,5.59
		c-2.29,3.51-3.19,7.8-2.53,11.96c0.37,3.43,1.88,6.62,4.33,9.07c5.88,5.35,14.95,4.94,20.3-0.9c0.2-0.2,0.41-0.45,0.57-0.65
		c0.2-0.2,0.2-0.53,0-0.78c-0.69-0.57-1.39-1.18-2-1.88c-0.61-0.69-0.86-0.53-1.35,0c-1.84,2-4.37,3.14-7.06,3.27
		c-4.82,0.49-9.15-2.98-9.8-7.8c-0.12-0.78,0.12-0.9,0.82-0.9h19.85c0.65,0,0.82-0.2,0.86-0.82c0.08-2.33-0.16-4.66-0.78-6.9V26.04z
		 M157.75,29.72h-14.21c-0.29,0-0.69,0.16-0.65-0.45c0.29-3.51,2.49-6.57,5.72-7.92c5.02-1.67,9.35,1.06,10.58,6.62
		c0.45,1.88,0.45,1.88-1.43,1.88V29.72z"/>
	<path class="st4" d="M251.34,40.86c-1.55,0-2.82,1.27-2.82,2.82c0,1.55,1.27,2.82,2.82,2.82c1.51-0.04,2.69-1.27,2.65-2.78
		c0.08-1.51-1.06-2.78-2.57-2.86c0,0,0,0-0.04,0h-0.16H251.34z M251.3,45.89c-1.22-0.08-2.21-1.1-2.12-2.37
		c0.08-1.23,1.1-2.21,2.37-2.12c1.18,0.04,2.12,1.02,2.12,2.21c-0.04,1.27-1.02,2.25-2.29,2.25L251.3,45.89z"/>
	<path class="st4" d="M250.28,42.34h1.02c0.57,0,1.1,0.16,1.1,0.73c0,0.37-0.33,0.69-0.69,0.69l0.78,1.14h-0.61l-0.69-1.1h-0.41v1.1
		h-0.49V42.34z M251.22,43.44c0.29,0,0.65,0,0.65-0.37c0-0.37-0.33-0.33-0.61-0.33h-0.45v0.69H251.22z"/>
</g>
<g id="Layer_4" class="st2">
	<path class="st4" d="M115.73,43.24c7.6,0,9.8-13.28,9.8-17.19c0-2.97-1.63-5.02-4.65-5.02c-7.9,0-10.05,12.98-10.05,16.8
		C110.84,41.1,112.73,43.24,115.73,43.24z M121.12,18.15c7.37,0,10.96,4.15,10.96,9.95c0,6.94-4.88,18-16.77,18
		c-7,0-11.1-4.14-11.1-10.31C104.22,28.75,109.53,18.15,121.12,18.15z"/>
	<path class="st4" d="M171.11,18.52l-4.33,17.61c-1.22,4.79,1.7,6.79,5.15,6.79c5.81,0,7.34-4.9,8.36-9.02l3.84-15.37h4.4
		l-4.28,17.35c-2,7.86-7.61,10.23-13.61,10.23c-8.94,0-11.28-5.08-10.06-10.15l4.16-17.43H171.11z"/>
	<path class="st4" d="M200.92,18.52l-5.93,24.05h8.94l-2,3.16h-13.96l6.64-27.21H200.92z"/>
	<path class="st4" d="M217.98,34.97h5.62l-1.58-9.49l-12.35,20.25h-4.95l17.55-27.21h3.74l5.52,27.21h-6l-1.43-7.94h-7.67
		L217.98,34.97z"/>
	<path class="st4" d="M245.33,31.03h2.3c5.8,0,6.98-4.07,6.98-6.55c0-2.35-1.89-3.06-4.61-3.06h-3.26l-5.86,24.31h-6.1l6.63-27.22
		h8.98c4.55,0,10.61,0.59,10.61,5.78c0,3.85-3.53,7.61-9.01,8.43l7.54,13.01h-6.66L245.33,31.03z"/>
	<path class="st4" d="M88.42,32.58h0.05c6.51,0,8.4-5.66,8.4-8.03c0-1.72-1.08-3.13-4.89-3.13H88.7l-6,24.31h-6.33l6.68-27.22h10.08
		c4.92,0,10.45,1.3,10.45,5.99c0,4.55-3.65,9.42-13.81,9.42h-1.62l0.28-1.35"/>
	<path class="st4" d="M144.55,32.58h0.04c6.45,0,8.35-5.66,8.35-8.03c0-1.72-1.07-3.13-4.9-3.13h-3.2l-6.04,24.31h-6.4l6.73-27.22
		h10.01c4.98,0,10.55,1.3,10.55,5.99c0,4.55-3.65,9.42-13.79,9.42h-1.64l0.28-1.35"/>
	<g class="st5">
		<path class="st6" d="M61.28,29.87l-13.58,1.2v-0.02c-0.05-0.4-0.1-0.76-0.16-1.16l13.38-2.55C61.08,28.21,61.2,29,61.28,29.87z
			 M60.15,24.2L47.1,28.11h-0.02c-0.12-0.38-0.26-0.75-0.4-1.11l12.64-5.24C59.64,22.55,59.92,23.37,60.15,24.2z M57.88,18.83
			l-12,6.45c0,0,0,0,0,0h-0.01l0.01,0c-0.24-0.4-0.49-0.78-0.76-1.14l11.11-7.91C56.82,17.06,57.37,17.93,57.88,18.83z M54.17,13.63
			l-10.24,9c-0.3-0.35-0.62-0.69-0.95-1.01l8.98-10.13C52.74,12.17,53.48,12.88,54.17,13.63z M49.34,9.38l-7.91,11.05
			c-0.47-0.31-0.96-0.6-1.46-0.87L46.3,7.52C47.36,8.08,48.37,8.7,49.34,9.38z M39.84,5.02c1.17,0.29,2.32,0.66,3.45,1.09
			l-5.05,12.63c-0.52-0.2-1.06-0.38-1.6-0.51L39.84,5.02z M36.52,4.42L34.7,17.89v-0.01c-0.56-0.07-1.12-0.1-1.69-0.1L32.96,4.2
			C34.15,4.21,35.34,4.28,36.52,4.42z M29.59,4.41l1.51,13.49v0.02c-0.74,0.09-1.47,0.24-2.19,0.45L25.1,5.32
			C26.56,4.88,28.07,4.58,29.59,4.41z M21.93,6.44l5.17,12.57h0.02c-0.83,0.37-1.63,0.8-2.4,1.29L17.05,9.04
			C18.6,8.03,20.23,7.16,21.93,6.44z M14.37,11.12l8.83,10.35v0c-0.69,0.6-1.31,1.26-1.88,1.98l-10.77-8.33
			C11.66,13.64,12.94,12.3,14.37,11.12z M8.57,17.87l11.65,7.12v0c-0.51,0.87-0.93,1.79-1.23,2.75L6.04,23.34
			C6.69,21.44,7.54,19.6,8.57,17.87z M5.11,26.59l13.33,2.96c-0.21,0.99-0.31,1.99-0.31,3L4.5,32.6C4.49,30.58,4.7,28.57,5.11,26.59
			z M4.67,35.98l13.58-1.52c0.14,1.16,0.43,2.3,0.85,3.39L6.37,42.76C5.52,40.58,4.95,38.3,4.67,35.98z M7.76,45.84l12.14-6.21
			l0-0.02c0.63,1.17,1.42,2.25,2.36,3.19l-9.81,9.49C10.59,50.37,9.01,48.2,7.76,45.84z M15,54.59l8.69-10.45
			c1.23,1,2.63,1.78,4.12,2.31l-4.55,12.85C20.25,58.22,17.46,56.62,15,54.59z M32.96,61c-2.19,0-4.37-0.25-6.5-0.76l3.24-13.22
			c1.07,0.24,2.16,0.36,3.25,0.36h0c1.11,0,2.22-0.12,3.3-0.37l3.13,13.24C37.29,60.75,35.13,61,32.96,61z M42.67,59.32l-4.51-12.89
			c2.49-0.89,4.67-2.47,6.3-4.54l10.68,8.53C51.85,54.44,47.54,57.51,42.67,59.32z M61.35,34.28c-0.26,4.75-1.73,9.36-4.27,13.38
			l-11.44-7.31c1.07-1.77,1.75-3.74,2-5.79H36.62l-3.09-1.96h27.91L61.35,34.28z"/>
		<path class="st6" d="M31.09,17.92V17.9L29.59,4.41c-1.52,0.17-3.02,0.47-4.49,0.91l3.81,13.04
			C29.62,18.16,30.35,18.01,31.09,17.92z"/>
		<path class="st6" d="M23.69,44.15L15,54.59c2.47,2.03,5.26,3.62,8.26,4.72l4.55-12.85C26.31,45.93,24.92,45.14,23.69,44.15z"/>
		<path class="st6" d="M19.9,39.61l0,0.02L7.76,45.84c1.25,2.36,2.83,4.54,4.69,6.45l9.81-9.49C21.32,41.85,20.52,40.78,19.9,39.61z
			"/>
		<path class="st6" d="M34.7,17.88v0.01l1.82-13.47c-1.18-0.14-2.37-0.22-3.56-0.22l0.06,13.57C33.57,17.78,34.14,17.81,34.7,17.88z
			"/>
		<path class="st6" d="M18.44,29.55L5.11,26.59C4.7,28.57,4.49,30.58,4.5,32.6l13.63-0.06C18.13,31.54,18.24,30.53,18.44,29.55z"/>
		<path class="st6" d="M27.12,19.01H27.1L21.93,6.44c-1.7,0.72-3.33,1.59-4.87,2.6l7.66,11.25C25.48,19.81,26.29,19.38,27.12,19.01z
			"/>
		<path class="st6" d="M18.25,34.46L4.67,35.98c0.28,2.32,0.85,4.6,1.7,6.79l12.73-4.91C18.68,36.76,18.4,35.62,18.25,34.46z"/>
		<path class="st6" d="M43.28,6.12c-1.12-0.43-2.28-0.8-3.45-1.09l-3.2,13.21c0.54,0.14,1.08,0.31,1.6,0.51L43.28,6.12z"/>
		<path class="st6" d="M20.21,24.99L20.21,24.99L8.57,17.87c-1.03,1.74-1.87,3.57-2.53,5.48l12.95,4.39
			C19.29,26.78,19.7,25.85,20.21,24.99z"/>
		<path class="st6" d="M23.19,21.47L23.19,21.47l-8.83-10.35c-1.42,1.18-2.7,2.52-3.82,3.99l10.77,8.33
			C21.88,22.73,22.51,22.07,23.19,21.47z"/>
		<path class="st6" d="M41.43,20.43l7.91-11.05c-0.97-0.69-1.99-1.31-3.04-1.86l-6.33,12.04C40.47,19.83,40.96,20.12,41.43,20.43z"
			/>
		<path class="st6" d="M38.15,46.43l4.51,12.89c4.87-1.81,9.18-4.88,12.47-8.9l-10.68-8.53C42.82,43.96,40.64,45.54,38.15,46.43z"/>
		<path class="st6" d="M32.96,47.38L32.96,47.38c-1.1,0-2.19-0.12-3.26-0.36l-3.24,13.22c2.13,0.5,4.31,0.76,6.5,0.76
			c2.17,0,4.33-0.25,6.44-0.75l-3.13-13.24C35.18,47.26,34.07,47.38,32.96,47.38z"/>
		<path class="st6" d="M47.71,31.06v0.02l13.58-1.2c-0.09-0.87-0.2-1.67-0.36-2.53l-13.38,2.55C47.6,30.29,47.66,30.66,47.71,31.06z
			"/>
		<path class="st6" d="M43.93,22.64l10.24-9c-0.69-0.75-1.43-1.47-2.21-2.14l-8.98,10.13C43.31,21.95,43.63,22.28,43.93,22.64z"/>
		<path class="st6" d="M47.07,28.11h0.02l13.06-3.92c-0.23-0.83-0.51-1.65-0.84-2.44L46.67,27C46.81,27.36,46.95,27.73,47.07,28.11z
			"/>
		<path class="st6" d="M45.88,25.27l12-6.45c-0.51-0.89-1.06-1.76-1.66-2.6l-11.11,7.91C45.38,24.49,45.64,24.88,45.88,25.27z"/>
		<polygon class="st6" points="45.88,25.28 45.88,25.27 45.87,25.28 		"/>
		<path class="st6" d="M36.62,34.56h11.02c-0.25,2.05-0.94,4.02-2,5.79l11.44,7.31c2.54-4.03,4.01-8.63,4.27-13.38l0.09-1.67H33.53
			L36.62,34.56z"/>
	</g>
</g>
<g id="Layer_5" class="st2">
	<path class="st4" d="M235.38,35.71V21.43h-3.99v-4.7h4.16V7.84h5.72v8.87h7.46v4.7h-7.46V35c0,1.21,0.17,2.26,0.52,3.13
		c0.35,0.88,0.69,1.57,1.21,2.09c0.52,0.52,1.04,0.88,1.57,1.21c0.69,0.35,1.21,0.52,1.73,0.52c0.52,0,1.04,0.17,1.57,0.17
		l1.38-0.17v5.22c-0.52,0-1.21,0.17-2.09,0.17c-1.04,0-1.9,0-2.78-0.17c-0.86-0.17-1.9-0.35-2.95-0.88
		c-1.21-0.52-2.09-1.04-2.95-1.92s-1.57-1.92-2.09-3.3c-0.69-1.73-1.04-3.32-1.04-5.41L235.38,35.71z M210.92,47.04V16.19h5.72v5.41
		l-0.17,2.27h0.17c0.69-2.27,1.9-4.36,3.63-5.74c1.73-1.57,3.64-2.27,6.08-2.27l1.57,0.17v5.74c-0.52-0.17-1.04-0.17-1.73-0.17
		c-1.9,0-3.64,0.69-5.2,1.92c-1.57,1.21-2.78,3.13-3.47,5.22c-0.52,1.57-0.69,3.49-0.69,5.57v12.55l-5.89,0.17L210.92,47.04z
		 M178.13,31.72c0-4.88,1.38-8.71,4.34-11.67c2.95-2.96,6.6-4.36,10.92-4.36c4.32,0,7.46,1.4,9.71,4.01
		c2.26,2.78,3.47,6.1,3.47,10.27l-0.17,2.61h-22.37c0.17,3.32,1.21,5.74,3.3,7.49c2.09,1.73,4.51,2.61,7.29,2.61
		c1.57,0,3.13-0.35,4.68-0.88c1.57-0.52,2.61-1.21,3.3-1.73l1.04-0.88l2.42,4.36c-0.35,0.35-0.86,0.69-1.38,1.21
		c-0.69,0.52-2.09,1.21-3.99,1.92c-2.09,0.88-4.16,1.21-6.41,1.21c-4.68,0-8.67-1.57-11.63-4.53c-2.95-3.3-4.51-7.14-4.51-11.67
		L178.13,31.72z M184.38,28.07h16.31c0-2.61-0.86-4.53-2.26-5.74c-1.38-1.4-3.11-2.09-5.2-2.09c-2.26,0-4.34,0.69-5.89,2.09
		c-1.57,1.4-2.42,3.32-2.95,5.74H184.38z M148.81,31.72c0-4.53,1.57-8.37,4.68-11.5c3.13-3.13,6.93-4.7,11.8-4.7
		c2.26,0,4.34,0.35,6.24,1.04c1.9,0.69,3.3,1.57,4.16,2.27l1.21,1.04l-2.78,4.18c-0.17-0.17-0.52-0.52-1.04-1.04
		c-0.52-0.35-1.38-0.88-2.95-1.57c-1.4-0.69-2.95-1.04-4.51-1.04c-3.13,0-5.56,1.04-7.62,3.13c-2.09,2.09-2.95,4.7-2.95,7.85
		s1.04,5.74,3.13,7.85c2.09,2.09,4.68,3.13,7.81,3.13c1.73,0,3.3-0.35,4.87-1.04c1.57-0.69,2.78-1.4,3.47-2.09l1.04-1.04l2.42,4.36
		l-0.52,0.52c-0.17,0.17-0.69,0.69-1.57,1.23c-0.69,0.52-1.57,1.04-2.42,1.57c-0.88,0.35-2.09,0.88-3.47,1.23
		c-1.4,0.35-2.78,0.52-4.34,0.52c-4.87,0-8.67-1.57-11.8-4.53c-3.3-2.96-4.87-6.79-4.87-11.32V31.72z M138.58,10.11V4h5.89v6.1
		h-5.89V10.11z M138.75,47.04V16.19h5.89v30.83h-5.89V47.04z M109.78,52.62c2.61,1.4,5.37,2.09,8.33,2.09s5.2-0.69,6.93-2.09
		s2.59-3.65,2.59-6.62v-4.18h-0.17c-1.9,3.13-4.87,4.88-9.02,4.88s-7.46-1.57-9.88-4.53c-2.42-2.96-3.64-6.8-3.64-11.32
		s1.21-8.18,3.64-11.15c2.42-2.78,5.72-4.36,9.88-4.36c1.38,0,2.61,0.17,3.82,0.52s2.09,0.69,2.78,1.21
		c0.69,0.52,1.21,0.88,1.73,1.4c0.52,0.52,0.86,0.88,1.04,1.21l0.35,0.35h0.17v-3.84h5.56v29.43c0,2.44-0.52,4.53-1.21,6.45
		c-0.86,1.92-2.09,3.32-3.47,4.36c-1.73,1.21-3.47,2.09-5.2,2.61s-3.64,0.88-5.72,0.88c-3.64,0-7.1-0.88-10.4-2.61l1.9-4.7
		L109.78,52.62z M119.84,41.47c2.42,0,4.34-0.88,5.89-2.44c1.57-1.73,2.26-4.36,2.26-8.02c0-6.97-2.95-10.27-8.67-10.27
		c-2.61,0-4.68,0.88-6.08,2.78c-1.38,1.75-2.26,4.36-2.26,7.49c0,3.32,0.88,5.93,2.42,7.85c1.57,1.73,3.82,2.61,6.41,2.61H119.84z
		 M94.88,10.1V4h5.91v6.1H94.88z M95.05,47.02V16.19h5.89v30.83H95.05z M60.88,31.7c0-4.88,1.21-8.71,3.82-11.67
		c2.61-2.96,5.89-4.36,10.07-4.36c1.38,0,2.61,0.17,3.64,0.52c1.21,0.35,2.09,0.69,2.78,1.21c0.69,0.52,1.21,1.04,1.73,1.4
		c0.52,0.52,0.88,0.88,1.04,1.21l0.17,0.52h0.17c0-0.52-0.17-1.21-0.17-2.09V4.17h5.89v42.86h-5.56v-5.05h-0.17
		c0,0.17-0.17,0.35-0.35,0.52c-0.17,0.17-0.52,0.69-1.04,1.4c-0.52,0.71-1.21,1.21-1.9,1.73s-1.73,1.04-2.95,1.4
		s-2.61,0.52-3.99,0.52c-4.16,0-7.46-1.4-9.88-4.36c-2.09-2.8-3.3-6.8-3.3-11.5V31.7z M66.77,31.7c0,3.32,0.88,5.93,2.42,8.02
		c1.57,2.09,3.64,2.96,6.24,2.96c2.42,0,4.68-0.88,6.24-2.8c1.73-1.92,2.61-4.53,2.61-8.37c0-2.96-0.69-5.57-2.26-7.66
		c-1.57-2.09-3.64-3.3-6.41-3.3c-2.42,0-4.68,1.04-6.24,2.96c-1.73,2.09-2.61,4.7-2.59,8.18H66.77z M55.87,36.34
		c-0.86-10.05-7.77-16.81-13.12-24.08C44.98,8.96,50,10,53.61,10.69c-4.66-3.3-10.18-5.2-16.05-5.72
		C26.34,4.8,17.37,11.38,9.08,18.65c-5-1.57-1.55-6.93-1.55-10.74C3.24,13.82,1.85,20.4,2.01,27.17c0.17,6.08,2.76,11.95,6.21,17.32
		l7.25,8.31c-2.42,3.99-7.25,2.26-10.87,1.57c5.87,4.32,12.43,5.72,19.16,5.54c6.04-0.17,11.91-2.78,17.09-6.24l8.28-7.27
		c2.42,2.78,2.93,7.46,1.55,10.92C54.82,51.42,56.39,44.15,55.87,36.34z M47.93,36.68c-2.07,2.61-4.66,5.72-4.66,5.72
		c-2.59,2.95-4.83,4.32-5.87,5.2c-3.45,2.59-7.77,4.16-12.08,4.32h-1.04l-0.17-0.17l-4.83-4.85c-1.55-1.9-2.93-2.78-5-5.72
		c-2.59-3.64-4.14-7.79-4.32-12.14v-1.57l4.83-4.32c5.7-5.03,11.91-9.53,19.68-9.53h0.34l3.8,5.03c3.62,5.01,8.46,9.88,9.15,16.81
		c0,0,0.17,1.04,0.17,1.21V36.68z M254.1,13.08V6.68h2.01c0.5,0,1.01,0,1.17,0.17c0.34,0.17,0.67,0.34,0.84,0.67
		s0.34,0.67,0.34,1.17c0,0.34-0.17,0.84-0.34,1.01c-0.17,0.34-0.5,0.5-0.84,0.67c0,0,0.17,0.17,0.17,0.34l1.34,2.52h-1.01
		l-1.34-2.52h-1.34v2.52h-1.01v-0.17V13.08z M255.1,9.72h1.34c0.34,0,0.67-0.17,0.84-0.34c0.17-0.17,0.34-0.5,0.34-0.84
		c0-0.5-0.17-0.84-0.5-1.01c-0.17-0.17-0.5-0.17-0.84-0.17h-1.01L255.1,9.72z M256.11,4c-3.19,0-5.89,2.52-5.89,5.89
		s2.52,5.89,5.89,5.89c3.37,0,5.89-2.68,5.89-5.89S259.32,4,256.11,4 M256.11,14.59c-2.52,0-4.72-2.01-4.72-4.72
		c0-2.52,2.01-4.72,4.72-4.72c2.52,0,4.72,2.01,4.72,4.72C260.83,12.39,258.81,14.59,256.11,14.59z"/>
</g>
<g id="Layer_6" class="st2">
	<path class="st4" d="M100.08,28.19c-0.69-2.74-1.69-8.16-7.43-8.16c-2.99,0-5.27,2.03-5.27,5.38c0,8.26,16.83,7.72,16.83,19.22
		c0,7.62-6.64,10.42-12.95,10.42c-4.58,0-7.57-1.22-9.26-2.14c-1.26-3.38-1.53-5.79-1.53-10.09l2.48-0.54
		c0.73,3.22,2.46,10.73,9.2,10.73c3.32,0,5.52-2.37,5.52-5.96c0-9.07-16.3-8.36-16.3-19.37c0-6.81,4.95-9.65,11.72-9.65
		c3.95,0,6.31,0.85,8.26,1.99c0.43,2.64,0.57,5.48,0.57,8.22h-1.85V28.19z"/>
	<path class="st4" d="M125.46,52.28c-1.59,0.98-4.05,2.74-8,2.74c-8.16,0-8.53-4.84-8.53-10.79v-7.78c0-1.87,0-4.3-1.59-4.3
		c-0.79,0-1.47,0.27-1.69,0.31V30.9c3.95-1.35,6.84-1.76,9.59-1.93v15.07c0,4.23,0.79,7.83,5.94,7.83c1.99,0,3.22-0.98,3.95-1.35
		V36.41c0-1.87,0-4.3-1.59-4.3c-0.79,0-1.47,0.27-1.69,0.31v-1.56c3.95-1.35,6.84-1.76,9.59-1.93v16.04c0,4.4,0,6.5,1.79,6.5
		c0.31,0,0.96,0.06,1.47-0.06l0.1,1.39c-2.42,0.85-5.31,1.62-7.94,2.14L125.46,52.28z"/>
	<path class="st4" d="M139.88,36.45c0-1.87,0-4.3-1.59-4.3c-0.79,0-1.47,0.27-1.69,0.31V30.9c3.95-1.35,6.74-1.76,9.47-1.93v3.11
		c1.32-1.18,3.85-3.11,8.31-3.11c4.74,0,7.94,2.3,7.94,9.55v10.57c0,2.84,0.26,3.42,2.16,3.59l1.1,0.1v1.39h-12.84v-1.39l1.1-0.1
		c1.89-0.17,2.16-0.75,2.16-3.59v-7.62c0-4.23,0-9.38-5.48-9.38c-2.16,0-3.52,1.12-4.38,2.03v14.97c0,2.84,0.26,3.42,2.16,3.59
		l1.1,0.1v1.39h-12.74v-1.39l1.1-0.1c1.79-0.17,2.06-0.75,2.06-3.59V36.45H139.88z"/>
	<path class="st4" d="M175.17,52.82l1.26-0.17c2.48-0.48,2.48-0.27,2.48-6.39v-19.7c0-5.21,0-5.85-2.48-6.23l-1.26-0.17V18.8h14.31
		v1.39l-1.26,0.17c-2.46,0.37-2.46,1.02-2.46,6.23v24.85c1.59,0.37,3.22,0.75,4.84,0.75c7.43,0,7.47-3.65,9-8.1l1.89,0.37
		c-0.32,3.49-0.69,6.33-1.83,9.76h-24.49V52.82z"/>
	<path class="st4" d="M202.71,52.82l1.1-0.1c1.89-0.21,2.16-0.75,2.16-3.59V36.47c0-1.87,0-4.3-1.59-4.3
		c-0.79,0-1.46,0.27-1.69,0.31v-1.56c3.95-1.35,6.84-1.76,9.59-1.93v20.11c0,2.84,0.26,3.38,2.16,3.59l1.1,0.1v1.39h-12.84v-1.37
		H202.71z M205.08,20.73c0-2.03,1.59-3.69,3.69-3.69c1.99,0,3.68,1.66,3.68,3.69c0,2.26-1.69,3.82-3.68,3.82
		C206.66,24.53,205.08,22.93,205.08,20.73z"/>
	<path class="st4" d="M220.87,29.8c0-7.45,3.62-15.03,11.89-15.03c2.79,0,4.58,0.85,5.74,1.76c-0.37,1.66-0.79,2.68-2.1,4.03h-0.37
		c-1-0.98-3.42-3.11-5.47-3.11c-3.16,0-3.36,4.34-3.36,9.28v3.05c1.59,0.06,4.78,0.27,6.53,0.48v1.39
		c-2.26,0.27-4.31,0.44-6.53,0.54v16.9c0,2.84,0.26,3.42,2.22,3.59l2.1,0.1v1.39h-13.88v-1.39l1.06-0.1
		c1.95-0.21,2.22-0.75,2.22-3.59v-16.9V29.8H220.87z"/>
	<path class="st4" d="M256.84,51.58c-1.36,1.12-4.68,3.42-9.99,3.42c-6.21,0-12.31-4.03-12.31-12.66c0-8.53,6.05-13.37,12.05-13.37
		c8.47,0,9.83,5.63,10.42,8.74c-4.52,2.14-10.36,3.86-15.84,5.15c0.57,3.22,2.16,9.01,9.36,9.01c2.85,0,5.05-1.18,5.78-1.56
		L256.84,51.58z M250.67,38.07c-0.37-3.86-1.95-7.04-5.27-7.04c-4.58,0-4.58,8.37-4.58,9.34C244.16,39.83,247.47,39.12,250.67,38.07
		z"/>
	<path class="st4" d="M38.93,5.73c-0.1-0.91-0.14-1.87-0.06-2.8c0.04-0.44,0.12-0.89,0.22-1.33c0.02-0.1,0.06-0.29,0.1-0.5
		c0.04-0.19-0.14-0.31-0.28-0.21c-1.24,1.04-2.34,2.43-3.16,3.84c-0.67,1.16-1.16,2.49-1.28,3.86c1.67,0.21,3.3,0.56,4.91,1.08
		C39.44,8.34,39.08,7.04,38.93,5.73z"/>
	<path class="st4" d="M27.17,8.74c1.49-0.25,2.99-0.35,4.48-0.33c-0.04-0.21-0.08-0.42-0.12-0.6c-0.16-0.64-0.55-1.25-0.81-1.85
		c-0.31-0.66-0.57-1.37-0.77-2.08c-0.16-0.54-0.29-1.08-0.35-1.64c-0.04-0.31-0.04-0.62-0.04-0.93c0-0.06,0-0.17,0-0.29
		c0-0.17-0.18-0.25-0.29-0.12c-0.77,1.04-1.3,2.28-1.71,3.55c-0.29,0.89-0.51,1.81-0.53,2.74c-0.02,0.42,0,0.83,0.08,1.22
		C27.11,8.51,27.13,8.63,27.17,8.74z"/>
	<path class="st4" d="M20.02,10.67c0.04,0.08,0.08,0.17,0.14,0.25c0.14-0.06,0.28-0.15,0.43-0.21c1.08-0.5,2.2-0.89,3.3-1.22
		c-0.06-0.15-0.14-0.29-0.22-0.42c-0.29-0.52-0.75-0.93-1.12-1.39c-0.43-0.5-0.81-1.02-1.16-1.58c-0.24-0.42-0.49-0.87-0.67-1.33
		c-0.1-0.25-0.18-0.52-0.24-0.79c-0.02-0.04-0.06-0.15-0.08-0.25c-0.04-0.15-0.22-0.17-0.26-0.02c-0.43,1.06-0.59,2.26-0.63,3.45
		c-0.02,0.81,0,1.66,0.18,2.45C19.76,9.98,19.86,10.34,20.02,10.67z"/>
	<path class="st4" d="M47.89,14.3c1.55,1.27,2.97,2.7,4.23,4.32c0.94-1.27,1.45-2.8,2.16-4.19c0.51-0.98,1.1-1.95,1.81-2.8
		c0.35-0.42,0.69-0.81,1.1-1.16c0.08-0.08,0.26-0.25,0.45-0.42C57.8,9.9,57.7,9.63,57.5,9.65c-1.91,0.17-3.93,0.79-5.68,1.62
		C50.31,12,48.93,13.01,47.89,14.3z"/>
	<path class="st4" d="M55.66,24.59c0.14,0.31,0.26,0.64,0.39,0.95c1.4-1.08,2.36-2.59,3.52-3.86c0.81-0.89,1.67-1.72,2.65-2.43
		c0.47-0.33,0.96-0.64,1.47-0.91c0.12-0.06,0.35-0.19,0.57-0.31c0.2-0.1,0.18-0.42-0.04-0.46c-2.06-0.35-4.34-0.29-6.39,0.1
		c-1.73,0.31-3.44,0.98-4.89,2.03C53.97,21.21,54.91,22.85,55.66,24.59z"/>
	<path class="st4" d="M47.26,8.9c0.2-1,0.47-1.99,0.85-2.95c0.18-0.46,0.41-0.89,0.67-1.31c0.06-0.1,0.16-0.29,0.29-0.48
		c0.1-0.17-0.04-0.37-0.22-0.31c-1.63,0.66-3.26,1.74-4.58,2.95c-1.12,1.02-2.1,2.28-2.67,3.72c1.69,0.73,3.32,1.62,4.82,2.68
		C46.94,11.83,46.98,10.32,47.26,8.9z"/>
	<path class="st4" d="M62.3,35.43c-1.38-0.56-2.91-0.89-4.4-0.79c0.06,1.89-0.08,3.78-0.39,5.62c1.49-0.12,2.87-0.77,4.27-1.16
		c0.96-0.27,1.95-0.48,2.97-0.52c0.49-0.02,0.96-0.02,1.45,0.02c0.1,0.02,0.33,0.02,0.55,0.04c0.2,0.02,0.31-0.21,0.16-0.33
		C65.6,37.11,63.95,36.12,62.3,35.43z"/>
	<path class="st4" d="M67.08,27.87c-1.73-0.85-3.77-1.39-5.68-1.6c-1.63-0.17-3.34-0.04-4.91,0.54c0.65,1.97,1.08,3.99,1.28,6
		c1.53-0.58,2.79-1.68,4.15-2.53c0.94-0.58,1.91-1.08,2.97-1.45c0.49-0.17,1-0.31,1.53-0.42c0.12-0.02,0.35-0.08,0.59-0.12
		C67.23,28.23,67.29,27.96,67.08,27.87z"/>
	<path class="st4" d="M48.83,55.96c-1,0.89-2.06,1.7-3.2,2.45c0.75,0.77,1.73,1.25,2.59,1.85c0.59,0.44,1.16,0.91,1.67,1.45
		c0.24,0.27,0.47,0.54,0.65,0.83c0.04,0.06,0.14,0.19,0.22,0.33c0.08,0.12,0.26,0.08,0.26-0.06c0.04-1.31-0.16-2.72-0.57-3.96
		C50.13,57.78,49.6,56.77,48.83,55.96z"/>
	<path class="st4" d="M53.9,49.88c-0.79,1.31-1.71,2.53-2.71,3.69c1.08,0.58,2.28,0.75,3.42,1.14c0.77,0.25,1.55,0.56,2.26,1
		c0.35,0.21,0.67,0.42,0.98,0.66c0.06,0.06,0.2,0.17,0.37,0.27c0.12,0.1,0.31,0,0.26-0.17c-0.37-1.41-1.08-2.86-1.91-4.07
		C55.85,51.41,54.96,50.5,53.9,49.88z"/>
	<path class="st4" d="M60.63,44.42c-1.06-0.85-2.3-1.56-3.62-1.87c-0.43,1.66-1.02,3.26-1.75,4.79c1.32,0.29,2.67,0.08,3.97,0.12
		c0.92,0.02,1.83,0.12,2.73,0.35c0.43,0.1,0.85,0.25,1.26,0.42c0.1,0.04,0.29,0.1,0.47,0.19c0.16,0.06,0.33-0.1,0.24-0.25
		C63.08,46.76,61.87,45.46,60.63,44.42z"/>
	<path class="st4" d="M26.19,57.5c-4.3,0.54-8.26,0.12-11.44-1.18c1.4,1.16,2.91,2.18,4.52,3.03c3.85,2.03,8.22,3.13,12.84,3.01
		c1.97-0.06,3.89-0.33,5.72-0.79c-3.09-0.35-6.07-1.22-8.81-2.51C28.06,58.57,27.1,58.06,26.19,57.5z"/>
	<path class="st4" d="M49.35,46.39c0,0,0.12-0.19,0-0.33c-0.12-0.12-0.31,0.02-0.31,0.02c-2.56,2.57-5.68,4.94-9.26,6.89
		c-0.67,0.37-1.36,0.73-2.06,1.04c-2.99,1.43-6,2.45-8.92,3.05c0.85,0.5,1.75,0.95,2.67,1.37c2.71,1.22,5.62,2.03,8.65,2.43
		c1.2-0.44,2.36-0.93,3.48-1.54c-1.63-1.25-3.15-2.59-4.6-4.01C43.45,52.87,47.01,49.71,49.35,46.39z"/>
	<path class="st4" d="M7.91,41.35c0.2,0.1,0.41,0.23,0.63,0.33c0.79,0.37,1.69,0.66,2.67,0.87c0.81,0.19,1.69,0.29,2.63,0.35
		c-0.39-0.91-0.71-1.85-1.02-2.8c-0.45-1.47-0.81-2.99-1.04-4.55c-0.08-0.52-0.14-1.04-0.2-1.56c-0.04-0.44-0.08-0.87-0.1-1.33
		c-0.02-0.23-0.02-0.46-0.02-0.71c-0.04-0.89-0.04-1.78,0-2.66c-1.04-0.15-1.93-0.42-2.67-0.81c-0.1-0.04-0.18-0.1-0.26-0.17
		c-0.47-0.29-0.88-0.62-1.18-1.02c-0.16-0.21-0.31-0.44-0.43-0.69c-0.1-0.23-0.18-0.46-0.24-0.71c-0.39,1.06-0.71,2.16-0.98,3.28
		c-0.1,0.44-0.2,0.89-0.26,1.35c-0.16,0.91-0.28,1.83-0.35,2.76c-0.02,0.23-0.02,0.46-0.04,0.66C5,34.66,5,35.35,5,36.05
		c0.02,0.89,0.08,1.78,0.2,2.66C5.81,39.83,6.75,40.68,7.91,41.35z"/>
	<path class="st4" d="M15.63,29.33c-0.69,0.06-1.34,0.1-1.97,0.1c0,0.62,0.02,1.25,0.04,1.89v0.02c0.02,0.21,0.04,0.42,0.04,0.62
		c0.02,0.35,0.04,0.71,0.08,1.06c0.16,1.68,0.45,3.3,0.83,4.86c0.43,1.74,1,3.42,1.67,5.02c3.5-0.15,7.51-1.02,11.64-2.62
		c-1.65-3.05-3.03-6.1-4.21-9.05c-0.2-0.52-0.41-1.06-0.61-1.58c0.77-0.31,1.53-0.64,2.3-1.02c4.82-2.35,8.67-5.4,10.87-8.39
		c0.14-0.21,0.26-0.39,0.41-0.6c0,0,0.14-0.21-0.02-0.37c-0.14-0.15-0.35,0-0.35,0c-0.43,0.42-0.86,0.83-1.34,1.25
		c-2.22,1.93-5.05,3.78-8.28,5.33c-1.47,0.71-2.93,1.29-4.36,1.79c-1.42,0.5-2.81,0.89-4.13,1.18
		C17.38,29.08,16.48,29.22,15.63,29.33z"/>
	<path class="st4" d="M8.67,25.63c0.39,0.37,0.88,0.69,1.47,0.91c0.16,0.06,0.35,0.12,0.51,0.19c0.31,0.1,0.65,0.19,1,0.25
		c0.04-0.42,0.1-0.83,0.16-1.22c0.06-0.33,0.1-0.64,0.16-0.98c0.2-1.08,0.47-2.14,0.77-3.18c0.65-2.22,1.51-4.34,2.59-6.35
		c0.28-0.58,0.59-1.14,0.92-1.66c0.1-0.15,0.18-0.29,0.28-0.46c-0.79,0.54-1.55,1.14-2.26,1.76c-1.1,0.95-2.12,2.01-3.05,3.13
		c-1.4,1.7-2.61,3.57-3.56,5.6c0.04,0.33,0.12,0.66,0.26,0.98C8.08,24.99,8.34,25.32,8.67,25.63z"/>
	<path class="st4" d="M14.28,22.81c-0.08,0.39-0.14,0.81-0.2,1.2c-0.16,1.04-0.28,2.08-0.35,3.13c1.51,0.02,3.22-0.17,5.07-0.58
		c0.96-0.21,1.95-0.5,2.97-0.81c-0.12-0.35-0.22-0.71-0.35-1.04c-0.49-1.49-0.9-2.91-1.26-4.23c-0.12-0.46-0.24-0.91-0.37-1.35
		c-0.2-0.75-0.37-1.45-0.53-2.12c-0.33-1.33-0.59-2.49-0.77-3.47c-0.08-0.42-0.16-0.81-0.22-1.14c-0.02-0.08-0.04-0.17-0.04-0.25
		c-0.08,0.12-0.16,0.27-0.24,0.39c-0.31,0.54-0.57,1.1-0.85,1.66c-0.85,1.79-1.57,3.63-2.12,5.56
		C14.73,20.78,14.49,21.79,14.28,22.81z"/>
	<path class="st4" d="M23.62,55.71c-2.83-2.18-5.29-4.88-7.23-7.93c-0.49-0.77-0.96-1.58-1.38-2.39c-1.79-0.02-3.42-0.23-4.84-0.64
		c-0.77-0.23-1.49-0.52-2.14-0.85c-0.2-0.1-0.39-0.23-0.57-0.33c-0.61-0.39-1.16-0.85-1.61-1.37c0.33,1.29,0.75,2.55,1.26,3.76
		c0.08,0.19,0.16,0.39,0.24,0.58c0.28,0.66,0.61,1.31,0.96,1.93c0.31,0.56,0.63,1.1,0.96,1.64c0.59,0.91,1.22,1.79,1.91,2.62
		C14.02,55.07,18.47,56.08,23.62,55.71z"/>
	<path class="st4" d="M32.89,40.66c-1.24,0.62-2.5,1.18-3.75,1.68c-4.11,1.66-8.1,2.64-11.64,2.95c0.43,0.79,0.88,1.54,1.34,2.28
		c2.02,3.09,4.52,5.73,7.41,7.83c3.2-0.5,6.62-1.49,10.04-2.99c-2.26-2.57-4.23-5.33-6-8.16c0.69-0.31,1.38-0.64,2.08-1
		c6.33-3.22,11.2-7.51,13.86-11.77c0,0,0.14-0.21-0.02-0.35c-0.16-0.17-0.35,0-0.35,0C42.68,34.64,38.2,38,32.89,40.66z"/>
</g>
</svg>
