<svg width="64" height="62" viewBox="0 0 64 62" fill="none" xmlns="http://www.w3.org/2000/svg">
<g clip-path="url(#clip0_1492_5120)">
<path fill-rule="evenodd" clip-rule="evenodd" d="M32.6724 3.99012C32.7923 3.06091 33.5835 2.36523 34.5205 2.36523V2.36523C35.6442 2.36523 36.5123 3.35251 36.3685 4.46703L29.3342 58.9828C29.2143 59.912 28.4231 60.6077 27.4862 60.6077V60.6077C26.3624 60.6077 25.4943 59.6204 25.6381 58.5059L32.6724 3.99012Z" fill="#212121"/>
<mask id="mask0_1492_5120" style="mask-type:alpha" maskUnits="userSpaceOnUse" x="32" y="-1" width="32" height="65">
<path d="M41.0497 -0.930664H63.9355V63.9023H32.9102L41.0497 -0.930664Z" fill="white"/>
</mask>
<g mask="url(#mask0_1492_5120)">
<path d="M53.8574 9C56.4605 9 57.4045 9.27078 58.3561 9.77925C59.3078 10.2877 60.0546 11.0339 60.5636 11.9846L60.6087 12.0702C61.0836 12.984 61.3383 13.9366 61.3436 16.4016V47.4166C61.3436 50.0172 61.0725 50.9603 60.5636 51.911C60.0546 52.8618 59.3078 53.608 58.3561 54.1164L58.2704 54.1615C57.3559 54.636 56.4023 54.8904 53.935 54.8957H19.0951C16.492 54.8957 15.5481 54.6249 14.5965 54.1164C13.6448 53.608 12.8979 52.8618 12.389 51.911L12.3443 51.8263C11.8691 50.9123 11.6143 49.9598 11.609 47.4941V16.4791C11.609 13.8785 11.88 12.9354 12.389 11.9846C12.8979 11.0339 13.6448 10.2877 14.5965 9.77925L14.6813 9.73458C15.5961 9.25988 16.5495 9.00528 19.0175 9H53.8574ZM57.4985 24.5201H15.5259V49.0096C15.5259 50.0814 16.3977 50.9533 17.4691 50.9533H55.5553C56.6268 50.9533 57.4985 50.0814 57.4985 49.0096V24.5201ZM55.5553 12.8786H17.4691C16.3977 12.8786 15.5259 13.7541 15.5259 14.8302V20.6853H57.4985V14.8302C57.4985 13.7541 56.6268 12.8786 55.5553 12.8786ZM53.0137 14.796C54.0914 14.796 54.9651 15.6698 54.9651 16.7477C54.9651 17.8256 54.0914 18.6993 53.0137 18.6993C51.9359 18.6993 51.0623 17.8256 51.0623 16.7477C51.0623 15.6698 51.9359 14.796 53.0137 14.796ZM46.2351 14.796C47.3128 14.796 48.1865 15.6698 48.1865 16.7477C48.1865 17.8256 47.3128 18.6993 46.2351 18.6993C45.1573 18.6993 44.2837 17.8256 44.2837 16.7477C44.2837 15.6698 45.1573 14.796 46.2351 14.796Z" fill="#212121"/>
</g>
<mask id="mask1_1492_5120" style="mask-type:alpha" maskUnits="userSpaceOnUse" x="-1" y="-1" width="33" height="65">
<path d="M-0.926147 -0.930664H31.0033L20.8638 63.9023H-0.926147V-0.930664Z" fill="white"/>
</mask>
<g mask="url(#mask1_1492_5120)">
</g>
<path d="M16.0001 35C16.1236 35 16.2446 35.0112 16.362 35.0327C16.4974 35.0192 16.6357 35.0093 16.7751 35.0041L17.0001 35H24.7996L24.2906 39H17.0001C15.9457 39 15.0819 39.8159 15.0055 40.8507L15.0001 41V49C15.0001 50.0544 15.8159 50.9182 16.8508 50.9945L17.0001 51H22.7636L22.2546 55H17.0001C13.7617 55 11.1225 52.4344 11.0042 49.2249L11.0001 49V41C11.0001 40.2988 11.1203 39.6258 11.3413 39.0003L9.00005 39C7.94569 39 7.08188 39.8159 7.00553 40.8507L7.00005 41V41.2119L3.95565 55.4191C3.72421 56.4991 2.66104 57.187 1.58099 56.9556C0.550032 56.7347 -0.123647 55.7559 0.0185319 54.728L0.0444428 54.5809L3.00505 40.764L3.01651 40.5522C3.2401 37.5215 5.7149 35.1169 8.77511 35.0041L9.00005 35H16.0001ZM28.1086 9L27.5996 13H10.0001C8.94569 13 8.08188 13.8159 8.00554 14.8507L8.00005 15V25C8.00005 26.0544 8.81593 26.9182 9.85079 26.9945L10.0001 27H25.8176L25.3086 31H10.0001C6.76165 31 4.12248 28.4344 4.00419 25.2249L4.00005 25V15C4.00005 11.7616 6.56562 9.12243 9.77511 9.00414L10.0001 9H28.1086ZM16.212 17L19.424 20.212C19.424 21.9247 18.0834 23.3243 16.3943 23.4188L16.212 23.4239L16.0297 23.4188C14.3406 23.3243 13.0001 21.9247 13.0001 20.212C13.0001 18.438 14.4381 17 16.212 17Z" fill="#A560FF"/>
</g>
<defs>
<clipPath id="clip0_1492_5120">
<rect width="62" height="62" fill="white"/>
</clipPath>
</defs>
</svg>
