<?xml version="1.0" encoding="utf-8"?>
<!-- Generator: Adobe Illustrator 27.0.0, SVG Export Plug-In . SVG Version: 6.00 Build 0)  -->
<svg version="1.1" id="Layer_1" xmlns="http://www.w3.org/2000/svg" xmlns:xlink="http://www.w3.org/1999/xlink" x="0px" y="0px"
	 viewBox="0 0 1920 1080" style="enable-background:new 0 0 1920 1080;" xml:space="preserve">
<style type="text/css">
	.st0{clip-path:url(#SVGID_00000000909093309591482190000014913093091539203002_);}
	.st1{fill:#FFFFFF;}
	.st2{fill-rule:evenodd;clip-rule:evenodd;fill:#FFFFFF;}
</style>
<g>
	<defs>
		<rect id="SVGID_1_" x="775.92" y="77.93" width="1133.08" height="901.07"/>
	</defs>
	<clipPath id="SVGID_00000121990277208233383030000011674180178327126147_">
		<use xlink:href="#SVGID_1_"  style="overflow:visible;"/>
	</clipPath>
	<g style="clip-path:url(#SVGID_00000121990277208233383030000011674180178327126147_);">
		<path class="st1" d="M1147.71,879.01H777.69v-233.7h370.02V879.01z M816.64,840.06h292.12v-155.8H816.64V840.06z"/>
		<path class="st1" d="M1147.71,840.06h-38.95v136.33h38.95V840.06z"/>
		<path class="st1" d="M816.64,840.06h-38.95v136.33h38.95V840.06z"/>
		<path class="st1" d="M1291.24,976.39h-33.88c-18.73-0.06-36.69-7.52-49.94-20.76c-13.24-13.25-20.71-31.2-20.76-49.93V696.53
			c0.06-18.73,7.52-36.68,20.76-49.93c13.25-13.25,31.2-20.71,49.94-20.76h33.88c5.71,0.04,11.4,0.76,16.95,2.14
			c15.36,3.72,29.02,12.51,38.77,24.95c9.75,12.44,15.02,27.8,14.97,43.6v209.16c-0.05,18.73-7.51,36.68-20.76,49.93
			C1327.93,968.87,1309.98,976.33,1291.24,976.39z M1257.36,664.79c-4.17,0-8.3,0.82-12.15,2.42c-3.85,1.6-7.35,3.93-10.29,6.88
			c-2.95,2.95-5.29,6.45-6.89,10.3c-1.59,3.85-2.42,7.98-2.42,12.15v209.16c0,4.16,0.82,8.3,2.42,12.15s3.93,7.35,6.89,10.3
			c2.94,2.94,6.44,5.29,10.29,6.88c3.86,1.6,7.98,2.42,12.15,2.42h33.88c4.17,0,8.3-0.82,12.15-2.42c3.85-1.59,7.36-3.93,10.3-6.88
			c2.95-2.95,5.29-6.45,6.89-10.3c1.59-3.85,2.42-7.98,2.42-12.15V696.53c-0.02-7.09-2.4-13.97-6.78-19.55
			c-4.37-5.58-10.49-9.53-17.37-11.22c-2.52-0.27-5.07-0.27-7.59,0L1257.36,664.79z"/>
		<path class="st1" d="M1836.54,976.39h-33.88c-18.73-0.06-36.69-7.52-49.94-20.76c-13.24-13.25-20.71-31.2-20.76-49.93V696.53
			c-0.05-15.8,5.23-31.17,14.98-43.6c9.76-12.44,23.41-21.23,38.77-24.95c5.54-1.38,11.23-2.1,16.95-2.14h33.88
			c18.73,0.05,36.69,7.52,49.93,20.76c13.25,13.25,20.71,31.2,20.76,49.93v209.16c-0.05,18.73-7.51,36.68-20.76,49.93
			C1873.22,968.87,1855.27,976.33,1836.54,976.39z M1802.65,664.79c-2.52-0.27-5.07-0.27-7.59,0c-7.05,1.73-13.29,5.83-17.69,11.61
			c-4.4,5.78-6.67,12.88-6.46,20.14v209.16c0,4.16,0.82,8.3,2.42,12.15c1.6,3.85,3.93,7.35,6.89,10.3
			c2.94,2.94,6.44,5.29,10.29,6.88c3.86,1.6,7.98,2.42,12.15,2.42h33.88c8.42,0,16.49-3.34,22.45-9.29
			c5.95-5.95,9.3-14.03,9.3-22.45V696.53c0-4.17-0.82-8.3-2.42-12.15c-1.6-3.85-3.93-7.35-6.89-10.3c-2.94-2.95-6.45-5.29-10.3-6.88
			c-3.85-1.6-7.97-2.42-12.15-2.42H1802.65z"/>
		<path class="st1" d="M1712.48,976.39h-331.07c-15.49,0-30.35-6.16-41.31-17.12c-10.96-10.95-17.11-25.81-17.11-41.31V801.11
			h447.92v116.85c0,15.5-6.15,30.36-17.11,41.31C1742.84,970.23,1727.98,976.39,1712.48,976.39z M1361.94,840.06v77.9
			c0,5.17,2.05,10.12,5.71,13.77s8.61,5.71,13.77,5.71h331.07c5.16,0,10.12-2.05,13.77-5.71c3.65-3.65,5.71-8.6,5.71-13.77v-77.9
			H1361.94z"/>
		<path class="st1" d="M1770.91,840.06h-447.92v-58.42c0-25.83,10.26-50.59,28.51-68.85c18.26-18.26,43.04-28.52,68.86-28.52h253.17
			c25.83,0,50.6,10.26,68.85,28.52c18.26,18.26,28.52,43.03,28.52,68.85V840.06z M1361.94,801.11h370.03v-19.48
			c0-15.49-6.16-30.36-17.12-41.31c-10.95-10.96-25.82-17.11-41.31-17.11h-253.17c-15.5,0-30.36,6.15-41.32,17.11
			c-10.95,10.96-17.11,25.82-17.11,41.31V801.11z"/>
		<path class="st1" d="M1770.91,781.64h-38.95c0-15.49-6.15-30.36-17.11-41.31c-10.96-10.96-25.82-17.11-41.31-17.11h-253.17
			c-15.49,0-30.35,6.15-41.31,17.11c-10.95,10.96-17.11,25.82-17.11,41.31h-38.95v-85.1c-0.02-7.09-2.4-13.97-6.78-19.55
			c-4.37-5.58-10.49-9.53-17.37-11.22l-14.8-3.51V508.99c0-36.16,14.36-70.83,39.93-96.4c25.57-25.57,60.24-39.93,96.39-39.93
			h253.17c36.16,0,70.83,14.36,96.39,39.93c25.57,25.57,39.93,60.24,39.93,96.4v153.27l-14.79,3.51c-6.89,1.7-13,5.65-17.38,11.22
			c-4.38,5.58-6.76,12.46-6.77,19.55V781.64z M1420.36,684.26h253.17c21.07,0,41.57,6.83,58.42,19.48v-7.21
			c-0.05-13.11,3.57-25.97,10.46-37.12c6.89-11.15,16.76-20.15,28.5-25.98V508.99c0-25.83-10.26-50.59-28.52-68.85
			c-18.26-18.26-43.03-28.52-68.85-28.52h-253.17c-25.82,0-50.59,10.26-68.85,28.52c-18.26,18.26-28.51,43.03-28.51,68.85v124.44
			c11.74,5.82,21.61,14.83,28.5,25.98c6.89,11.15,10.51,24.01,10.45,37.12v7.21C1378.79,691.1,1399.29,684.26,1420.36,684.26z"/>
		<path class="st2" d="M1632.09,619.37h-12.54h-12.56v25.1h25.1V619.37z M1486.28,479.9h-12.55h-12.55V505h25.1V479.9z"/>
		<path class="st2" d="M1602.34,514.93c18.62,0,29.75,12.95,29.75,33.4v59.11h-25.1v-53.84c0-9.72-4.25-16.19-12.95-16.19
			c-6.47,0-12.34,4.05-13.96,11.74v58.3h-25.31v-53.84c0-9.72-4.05-16.19-12.76-16.19c-6.47,0-12.55,4.05-14.17,11.74v58.3h-25.1
			v-90.48h25.1v7.49c4.45-5.67,12.76-9.51,22.87-9.51c10.73,0,19.23,4.86,24.29,11.54C1580.88,519.99,1589.58,514.93,1602.34,514.93
			z M1486.27,607.43h-25.1v-90.48h12.55h12.55V607.43z"/>
		<path class="st1" d="M1011.39,742.69h-97.38v38.95h97.38V742.69z"/>
		<path class="st1" d="M1026,684.26H899.41l-50.25-175.27h227.08L1026,684.26z M928.62,645.31h68.16l27.66-97.37H900.96
			L928.62,645.31z"/>
		<path class="st1" d="M962.7,547.94c-4.97-0.04-9.93-0.56-14.8-1.56c-36.5-6.22-69.65-25.07-93.65-53.27
			c-24-28.2-37.31-63.94-37.61-100.97v-19.47h19.48c36.23-0.19,71.39,12.36,99.32,35.44l7.21,5.65v9.15
			c-0.12,23.71,6.86,46.91,20.05,66.6c13.42-19.56,20.68-42.69,20.84-66.41v-9.15l7.21-5.65c27.7-22.99,62.55-35.59,98.55-35.64
			h19.47v19.47c0.14,37.68-13.28,74.15-37.81,102.76c-24.52,28.6-58.52,47.43-95.78,53.04C971.02,548.35,966.85,548.35,962.7,547.94
			z M1022.11,432.06c-1.43,23.32-8.09,46.01-19.48,66.41c17.19-7.87,32.22-19.8,43.79-34.76c11.56-14.96,19.33-32.5,22.62-51.12
			c-16.92,2.95-32.96,9.67-46.93,19.67V432.06z M856.76,412.59c3.53,18.53,11.38,35.97,22.92,50.9
			c11.54,14.93,26.44,26.91,43.5,34.99c-11.33-20.42-17.98-43.1-19.48-66.41c-14-9.86-30.04-16.45-46.94-19.28V412.59z"/>
		<path class="st1" d="M962.7,546.18l-13.83-13.63c-3.31-3.51-6.62-7.01-9.73-10.71c-24.99-30.18-37.84-68.59-36.04-107.73
			c1.8-39.14,18.12-76.21,45.77-103.96l13.83-13.63l13.83,13.63c14.65,14.56,26.26,31.89,34.15,50.98
			c7.89,19.09,11.91,39.56,11.82,60.22v0.97c-0.12,36.14-12.78,71.11-35.84,98.93c-3.5,4.28-6.81,7.79-10.13,11.3L962.7,546.18z
			 M962.7,354.16c-13.56,19.78-20.82,43.2-20.82,67.19c0,23.98,7.26,47.41,20.82,67.19c13.42-19.56,20.68-42.69,20.84-66.41h19.48
			h-19.48C983.82,397.86,976.54,374.1,962.7,354.16z"/>
		<path class="st1" d="M1225.61,294.77h-38.95v467.39h38.95V294.77z"/>
		<path class="st1" d="M1363.88,333.71h-315.49l23.17-253.17h269.15L1363.88,333.71z M1091.24,294.77h229.8l-15.77-175.27h-198.25
			L1091.24,294.77z"/>
	</g>
</g>
<path class="st1" d="M117.02,976.39H83.14c-18.73-0.06-36.68-7.52-49.93-20.76c-13.25-13.25-20.71-31.2-20.76-49.93V696.53
	c0.05-18.73,7.52-36.68,20.76-49.93c13.25-13.25,31.2-20.71,49.93-20.76h33.89c5.71,0.04,11.4,0.76,16.94,2.14
	c15.36,3.72,29.02,12.51,38.77,24.95c9.75,12.44,15.03,27.8,14.98,43.6v209.16c-0.05,18.73-7.52,36.68-20.76,49.93
	C153.71,968.87,135.76,976.33,117.02,976.39z M83.14,664.79c-4.17,0-8.3,0.82-12.15,2.42c-3.85,1.59-7.35,3.93-10.3,6.88
	c-2.95,2.95-5.29,6.45-6.88,10.3c-1.6,3.85-2.42,7.98-2.42,12.15v209.16c0,4.16,0.82,8.3,2.42,12.15c1.6,3.85,3.93,7.35,6.88,10.3
	c2.95,2.94,6.45,5.29,10.3,6.88c3.85,1.6,7.98,2.42,12.15,2.42h33.89c4.17,0,8.3-0.82,12.15-2.42c3.85-1.59,7.35-3.93,10.3-6.88
	c2.95-2.95,5.29-6.45,6.88-10.3c1.6-3.85,2.42-7.98,2.42-12.15V696.53c-0.01-7.09-2.4-13.97-6.77-19.55
	c-4.38-5.58-10.49-9.53-17.38-11.22c-2.52-0.27-5.07-0.27-7.6,0L83.14,664.79z"/>
<path class="st1" d="M662.32,976.39h-33.89c-18.73-0.06-36.68-7.52-49.93-20.76c-13.25-13.25-20.71-31.2-20.76-49.93V696.53
	c-0.05-15.8,5.23-31.17,14.98-43.6c9.75-12.44,23.41-21.23,38.77-24.95c5.54-1.38,11.23-2.1,16.94-2.14h33.89
	c18.73,0.05,36.68,7.52,49.93,20.76c13.25,13.25,20.71,31.2,20.76,49.93v209.16c-0.05,18.73-7.52,36.68-20.76,49.93
	C699,968.87,681.05,976.33,662.32,976.39z M628.43,664.79c-2.52-0.27-5.07-0.27-7.59,0c-7.05,1.73-13.29,5.83-17.68,11.61
	c-4.39,5.78-6.68,12.88-6.47,20.14v209.16c0,4.16,0.82,8.3,2.42,12.15c1.6,3.85,3.93,7.35,6.88,10.3c2.95,2.94,6.45,5.29,10.3,6.88
	c3.85,1.6,7.98,2.42,12.15,2.42h33.89c8.42,0,16.49-3.34,22.45-9.29c5.95-5.95,9.3-14.03,9.3-22.45V696.53
	c0-4.17-0.82-8.3-2.42-12.15c-1.6-3.85-3.93-7.35-6.88-10.3c-2.95-2.95-6.45-5.29-10.3-6.88c-3.85-1.6-7.98-2.42-12.15-2.42H628.43z
	"/>
<path class="st1" d="M538.26,976.39H207.19c-15.49,0-30.36-6.16-41.31-17.12c-10.96-10.95-17.11-25.81-17.11-41.31V801.11h447.92
	v116.85c0,15.5-6.16,30.36-17.11,41.31C568.62,970.23,553.76,976.39,538.26,976.39z M187.72,840.06v77.9
	c0,5.17,2.05,10.13,5.7,13.77c3.65,3.65,8.61,5.71,13.77,5.71h331.07c5.17,0,10.12-2.05,13.77-5.71c3.65-3.64,5.7-8.6,5.7-13.77
	v-77.9H187.72z"/>
<path class="st1" d="M596.69,840.06H148.77v-58.42c0-25.83,10.26-50.59,28.52-68.85s43.03-28.52,68.85-28.52h253.17
	c25.83,0,50.59,10.26,68.85,28.52c18.26,18.26,28.52,43.03,28.52,68.85V840.06z M187.72,801.11h370.02v-19.47
	c0-15.5-6.16-30.36-17.11-41.31c-10.96-10.96-25.82-17.11-41.31-17.11H246.14c-15.49,0-30.35,6.16-41.31,17.11
	c-10.96,10.96-17.11,25.82-17.11,41.31V801.11z"/>
<path class="st1" d="M596.69,781.64h-38.95c0-15.5-6.16-30.36-17.11-41.31c-10.96-10.96-25.82-17.11-41.31-17.11H246.14
	c-15.49,0-30.35,6.16-41.31,17.11c-10.96,10.96-17.11,25.82-17.11,41.31h-38.95v-85.11c-0.01-7.09-2.4-13.97-6.77-19.55
	c-4.38-5.58-10.49-9.53-17.38-11.22l-14.8-3.51V508.99c0-36.15,14.36-70.83,39.93-96.4c25.57-25.57,60.24-39.93,96.39-39.93h253.17
	c36.16,0,70.83,14.36,96.4,39.93c25.57,25.57,39.93,60.24,39.93,96.4v153.27l-14.8,3.51c-6.88,1.7-13,5.65-17.38,11.22
	c-4.38,5.58-6.76,12.46-6.77,19.55V781.64z M246.14,684.26h253.17c21.07,0,41.57,6.83,58.42,19.47v-7.21
	c-0.06-13.11,3.57-25.97,10.45-37.12c6.88-11.15,16.76-20.15,28.5-25.98V508.99c0-25.83-10.26-50.59-28.52-68.85
	c-18.26-18.26-43.03-28.52-68.85-28.52H246.14c-25.82,0-50.59,10.26-68.85,28.52c-18.26,18.26-28.52,43.03-28.52,68.85v124.44
	c11.74,5.83,21.61,14.83,28.5,25.98c6.88,11.15,10.5,24.01,10.45,37.12v7.21C204.57,691.1,225.07,684.26,246.14,684.26z"/>
<path class="st2" d="M458.55,619.37H446h-12.55v25.1h25.1V619.37z M312.72,479.9h-12.55h-12.55V505h25.1V479.9z"/>
<path class="st2" d="M428.79,514.93c18.62,0,29.76,12.95,29.76,33.4v59.11h-25.1v-53.84c0-9.72-4.25-16.19-12.95-16.19
	c-6.48,0-12.35,4.05-13.97,11.74v58.3h-25.3v-53.84c0-9.72-4.05-16.19-12.75-16.19c-6.48,0-12.55,4.05-14.17,11.74v58.3h-25.1
	v-90.48h25.1v7.49c4.46-5.67,12.75-9.51,22.87-9.51c10.73,0,19.23,4.86,24.29,11.54C407.33,519.99,416.04,514.93,428.79,514.93z
	 M312.72,607.43h-25.1v-90.48h12.55h12.55V607.43z"/>
</svg>
