<svg width="62" height="62" viewBox="0 0 62 62" fill="none" xmlns="http://www.w3.org/2000/svg">
<path fill-rule="evenodd" clip-rule="evenodd" d="M33.1718 2.60399C33.2935 1.66048 34.0969 0.954102 35.0482 0.954102C36.1893 0.954102 37.0707 1.95656 36.9247 3.08823L29.7822 58.4427C29.6604 59.3862 28.8571 60.0926 27.9057 60.0926C26.7647 60.0926 25.8833 59.0901 26.0293 57.9584L33.1718 2.60399Z" fill="white"/>
<mask id="mask0_1543_4664" style="mask-type:alpha" maskUnits="userSpaceOnUse" x="0" y="0" width="30" height="62">
<path fill-rule="evenodd" clip-rule="evenodd" d="M0.0476975 0L29.6504 0L21.9385 61.0462H0L0.0476975 0Z" fill="white"/>
</mask>
<g mask="url(#mask0_1543_4664)">
<rect x="17.7906" y="45.4307" width="12.1743" height="6.61118" rx="3.30559" fill="#5FC29B"/>
<ellipse cx="12.1873" cy="48.7365" rx="2.37841" ry="2.3381" fill="#5FC29B"/>
<ellipse cx="14.6059" cy="39.3032" rx="2.70091" ry="2.6606" fill="#279C6F"/>
<ellipse cx="22.0234" cy="39.3032" rx="2.70091" ry="2.6606" fill="#279C6F"/>
<ellipse cx="7.18849" cy="39.3838" rx="2.05592" ry="2.0156" fill="#5FC29B"/>
<ellipse cx="12.7517" cy="29.87" rx="3.26528" ry="3.30559" fill="#5FC29B"/>
<ellipse cx="3.96363" cy="29.8701" rx="2.05592" ry="2.0156" fill="#5FC29B"/>
<rect x="19.0807" y="26.5645" width="12.1743" height="6.61118" rx="3.30559" fill="#279C6F"/>
<rect x="9.64758" y="17.5342" width="9.75553" height="5.3212" rx="2.6606" fill="#279C6F"/>
<ellipse cx="4.36669" cy="20.1945" rx="2.37841" ry="2.3381" fill="#5FC29B"/>
<ellipse cx="24.7646" cy="20.1949" rx="2.86216" ry="2.82185" fill="#279C6F"/>
<ellipse cx="10.6554" cy="11.2453" rx="2.37841" ry="2.3381" fill="#5FC29B"/>
<rect x="16.5006" y="8.58496" width="9.75553" height="5.3212" rx="2.6606" fill="#5FC29B"/>
</g>
<mask id="mask1_1543_4664" style="mask-type:alpha" maskUnits="userSpaceOnUse" x="33" y="1" width="30" height="62">
<path fill-rule="evenodd" clip-rule="evenodd" d="M62.6743 62.9385H33.0716L40.7836 1.89232H62.722L62.6743 62.9385Z" fill="white"/>
</mask>
<g mask="url(#mask1_1543_4664)">
<path d="M35.6208 35.3933L36.487 36.098C39.4071 38.4739 42.7752 43.4383 46.6517 51.0304C47.2445 52.1913 45.3369 53.3676 44.6732 52.0677C41.0079 44.889 37.8482 40.179 35.2503 37.9741L35.6208 35.3933Z" fill="#879198"/>
<path d="M37.7984 19.6713C41.5528 19.3917 47.7769 20.4638 56.5508 22.8739L58.2026 23.3319L57.6048 25.4838L56.5289 25.1849C47.8741 22.7805 41.735 21.6846 38.1916 21.8837L36.887 21.9233L37.7984 19.6713Z" fill="#879198"/>
<path d="M38.6582 11.6904C38.6582 11.6904 38.9207 11.9906 39.052 12.1406C39.1658 12.2707 39.3934 12.5309 39.3934 12.5309C44.2118 18.0392 46.9463 23.7374 47.5649 29.6144C48.3164 36.7533 45.4932 44.9975 39.1577 54.3628L38.1695 55.8045L36.329 54.5394L36.9615 53.6192C43.2727 44.4371 46.0448 36.5078 45.3438 29.8482C44.7928 24.6137 42.3867 19.483 38.0959 14.4456L38.6582 11.6904Z" fill="#879198"/>
<path d="M32.9901 54.065C33.7737 54.1482 34.5693 54.1908 35.3749 54.1908C47.7096 54.1908 57.7089 44.1916 57.7089 31.8569C57.7089 20.9209 49.8488 11.8207 39.4697 9.89746" stroke="white" stroke-width="3.81538"/>
<circle cx="43.8755" cy="20.9246" r="3.24203" fill="white"/>
<circle cx="42.9217" cy="45.3836" r="3.24203" fill="white"/>
</g>
</svg>
