<?xml version="1.0" encoding="utf-8"?>
<!-- Generator: Adobe Illustrator 27.0.0, SVG Export Plug-In . SVG Version: 6.00 Build 0)  -->
<svg version="1.1" id="Layer_1" xmlns="http://www.w3.org/2000/svg" xmlns:xlink="http://www.w3.org/1999/xlink" x="0px" y="0px"
	 viewBox="0 0 62 62" style="enable-background:new 0 0 62 62;" xml:space="preserve">
<style type="text/css">
	.st0{fill-rule:evenodd;clip-rule:evenodd;fill:#FFFFFF;}
</style>
<path class="st0" d="M60.06,8.22C59.94,3.7,56.57,0,52.31,0H7.75L7.51,0C3.29,0.14,0,3.93,0,8.48V41.9l0,0.25
	c0.12,4.52,3.49,8.22,7.75,8.22h11.62c1.07,0,1.94-0.87,1.94-1.94s-0.87-1.94-1.94-1.94H7.75l-0.18-0.01
	c-2.01-0.11-3.69-2.08-3.69-4.6V18.41h52.31v6.78c0,1.07,0.87,1.94,1.94,1.94s1.94-0.87,1.94-1.94V8.48L60.06,8.22z M7.75,3.88
	h44.56c2.09,0,3.88,2.01,3.88,4.6v6.05H3.88V8.48l0-0.23C3.98,5.77,5.73,3.88,7.75,3.88z M42.62,7.75c1.07,0,1.94,0.87,1.94,1.94
	c0,1.07-0.87,1.94-1.94,1.94s-1.94-0.87-1.94-1.94C40.69,8.62,41.55,7.75,42.62,7.75z M52.31,9.69c0-1.07-0.87-1.94-1.94-1.94
	s-1.94,0.87-1.94,1.94c0,1.07,0.87,1.94,1.94,1.94S52.31,10.76,52.31,9.69z"/>
<path class="st0" d="M40.12,33.33c0.46-0.82,1.65-0.82,2.11,0l6.65,11.82c0.45,0.81-0.13,1.8-1.06,1.8h-13.3
	c-0.93,0-1.51-1-1.06-1.8L40.12,33.33z M42.18,44.73c0,0.53-0.43,0.97-0.97,0.97c-0.54,0-0.97-0.43-0.97-0.97s0.43-0.97,0.97-0.97
	C41.75,43.76,42.18,44.2,42.18,44.73z M41.21,36.18c-0.53,0-0.94,0.44-0.92,0.97l0.23,4.2c0.02,0.36,0.32,0.64,0.68,0.64
	c0.36,0,0.66-0.28,0.68-0.64l0.23-4.2C42.16,36.62,41.74,36.18,41.21,36.18z"/>
<path class="st0" d="M51.7,29.78c-6.05-6.05-15.87-6.05-21.92,0c-6.05,6.05-6.05,15.87,0,21.92c5.59,5.59,14.38,6.02,20.47,1.29
	l8.3,8.3c0.76,0.76,1.98,0.76,2.74,0c0.76-0.76,0.76-1.98,0-2.74l-8.3-8.31C57.71,44.16,57.29,35.37,51.7,29.78z M32.52,48.96
	c-4.54-4.54-4.54-11.9,0-16.44c4.54-4.54,11.9-4.54,16.44,0l0.2,0.21c3.96,4.17,4.28,10.62,0.76,15.14l-0.9,1.16l-1.16,0.9
	l-0.23,0.18C43.05,53.49,36.6,53.04,32.52,48.96z"/>
</svg>
