<svg width="65" height="65" viewBox="0 0 65 65" fill="none" xmlns="http://www.w3.org/2000/svg">
<path d="M20.1449 25.7773C21.2622 25.5444 22.3569 26.2613 22.5898 27.3787C22.8228 28.496 22.1059 29.5907 20.9885 29.8236C10.2477 32.063 5.06668 40.3076 5.06668 52.6005C5.06668 53.7419 4.14141 54.6671 3.00002 54.6671C1.85863 54.6671 0.93335 53.7419 0.93335 52.6005C0.93335 38.5216 7.253 28.4651 20.1449 25.7773Z" fill="#A560FF"/>
<path d="M21.6 0.933594C25.2634 0.933594 28.7184 2.30343 31.3664 4.72767C32.2082 5.49841 32.2659 6.80568 31.4951 7.64754C30.7244 8.4894 29.4171 8.54706 28.5753 7.77632C26.6822 6.04313 24.22 5.06693 21.6 5.06693C15.893 5.06693 11.2666 9.69332 11.2666 15.4003C11.2666 20.3582 15.6459 24.9816 20.8697 25.7559C21.9987 25.9233 22.7783 26.9742 22.611 28.1033C22.4436 29.2323 21.3927 30.0119 20.2636 29.8446C13.0893 28.7812 7.1333 22.4932 7.1333 15.4003C7.1333 7.41054 13.6102 0.933594 21.6 0.933594Z" fill="#A560FF"/>
<path fill-rule="evenodd" clip-rule="evenodd" d="M25.7334 23.6669C25.7334 15.6771 32.2103 9.2002 40.2001 9.2002C48.1898 9.2002 54.6667 15.6771 54.6667 23.6669C54.6667 31.6566 48.1898 38.1335 40.2001 38.1335C32.2103 38.1335 25.7334 31.6566 25.7334 23.6669ZM50.5334 23.6669C50.5334 17.9599 45.907 13.3335 40.2001 13.3335C34.4931 13.3335 29.8667 17.9599 29.8667 23.6669C29.8667 29.3738 34.4931 34.0002 40.2001 34.0002C45.907 34.0002 50.5334 29.3738 50.5334 23.6669Z" fill="white"/>
<path d="M39.6834 36.0664C53.0512 36.0664 64.1041 46.2881 64.9485 59.3569L64.9625 59.7069C64.9846 60.4753 65 62.0657 65 62.9331C65 64.0745 64.0748 64.9997 62.9334 64.9997C61.792 64.9997 60.8667 64.0745 60.8667 62.9331L60.8409 60.234C60.8354 59.9373 60.8296 59.7131 60.8238 59.6234C60.1207 48.7417 50.8841 40.1997 39.6834 40.1997C28.6002 40.1997 19.4408 48.5631 18.568 59.2804L18.5423 59.6346C18.524 59.9191 18.5048 61.5789 18.5008 62.5888L18.5 62.9331C18.5 64.0745 17.5748 64.9997 16.4334 64.9997C15.292 64.9997 14.3667 64.0745 14.3667 62.9331L14.3914 60.2634C14.3977 59.9195 14.4049 59.6326 14.4126 59.4598L14.4174 59.3703C15.255 46.2956 26.3105 36.0664 39.6834 36.0664Z" fill="white"/>
</svg>
