<svg width="62" height="62" viewBox="0 0 62 62" fill="none" xmlns="http://www.w3.org/2000/svg">
<path fill-rule="evenodd" clip-rule="evenodd" d="M61.0279 9.19335C60.9067 4.67288 57.5368 0.96875 53.2812 0.96875H8.71875L8.48326 0.972542C4.26131 1.10874 0.96875 4.8956 0.96875 9.44531V42.8672L0.972122 43.1191C1.09326 47.6396 4.46319 51.3438 8.71875 51.3438H28.0938C29.1638 51.3438 30.0312 50.4763 30.0312 49.4062C30.0312 48.3362 29.1638 47.4688 28.0938 47.4688H8.71875L8.5355 47.4636C6.52911 47.3499 4.84375 45.3799 4.84375 42.8672V19.375H57.1562V25.1875C57.1562 26.2576 58.0237 27.125 59.0938 27.125C60.1638 27.125 61.0312 26.2576 61.0312 25.1875V9.44531L61.0279 9.19335ZM8.71875 4.84375H53.2812C55.3672 4.84375 57.1562 6.85643 57.1562 9.44531V15.5H4.84375V9.44531L4.84835 9.21841C4.94925 6.73978 6.69415 4.84375 8.71875 4.84375ZM43.5938 8.71875C44.6638 8.71875 45.5312 9.5862 45.5312 10.6562C45.5312 11.7263 44.6638 12.5938 43.5938 12.5938C42.5237 12.5938 41.6562 11.7263 41.6562 10.6562C41.6562 9.5862 42.5237 8.71875 43.5938 8.71875ZM53.2812 10.6562C53.2812 9.5862 52.4138 8.71875 51.3438 8.71875C50.2737 8.71875 49.4062 9.5862 49.4062 10.6562C49.4062 11.7263 50.2737 12.5938 51.3438 12.5938C52.4138 12.5938 53.2812 11.7263 53.2812 10.6562Z" fill="#212121"/>
<path d="M48.6907 33.1113L48.691 33.1115C50.4345 34.2866 53.926 36.3916 58.0312 37.3934V44.8834C58.0312 48.0628 56.46 51.3485 52.6168 54.6522L54.5725 56.9272L52.6168 54.6522C51.1133 55.9448 49.5838 56.9419 48.4385 57.6115C47.0378 56.7914 45.0666 55.4829 43.2636 53.7426C40.7184 51.2859 38.8438 48.3043 38.8438 44.8835V37.3933C42.949 36.3915 46.4406 34.2865 48.1841 33.1114C48.268 33.0548 48.3526 33.0312 48.4375 33.0312C48.5224 33.0312 48.6068 33.0547 48.6907 33.1113Z" stroke="#A560FF" stroke-width="6"/>
</svg>
