<svg width="75" height="75" viewBox="0 0 75 75" fill="none" xmlns="http://www.w3.org/2000/svg">
<path d="M26.9416 33.5206C31.5334 33.3635 35.2159 34.3832 37.9562 36.6016C40.5918 38.7352 42.5042 41.1378 43.7157 45.788L43.8428 46.291L42.2887 46.6718C41.1625 42.076 39.3746 39.8083 36.9495 37.8452C34.6212 35.9604 31.4633 35.0416 27.4462 35.1082L26.9963 35.1197L26.1968 35.147L26.1421 33.548L26.9416 33.5206Z" fill="#879198"/>
<path d="M27.1286 40.3528C29.6257 36.3699 32.5592 33.8427 35.9319 32.8109C39.1746 31.819 43.0649 32.1362 47.5975 33.7323L48.0856 33.9082L47.5323 35.4095C43.0924 33.7732 39.3836 33.4283 36.4 34.341C33.5367 35.2168 30.98 37.3626 28.7326 40.8138L28.4842 41.2027L28.0592 41.8805L26.7036 41.0306L27.1286 40.3528Z" fill="#879198"/>
<path d="M35.5098 26.0071C38.9431 29.2184 40.8641 32.5802 41.2333 36.0878C41.592 39.4948 40.2761 43.3972 37.3285 47.806L37.0382 48.2343L36.585 48.8936L35.2665 47.9873L35.7196 47.328C38.6744 43.029 39.9662 39.3341 39.6421 36.2553C39.3287 33.2775 37.7102 30.3584 34.7512 27.4937L34.4169 27.1757L33.8326 26.6292L34.9256 25.4607L35.5098 26.0071Z" fill="#879198"/>
<circle cx="37.0332" cy="37.0332" r="10" stroke="white" stroke-width="4"/>
<path fill-rule="evenodd" clip-rule="evenodd" d="M68.0332 37.0332C68.0332 19.9124 54.154 6.0332 37.0332 6.0332C19.9124 6.0332 6.0332 19.9124 6.0332 37.0332C6.0332 54.154 19.9124 68.0332 37.0332 68.0332C54.154 68.0332 68.0332 54.154 68.0332 37.0332ZM8.09987 37.0332C8.09987 21.0538 21.0538 8.09987 37.0332 8.09987C53.0126 8.09987 65.9665 21.0538 65.9665 37.0332C65.9665 53.0126 53.0126 65.9665 37.0332 65.9665C21.0538 65.9665 8.09987 53.0126 8.09987 37.0332Z" fill="#E99450"/>
<path fill-rule="evenodd" clip-rule="evenodd" d="M59.0332 37.0332C59.0332 24.8829 49.1835 15.0332 37.0332 15.0332C24.8829 15.0332 15.0332 24.8829 15.0332 37.0332C15.0332 49.1835 24.8829 59.0332 37.0332 59.0332C49.1835 59.0332 59.0332 49.1835 59.0332 37.0332ZM19.0332 37.0332C19.0332 27.0921 27.0921 19.0332 37.0332 19.0332C46.9743 19.0332 55.0332 27.0921 55.0332 37.0332C55.0332 46.9743 46.9743 55.0332 37.0332 55.0332C27.0921 55.0332 19.0332 46.9743 19.0332 37.0332Z" fill="#F5730D"/>
<circle cx="17.0332" cy="14.0332" r="4" fill="white"/>
<circle cx="10.0332" cy="51.0332" r="4" fill="white"/>
<circle cx="64.0332" cy="48.0332" r="4" fill="white"/>
<circle cx="48.0332" cy="21.0332" r="3" fill="white"/>
<circle cx="17.0332" cy="37.0332" r="3" fill="white"/>
<circle cx="37.0332" cy="57.0332" r="3" fill="white"/>
<path d="M15.6201 13.9767L17.0897 12.6201L30.4463 28.0897L28.9767 29.4463L15.6201 13.9767Z" fill="white"/>
<path d="M26.4145 40.6709L27.3951 42.414L9.65191 52.3946L8.67139 50.6514L26.4145 40.6709Z" fill="white"/>
<path d="M46.7163 41.5481L47.5179 39.7158L65.3503 47.5175L64.5486 49.3498L46.7163 41.5481Z" fill="white"/>
<path d="M47.7559 19.6465L49.42 20.7559L44.3106 28.42L42.6465 27.3106L47.7559 19.6465Z" fill="white"/>
<path d="M26.0332 36.0332V38.0332H16.0332V36.0332H26.0332Z" fill="white"/>
<path d="M38.0332 48.0332V58.0332H36.0332V48.0332H38.0332Z" fill="white"/>
</svg>
