<svg width="63" height="64" viewBox="0 0 63 64" fill="none" xmlns="http://www.w3.org/2000/svg">
<path fill-rule="evenodd" clip-rule="evenodd" d="M34.8017 3.12341C34.9276 2.14758 35.7585 1.41699 36.7424 1.41699V1.41699C37.9226 1.41699 38.8342 2.4538 38.6832 3.62425L31.2959 60.8754C31.17 61.8512 30.3391 62.5818 29.3552 62.5818V62.5818C28.175 62.5818 27.2634 61.545 27.4144 60.3746L34.8017 3.12341Z" fill="#212121"/>
<mask id="mask0_1492_4895" style="mask-type:alpha" maskUnits="userSpaceOnUse" x="0" y="0" width="31" height="64">
<path d="M0.0493319 0.430664L30.6664 0.430664L22.6902 63.5686H0L0.0493319 0.430664Z" fill="white"/>
</mask>
<g mask="url(#mask0_1492_4895)">
<path d="M27.5727 47.417H21.819C19.9308 47.417 18.4001 48.9477 18.4001 50.8358C18.4001 52.724 19.9308 54.2547 21.819 54.2547H27.5727C29.4609 54.2547 30.9916 52.724 30.9916 50.8358C30.9916 48.9477 29.4609 47.417 27.5727 47.417Z" fill="#C294FF"/>
<path d="M12.6048 53.2544C13.9634 53.2544 15.0647 52.1717 15.0647 50.8362C15.0647 49.5006 13.9634 48.418 12.6048 48.418C11.2462 48.418 10.1449 49.5006 10.1449 50.8362C10.1449 52.1717 11.2462 53.2544 12.6048 53.2544Z" fill="#C294FF"/>
<path d="M15.1063 43.8317C16.6491 43.8317 17.8998 42.5996 17.8998 41.0799C17.8998 39.5601 16.6491 38.3281 15.1063 38.3281C13.5635 38.3281 12.3129 39.5601 12.3129 41.0799C12.3129 42.5996 13.5635 43.8317 15.1063 43.8317Z" fill="#A560FF"/>
<path d="M22.778 43.8317C24.3207 43.8317 25.5714 42.5996 25.5714 41.0799C25.5714 39.5601 24.3207 38.3281 22.778 38.3281C21.2352 38.3281 19.9845 39.5601 19.9845 41.0799C19.9845 42.5996 21.2352 43.8317 22.778 43.8317Z" fill="#A560FF"/>
<path d="M7.43483 43.2475C8.60919 43.2475 9.5612 42.3141 9.5612 41.1628C9.5612 40.0115 8.60919 39.0781 7.43483 39.0781C6.26048 39.0781 5.30847 40.0115 5.30847 41.1628C5.30847 42.3141 6.26048 43.2475 7.43483 43.2475Z" fill="#C294FF"/>
<path d="M13.1887 34.742C15.0538 34.742 16.5659 33.2113 16.5659 31.3232C16.5659 29.435 15.0538 27.9043 13.1887 27.9043C11.3235 27.9043 9.81152 29.435 9.81152 31.3232C9.81152 33.2113 11.3235 34.742 13.1887 34.742Z" fill="#C294FF"/>
<path d="M4.09951 33.4076C5.27386 33.4076 6.22587 32.4743 6.22587 31.323C6.22587 30.1716 5.27386 29.2383 4.09951 29.2383C2.92515 29.2383 1.97314 30.1716 1.97314 31.323C1.97314 32.4743 2.92515 33.4076 4.09951 33.4076Z" fill="#C294FF"/>
<path d="M28.907 27.9043H23.1534C21.2652 27.9043 19.7345 29.435 19.7345 31.3232C19.7345 33.2113 21.2652 34.742 23.1534 34.742H28.907C30.7952 34.742 32.3259 33.2113 32.3259 31.3232C32.3259 29.435 30.7952 27.9043 28.907 27.9043Z" fill="#A560FF"/>
<path d="M17.3162 18.5654H12.7299C11.2102 18.5654 9.97815 19.7974 9.97815 21.3172C9.97815 22.837 11.2102 24.069 12.7299 24.069H17.3162C18.8359 24.069 20.0679 22.837 20.0679 21.3172C20.0679 19.7974 18.8359 18.5654 17.3162 18.5654Z" fill="#A560FF"/>
<path d="M4.51631 23.7349C5.87488 23.7349 6.97622 22.6522 6.97622 21.3167C6.97622 19.9811 5.87488 18.8984 4.51631 18.8984C3.15774 18.8984 2.0564 19.9811 2.0564 21.3167C2.0564 22.6522 3.15774 23.7349 4.51631 23.7349Z" fill="#C294FF"/>
<path d="M25.6132 24.2355C27.2481 24.2355 28.5734 22.9288 28.5734 21.317C28.5734 19.7051 27.2481 18.3984 25.6132 18.3984C23.9783 18.3984 22.653 19.7051 22.653 21.317C22.653 22.9288 23.9783 24.2355 25.6132 24.2355Z" fill="#A560FF"/>
<path d="M11.0205 14.479C12.379 14.479 13.4804 13.3963 13.4804 12.0608C13.4804 10.7253 12.379 9.64258 11.0205 9.64258C9.66189 9.64258 8.56055 10.7253 8.56055 12.0608C8.56055 13.3963 9.66189 14.479 11.0205 14.479Z" fill="#C294FF"/>
<path d="M24.404 9.30957H19.8177C18.2979 9.30957 17.0659 10.5416 17.0659 12.0613C17.0659 13.5811 18.2979 14.8131 19.8177 14.8131H24.404C25.9237 14.8131 27.1557 13.5811 27.1557 12.0613C27.1557 10.5416 25.9237 9.30957 24.404 9.30957Z" fill="#C294FF"/>
</g>
<path d="M42.5324 9.34766C42.9283 9.34766 43.2746 9.61422 43.376 9.99698L44.2959 13.472C45.9864 13.9179 47.5857 14.5885 49.0598 15.4501L52.0967 13.6844C52.439 13.4855 52.8724 13.5419 53.1524 13.8218L57.602 18.2715C57.882 18.5514 57.9384 18.9848 57.7394 19.3271L55.9738 22.3641C56.8351 23.8379 57.5057 25.4368 57.9516 27.127L61.4269 28.0478C61.8096 28.1492 62.0762 28.4955 62.0762 28.8915V35.1842C62.0762 35.5801 61.8096 35.9265 61.4269 36.0278L57.9516 36.9487C57.5077 38.6313 56.8411 40.2235 55.9853 41.6918L57.7926 44.8017C57.9916 45.144 57.9352 45.5774 57.6552 45.8574L53.2056 50.307C52.9256 50.587 52.4922 50.6434 52.1499 50.4444L49.04 48.6372C47.5653 49.4967 45.9657 50.1653 44.2751 50.6091L43.376 54.0035C43.2746 54.3862 42.9283 54.6528 42.5324 54.6528H36.2396C36.0824 54.6528 35.933 54.6108 35.8037 54.5361L36.7803 47.5994L37.352 47.7495L38.2547 51.1617H40.5168L41.4215 47.7493L43.3887 47.2328C44.6044 46.9136 45.7731 46.4493 46.873 45.8516L47.2821 45.6213L49.0374 44.5982L52.1618 46.4135L53.762 44.8134L51.9464 41.6892L52.9694 39.934C53.5975 38.8563 54.0948 37.7078 54.4498 36.5098L54.5763 36.0582L55.0943 34.0945L58.5851 33.1684V30.9053L55.0943 29.9811L54.5763 28.0174C54.2556 26.8019 53.7899 25.6337 53.1908 24.5344L52.9599 24.1255L51.9332 22.3687L53.7077 19.3136L52.1085 17.7144L49.0552 19.4906L47.2984 18.4639C46.2164 17.8315 45.0628 17.3311 43.8592 16.9744L43.4056 16.8473L41.4412 16.3292L41.268 15.6772L42.1589 9.34766H42.5324ZM48.9857 32.0378C48.9857 37.3396 44.6878 41.6375 39.386 41.6375C38.7901 41.6375 38.2069 41.5832 37.641 41.4793L38.1274 38.0169C38.5335 38.102 38.9545 38.1467 39.386 38.1467C42.7598 38.1467 45.4949 35.4117 45.4949 32.0378C45.4949 28.8116 42.9939 26.1695 39.825 25.9445L40.3119 22.4822C45.1792 22.948 48.9857 27.0484 48.9857 32.0378Z" fill="#212121"/>
</svg>
