<?xml version="1.0" encoding="utf-8"?>
<!-- Generator: Adobe Illustrator 27.0.0, SVG Export Plug-In . SVG Version: 6.00 Build 0)  -->
<svg version="1.1" id="Layer_1" xmlns="http://www.w3.org/2000/svg" xmlns:xlink="http://www.w3.org/1999/xlink" x="0px" y="0px"
	 viewBox="0 0 4000 500" style="enable-background:new 0 0 4000 500;" xml:space="preserve">
<style type="text/css">
	.st0{fill:#FFFFFF;}
</style>
<path class="st0" d="M3232.79,25.06c-23.41-10.38-50.83-15.05-81.67-15.05c-98.27,0-173.11,51.93-173.11,141.77
	c0,89.33,74.84,141.28,173.11,141.28c27.41,0,58.27-4.15,83.97-11.96l-2.3-69.58c-17.14,8.31-40.55,12.98-63.98,12.98
	c-44.55,0-84.54-28.05-84.54-71.15c0-46.75,34.27-74.78,78.84-74.78c24.56,0,43.41,4.67,62.27,15.05L3232.79,25.06z"/>
<rect x="3541.22" y="16.03" class="st0" width="102.83" height="270.77"/>
<path class="st0" d="M3879.99,125.83h-114.26c2.28-31.16,20-56.61,57.13-56.61C3863.98,69.22,3879.99,94.66,3879.99,125.83
	 M3972.54,178.79v-17.14c0-80.5-40.01-151.65-150.25-151.65c-92.56,0-159.39,51.94-159.39,141.27c0,89.33,74.84,141.79,173.1,141.79
	c38.28,0,75.99-5.21,109.13-17.14v-65.97c-30.86,15.08-62.86,20.78-90.84,20.78c-50.28,0-81.69-14.54-87.41-51.94H3972.54z"/>
<path class="st0" d="M896.68,16.24H793.86v114.25c0,58.17-21.72,84.65-63.99,84.65c-28,0-47.42-17.14-47.42-68.03V16.24H579.62
	v168.78c0,56.09,32.56,108.04,113.69,108.04c46.85,0,87.97-17.17,108.54-56.1H803v49.87h93.68V16.24z"/>
<path class="st0" d="M1151.62,148.68c0,43.09-23.42,72.7-62.27,72.7c-34.28,0-62.84-29.61-62.84-69.08
	c0-40.52,25.13-70.64,62.84-70.64C1129.33,81.67,1151.62,112.84,1151.62,148.68 M1257.88,146.59c0-65.44-45.13-136.59-127.4-136.59
	c-46.84,0-90.26,17.15-110.82,55.05h-1.15V16.24h-94.83v379.64h102.83V248.91h1.15c19.42,32.19,58.27,44.15,94.25,44.15
	C1210.46,293.06,1257.88,226.58,1257.88,146.59"/>
<path class="st0" d="M1502.61,148.68c0,43.09-23.42,72.7-62.27,72.7c-34.28,0-62.84-29.61-62.84-69.08
	c0-40.52,25.13-70.64,62.84-70.64C1480.33,81.67,1502.61,112.84,1502.61,148.68 M1608.88,146.59c0-65.44-45.14-136.59-127.4-136.59
	c-46.85,0-90.27,17.15-110.82,55.05h-1.15V16.24h-94.83v379.64h102.83V248.91h1.15c19.42,32.19,58.26,44.15,94.25,44.15
	C1561.46,293.06,1608.88,226.58,1608.88,146.59"/>
<rect x="1627.72" y="85.79" class="st0" width="102.83" height="201.01"/>
<rect x="1627.72" y="16.03" class="st0" width="102.83" height="44.7"/>
<path class="st0" d="M1763.69,286.83h102.83V172.56c0-58.15,21.71-84.65,63.98-84.65c28,0,47.42,17.14,47.42,68.03v130.89h102.83
	v-168.8c0-56.09-32.56-108.03-113.69-108.03c-46.85,0-87.97,17.15-108.54,56.09h-1.15V16.24h-93.68V286.83z"/>
<path class="st0" d="M2325.98,145.57c0,41.54-29.14,69.59-65.7,69.59c-30.84,0-58.28-23.89-58.28-65.96
	c0-36.88,20.02-67.51,58.28-67.51C2306.57,81.68,2325.98,115.44,2325.98,145.57 M2425.37,255.13V16.24h-93.11v48.81h-1.15
	C2309.42,31.82,2273.98,10,2230,10c-92.56,0-134.24,60.25-134.24,140.74c0,79.99,50.83,136.09,132.52,136.09
	c41.13,0,75.4-14.56,99.98-46.23h1.15v14.53c0,52.99-31.99,78.44-91.42,78.44c-42.83,0-69.11-8.31-100.54-22.34l-5.14,73.76
	c23.99,7.78,64.57,17.14,113.69,17.14C2365.97,402.12,2425.37,366.26,2425.37,255.13"/>
<path class="st0" d="M2655.68,125.83h-114.25c2.27-31.16,19.99-56.61,57.12-56.61C2639.69,69.22,2655.68,94.66,2655.68,125.83
	 M2748.22,178.79v-17.14c0-80.5-39.98-151.65-150.24-151.65c-92.54,0-159.38,51.94-159.38,141.27
	c0,89.33,74.82,141.79,173.09,141.79c38.26,0,75.97-5.21,109.11-17.14v-65.97c-30.86,15.08-62.85,20.78-90.84,20.78
	c-50.28,0-81.69-14.54-87.41-51.94H2748.22z"/>
<path class="st0" d="M2980.82,13.13c-10.27-1.56-22.85-3.13-34.86-3.13c-44.56,0-70.27,21.82-87.99,56.09h-1.12V16.24h-93.71v270.59
	H2866V172.57c0-52.98,26.83-84.66,74.82-84.66c12,0,23.41,0,34.84,3.11L2980.82,13.13z"/>
<path class="st0" d="M3442.02,151.21c0,33.36-27.06,60.43-60.44,60.43s-60.44-27.06-60.44-60.43c0-33.39,27.06-60.44,60.44-60.44
	S3442.02,117.82,3442.02,151.21 M3523.06,151.56c0-78.13-63.33-141.46-141.48-141.46S3240.1,73.43,3240.1,151.56
	c0,78.15,63.33,141.5,141.48,141.5S3523.06,229.71,3523.06,151.56"/>
<rect x="135.39" y="117.13" class="st0" width="36.25" height="36.24"/>
<rect x="43.69" y="111.29" class="st0" width="36.24" height="36.24"/>
<rect x="106.2" y="199.18" class="st0" width="36.25" height="36.24"/>
<rect x="166.66" y="164.84" class="st0" width="36.25" height="36.24"/>
<rect x="191.54" y="242.7" class="st0" width="36.25" height="36.23"/>
<rect x="11" y="230.05" class="st0" width="36.25" height="36.24"/>
<path class="st0" d="M323.52,160.35h-36.25V124.1h36.25V160.35z M273.04,223.53h36.25v36.25h-36.25V223.53z M460,140.36
	l103.4-124.12H450.85l-85.69,113.74h-1.15V16.05H261.19v48.96h31.78v36.26h-31.78v44.02h-35.04v36.24h35.04v105.3h102.83V152.82
	h1.15l82.26,134.01h124.54L460,140.36z"/>
<rect x="200.4" y="63.41" class="st0" width="36.25" height="36.24"/>
<rect x="164.21" y="27.46" class="st0" width="36.25" height="36.24"/>
<rect x="61.14" y="38.96" class="st0" width="36.25" height="36.24"/>
<rect x="114.92" y="95.94" class="st0" width="36.25" height="36.24"/>
<path class="st0" d="M3943.25,459.32c0-17.86-10.31-26.8-43.6-36.44c-30.07-8.58-35.63-14.26-35.63-24.23
	c0-9.44,8.58-17.69,29.18-17.69c15.05,0,25.14,3.96,36.09,11.19l10.74-10.47c-12.67-8.08-25.57-12.9-45.75-12.9
	c-28.12,0-47.01,11.52-47.01,30.76c0,17.33,10.93,25.75,43.38,35.02c27.48,7.92,35.84,14.26,35.84,25.44
	c0,12.71-12.44,20.6-32.42,20.6c-15.46,0-28.56-5.68-39.94-14.42l-11.16,9.97c11.8,9.61,30.07,16.67,50.46,16.67
	C3924.77,492.82,3943.25,478.2,3943.25,459.32 M3756.59,382.87v-12.21h-105.21v12.21h44.23v108.06h16.74V382.87H3756.59z
	 M3561.79,459.32c0-17.86-10.31-26.8-43.59-36.44c-30.07-8.58-35.65-14.26-35.65-24.23c0-9.44,8.58-17.69,29.2-17.69
	c15.05,0,25.13,3.96,36.07,11.19l10.74-10.47c-12.67-8.08-25.55-12.9-45.75-12.9c-28.12,0-47.01,11.52-47.01,30.76
	c0,17.33,10.94,25.75,43.38,35.02c27.48,7.92,35.84,14.26,35.84,25.44c0,12.71-12.45,20.6-32.41,20.6
	c-15.48,0-28.57-5.68-39.95-14.42l-11.16,9.97c11.81,9.61,30.07,16.67,50.47,16.67C3543.32,492.82,3561.79,478.2,3561.79,459.32
	 M3379.65,370.66h-18.67l-24.06,34.53c-6.01,8.61-12.68,18.74-16.97,25.78c-4.29-7.03-10.94-17-16.94-25.78l-24.06-34.53h-19.1
	l51.53,72.68v47.59h16.75v-47.76L3379.65,370.66z M3194.94,490.93v-12.21h-74.31V370.66h-16.72v120.27H3194.94z M2968.56,448.16
	h-51.76l16.56-39.18c3.64-8.42,7.93-19.24,9.44-24.06c1.49,4.98,5.79,15.81,9.25,23.7L2968.56,448.16z M3004.21,490.93
	l-52.16-120.27h-18.48l-52.18,120.27h17.17l13.11-30.59h62.04l12.89,30.59H3004.21z M2781.71,490.93V370.66h-16.1v90.7v8.25
	c-1.94-3.1-7.53-10.99-10.74-15.12l-65.06-83.84h-16.33v120.27h16.11v-89.15v-8.25c1.94,3.07,7.5,10.96,10.74,15.09l65.7,82.31
	H2781.71z M2538.14,448.16h-51.73l16.53-39.18c3.65-8.42,7.96-19.24,9.46-24.06c1.5,4.98,5.79,15.81,9.22,23.7L2538.14,448.16z
	 M2573.8,490.93l-52.19-120.27h-18.47l-52.17,120.27h17.18l13.1-30.59h62.06l12.89,30.59H2573.8z"/>
</svg>
