<svg width="62" height="62" viewBox="0 0 62 62" fill="none" xmlns="http://www.w3.org/2000/svg">
<g clip-path="url(#clip0_1492_5587)">
<path d="M34.9857 7.08594L35.3252 7.08769C44.4707 7.1824 52.0675 11.0986 52.2537 16.621L52.2571 16.8288L52.2577 28.7178C51.7012 28.4712 51.0999 28.3431 50.4858 28.3431C49.6152 28.3431 48.7701 28.6007 48.0422 29.0879C45.7599 30.6156 41.1687 33.3145 36.0653 34.224C35.7847 34.274 35.5286 34.3845 35.3097 34.5403L34.9857 34.5431C29.6903 34.5431 24.8859 33.2632 21.6964 31.1282L21.6116 31.2767C21.3734 31.7165 21.2572 32.153 21.2572 32.5803C21.2572 35.6252 27.0468 38.6613 34.5431 38.7769L34.5429 42.3188L34.4952 42.3195C29.4414 42.2437 24.8722 41.0004 21.7825 38.9654C21.4286 39.5004 21.2572 40.0328 21.2572 40.5517C21.2572 43.5967 27.0468 46.6327 34.5431 46.7483L34.5429 47.0144C34.5429 48.1504 34.6666 49.2439 34.8928 50.2938L34.9857 50.2946C25.6808 50.2946 17.8917 46.3427 17.7173 40.7438L17.7143 40.7431V30.1136L28.1161 30.1152C30.1243 30.6692 32.4646 31.0002 34.9857 31.0002C42.6955 31.0002 48.7143 27.9049 48.7143 24.8002C48.7143 24.2814 48.5427 23.7487 48.1898 23.2133L48.13 23.2526C44.9409 25.33 40.2015 26.5717 34.9857 26.5717C33.2997 26.5717 31.6635 26.4419 30.1134 26.1961L30.1133 22.5985C31.6204 22.8738 33.2608 23.0288 34.9857 23.0288C42.6955 23.0288 48.7143 19.9334 48.7143 16.8288C48.7143 13.7242 42.6955 10.6288 34.9857 10.6288C33.2611 10.6288 31.6211 10.7837 30.1141 11.0589L30.1146 7.46125C31.6644 7.21561 33.3002 7.08594 34.9857 7.08594Z" fill="#212121"/>
<path d="M50.4858 33.6572C51.1145 33.6572 51.7248 33.8446 52.2505 34.199C53.8989 35.31 57.2147 37.2729 60.9005 37.9344C61.5375 38.0487 62 38.5978 62 39.2401V47.2363C62 51.1746 60.0133 54.8793 56.0949 58.2478C53.8171 60.2058 51.5046 61.4821 50.4858 62.0001C48.144 60.8085 38.9714 55.6051 38.9714 47.2364V39.24C38.9714 38.5978 39.4338 38.0486 40.0709 37.9342C43.7568 37.2728 47.0726 35.31 48.721 34.1989C49.2467 33.8446 49.857 33.6572 50.4858 33.6572ZM50.4857 43.4001C49.0182 43.4001 47.8286 44.5897 47.8286 46.0572C47.8286 47.2142 48.568 48.1985 49.6001 48.5632L49.6 50.4858C49.6 50.975 49.9966 51.3715 50.4857 51.3715C50.9749 51.3715 51.3714 50.975 51.3714 50.4858L51.3722 48.5629C52.4038 48.1979 53.1429 47.2139 53.1429 46.0572C53.1429 44.5897 51.9532 43.4001 50.4857 43.4001Z" fill="#285AE6"/>
<path d="M10.9127 24.9671L25.2045 24.9671L25.2045 10.6793C25.2045 9.65502 24.3753 8.82402 23.351 8.82181C22.3303 8.8196 21.5012 9.6452 21.499 10.6658C21.4989 10.6677 21.4989 10.6695 21.4989 10.6713L21.5054 18.5618L11.4331 8.48953C10.6858 7.74223 9.4742 7.74223 8.7269 8.48953C7.97959 9.23684 7.97959 10.4485 8.7269 11.1958L18.7992 21.2681L10.8967 21.2681C9.87964 21.2681 9.05515 22.0926 9.05515 23.1096C9.05515 23.1123 9.05516 23.1149 9.05517 23.1176C9.0596 24.1403 9.88995 24.9671 10.9127 24.9671Z" fill="#212121"/>
</g>
<defs>
<clipPath id="clip0_1492_5587">
<rect width="62" height="62" fill="white"/>
</clipPath>
</defs>
</svg>
