<svg width="62" height="62" viewBox="0 0 62 62" fill="none" xmlns="http://www.w3.org/2000/svg">
<path fill-rule="evenodd" clip-rule="evenodd" d="M17.5844 37.0088H16.534C15.4328 37.0088 14.5401 37.9015 14.5401 39.0027C14.5401 40.1039 15.4328 40.9966 16.534 40.9966H19.8301C19.8638 40.9966 19.8974 40.9958 19.9307 40.9941C19.0134 39.7726 18.2056 38.4428 17.5844 37.0088Z" fill="#A560FF"/>
<path d="M49.8592 37.0093C48.758 37.0093 47.8653 37.902 47.8653 39.0032C47.8653 40.1044 48.758 40.9971 49.8592 40.9971C50.9604 40.9971 51.8531 40.1044 51.8531 39.0032C51.8531 37.902 50.9604 37.0093 49.8592 37.0093Z" fill="#A560FF"/>
<path d="M33.1504 37.0093C32.0492 37.0093 31.1565 37.902 31.1565 39.0032C31.1565 40.1044 32.0492 40.9971 33.1504 40.9971C34.2516 40.9971 35.1443 40.1044 35.1443 39.0032C35.1443 37.902 34.2516 37.0093 33.1504 37.0093Z" fill="#A560FF"/>
<path fill-rule="evenodd" clip-rule="evenodd" d="M43.1738 40.9964C44.263 40.9824 45.1416 40.0951 45.1416 39.0026C45.1416 38.7084 45.0779 38.4291 44.9635 38.1777C44.4665 39.132 43.8698 40.0719 43.1738 40.9964Z" fill="#C294FF"/>
<path d="M14.4111 27.8919C14.4111 27.0358 13.7171 26.3418 12.861 26.3418C12.0049 26.3418 11.3109 27.0358 11.3109 27.8919V27.9657C11.3109 28.8218 12.0049 29.5158 12.861 29.5158C13.7171 29.5158 14.4111 28.8218 14.4111 27.9657V27.8919Z" fill="#A560FF"/>
<path d="M28.1362 25.9639H24.8401C23.7389 25.9639 22.8462 26.8566 22.8462 27.9578C22.8462 29.059 23.7389 29.9517 24.8401 29.9517H28.1362C29.2374 29.9517 30.1301 29.059 30.1301 27.9578C30.1301 26.8566 29.2374 25.9639 28.1362 25.9639Z" fill="#A560FF"/>
<path d="M49.5437 26.3416C48.6673 26.3416 47.9568 27.0522 47.9568 27.9286C47.9568 28.8051 48.6673 29.5156 49.5437 29.5156C50.4202 29.5156 51.1307 28.8051 51.1307 27.9286C51.1307 27.0522 50.4202 26.3416 49.5437 26.3416Z" fill="#C294FF"/>
<path d="M10.3694 35.0851C11.2459 35.0851 11.9564 34.3746 11.9564 33.4981C11.9564 32.6217 11.2459 31.9111 10.3694 31.9111C9.49293 31.9111 8.78241 32.6217 8.78241 33.4981C8.78241 34.3746 9.49293 35.0851 10.3694 35.0851Z" fill="#A560FF"/>
<path fill-rule="evenodd" clip-rule="evenodd" d="M16.2937 31.5388C16.2484 31.5357 16.2027 31.5342 16.1566 31.5342C15.0554 31.5342 14.1627 32.4269 14.1627 33.5281C14.1627 34.6293 15.0554 35.522 16.1566 35.522C16.4455 35.522 16.72 35.4606 16.9678 35.3501C16.5928 34.1443 16.355 32.8732 16.2937 31.5388Z" fill="#A560FF"/>
<path d="M41.2688 31.5346C40.1676 31.5346 39.2749 32.4273 39.2749 33.5286C39.2749 34.6298 40.1676 35.5225 41.2688 35.5225C42.3701 35.5225 43.2628 34.6298 43.2628 33.5286C43.2628 32.4273 42.3701 31.5346 41.2688 31.5346Z" fill="#A560FF"/>
<path fill-rule="evenodd" clip-rule="evenodd" d="M46.2734 34.8587C46.5122 35.0024 46.7919 35.0851 47.0908 35.0851H49.7358C50.6123 35.0851 51.3228 34.3746 51.3228 33.4981C51.3228 32.6217 50.6123 31.9111 49.7358 31.9111H47.0908C46.9817 31.9111 46.8751 31.9222 46.7721 31.9432C46.7014 32.9269 46.535 33.899 46.2734 34.8587Z" fill="#A560FF"/>
<path d="M14.1742 46.5669C15.2754 46.5669 16.1681 45.6742 16.1681 44.573C16.1681 43.4718 15.2754 42.5791 14.1742 42.5791C13.073 42.5791 12.1803 43.4718 12.1803 44.573C12.1803 45.6742 13.073 46.5669 14.1742 46.5669Z" fill="#A560FF"/>
<path fill-rule="evenodd" clip-rule="evenodd" d="M21.2305 42.5791C20.1405 42.5922 19.261 43.4798 19.261 44.5729C19.261 45.6741 20.1538 46.5668 21.255 46.5668H24.551C24.8354 46.5668 25.1059 46.5072 25.3506 46.4C23.9645 45.3194 22.5341 44.0428 21.2305 42.5791Z" fill="#C294FF"/>
<path d="M45.4872 46.1309H48.1322C49.0087 46.1309 49.7192 45.4203 49.7192 44.5439C49.7192 43.6674 49.0087 42.9569 48.1322 42.9569H45.4872C44.6107 42.9569 43.9002 43.6674 43.9002 44.5439C43.9002 45.4203 44.6107 46.1309 45.4872 46.1309Z" fill="#A560FF"/>
<path fill-rule="evenodd" clip-rule="evenodd" d="M37.8497 46.3188C38.1354 46.4769 38.4641 46.567 38.8138 46.567C39.915 46.567 40.8078 45.6743 40.8078 44.5731C40.8078 44.3149 40.7587 44.0682 40.6694 43.8418C40.1406 44.3639 39.578 44.8803 38.9816 45.3909C38.6039 45.7144 38.2254 46.0237 37.8497 46.3188Z" fill="#C294FF"/>
<path d="M31.6395 42.5786C30.5382 42.5786 29.6455 43.4713 29.6455 44.5725C29.6455 45.6737 30.5382 46.5664 31.6395 46.5664C32.7407 46.5664 33.6334 45.6737 33.6334 44.5725C33.6334 43.4713 32.7407 42.5786 31.6395 42.5786Z" fill="#A560FF"/>
<path fill-rule="evenodd" clip-rule="evenodd" d="M32.5873 49.7937C32.5767 49.8769 32.5713 49.9616 32.5713 50.0476C32.5713 51.1488 33.464 52.0415 34.5652 52.0415H37.8613C38.9625 52.0415 39.8552 51.1488 39.8552 50.0476C39.8552 48.9464 38.9625 48.0537 37.8613 48.0537H35.45C34.3581 48.7814 33.3682 49.3634 32.5873 49.7937Z" fill="#C294FF"/>
<path d="M49.2806 50.2439C49.2806 50.8977 49.8107 51.4277 50.4645 51.4277C51.1183 51.4277 51.6484 50.8977 51.6484 50.2439V49.8039C51.6484 49.15 51.1183 48.62 50.4645 48.62C49.8107 48.62 49.2806 49.15 49.2806 49.8039V50.2439Z" fill="#C294FF"/>
<path d="M44.5713 48.0542C43.4701 48.0542 42.5774 48.9469 42.5774 50.0481C42.5774 51.1493 43.4701 52.042 44.5713 52.042C45.6725 52.042 46.5652 51.1493 46.5652 50.0481C46.5652 48.9469 45.6725 48.0542 44.5713 48.0542Z" fill="#A560FF"/>
<path d="M11.0592 52.042H14.3552C15.4564 52.042 16.3491 51.1493 16.3491 50.0481C16.3491 48.9469 15.4564 48.0542 14.3552 48.0542H11.0592C9.95795 48.0542 9.06524 48.9469 9.06524 50.0481C9.06524 51.1493 9.95795 52.042 11.0592 52.042Z" fill="#C294FF"/>
<path d="M21.0652 48.0542C19.964 48.0542 19.0713 48.9469 19.0713 50.0481C19.0713 51.1493 19.964 52.042 21.0652 52.042C22.1664 52.042 23.0591 51.1493 23.0591 50.0481C23.0591 48.9469 22.1664 48.0542 21.0652 48.0542Z" fill="#A560FF"/>
<path fill-rule="evenodd" clip-rule="evenodd" d="M27.6493 48.0576C26.6035 48.1192 25.7744 48.9868 25.7744 50.048C25.7744 51.1492 26.6671 52.0419 27.7683 52.0419C28.8695 52.0419 29.7622 51.1492 29.7622 50.048C29.7622 49.7784 29.7087 49.5212 29.6117 49.2866C29.0201 48.9394 28.3563 48.5292 27.6493 48.0576Z" fill="#A560FF"/>
<path d="M49.5264 3.30762H13.2764C7.77084 3.30762 3.30768 7.77078 3.30768 13.2764V49.5264C3.30768 55.032 7.77084 59.4951 13.2764 59.4951H49.5264C55.032 59.4951 59.4952 55.032 59.4952 49.5264V13.2764C59.4952 7.77078 55.032 3.30762 49.5264 3.30762ZM13.2764 5.12012H49.5264C54.031 5.12012 57.6827 8.77179 57.6827 13.2764V49.5264C57.6827 54.0309 54.031 57.6826 49.5264 57.6826H13.2764C8.77186 57.6826 5.12018 54.0309 5.12018 49.5264V13.2764C5.12018 8.77179 8.77186 5.12012 13.2764 5.12012Z" fill="#212121"/>
<path d="M48.6207 8.74512C51.5555 8.74512 53.9472 11.0702 54.0544 13.9788L54.0582 14.1826V48.6201C54.0582 51.5549 51.7331 53.9467 48.8245 54.0539L48.6207 54.0576H14.1832C11.2484 54.0576 8.85662 51.7326 8.74942 48.824L8.74567 48.6201V14.1826C8.74567 11.2478 11.0707 8.85607 13.9793 8.74887L14.1832 8.74512H48.6207ZM48.6207 50.4326C49.5762 50.4326 50.359 49.6932 50.4282 48.7554L50.4332 48.6201V25.0576H46.9949V21.4326H50.4332V14.1826C50.4332 13.2271 49.6938 12.4443 48.7559 12.3751L48.6207 12.3701H14.1832C13.2277 12.3701 12.4448 13.1095 12.3756 14.0473L12.3707 14.1826V21.4326H16.1824V25.0576H12.3707V48.6201C12.3707 49.5756 13.1101 50.3585 14.0479 50.4277L14.1832 50.4326H48.6207ZM46.8082 15.0889C47.8092 15.0889 48.6207 15.9004 48.6207 16.9014C48.6207 17.9024 47.8092 18.7139 46.8082 18.7139C45.8072 18.7139 44.9957 17.9024 44.9957 16.9014C44.9957 15.9004 45.8072 15.0889 46.8082 15.0889ZM40.4644 15.0889C41.4654 15.0889 42.2769 15.9004 42.2769 16.9014C42.2769 17.1514 42.2263 17.3897 42.1347 17.6064C40.9449 17.2043 39.8158 16.7316 38.7773 16.2378C39.0424 15.5647 39.6979 15.0889 40.4644 15.0889Z" fill="#212121"/>
<path d="M31.5895 15.9951C32.2925 15.9951 32.9749 16.2038 33.5627 16.5984C35.406 17.8358 39.1136 20.0217 43.235 20.7585C43.9473 20.8858 44.4645 21.4973 44.4645 22.2126V31.1177C44.4645 35.5036 42.2429 39.6295 37.8615 43.3809C35.3146 45.5615 32.7287 46.9828 31.5895 47.5597C28.971 46.2327 18.7144 40.4378 18.7144 31.1178V22.2125C18.7144 21.4972 19.2315 20.8856 19.9439 20.7583C24.0653 20.0217 27.773 17.8357 29.6161 16.5984C30.204 16.2038 30.8864 15.9951 31.5895 15.9951ZM38.1689 25.0965L29.9355 33.8274L26.1048 30.4359C25.5237 29.9214 24.642 29.9504 24.096 30.5019C23.5877 31.0153 23.5919 31.8436 24.1053 32.3519C24.1225 32.369 24.1403 32.3856 24.1585 32.4017L30.1191 37.6789L40.2942 26.8889C40.7925 26.3605 40.768 25.5282 40.2396 25.0299C40.222 25.0132 40.2038 24.997 40.1852 24.9813C39.589 24.4786 38.7039 24.5291 38.1689 25.0965Z" fill="#212121"/>
</svg>
