<svg width="62" height="62" viewBox="0 0 62 62" fill="none" xmlns="http://www.w3.org/2000/svg">
<path fill-rule="evenodd" clip-rule="evenodd" d="M60.0591 8.2246C59.938 3.70413 56.5681 0 52.3125 0H7.75L7.51451 0.0037925C3.29256 0.139992 0 3.92685 0 8.47656V41.8984L0.0033724 42.1504C0.124509 46.6709 3.49444 50.375 7.75 50.375H19.375C20.4451 50.375 21.3125 49.5076 21.3125 48.4375C21.3125 47.3674 20.4451 46.5 19.375 46.5H7.75L7.56675 46.4948C5.56036 46.3811 3.875 44.4112 3.875 41.8984V18.4062H56.1875V25.1875C56.1875 26.2576 57.0549 27.125 58.125 27.125C59.1951 27.125 60.0625 26.2576 60.0625 25.1875V8.47656L60.0591 8.2246ZM7.75 3.875H52.3125C54.3984 3.875 56.1875 5.88768 56.1875 8.47656V14.5312H3.875V8.47656L3.8796 8.24966C3.9805 5.77103 5.7254 3.875 7.75 3.875ZM42.625 7.75C43.6951 7.75 44.5625 8.61745 44.5625 9.6875C44.5625 10.7576 43.6951 11.625 42.625 11.625C41.5549 11.625 40.6875 10.7576 40.6875 9.6875C40.6875 8.61745 41.5549 7.75 42.625 7.75ZM52.3125 9.6875C52.3125 8.61745 51.4451 7.75 50.375 7.75C49.3049 7.75 48.4375 8.61745 48.4375 9.6875C48.4375 10.7576 49.3049 11.625 50.375 11.625C51.4451 11.625 52.3125 10.7576 52.3125 9.6875Z" fill="#212121"/>
<path fill-rule="evenodd" clip-rule="evenodd" d="M40.1167 33.329C40.5795 32.5062 41.7642 32.5062 42.227 33.329L48.8758 45.1491C49.3297 45.9561 48.7466 46.9532 47.8207 46.9532H34.523C33.5971 46.9532 33.014 45.9561 33.4679 45.1491L40.1167 33.329ZM42.1822 44.7327C42.1822 45.2677 41.7485 45.7015 41.2134 45.7015C40.6784 45.7015 40.2447 45.2677 40.2447 44.7327C40.2447 44.1977 40.6784 43.764 41.2134 43.764C41.7485 43.764 42.1822 44.1977 42.1822 44.7327ZM41.2134 36.1821C40.6873 36.1821 40.2692 36.6241 40.2984 37.1494L40.5318 41.3498C40.5519 41.7116 40.8511 41.9946 41.2134 41.9946C41.5758 41.9946 41.875 41.7116 41.8951 41.3498L42.1285 37.1494C42.1576 36.6241 41.7395 36.1821 41.2134 36.1821Z" fill="#212121"/>
<path fill-rule="evenodd" clip-rule="evenodd" d="M51.6964 29.7762C45.6432 23.723 35.8292 23.723 29.7761 29.7762C23.7229 35.8293 23.7229 45.6434 29.7761 51.6965C35.3653 57.2857 44.161 57.7141 50.2417 52.9816L58.5465 61.2866C59.3031 62.0433 60.5299 62.0433 61.2865 61.2866C62.0431 60.53 62.0431 59.3032 61.2865 58.5466L52.9821 50.2411C57.7139 44.1604 57.2853 35.3651 51.6964 29.7762ZM32.5161 48.9564C27.9762 44.4166 27.9762 37.0561 32.5161 32.5162C37.0559 27.9764 44.4165 27.9764 48.9563 32.5162L49.161 32.7261C53.1247 36.8921 53.4397 43.3433 49.9239 47.8613L49.0207 49.0208L47.8617 49.9236L47.6304 50.0991C43.0481 53.4855 36.6036 53.044 32.5161 48.9564Z" fill="#A560FF"/>
</svg>
