<svg width="57" height="57" viewBox="0 0 57 57" fill="none" xmlns="http://www.w3.org/2000/svg">
<path fill-rule="evenodd" clip-rule="evenodd" d="M31.4741 2.43091C31.5877 1.54995 32.3379 0.890381 33.2262 0.890381C34.2916 0.890381 35.1146 1.8264 34.9782 2.88306L28.3091 54.5686C28.1955 55.4496 27.4453 56.1091 26.5571 56.1091C25.4916 56.1091 24.6686 55.1731 24.805 54.1165L31.4741 2.43091Z" fill="white"/>
<mask id="mask0_242_6686" style="mask-type:alpha" maskUnits="userSpaceOnUse" x="0" y="0" width="28" height="57">
<path d="M0.0445361 0L27.6852 0L20.4844 57H0L0.0445361 0Z" fill="white"/>
</mask>
<g mask="url(#mask0_242_6686)">
<path d="M24.0012 42.419H18.8068C17.1022 42.419 15.7203 43.8009 15.7203 45.5055C15.7203 47.2101 17.1022 48.592 18.8068 48.592H24.0012C25.7058 48.592 27.0877 47.2101 27.0877 45.5055C27.0877 43.8009 25.7058 42.419 24.0012 42.419Z" fill="#5E89FF"/>
<path d="M10.4888 47.6888C11.7153 47.6888 12.7096 46.7114 12.7096 45.5056C12.7096 44.2999 11.7153 43.3225 10.4888 43.3225C9.26234 43.3225 8.26807 44.2999 8.26807 45.5056C8.26807 46.7114 9.26234 47.6888 10.4888 47.6888Z" fill="#5E89FF"/>
<path d="M12.7476 39.1817C14.1404 39.1817 15.2695 38.0695 15.2695 36.6974C15.2695 35.3254 14.1404 34.2132 12.7476 34.2132C11.3548 34.2132 10.2257 35.3254 10.2257 36.6974C10.2257 38.0695 11.3548 39.1817 12.7476 39.1817Z" fill="#285AE6"/>
<path d="M19.6731 39.1817C21.0659 39.1817 22.195 38.0695 22.195 36.6974C22.195 35.3254 21.0659 34.2132 19.6731 34.2132C18.2803 34.2132 17.1512 35.3254 17.1512 36.6974C17.1512 38.0695 18.2803 39.1817 19.6731 39.1817Z" fill="#285AE6"/>
<path d="M5.82126 38.6547C6.88145 38.6547 7.74091 37.8121 7.74091 36.7727C7.74091 35.7333 6.88145 34.8907 5.82126 34.8907C4.76107 34.8907 3.90161 35.7333 3.90161 36.7727C3.90161 37.8121 4.76107 38.6547 5.82126 38.6547Z" fill="#5E89FF"/>
<path d="M11.0159 30.9762C12.6997 30.9762 14.0648 29.5943 14.0648 27.8897C14.0648 26.185 12.6997 24.8032 11.0159 24.8032C9.33206 24.8032 7.96704 26.185 7.96704 27.8897C7.96704 29.5943 9.33206 30.9762 11.0159 30.9762Z" fill="#5E89FF"/>
<path d="M2.81028 29.7716C3.87047 29.7716 4.72993 28.929 4.72993 27.8896C4.72993 26.8502 3.87047 26.0076 2.81028 26.0076C1.75008 26.0076 0.890625 26.8502 0.890625 27.8896C0.890625 28.929 1.75008 29.7716 2.81028 29.7716Z" fill="#5E89FF"/>
<path d="M25.2061 24.8032H20.0118C18.3072 24.8032 16.9253 26.1851 16.9253 27.8897C16.9253 29.5943 18.3072 30.9762 20.0118 30.9762H25.2061C26.9108 30.9762 28.2926 29.5943 28.2926 27.8897C28.2926 26.1851 26.9108 24.8032 25.2061 24.8032Z" fill="#285AE6"/>
<path d="M14.7426 16.3718H10.6022C9.23016 16.3718 8.11792 17.4841 8.11792 18.8561C8.11792 20.2281 9.23016 21.3403 10.6022 21.3403H14.7426C16.1146 21.3403 17.2268 20.2281 17.2268 18.8561C17.2268 17.4841 16.1146 16.3718 14.7426 16.3718Z" fill="#285AE6"/>
<path d="M3.18732 21.0389C4.41382 21.0389 5.4081 20.0614 5.4081 18.8557C5.4081 17.65 4.41382 16.6726 3.18732 16.6726C1.96083 16.6726 0.966553 17.65 0.966553 18.8557C0.966553 20.0614 1.96083 21.0389 3.18732 21.0389Z" fill="#5E89FF"/>
<path d="M22.2332 21.4907C23.7092 21.4907 24.9057 20.3111 24.9057 18.8559C24.9057 17.4007 23.7092 16.2211 22.2332 16.2211C20.7573 16.2211 19.5608 17.4007 19.5608 18.8559C19.5608 20.3111 20.7573 21.4907 22.2332 21.4907Z" fill="#285AE6"/>
<path d="M9.05939 12.6831C10.2859 12.6831 11.2802 11.7057 11.2802 10.5C11.2802 9.29425 10.2859 8.31683 9.05939 8.31683C7.8329 8.31683 6.83862 9.29425 6.83862 10.5C6.83862 11.7057 7.8329 12.6831 9.05939 12.6831Z" fill="#5E89FF"/>
<path d="M21.142 8.0155H17.0016C15.6296 8.0155 14.5173 9.12774 14.5173 10.4998C14.5173 11.8718 15.6296 12.984 17.0016 12.984H21.142C22.514 12.984 23.6263 11.8718 23.6263 10.4998C23.6263 9.12774 22.514 8.0155 21.142 8.0155Z" fill="#5E89FF"/>
</g>
<path d="M56.1095 15.4177C56.1095 15.5608 56.1049 15.7031 56.0957 15.8446L56.1095 15.8445V41.4567L56.0957 41.4567C55.6819 47.8633 45.9744 52.4577 34.2358 52.5538L33.8602 52.5553C33.5888 52.5553 33.3184 52.5529 33.0491 52.5481L33.4714 49.1385C33.4794 49.1386 33.4874 49.1387 33.4955 49.1388L33.8602 49.1404C44.3421 49.1404 52.6194 45.177 52.6194 41.0298C52.6194 40.4324 52.4452 39.827 52.0913 39.2219L51.992 39.2936C48.006 42.1694 41.511 43.9568 34.2358 44.0164L34.1045 44.017L34.5279 40.5976C44.6915 40.4338 52.6194 36.5511 52.6194 32.4924C52.6194 31.8953 52.4453 31.2902 52.0918 30.6854L52.0741 30.6966C48.2644 33.4839 42.1108 35.2634 35.1633 35.462L35.588 32.0294C45.2374 31.6241 52.6194 27.8715 52.6194 23.9551C52.6194 23.3579 52.4453 22.7528 52.0918 22.148L52.0741 22.1592C48.4596 24.8037 42.7353 26.541 36.2249 26.8817L36.6513 23.4333C45.7745 22.8083 52.6194 19.189 52.6194 15.4177C52.6194 11.9218 46.7377 8.55649 38.6117 7.58574L39.0313 4.19177C48.756 5.34191 56.1095 9.69804 56.1095 15.4177Z" fill="white"/>
</svg>
