<svg width="63" height="62" viewBox="0 0 63 62" fill="none" xmlns="http://www.w3.org/2000/svg">
<path fill-rule="evenodd" clip-rule="evenodd" d="M34.6901 2.64441C34.8137 1.68617 35.6297 0.96875 36.5959 0.96875C37.7547 0.96875 38.6499 1.98687 38.5016 3.13623L31.2475 59.3556C31.1239 60.3138 30.3079 61.0312 29.3418 61.0312C28.1829 61.0312 27.2877 60.0131 27.436 58.8638L34.6901 2.64441Z" fill="white"/>
<mask id="mask0_1543_4720" style="mask-type:alpha" maskUnits="userSpaceOnUse" x="1" y="0" width="31" height="62">
<path fill-rule="evenodd" clip-rule="evenodd" d="M1.0485 0L31.1138 0L23.2813 62H1.00006L1.0485 0Z" fill="white"/>
</mask>
<g mask="url(#mask0_1543_4720)">
<rect x="18.0999" y="46.1396" width="12.3645" height="6.71448" rx="3.35724" fill="#C294FF"/>
<ellipse cx="12.409" cy="49.4967" rx="2.41558" ry="2.37463" fill="#C294FF"/>
<ellipse cx="14.8655" cy="39.917" rx="2.74311" ry="2.70217" fill="#A560FF"/>
<ellipse cx="22.3988" cy="39.917" rx="2.74311" ry="2.70217" fill="#A560FF"/>
<ellipse cx="7.33221" cy="39.9992" rx="2.08804" ry="2.0471" fill="#C294FF"/>
<ellipse cx="12.9822" cy="30.3358" rx="3.3163" ry="3.35724" fill="#C294FF"/>
<ellipse cx="4.05685" cy="30.3362" rx="2.08804" ry="2.0471" fill="#C294FF"/>
<rect x="19.4101" y="26.9785" width="12.3645" height="6.71448" rx="3.35724" fill="#A560FF"/>
<rect x="9.82965" y="17.8086" width="9.90796" height="5.40434" rx="2.70217" fill="#A560FF"/>
<ellipse cx="4.46627" cy="20.5104" rx="2.41558" ry="2.37463" fill="#C294FF"/>
<ellipse cx="25.1829" cy="20.5105" rx="2.90688" ry="2.86594" fill="#A560FF"/>
<ellipse cx="10.8532" cy="11.4205" rx="2.41558" ry="2.37463" fill="#C294FF"/>
<rect x="16.7898" y="8.71875" width="9.90796" height="5.40434" rx="2.70217" fill="#C294FF"/>
</g>
<mask id="mask1_1543_4720" style="mask-type:alpha" maskUnits="userSpaceOnUse" x="0" y="0" width="63" height="62">
<path fill-rule="evenodd" clip-rule="evenodd" d="M0.933716 0H62.8518V61.9181H0.933716L0.933716 0ZM0.933716 0H42.5308L34.5447 61.9181H0.933716L0.933716 0Z" fill="white"/>
</mask>
<g mask="url(#mask1_1543_4720)">
<path fill-rule="evenodd" clip-rule="evenodd" d="M61.5931 11.982C61.1046 11.0694 60.3877 10.3532 59.4743 9.86516C58.5608 9.3771 57.6548 9.11719 55.1562 9.11719L21.7147 9.11727C19.3457 9.12225 18.4306 9.36664 17.5524 9.82228L17.471 9.86516C16.5576 10.3532 15.8407 11.0694 15.3522 11.982C14.8636 12.8946 14.6035 13.7998 14.6035 16.2961L14.6036 46.0662C14.6086 48.433 14.8532 49.3473 15.3092 50.2246L15.3522 50.3059C15.8407 51.2185 16.5576 51.9347 17.471 52.4228C18.3845 52.9108 19.2905 53.1707 21.7891 53.1707L55.2307 53.1707C57.5989 53.1657 58.5142 52.9215 59.3921 52.4661L59.4743 52.4228C60.3877 51.9347 61.1046 51.2185 61.5931 50.3059C62.0817 49.3933 62.3418 48.4881 62.3418 45.9918L62.3417 16.2217C62.3368 13.8557 62.0923 12.9412 61.6365 12.0642L61.5931 11.982ZM58.6511 47.521C58.6511 48.5497 57.8144 49.3866 56.7859 49.3866H20.2284C19.1999 49.3866 18.3632 48.5497 18.3632 47.521V24.0144H58.6511V47.521ZM18.3632 20.3334H58.6511V14.7134C58.6511 13.6805 57.8144 12.8401 56.7859 12.8401H20.2284C19.1999 12.8401 18.3632 13.6805 18.3632 14.7134V20.3334ZM56.2194 16.5539C56.2194 17.5885 55.3808 18.4272 54.3463 18.4272C53.3118 18.4272 52.4732 17.5885 52.4732 16.5539C52.4732 15.5193 53.3118 14.6806 54.3463 14.6806C55.3808 14.6806 56.2194 15.5193 56.2194 16.5539ZM47.8398 18.4272C48.8742 18.4272 49.7128 17.5885 49.7128 16.5539C49.7128 15.5193 48.8742 14.6806 47.8398 14.6806C46.8053 14.6806 45.9667 15.5193 45.9667 16.5539C45.9667 17.5885 46.8053 18.4272 47.8398 18.4272Z" fill="white"/>
</g>
</svg>
