<svg width="64" height="64" viewBox="0 0 64 64" fill="none" xmlns="http://www.w3.org/2000/svg">
<path fill-rule="evenodd" clip-rule="evenodd" d="M34.7768 2.72972C34.9044 1.74056 35.7467 1 36.7441 1V1C37.9403 1 38.8644 2.05097 38.7113 3.23739L31.2232 61.2703C31.0956 62.2594 30.2533 63 29.2559 63V63C28.0597 63 27.1356 61.949 27.2887 60.7626L34.7768 2.72972Z" fill="#212121"/>
<mask id="mask0_1492_4852" style="mask-type:alpha" maskUnits="userSpaceOnUse" x="-1" y="0" width="33" height="64">
<path fill-rule="evenodd" clip-rule="evenodd" d="M0.0498834 0L31.085 0L22.9999 64H-0.00012207L0.0498834 0Z" fill="white"/>
</mask>
<g mask="url(#mask0_1492_4852)">
<rect x="17.6514" y="47.6279" width="12.7633" height="6.93108" rx="3.46554" fill="#C294FF"/>
<ellipse cx="11.7768" cy="51.0938" rx="2.4935" ry="2.45124" fill="#C294FF"/>
<ellipse cx="14.3126" cy="41.2044" rx="2.8316" ry="2.78934" fill="#A560FF"/>
<ellipse cx="22.0889" cy="41.2044" rx="2.8316" ry="2.78934" fill="#A560FF"/>
<ellipse cx="6.53626" cy="41.2889" rx="2.1554" ry="2.11313" fill="#C294FF"/>
<ellipse cx="12.3686" cy="31.3151" rx="3.42328" ry="3.46554" fill="#C294FF"/>
<ellipse cx="3.15527" cy="31.3153" rx="2.1554" ry="2.11313" fill="#C294FF"/>
<rect x="19.0038" y="27.8496" width="12.7633" height="6.93108" rx="3.46554" fill="#A560FF"/>
<rect x="9.11426" y="18.3818" width="10.2276" height="5.57867" rx="2.78934" fill="#A560FF"/>
<ellipse cx="3.57785" cy="21.171" rx="2.4935" ry="2.45124" fill="#C294FF"/>
<ellipse cx="24.9628" cy="21.1713" rx="3.00065" ry="2.95839" fill="#A560FF"/>
<ellipse cx="10.1709" cy="11.7891" rx="2.4935" ry="2.45124" fill="#C294FF"/>
<rect x="16.299" y="9" width="10.2276" height="5.57867" rx="2.78934" fill="#C294FF"/>
</g>
<mask id="mask1_1492_4852" style="mask-type:alpha" maskUnits="userSpaceOnUse" x="-1" y="0" width="65" height="64">
<path fill-rule="evenodd" clip-rule="evenodd" d="M-0.0684814 0H63.847V63.9155H-0.0684814L-0.0684814 0ZM-0.0684814 0H42.8704L34.6267 63.9155H-0.0684814L-0.0684814 0Z" fill="white"/>
</mask>
<g mask="url(#mask1_1492_4852)">
<path d="M41.1439 13.7861V13.7861C41.2032 13.8502 41.2891 13.8829 41.376 13.8744L41.4991 13.8625C41.6589 13.8497 41.8189 13.8401 41.979 13.8337L42.4597 13.824C48.2582 13.824 53.1321 17.8476 54.2063 23.234L54.2381 23.4077L54.317 23.4417C59.4523 25.7179 62.8668 30.6667 62.9962 36.2447L63 36.5735C63 44.4428 56.5222 50.8342 48.4873 50.9968L48.1735 51H38.0054C37.1469 51 36.4509 50.304 36.4509 49.4455C36.4509 49.3148 36.4674 49.1846 36.5 49.0579C36.7943 47.9149 37.825 47.1159 39.0054 47.1159H48.1735C54.1896 47.1159 59.0594 42.3869 59.0594 36.5735C59.0594 32.1875 56.2631 28.2865 52.0683 26.7266L51.7865 26.6261L50.5575 26.206L50.4666 24.9269C50.1795 20.8842 46.6955 17.7081 42.4597 17.7081C42.0306 17.7081 41.6002 17.7428 41.1717 17.8112L40.8507 17.8689L40.6065 17.9176" fill="#212121"/>
</g>
</svg>
