<svg width="59" height="63" viewBox="0 0 59 63" fill="none" xmlns="http://www.w3.org/2000/svg">
<g clip-path="url(#clip0_1551_7049)">
<path fill-rule="evenodd" clip-rule="evenodd" d="M23.6658 0.711914L24.059 0.713548C36.6194 0.818009 46.9586 5.92073 46.9586 12.9713C46.9586 13.1234 46.9538 13.2746 46.9443 13.4249L46.9586 13.4254V28.2117C44.7894 27.2096 42.4542 26.6844 40.1109 26.6359C42.1351 25.2674 43.3048 23.673 43.3048 22.0523C43.3048 21.4166 43.1223 20.7725 42.7516 20.1286L42.6388 20.2123C40.869 21.5078 38.6278 22.5953 36.0529 23.423C36.3662 22.2914 36.5234 21.1392 36.5234 19.9684V19.3938C40.6939 17.7552 43.3048 15.3927 43.3048 12.9713C43.3048 8.5601 34.6393 4.34433 23.6658 4.34433L23.2839 4.34603C12.4919 4.44239 4.02671 8.61139 4.02671 12.9713C4.02671 15.3927 6.63768 17.7552 10.8082 19.3938V19.9685C10.8082 21.181 10.9806 22.3341 11.2865 23.4255C8.65386 22.58 6.36974 21.463 4.58116 20.1299C4.20876 20.773 4.02671 21.4162 4.02671 22.0523C4.02671 25.1784 8.37849 28.2063 14.8195 29.7052C16.4042 31.5319 18.2307 33.0231 19.8528 34.1554C13.5834 33.6352 8.11432 31.8447 4.5803 29.2103C4.20869 29.8543 4.02671 30.4974 4.02671 31.1334C4.02671 35.4634 12.376 39.605 23.062 39.7561C22.7743 40.9468 22.6155 42.1623 22.5855 43.3804C15.1855 43.2106 8.61919 41.3021 4.5803 38.2913C4.20869 38.9353 4.02671 39.5784 4.02671 40.2144C4.02671 44.5743 12.4919 48.7433 23.2839 48.8397L23.3312 48.8399C23.7131 50.0896 24.2407 51.3042 24.914 52.4573C24.6302 52.4648 24.3452 52.4698 24.059 52.4722L23.6658 52.4738C11.2007 52.4738 0.824702 47.5554 0.387281 40.668L0.372925 40.6685V13.4254L0.387281 13.4249C0.377737 13.2746 0.372925 13.1234 0.372925 12.9713C0.372925 5.84729 10.9287 0.711914 23.6658 0.711914Z" fill="white"/>
<path fill-rule="evenodd" clip-rule="evenodd" d="M48.8891 34.6699C53.9346 39.7154 53.9346 47.8958 48.8891 52.9413C43.8436 57.9868 35.6632 57.9868 30.6177 52.9413C25.5722 47.8958 25.5722 39.7154 30.6177 34.6699C35.6632 29.6244 43.8436 29.6244 48.8891 34.6699ZM44.5877 37.4398C43.79 37.436 43.1402 38.0795 43.1363 38.8772L43.1363 38.8893L43.158 45.0894L35.5495 37.4809C34.9639 36.8952 34.0143 36.8952 33.4287 37.4809C32.8431 38.0665 32.8431 39.016 33.4287 39.6016L41.0373 47.2102L34.8277 47.1936C34.0328 47.1914 33.3867 47.8341 33.3845 48.629L33.3846 48.643C33.3902 49.4479 34.0432 50.098 34.8481 50.1002L46.0781 50.1303L46.0481 38.9034C46.0459 38.0972 45.3938 37.4437 44.5877 37.4398Z" fill="white"/>
<path d="M23.6658 8.85938C24.1881 8.85938 24.6949 9.01498 25.1316 9.30934C26.5007 10.2322 29.2548 11.8625 32.3162 12.4119C32.8453 12.5069 33.2294 12.963 33.2294 13.4965V20.138C33.2294 23.409 31.5792 26.4861 28.3247 29.284C26.4328 30.9103 24.5121 31.9703 23.6659 32.4006C21.7208 31.4109 14.1022 27.089 14.1022 20.138V13.4963C14.1022 12.9629 14.4862 12.5068 15.0154 12.4118C18.0768 11.8624 20.8309 10.2321 22.2 9.30929C22.6366 9.01498 23.1436 8.85938 23.6658 8.85938ZM23.6658 16.9517C22.4469 16.9517 21.4588 17.9398 21.4588 19.1586C21.4588 20.1196 22.073 20.9371 22.9302 21.2401L22.9301 22.837C22.9301 23.2432 23.2595 23.5726 23.6658 23.5726C24.0721 23.5726 24.4014 23.2432 24.4014 22.837L24.4021 21.2398C25.2589 20.9367 25.8728 20.1193 25.8728 19.1586C25.8728 17.9398 24.8847 16.9517 23.6658 16.9517Z" fill="#285AE6"/>
</g>
<defs>
<clipPath id="clip0_1551_7049">
<rect width="58.0248" height="62" fill="white" transform="translate(0 0.0771484)"/>
</clipPath>
</defs>
</svg>
