<?xml version="1.0" encoding="utf-8"?>
<!-- Generator: Adobe Illustrator 27.0.0, SVG Export Plug-In . SVG Version: 6.00 Build 0)  -->
<svg version="1.1" xmlns="http://www.w3.org/2000/svg" xmlns:xlink="http://www.w3.org/1999/xlink" x="0px" y="0px"
	 viewBox="0 0 264 64" style="enable-background:new 0 0 264 64;" xml:space="preserve">
<style type="text/css">
	.st0{display:none;}
	.st1{display:inline;fill-rule:evenodd;clip-rule:evenodd;fill:#879198;}
	.st2{display:inline;fill-rule:evenodd;clip-rule:evenodd;fill:#E0E0E0;}
	.st3{display:inline;fill:#879198;}
	.st4{display:inline;}
	.st5{fill:#879198;}
	.st6{fill:none;}
</style>
<g id="Layer_1" class="st0">
	<path class="st1" d="M116.45,12.18h-7l0.02,0.3l0.06,0.27l0.03,0.14l0.03,0.12l0.05,0.13l0.05,0.12l0.06,0.12l0.05,0.1l0.07,0.11
		l0.06,0.11l0.08,0.09l0.08,0.1l0.09,0.1l0.09,0.08l0.09,0.09l0.1,0.08l0.11,0.08l0.1,0.05l0.11,0.06l0.11,0.07l0.12,0.05l0.11,0.05
		l0.12,0.05l0.13,0.03l0.14,0.03l0.14,0.02l0.29,0.03l0.3,0.03h0.19l0.18-0.03l0.18-0.01l0.19-0.02l0.16-0.03l0.17-0.03l0.16-0.03
		l0.15-0.07l0.15-0.05l0.14-0.08l0.14-0.05l0.11-0.09l0.13-0.08l0.11-0.09l0.11-0.09l0.1-0.11l0.89,1.84l-0.16,0.12l-0.16,0.12
		l-0.18,0.1l-0.18,0.1l-0.19,0.09l-0.2,0.09l-0.21,0.09l-0.23,0.05l-0.22,0.05l-0.25,0.07l-0.24,0.03l-0.26,0.03l-0.27,0.03
		l-0.28,0.03l-0.29,0.01h-0.28l-0.28-0.01l-0.27-0.01l-0.27-0.03l-0.25-0.03l-0.25-0.05l-0.25-0.07l-0.23-0.07l-0.24-0.09
		l-0.21-0.09l-0.21-0.1l-0.2-0.12l-0.19-0.11l-0.19-0.13l-0.18-0.14l-0.18-0.16l-0.17-0.17l-0.16-0.18l-0.15-0.19l-0.13-0.2
		l-0.14-0.19l-0.1-0.22l-0.11-0.21l-0.1-0.24l-0.08-0.23l-0.09-0.25l-0.05-0.24l-0.07-0.27l-0.03-0.28l-0.03-0.28l-0.03-0.29
		l-0.01-0.3v-0.59l0.03-0.3l0.03-0.28l0.03-0.29l0.05-0.27l0.07-0.27l0.07-0.26l0.09-0.26l0.1-0.25l0.1-0.23l0.12-0.24l0.12-0.21
		l0.14-0.21l0.14-0.21l0.17-0.2l0.17-0.19l0.18-0.18l0.18-0.18l0.2-0.16l0.19-0.16l0.19-0.12l0.21-0.12l0.2-0.12l0.21-0.1l0.23-0.08
		l0.21-0.09l0.24-0.06l0.23-0.07l0.24-0.03l0.24-0.03l0.25-0.01l0.25-0.01l0.26,0.01l0.26,0.01l0.26,0.03l0.24,0.03l0.24,0.05
		l0.23,0.05l0.23,0.08l0.21,0.07l0.21,0.1l0.2,0.09l0.19,0.11l0.2,0.12l0.18,0.13l0.18,0.14l0.17,0.14l0.17,0.18l0.16,0.17
		l0.15,0.18l0.13,0.18l0.12,0.18l0.12,0.19l0.09,0.21l0.1,0.2l0.09,0.2l0.08,0.22l0.07,0.22l0.05,0.24l0.03,0.22l0.03,0.25
		l0.03,0.23l0.03,0.26v0.26l-0.01,0.24l-0.05,0.31l-0.06,0.37L116.45,12.18z M109.53,10.37h4.82l-0.06-0.28l-0.05-0.26l-0.06-0.24
		l-0.09-0.22l-0.1-0.2l-0.1-0.19l-0.13-0.16l-0.14-0.15l-0.16-0.13l-0.17-0.12l-0.2-0.1l-0.19-0.07L112.7,8.2l-0.24-0.05l-0.24-0.03
		l-0.27-0.01l-0.24,0.01l-0.22,0.03l-0.23,0.05l-0.2,0.05l-0.19,0.07l-0.18,0.1l-0.18,0.12l-0.16,0.13l-0.15,0.15l-0.12,0.16
		l-0.12,0.19l-0.11,0.2l-0.1,0.22l-0.09,0.24l-0.08,0.26L109.53,10.37z M123.9,16.59l-2.52-3.36l-2.26,3.36h-2.72l3.77-5.27
		l-3.46-5.05h2.64l2.06,3.15l2.3-3.15h2.63l-3.78,5.05l4.12,5.27H123.9z M128.54,8.22h-1.12V6.28h1.12V4.19l2.29-0.88v2.97h2.7v1.94
		h-2.7v4.79l0.02,0.24l0.03,0.22l0.03,0.2l0.03,0.19l0.06,0.17l0.08,0.14l0.07,0.11l0.1,0.11l0.1,0.1l0.12,0.08l0.12,0.07l0.16,0.05
		l0.18,0.03l0.18,0.02l0.19,0.01l0.2-0.01l0.21-0.02l0.19-0.03l0.19-0.05l0.2-0.08l0.18-0.07l0.18-0.1l0.18-0.12v2.23l-0.2,0.05
		l-0.24,0.07l-0.25,0.05l-0.28,0.05l-0.29,0.03l-0.32,0.03l-0.34,0.01l-0.36,0.01h-0.18l-0.17-0.01l-0.17-0.03l-0.17-0.03
		l-0.16-0.03l-0.16-0.03l-0.14-0.05l-0.15-0.05l-0.13-0.05l-0.14-0.08l-0.13-0.07l-0.12-0.08l-0.12-0.08l-0.1-0.1l-0.1-0.09
		l-0.11-0.11l-0.09-0.11l-0.09-0.12l-0.08-0.11l-0.08-0.13l-0.07-0.13l-0.07-0.14l-0.06-0.14l-0.05-0.15l-0.06-0.16l-0.05-0.16
		l-0.03-0.17l-0.05-0.18l-0.01-0.18l-0.03-0.2v-0.19l-0.01-0.19L128.54,8.22z M144.27,12.18h-7l0.03,0.3l0.04,0.27l0.02,0.14
		l0.03,0.12l0.05,0.13l0.05,0.12l0.04,0.12l0.07,0.1l0.05,0.11l0.08,0.11l0.07,0.09l0.09,0.1l0.08,0.1l0.09,0.08l0.1,0.09l0.09,0.08
		l0.1,0.08l0.11,0.05l0.1,0.06l0.12,0.07l0.12,0.05l0.12,0.05l0.11,0.05l0.14,0.03l0.13,0.03l0.15,0.02l0.28,0.03l0.32,0.03h0.19
		l0.19-0.03l0.18-0.01l0.17-0.02l0.17-0.03l0.17-0.03l0.16-0.03l0.15-0.07l0.14-0.05l0.15-0.08l0.13-0.05l0.12-0.09l0.12-0.08
		l0.11-0.09l0.11-0.09l0.11-0.11l0.89,1.84l-0.16,0.12l-0.18,0.12l-0.17,0.1l-0.18,0.1l-0.19,0.09l-0.21,0.09l-0.2,0.09l-0.21,0.05
		l-0.24,0.05l-0.24,0.07l-0.25,0.03l-0.27,0.03l-0.27,0.03l-0.27,0.03l-0.28,0.01h-0.29l-0.28-0.01l-0.27-0.01l-0.27-0.03
		l-0.25-0.03l-0.25-0.05l-0.24-0.07l-0.24-0.07l-0.23-0.09l-0.22-0.09l-0.2-0.1l-0.21-0.12l-0.19-0.11l-0.19-0.13l-0.18-0.14
		l-0.17-0.16l-0.18-0.17L136,15.23l-0.15-0.19l-0.12-0.2l-0.13-0.19l-0.12-0.22l-0.1-0.21l-0.09-0.24l-0.09-0.23l-0.09-0.25
		l-0.05-0.24l-0.06-0.27l-0.05-0.28l-0.03-0.28l-0.02-0.29l-0.01-0.3v-0.59l0.01-0.3l0.03-0.28l0.03-0.29l0.05-0.27l0.06-0.27
		l0.08-0.26l0.08-0.26l0.1-0.25l0.11-0.23l0.1-0.24l0.13-0.21l0.15-0.21l0.14-0.21l0.16-0.2l0.18-0.19l0.18-0.18l0.19-0.18
		l0.19-0.16l0.19-0.16l0.2-0.12l0.2-0.12l0.2-0.12l0.22-0.1l0.2-0.08l0.24-0.09l0.21-0.06l0.24-0.07l0.24-0.03l0.24-0.03l0.25-0.01
		l0.25-0.01l0.27,0.01l0.25,0.01l0.26,0.03l0.24,0.03l0.23,0.05l0.24,0.05l0.23,0.08l0.22,0.07l0.2,0.1l0.2,0.09l0.2,0.11l0.19,0.12
		l0.18,0.13l0.18,0.14l0.17,0.14l0.16,0.18l0.17,0.17l0.13,0.18l0.15,0.18l0.12,0.18l0.11,0.19l0.11,0.21l0.09,0.2l0.09,0.2
		l0.07,0.22l0.08,0.22l0.05,0.24l0.05,0.22l0.05,0.25l0.03,0.23l0.01,0.26l0.01,0.26l-0.01,0.24l-0.03,0.31l-0.07,0.37L144.27,12.18
		z M137.33,10.37h4.82l-0.03-0.28l-0.06-0.26L142,9.6l-0.08-0.22l-0.09-0.2l-0.11-0.19l-0.14-0.16l-0.13-0.15l-0.16-0.13l-0.17-0.12
		l-0.19-0.1l-0.2-0.07l-0.21-0.05l-0.23-0.05l-0.25-0.03l-0.27-0.01l-0.24,0.01l-0.22,0.03L139.1,8.2l-0.21,0.05l-0.19,0.07
		l-0.18,0.1l-0.17,0.12l-0.16,0.13l-0.15,0.15l-0.14,0.16l-0.12,0.19l-0.11,0.2l-0.1,0.22l-0.09,0.24l-0.07,0.26L137.33,10.37z
		 M152.48,16.59v-5.95l-0.01-0.33l-0.03-0.28l-0.05-0.28l-0.05-0.26l-0.07-0.22l-0.09-0.22l-0.1-0.18l-0.1-0.17l-0.07-0.08
		l-0.07-0.05l-0.08-0.07l-0.07-0.07l-0.09-0.05l-0.08-0.05l-0.09-0.05l-0.1-0.03l-0.2-0.07l-0.23-0.05l-0.25-0.03l-0.26-0.01h-0.14
		l-0.11,0.01l-0.13,0.03l-0.14,0.03l-0.14,0.05l-0.15,0.05l-0.13,0.05l-0.15,0.08l-0.14,0.07l-0.13,0.09l-0.11,0.09l-0.12,0.09
		l-0.11,0.09l-0.1,0.1l-0.09,0.1l-0.09,0.11v7.45h-2.28V6.28h1.65l0.42,0.96l0.12-0.13l0.13-0.12l0.12-0.12l0.13-0.11l0.16-0.11
		l0.15-0.09l0.17-0.09l0.18-0.08l0.17-0.07l0.18-0.05l0.19-0.05l0.19-0.05l0.21-0.03l0.2-0.03l0.23-0.01l0.21-0.01l0.21,0.01
		l0.21,0.01l0.2,0.03l0.21,0.03l0.19,0.05l0.18,0.05l0.18,0.06l0.17,0.07l0.17,0.08l0.18,0.08l0.16,0.09l0.16,0.1l0.15,0.11
		l0.12,0.11l0.14,0.12l0.13,0.14l0.12,0.14l0.12,0.14l0.09,0.16l0.1,0.17l0.1,0.17l0.08,0.17l0.08,0.18l0.05,0.2l0.07,0.19l0.05,0.2
		l0.03,0.22l0.03,0.21l0.03,0.21l0.03,0.23l0.01,0.25v6.56L152.48,16.59z M163.6,16.59v-0.62l-0.08,0.08l-0.09,0.08l-0.1,0.08
		l-0.11,0.07l-0.12,0.08l-0.15,0.07l-0.15,0.07l-0.17,0.05l-0.17,0.05l-0.17,0.05l-0.18,0.05l-0.17,0.03l-0.18,0.03l-0.17,0.03
		l-0.18,0.01h-0.18l-0.26-0.01l-0.25-0.01l-0.24-0.03l-0.24-0.03l-0.23-0.05l-0.22-0.07l-0.2-0.07l-0.2-0.09l-0.21-0.08l-0.18-0.11
		l-0.19-0.11l-0.17-0.11l-0.18-0.13l-0.17-0.14l-0.16-0.15l-0.15-0.17l-0.14-0.18l-0.14-0.19l-0.11-0.19l-0.12-0.2l-0.1-0.21
		l-0.09-0.21l-0.09-0.22l-0.09-0.24l-0.07-0.23L157,13.29l-0.07-0.27l-0.03-0.27l-0.03-0.27l-0.03-0.29l-0.01-0.29V11.3l0.03-0.29
		l0.03-0.29l0.03-0.29l0.04-0.27l0.07-0.26l0.06-0.27l0.09-0.26l0.08-0.23l0.1-0.25l0.11-0.22l0.13-0.24l0.11-0.21l0.15-0.22
		l0.16-0.19l0.16-0.2l0.18-0.18l0.18-0.19l0.18-0.16l0.18-0.16l0.19-0.12l0.21-0.13l0.19-0.11l0.23-0.11l0.2-0.08l0.21-0.09
		l0.24-0.06l0.23-0.07l0.24-0.03l0.24-0.03l0.25-0.01l0.26-0.01l0.28,0.01l0.26,0.02l0.27,0.03l0.26,0.07l0.25,0.05l0.25,0.09
		l0.24,0.09l0.24,0.11V2.44l2.28-0.58v14.72L163.6,16.59z M163.6,8.74l-0.19-0.14l-0.18-0.12l-0.18-0.1l-0.2-0.09l-0.19-0.05
		l-0.19-0.05l-0.2-0.03l-0.19-0.01l-0.17,0.01l-0.17,0.01l-0.16,0.01l-0.16,0.03l-0.15,0.03l-0.15,0.03l-0.14,0.03l-0.14,0.07
		l-0.12,0.05l-0.13,0.06l-0.1,0.08l-0.12,0.08l-0.11,0.09l-0.11,0.09l-0.09,0.1l-0.1,0.11l-0.08,0.11l-0.09,0.11l-0.09,0.12
		l-0.05,0.14l-0.07,0.14l-0.07,0.14l-0.05,0.14l-0.06,0.16l-0.03,0.16l-0.03,0.17l-0.03,0.18l-0.02,0.17l-0.03,0.2l-0.01,0.19
		l-0.01,0.19v0.2l0.01,0.39l0.05,0.37l0.02,0.17l0.03,0.18l0.03,0.16l0.03,0.16l0.06,0.14l0.05,0.14l0.07,0.13l0.06,0.13l0.07,0.12
		l0.09,0.12l0.09,0.1l0.08,0.11l0.1,0.1l0.09,0.08l0.11,0.09l0.11,0.08l0.12,0.08l0.11,0.05l0.14,0.07l0.14,0.05l0.13,0.05
		l0.16,0.05l0.15,0.03l0.16,0.03l0.17,0.03l0.17,0.01l0.17,0.01l0.19,0.01l0.17-0.03l0.19-0.03l0.23-0.05l0.22-0.1l0.21-0.1
		l0.19-0.1l0.07-0.05l0.07-0.05l0.05-0.05l0.05-0.05L163.6,8.74z M176.8,12.18h-7l0.03,0.3l0.05,0.27l0.04,0.14l0.03,0.12l0.03,0.13
		l0.05,0.12l0.06,0.12l0.05,0.1l0.07,0.11l0.06,0.11l0.09,0.09l0.07,0.1l0.09,0.1l0.09,0.08l0.09,0.09l0.1,0.08l0.1,0.08l0.11,0.05
		l0.11,0.06l0.1,0.07l0.12,0.05l0.12,0.05l0.14,0.05l0.12,0.03l0.15,0.03l0.13,0.02l0.28,0.03l0.3,0.03h0.2l0.18-0.03l0.18-0.01
		l0.18-0.02l0.17-0.03l0.17-0.03l0.16-0.03l0.16-0.07l0.15-0.05l0.12-0.08l0.14-0.05l0.13-0.09l0.12-0.08l0.11-0.09l0.1-0.09
		l0.11-0.11l0.89,1.84l-0.16,0.12l-0.16,0.12l-0.17,0.1l-0.19,0.1L175,16.3l-0.2,0.09l-0.22,0.09l-0.22,0.05l-0.22,0.05l-0.24,0.07
		l-0.26,0.03l-0.25,0.03l-0.27,0.03l-0.28,0.03l-0.29,0.01h-0.29l-0.28-0.01l-0.26-0.01l-0.27-0.03l-0.26-0.03l-0.24-0.05
		l-0.25-0.07l-0.24-0.07l-0.21-0.09l-0.21-0.09l-0.22-0.1l-0.2-0.12l-0.19-0.11l-0.19-0.13l-0.18-0.14l-0.18-0.16l-0.16-0.17
		l-0.16-0.18l-0.16-0.19l-0.14-0.2l-0.12-0.19l-0.12-0.22l-0.1-0.21l-0.1-0.24l-0.09-0.23l-0.07-0.25l-0.08-0.24l-0.05-0.27
		l-0.05-0.28l-0.03-0.28l-0.03-0.29l-0.03-0.3v-0.59l0.03-0.3l0.03-0.28l0.03-0.29l0.06-0.27l0.07-0.27l0.07-0.26l0.09-0.26
		l0.08-0.25l0.11-0.23l0.12-0.24l0.12-0.21l0.13-0.21l0.17-0.21l0.16-0.2l0.17-0.19l0.18-0.18l0.18-0.18l0.19-0.16l0.2-0.16
		l0.2-0.12l0.19-0.12l0.22-0.12l0.2-0.1l0.23-0.08l0.21-0.09l0.22-0.06l0.24-0.07l0.24-0.03l0.24-0.03l0.25-0.01l0.25-0.01
		l0.26,0.01l0.26,0.01l0.25,0.03l0.25,0.03l0.25,0.05l0.23,0.05l0.22,0.08l0.21,0.07l0.2,0.1l0.21,0.09l0.19,0.11L175,6.84
		l0.19,0.13l0.18,0.14l0.17,0.14l0.17,0.18l0.16,0.17l0.15,0.18l0.13,0.18l0.12,0.18l0.11,0.19l0.11,0.21l0.1,0.2l0.08,0.2
		l0.08,0.22l0.05,0.22l0.07,0.24l0.05,0.22l0.03,0.25l0.02,0.23l0.01,0.26v0.26l-0.01,0.24l-0.03,0.31l-0.06,0.37L176.8,12.18z
		 M169.89,10.37h4.81l-0.03-0.28l-0.05-0.26l-0.07-0.24l-0.08-0.22l-0.1-0.2l-0.11-0.19l-0.11-0.16L174,8.68l-0.16-0.13l-0.18-0.12
		l-0.18-0.1l-0.2-0.07l-0.23-0.05l-0.22-0.05l-0.25-0.03l-0.25-0.01l-0.25,0.01l-0.23,0.03l-0.23,0.05l-0.19,0.05l-0.19,0.07
		l-0.19,0.1l-0.17,0.12l-0.16,0.13l-0.15,0.15l-0.15,0.16l-0.12,0.19l-0.1,0.2l-0.1,0.22l-0.08,0.24l-0.09,0.26L169.89,10.37z
		 M185.76,16.59v-0.62l-0.07,0.08l-0.1,0.08l-0.1,0.08l-0.11,0.07l-0.12,0.08l-0.13,0.07l-0.16,0.07l-0.16,0.05l-0.17,0.05
		l-0.18,0.05l-0.18,0.05l-0.17,0.03l-0.18,0.03l-0.17,0.03l-0.18,0.01h-0.18l-0.26-0.01l-0.25-0.01l-0.24-0.03l-0.24-0.03
		l-0.21-0.05l-0.23-0.07l-0.21-0.07l-0.2-0.09l-0.2-0.08l-0.19-0.11L181,16.13l-0.18-0.11l-0.18-0.13l-0.17-0.14l-0.16-0.15
		l-0.15-0.17l-0.15-0.18l-0.13-0.19l-0.11-0.19l-0.11-0.2l-0.11-0.21l-0.09-0.21l-0.09-0.22l-0.07-0.24l-0.08-0.23l-0.06-0.26
		l-0.05-0.27l-0.05-0.27l-0.02-0.27l-0.03-0.29L179,11.91l-0.01-0.31l0.01-0.3l0.01-0.29l0.03-0.29l0.03-0.29l0.05-0.27l0.07-0.26
		l0.07-0.27l0.08-0.26l0.08-0.23l0.11-0.25l0.11-0.22l0.12-0.24l0.12-0.21l0.13-0.22l0.16-0.19l0.18-0.2l0.17-0.18l0.17-0.19
		l0.18-0.16l0.19-0.16l0.2-0.12l0.19-0.13l0.2-0.11l0.21-0.11l0.21-0.08l0.21-0.09l0.23-0.06l0.22-0.07L183,6.14l0.22-0.03
		l0.26-0.01l0.26-0.01l0.27,0.01l0.26,0.02l0.27,0.03l0.26,0.07l0.25,0.05l0.25,0.09l0.25,0.09l0.22,0.11V2.44l2.28-0.58v14.72
		L185.76,16.59z M185.76,8.74l-0.18-0.14l-0.19-0.12l-0.18-0.1l-0.2-0.09l-0.19-0.05l-0.19-0.05l-0.2-0.03l-0.19-0.01l-0.17,0.01
		l-0.17,0.01l-0.16,0.01l-0.15,0.03l-0.16,0.03l-0.15,0.03l-0.13,0.03l-0.14,0.07l-0.13,0.05l-0.12,0.06l-0.11,0.08l-0.12,0.08
		l-0.11,0.09l-0.1,0.09l-0.1,0.1l-0.09,0.11l-0.09,0.11l-0.09,0.11l-0.07,0.12l-0.08,0.14l-0.07,0.14l-0.07,0.14l-0.05,0.14
		l-0.05,0.16l-0.06,0.16l-0.03,0.17l-0.03,0.18l-0.03,0.17l-0.02,0.2l-0.03,0.19v0.78l0.05,0.37l0.03,0.17l0.03,0.18l0.03,0.16
		l0.06,0.16l0.05,0.14l0.05,0.14l0.07,0.13l0.07,0.13l0.08,0.12l0.07,0.12l0.09,0.1l0.08,0.11l0.1,0.1l0.09,0.08l0.11,0.09
		l0.11,0.08l0.12,0.08l0.11,0.05l0.14,0.07l0.13,0.05l0.15,0.05l0.15,0.05l0.15,0.03l0.16,0.03l0.17,0.03l0.17,0.01l0.17,0.01
		l0.19,0.01l0.18-0.03l0.19-0.03l0.21-0.05l0.23-0.1l0.21-0.1l0.19-0.1l0.07-0.05l0.07-0.05l0.04-0.05l0.05-0.05L185.76,8.74z"/>
	<path class="st1" d="M117.34,25.17l-0.19-0.12l-0.18-0.12l-0.19-0.12l-0.18-0.11l-0.21-0.1l-0.19-0.1l-0.2-0.09l-0.19-0.08
		l-0.22-0.08l-0.2-0.05l-0.22-0.06l-0.21-0.05l-0.22-0.03l-0.23-0.03l-0.23-0.03h-0.23l-0.39,0.01l-0.38,0.03l-0.17,0.03l-0.17,0.03
		l-0.16,0.03l-0.16,0.05l-0.15,0.05l-0.15,0.07l-0.14,0.05l-0.14,0.07l-0.14,0.07l-0.11,0.07l-0.11,0.09l-0.11,0.1l-0.11,0.08
		l-0.09,0.1l-0.09,0.09l-0.08,0.11l-0.09,0.1l-0.06,0.11l-0.08,0.1l-0.05,0.11l-0.05,0.11l-0.05,0.1l-0.03,0.12l-0.03,0.12
		l-0.03,0.12l-0.03,0.11l-0.03,0.12v0.14l0.03,0.17l0.01,0.16l0.03,0.16l0.05,0.15l0.05,0.15l0.07,0.15l0.07,0.13l0.09,0.14
		l0.1,0.14l0.1,0.11l0.13,0.12l0.14,0.11l0.16,0.12l0.16,0.09l0.17,0.11l0.19,0.1l0.18,0.07l0.21,0.09l0.26,0.09l0.29,0.1l0.34,0.12
		l0.38,0.14l0.42,0.12l0.46,0.15l0.47,0.16l0.42,0.14l0.39,0.15l0.35,0.14l0.33,0.12l0.26,0.13l0.25,0.1l0.21,0.11l0.3,0.18
		l0.29,0.2l0.26,0.2l0.24,0.2l0.23,0.24l0.22,0.25l0.19,0.26l0.18,0.27l0.08,0.15l0.09,0.13l0.07,0.16l0.07,0.15l0.06,0.16
		l0.06,0.16l0.06,0.16l0.05,0.17l0.07,0.34l0.07,0.36l0.03,0.38l0.01,0.38v0.32l-0.03,0.32L120,36.01l-0.06,0.31l-0.07,0.29
		l-0.08,0.29l-0.09,0.28l-0.11,0.28l-0.13,0.26l-0.15,0.26l-0.15,0.26L119,38.48l-0.18,0.25l-0.19,0.23l-0.23,0.23l-0.22,0.21
		l-0.25,0.2l-0.25,0.2l-0.26,0.18l-0.29,0.17l-0.29,0.15l-0.31,0.15l-0.32,0.12l-0.32,0.11l-0.34,0.1l-0.34,0.09l-0.38,0.07
		L114.46,41l-0.4,0.05l-0.39,0.03l-0.42,0.01l-0.42,0.01l-0.51-0.01l-0.49-0.03l-0.48-0.05l-0.47-0.08l-0.23-0.05l-0.22-0.06
		l-0.23-0.05l-0.22-0.06l-0.22-0.08l-0.21-0.07l-0.19-0.08l-0.21-0.08l-0.39-0.18l-0.37-0.2l-0.37-0.2l-0.33-0.24l-0.32-0.24
		l-0.31-0.25l-0.29-0.27l-0.27-0.28l2.6-2.48l0.18,0.24l0.19,0.23l0.19,0.21l0.22,0.18l0.23,0.18l0.22,0.18l0.25,0.15l0.24,0.12
		l0.26,0.11l0.26,0.11l0.25,0.08l0.27,0.08l0.27,0.05l0.29,0.05l0.29,0.02l0.29,0.01h0.18l0.19-0.01l0.18-0.02l0.17-0.03l0.17-0.03
		l0.18-0.03l0.16-0.03l0.16-0.06l0.15-0.05l0.15-0.05l0.15-0.08l0.13-0.07l0.14-0.08l0.13-0.08l0.12-0.09l0.11-0.1l0.1-0.09
		l0.11-0.11l0.1-0.09l0.08-0.11l0.09-0.11l0.07-0.11l0.07-0.1l0.06-0.12l0.06-0.11l0.05-0.12l0.05-0.11l0.03-0.12l0.03-0.12
		l0.03-0.14l0.01-0.12v-0.12l-0.01-0.19l-0.03-0.18l-0.03-0.17l-0.05-0.16l-0.05-0.16l-0.07-0.16l-0.08-0.14l-0.09-0.14l-0.1-0.14
		l-0.09-0.11l-0.13-0.12l-0.12-0.11l-0.14-0.11l-0.14-0.09l-0.14-0.09l-0.17-0.08l-0.12-0.07l-0.17-0.06l-0.23-0.09l-0.26-0.09
		l-0.31-0.1l-0.35-0.13l-0.41-0.14l-0.44-0.15l-0.46-0.16l-0.41-0.12l-0.37-0.14l-0.34-0.12l-0.29-0.11l-0.25-0.09l-0.21-0.09
		l-0.18-0.07l-0.25-0.14l-0.26-0.14l-0.23-0.15l-0.23-0.15l-0.22-0.15l-0.21-0.16l-0.18-0.16l-0.17-0.17l-0.16-0.17L108.17,30
		l-0.15-0.19l-0.13-0.19l-0.14-0.2l-0.1-0.2l-0.1-0.21l-0.1-0.23l-0.08-0.23l-0.08-0.24l-0.07-0.24l-0.05-0.24l-0.05-0.25
		l-0.03-0.26l-0.03-0.25v-0.27l0.01-0.27l0.01-0.27l0.03-0.27l0.06-0.26l0.05-0.25l0.05-0.26l0.09-0.25l0.09-0.24l0.09-0.24
		l0.11-0.23l0.13-0.24l0.15-0.21l0.15-0.23l0.16-0.2l0.17-0.2l0.18-0.21l0.25-0.24l0.26-0.24l0.27-0.21l0.3-0.2l0.31-0.19l0.32-0.17
		l0.32-0.15l0.34-0.14l0.37-0.11l0.37-0.1l0.39-0.08l0.39-0.08l0.42-0.06l0.42-0.05l0.42-0.03l0.46-0.01l0.46,0.01l0.43,0.03
		l0.44,0.05l0.41,0.06l0.39,0.08l0.39,0.09l0.35,0.11l0.35,0.12l0.4,0.17l0.39,0.18l0.4,0.21l0.35,0.23L117.34,25.17z M133.59,21.49
		v3.07h-4.91v16.01h-3.45V24.56h-4.91v-3.07H133.59z M160.16,33.26v7.31h-3.43v-7.31l-7.1-11.76h4.2l3.58,6.68l0.59,0.95l0.11,0.19
		l0.13,0.26l0.16,0.28l0.16,0.32l0.13-0.27l0.13-0.26l0.12-0.25l0.13-0.25l0.13-0.22l0.14-0.24l0.12-0.22l0.12-0.22l3.67-6.76h4.05
		L160.16,33.26z M131.76,44.16l5.5,13.59l5.28-13.59h3.34l2.36,19.07h-3.33l-1.39-12.42l-5.1,12.42h-2.45l-5.54-13.39l-1.33,13.27
		h-3.26l2.26-18.95H131.76z M151.56,44.16h12.52v3.07h-9.12v4.72H162v3.04h-7.04v5.17h9.59v3.07h-12.99L151.56,44.16z M170.75,56.35
		v6.88h-3.44V44.16h6.54l0.31,0.01l0.31,0.02l0.33,0.03l0.32,0.03l0.31,0.03l0.32,0.05l0.32,0.05l0.32,0.08l0.31,0.08l0.31,0.1
		l0.3,0.11l0.3,0.11l0.3,0.12l0.28,0.14l0.28,0.17l0.27,0.17l0.26,0.19l0.24,0.21l0.23,0.21l0.21,0.23l0.21,0.26l0.18,0.27
		l0.17,0.29l0.15,0.31l0.13,0.32l0.1,0.35l0.09,0.37l0.07,0.38l0.05,0.41l0.02,0.43l-0.01,0.46l-0.01,0.3l-0.05,0.29l-0.03,0.29
		l-0.05,0.26l-0.07,0.28l-0.05,0.26l-0.07,0.25l-0.09,0.24l-0.1,0.22l-0.09,0.23l-0.11,0.21l-0.12,0.22l-0.12,0.2l-0.12,0.19
		l-0.13,0.19l-0.14,0.18l-0.15,0.18l-0.16,0.15l-0.16,0.16l-0.17,0.16l-0.16,0.14l-0.19,0.13l-0.17,0.13l-0.18,0.11L178,55.25
		l-0.18,0.11l-0.2,0.1l-0.19,0.09l-0.19,0.09l-0.2,0.08l-0.19,0.09l-0.2,0.05l5.32,7.36h-4.29l-4.43-6.88L170.75,56.35z
		 M170.75,53.72h2.63l0.43-0.03l0.2-0.03l0.2-0.05l0.19-0.03l0.19-0.05l0.18-0.05l0.18-0.07l0.17-0.05l0.17-0.08l0.16-0.07
		l0.14-0.09l0.15-0.09l0.13-0.1l0.13-0.11l0.11-0.11l0.12-0.13l0.1-0.13l0.1-0.15l0.09-0.16l0.09-0.16l0.07-0.17l0.08-0.19l0.05-0.2
		l0.05-0.2l0.05-0.2l0.03-0.24l0.02-0.23l0.01-0.25v-0.48l-0.01-0.2l-0.02-0.21l-0.03-0.19l-0.05-0.17l-0.05-0.18l-0.05-0.16
		l-0.07-0.16l-0.07-0.14l-0.09-0.13l-0.08-0.13l-0.1-0.12l-0.1-0.1l-0.1-0.11l-0.11-0.1l-0.11-0.08l-0.12-0.09l-0.13-0.07
		l-0.12-0.08l-0.13-0.06l-0.15-0.07l-0.13-0.05l-0.16-0.05l-0.15-0.03l-0.31-0.07l-0.31-0.05l-0.32-0.03h-3.14V53.72z M185.28,63.23
		h3.59V44.16h-3.59V63.23z M205.34,47.97l-0.23-0.16l-0.24-0.15l-0.24-0.14l-0.27-0.12l-0.26-0.1l-0.28-0.1l-0.27-0.07l-0.28-0.08
		l-0.29-0.05l-0.29-0.03l-0.31-0.03l-0.3-0.01l-0.2,0.01l-0.21,0.03l-0.2,0.01l-0.21,0.03l-0.19,0.03l-0.2,0.03l-0.19,0.06
		l-0.21,0.05l-0.19,0.05l-0.19,0.07l-0.2,0.07l-0.19,0.08l-0.19,0.08l-0.2,0.1l-0.18,0.09l-0.19,0.1l-0.18,0.11l-0.18,0.11
		l-0.18,0.12l-0.17,0.14l-0.16,0.14l-0.17,0.14l-0.15,0.15l-0.15,0.16l-0.14,0.16l-0.15,0.16l-0.14,0.17l-0.11,0.17l-0.12,0.18
		l-0.12,0.18l-0.11,0.2l-0.1,0.19l-0.1,0.2l-0.1,0.21l-0.08,0.21l-0.09,0.2l-0.07,0.23l-0.08,0.21l-0.05,0.21l-0.07,0.23l-0.05,0.21
		l-0.03,0.24l-0.03,0.23l-0.02,0.24l-0.03,0.23l-0.03,0.25l-0.01,0.24v0.5l0.01,0.23l0.03,0.24l0.01,0.23l0.04,0.24l0.03,0.22
		l0.03,0.21l0.04,0.23l0.05,0.2l0.06,0.23l0.08,0.2l0.07,0.19l0.08,0.2l0.08,0.21l0.1,0.19l0.09,0.19l0.1,0.18l0.11,0.19l0.12,0.18
		l0.11,0.17l0.12,0.16l0.13,0.16l0.13,0.16l0.15,0.15l0.15,0.15l0.16,0.15l0.16,0.14l0.17,0.11l0.17,0.12l0.17,0.12l0.19,0.11
		l0.18,0.1l0.19,0.1l0.19,0.09l0.2,0.07l0.19,0.07l0.18,0.06l0.19,0.05l0.21,0.03l0.19,0.03l0.4,0.06l0.39,0.01l0.41,0.01h0.41
		l0.29-0.01l0.27-0.01l0.27-0.03l0.27-0.05l0.27-0.06L203.7,60l0.25-0.09l0.25-0.09l0.22-0.1l0.24-0.11l0.21-0.14l0.22-0.15
		l0.2-0.15l0.2-0.17l0.2-0.17l0.18-0.19l2.64,2.52l-0.22,0.2l-0.24,0.2l-0.22,0.18l-0.26,0.18l-0.26,0.18l-0.26,0.16l-0.27,0.16
		l-0.29,0.16l-0.24,0.11l-0.22,0.11l-0.25,0.09l-0.24,0.09l-0.25,0.08l-0.26,0.08l-0.25,0.07l-0.27,0.07l-0.27,0.05L204,63.38
		l-0.27,0.05l-0.28,0.03l-0.29,0.02l-0.29,0.02l-0.29,0.01h-0.71l-0.4-0.01l-0.4-0.01l-0.39-0.03l-0.37-0.02l-0.38-0.06l-0.36-0.05
		l-0.36-0.07l-0.35-0.08l-0.33-0.08l-0.34-0.11l-0.32-0.12l-0.31-0.14l-0.3-0.15l-0.3-0.17l-0.29-0.18l-0.28-0.19l-0.28-0.22
		l-0.27-0.2l-0.25-0.22l-0.24-0.24l-0.25-0.23l-0.22-0.25l-0.22-0.26l-0.21-0.25l-0.2-0.26l-0.2-0.28l-0.18-0.27l-0.18-0.29
		l-0.16-0.29l-0.17-0.3l-0.15-0.31l-0.12-0.27l-0.11-0.27l-0.1-0.26l-0.1-0.27l-0.09-0.28l-0.08-0.28l-0.08-0.27l-0.05-0.28
		l-0.06-0.28l-0.05-0.28l-0.05-0.3l-0.03-0.29l-0.03-0.3l-0.02-0.28l-0.01-0.31l-0.01-0.29l0.01-0.36l0.01-0.35l0.03-0.35l0.03-0.34
		l0.05-0.33l0.07-0.35l0.06-0.33l0.09-0.32l0.08-0.33l0.1-0.32l0.1-0.31l0.12-0.31l0.14-0.31l0.13-0.29l0.16-0.31l0.16-0.29
		l0.17-0.27l0.18-0.28l0.19-0.27l0.18-0.27l0.2-0.25l0.21-0.25l0.2-0.23l0.21-0.24l0.24-0.22l0.22-0.23l0.25-0.19l0.25-0.19
		l0.25-0.19l0.27-0.18l0.27-0.17l0.28-0.17l0.27-0.15l0.28-0.15l0.29-0.14l0.3-0.11l0.3-0.11l0.3-0.11l0.31-0.09l0.31-0.09
		l0.31-0.07l0.34-0.07l0.34-0.05l0.34-0.05l0.33-0.05l0.35-0.03l0.35-0.01l0.36-0.01l0.43,0.01l0.43,0.03l0.41,0.05l0.4,0.05
		l0.39,0.07l0.37,0.08l0.37,0.09l0.35,0.11l0.34,0.12l0.33,0.12l0.31,0.14l0.3,0.15l0.27,0.13l0.28,0.16l0.26,0.18l0.26,0.17
		l0.01,0.01L205.34,47.97z M213.79,58.87l-1.76,4.35h-3.81l8.07-19.07h3.53l8.03,19.07h-3.92l-1.79-4.35H213.79z M214.94,55.96h6.01
		l-2.08-5.14l-0.14-0.31l-0.11-0.31l-0.11-0.31l-0.11-0.32l-0.12-0.32l-0.11-0.33l-0.09-0.35l-0.11-0.35l-0.11,0.36l-0.09,0.36
		l-0.12,0.35l-0.11,0.33l-0.12,0.33l-0.12,0.33l-0.11,0.32l-0.12,0.31L214.94,55.96z M110.98,58.87l-1.76,4.35h-3.82l8.07-19.07
		h3.53l8.03,19.07h-3.92l-1.8-4.35H110.98z M112.13,55.96h5.99l-2.08-5.14l-0.12-0.31l-0.12-0.31l-0.12-0.31l-0.1-0.32l-0.11-0.32
		l-0.11-0.33l-0.1-0.35l-0.11-0.35l-0.1,0.36l-0.1,0.36l-0.11,0.35l-0.11,0.33l-0.12,0.33l-0.12,0.33l-0.11,0.32l-0.14,0.31
		L112.13,55.96z M137.5,36.44l-1.74,4.4h-3.82L140,21.49h3.53l8.03,19.35h-3.92l-1.8-4.4H137.5z M138.66,33.46h5.98l-2.07-5.21
		l-0.12-0.32l-0.12-0.32l-0.12-0.32l-0.11-0.33l-0.1-0.33l-0.11-0.35l-0.11-0.34l-0.1-0.35l-0.1,0.36l-0.11,0.35l-0.11,0.36
		l-0.1,0.34l-0.12,0.34l-0.12,0.33l-0.12,0.33l-0.14,0.32L138.66,33.46z M227.16,43.88l0.14,0.01l0.14,0.01l0.15,0.03l0.15,0.03
		l0.15,0.03l0.15,0.04l0.13,0.07l0.15,0.07l0.14,0.08l0.13,0.08l0.12,0.09l0.1,0.1l0.11,0.11l0.1,0.11l0.08,0.13l0.09,0.13
		l0.07,0.14l0.07,0.13l0.05,0.14l0.06,0.14l0.02,0.13l0.03,0.14l0.03,0.15v0.29l-0.03,0.14l-0.03,0.14l-0.02,0.14l-0.06,0.14
		l-0.04,0.14l-0.08,0.14l-0.07,0.13l-0.08,0.14l-0.09,0.12l-0.1,0.11l-0.09,0.11l-0.11,0.11l-0.12,0.08l-0.14,0.08l-0.14,0.09
		l-0.13,0.07l-0.15,0.05l-0.12,0.05l-0.15,0.05l-0.15,0.02l-0.15,0.02l-0.16,0.03h-0.3l-0.16-0.03l-0.15-0.02l-0.15-0.02l-0.15-0.05
		l-0.15-0.05l-0.14-0.05l-0.14-0.07l-0.14-0.09l-0.14-0.09l-0.11-0.08l-0.11-0.11l-0.1-0.11l-0.1-0.11l-0.09-0.12l-0.08-0.14
		l-0.07-0.13l-0.07-0.14l-0.05-0.14l-0.03-0.14l-0.03-0.14l-0.03-0.14l-0.01-0.14l-0.01-0.15l0.01-0.14l0.01-0.15l0.03-0.14
		l0.03-0.13l0.05-0.14l0.04-0.14l0.07-0.13l0.07-0.14l0.09-0.13l0.09-0.13l0.1-0.11l0.1-0.11l0.12-0.1l0.11-0.09l0.12-0.08
		l0.13-0.08l0.15-0.07l0.15-0.07l0.14-0.04l0.15-0.03l0.15-0.03l0.15-0.03l0.15-0.01L227.16,43.88z M227.16,44.26h-0.12l-0.12,0.01
		l-0.12,0.02l-0.12,0.02l-0.1,0.05l-0.12,0.04l-0.12,0.05l-0.11,0.07l-0.11,0.05l-0.1,0.07l-0.11,0.08l-0.08,0.08l-0.1,0.08
		l-0.07,0.1l-0.08,0.08l-0.07,0.12l-0.07,0.11l-0.05,0.12l-0.05,0.11l-0.05,0.12l-0.03,0.12l-0.03,0.11l-0.01,0.12v0.23l0.01,0.11
		l0.03,0.12l0.03,0.12l0.05,0.11l0.05,0.12l0.05,0.11l0.07,0.12l0.06,0.09l0.07,0.11l0.09,0.09l0.09,0.07l0.09,0.1l0.1,0.07
		l0.1,0.07l0.11,0.07l0.11,0.07l0.12,0.05l0.12,0.04l0.1,0.05l0.12,0.02l0.12,0.02l0.12,0.01h0.25l0.12-0.01l0.12-0.02l0.12-0.02
		l0.12-0.05l0.11-0.04l0.11-0.05l0.12-0.07l0.11-0.07l0.1-0.07l0.1-0.07l0.1-0.1l0.08-0.07l0.08-0.09l0.07-0.11l0.08-0.09l0.05-0.12
		l0.05-0.11l0.05-0.12l0.03-0.11l0.03-0.12l0.01-0.12l0.01-0.11l0.01-0.13l-0.01-0.11l-0.01-0.12l-0.01-0.11l-0.03-0.12l-0.03-0.12
		l-0.04-0.11l-0.06-0.11l-0.05-0.12l-0.07-0.11l-0.07-0.1l-0.09-0.09l-0.08-0.08l-0.1-0.09l-0.1-0.08l-0.1-0.07l-0.11-0.05
		l-0.12-0.07l-0.11-0.05l-0.11-0.04l-0.12-0.05l-0.12-0.02l-0.12-0.02l-0.12-0.01H227.16z M226.9,46.32v0.97h-0.59v-2.42h0.87
		l0.21,0.01l0.2,0.02l0.08,0.02l0.09,0.03l0.05,0.02l0.06,0.03l0.09,0.05l0.05,0.07l0.06,0.05l0.05,0.07l0.03,0.08l0.03,0.08
		l0.03,0.08l0.01,0.1l-0.01,0.13l-0.03,0.11l-0.03,0.09l-0.06,0.1l-0.08,0.07l-0.08,0.07l-0.11,0.05l-0.12,0.05l0.65,1.02h-0.67
		l-0.58-0.97L226.9,46.32z M226.9,45.85h0.34l0.11-0.01l0.07-0.01l0.07-0.03l0.06-0.03l0.03-0.05l0.03-0.07l0.01-0.07v-0.04
		l-0.03-0.05l-0.03-0.04l-0.03-0.03l-0.06-0.03l-0.08-0.01l-0.09-0.03l-0.12-0.01h-0.28L226.9,45.85z"/>
	<path class="st2" d="M61.96,7.11l0.01-0.31l0.03-0.32l0.05-0.3l0.05-0.3l0.08-0.28l0.08-0.29l0.1-0.28l0.1-0.28l0.12-0.28
		l0.13-0.25l0.15-0.27l0.17-0.25l0.17-0.24l0.19-0.24l0.19-0.21l0.2-0.2l0.21-0.21l0.23-0.19l0.24-0.18l0.24-0.17l0.25-0.16
		l0.25-0.14l0.27-0.13l0.28-0.12l0.28-0.11l0.28-0.09l0.29-0.09l0.3-0.06l0.29-0.05l0.31-0.05l0.3-0.01l0.31-0.01l0.32,0.01
		l0.31,0.03l0.3,0.03l0.3,0.07l0.29,0.06l0.29,0.09l0.29,0.09l0.28,0.11l0.26,0.13L71,1.79l0.26,0.14l0.24,0.16l0.25,0.18l0.22,0.18
		l0.23,0.19l0.21,0.2l0.2,0.21l0.19,0.23l0.18,0.22l0.17,0.25L73.29,4l0.14,0.26l0.13,0.27l0.12,0.26l0.11,0.28l0.09,0.29l0.09,0.29
		l0.06,0.29l0.07,0.3l0.03,0.3l0.03,0.31v0.82l-0.03,0.52L74.13,8.7L74.08,9.2l-0.05,0.5l-0.05,0.49l-0.08,0.5l-0.07,0.48
		l-0.09,0.49l-0.08,0.48l-0.1,0.47l-0.11,0.48l-0.11,0.47l-0.13,0.48l-0.14,0.45l-0.13,0.46l-0.18,0.53L72.59,16l-0.2,0.5
		l-0.19,0.52l-0.21,0.49l-0.22,0.48l-0.22,0.48l-0.25,0.48l-0.25,0.47l-0.26,0.47l-0.27,0.46l-0.28,0.45l-0.28,0.45l-0.29,0.44
		l-0.3,0.44l-0.3,0.43l-0.32,0.41l-0.31,0.41l-0.34,0.41l-0.33,0.39l-0.36,0.39l-0.35,0.38l-0.37,0.38l-0.36,0.37l-0.37,0.36
		l-0.39,0.36l-0.39,0.34l-0.38,0.34l-0.4,0.34l-0.4,0.31l-0.41,0.32l-0.43,0.31l-0.43,0.28l-0.43,0.29l-0.42,0.28l-0.44,0.28
		l-0.45,0.27l-0.45,0.25l-0.46,0.25l-0.46,0.23l-0.47,0.24l-0.46,0.21l-0.49,0.22l-0.47,0.19l-0.48,0.19l-0.48,0.18l-0.49,0.19
		l-0.5,0.17l-0.49,0.14l-0.49,0.16l-0.52,0.13l-0.5,0.11l-0.5,0.12l-0.52,0.11l-0.5,0.09l-0.53,0.09l-0.52,0.07l-0.52,0.08
		l-0.53,0.05l-0.54,0.06l-0.52,0.03l-0.54,0.03l-0.53,0.01H47l-0.48-0.03l-0.48-0.02l-0.48-0.03l-0.49-0.06l-0.49-0.05l-0.48-0.08
		l-0.48-0.05L43.12,33l-0.49-0.1l-0.48-0.1l-0.48-0.1l-0.48-0.12l-0.48-0.14l-0.49-0.13l-0.48-0.14l-0.29-0.11l-0.29-0.1l-0.28-0.14
		l-0.26-0.14l-0.27-0.16l-0.26-0.16l-0.24-0.18L37.62,31l-0.21-0.21l-0.22-0.2l-0.19-0.22l-0.19-0.22l-0.17-0.24l-0.18-0.24
		l-0.16-0.26l-0.12-0.25l-0.13-0.27l-0.11-0.27l-0.11-0.28l-0.08-0.27l-0.09-0.28l-0.06-0.29l-0.06-0.29l-0.03-0.3l-0.02-0.29v-0.3
		l0.01-0.3l0.02-0.3l0.03-0.3l0.07-0.3l0.06-0.3l0.1-0.3l0.1-0.3l0.11-0.27l0.12-0.29l0.15-0.27l0.16-0.26l0.17-0.25l0.17-0.25
		l0.2-0.22l0.19-0.24l0.2-0.2l0.22-0.19l0.22-0.2l0.24-0.18l0.25-0.16l0.25-0.16l0.26-0.14l0.27-0.12l0.26-0.11l0.28-0.1l0.28-0.1
		l0.29-0.07l0.29-0.07l0.29-0.05l0.29-0.03l0.3-0.03h0.59l0.3,0.03l0.3,0.05l0.3,0.06l0.3,0.07l0.3,0.09l0.52,0.16l0.5,0.12
		l0.53,0.11l0.5,0.1L46,21.1l0.5,0.05l0.5,0.03l0.52,0.01h0.58l0.27-0.01l0.28-0.03l0.57-0.07l0.57-0.07l0.55-0.1l0.55-0.13
		l0.55-0.14l0.54-0.16l0.54-0.19l0.52-0.2l0.53-0.24l0.5-0.25l0.49-0.27l0.5-0.28l0.47-0.31l0.47-0.31l0.46-0.34l0.44-0.36
		l0.43-0.37l0.4-0.38l0.4-0.4l0.38-0.43l0.37-0.42l0.33-0.44l0.34-0.46l0.3-0.48l0.29-0.48l0.28-0.49l0.25-0.49l0.23-0.51l0.22-0.54
		l0.18-0.54l0.14-0.5l0.13-0.49l0.1-0.5l0.1-0.52l0.08-0.53l0.05-0.53l0.03-0.55L61.96,7.11z"/>
	<path class="st2" d="M62.01,7.17l0.01-0.31l0.03-0.31l0.05-0.3l0.05-0.3l0.07-0.29l0.08-0.29l0.1-0.29l0.1-0.28l0.12-0.26
		l0.14-0.27L62.89,4l0.16-0.25l0.17-0.25l0.18-0.22l0.2-0.23l0.2-0.21l0.2-0.2l0.24-0.19l0.23-0.18l0.24-0.18l0.26-0.16l0.25-0.14
		l0.27-0.14l0.27-0.13l0.28-0.11l0.27-0.09l0.29-0.09l0.3-0.06l0.29-0.07l0.32-0.03l0.31-0.03l0.31-0.01l0.33,0.01l0.32,0.01
		l0.3,0.05l0.3,0.05l0.3,0.06l0.29,0.09l0.27,0.09l0.28,0.11l0.27,0.12l0.27,0.13l0.25,0.14l0.26,0.16l0.25,0.17l0.23,0.18
		l0.23,0.19l0.21,0.21l0.2,0.2l0.2,0.21l0.18,0.24l0.17,0.24l0.16,0.25l0.15,0.27l0.15,0.25l0.12,0.28l0.11,0.28l0.09,0.28
		l0.09,0.29l0.07,0.28l0.05,0.3l0.05,0.3l0.03,0.32v0.31l0.01,0.55l0.03,0.55l0.07,0.53l0.07,0.53l0.1,0.52l0.11,0.5l0.11,0.49
		l0.16,0.5l0.09,0.27l0.1,0.27l0.09,0.27l0.11,0.27l0.12,0.25l0.1,0.27l0.12,0.26l0.13,0.23l0.27,0.49l0.3,0.48l0.3,0.48l0.33,0.46
		l0.35,0.44l0.37,0.42l0.39,0.43l0.39,0.4l0.42,0.38l0.44,0.37l0.43,0.36l0.46,0.34l0.46,0.31l0.5,0.31l0.5,0.28l0.49,0.27
		l0.52,0.25l0.52,0.23l0.52,0.2l0.55,0.19l0.54,0.16l0.54,0.15l0.56,0.13l0.56,0.1l0.56,0.07l0.56,0.07l0.3,0.03l0.28,0.01h0.58
		l0.51-0.01l0.52-0.03l0.52-0.05l0.51-0.07l0.52-0.1l0.52-0.11l0.52-0.12l0.52-0.16l0.3-0.09l0.3-0.07l0.3-0.06l0.31-0.05l0.3-0.03
		h0.61l0.3,0.03l0.29,0.03L96,20.35l0.29,0.07l0.28,0.07l0.28,0.1l0.28,0.1l0.27,0.11l0.26,0.12l0.26,0.14l0.26,0.16l0.24,0.16
		l0.25,0.18l0.21,0.2l0.23,0.19l0.2,0.2l0.21,0.23l0.18,0.22l0.18,0.25l0.17,0.25l0.14,0.26l0.15,0.27l0.14,0.29l0.12,0.27l0.09,0.3
		l0.09,0.3l0.07,0.3l0.07,0.3l0.03,0.3l0.03,0.3l0.01,0.3l-0.01,0.3l-0.01,0.29l-0.03,0.3l-0.05,0.29l-0.08,0.29l-0.07,0.28
		l-0.09,0.27l-0.11,0.28l-0.11,0.27l-0.12,0.27l-0.15,0.25l-0.15,0.26l-0.17,0.23l-0.19,0.24l-0.18,0.22l-0.2,0.22l-0.2,0.2
		l-0.23,0.21l-0.24,0.18l-0.24,0.18L98.1,31.5l-0.26,0.16l-0.27,0.14l-0.28,0.14l-0.3,0.1l-0.3,0.11l-0.48,0.14l-0.48,0.13
		l-0.48,0.14l-0.5,0.12l-0.48,0.1l-0.49,0.1l-0.5,0.1l-0.5,0.08l-0.49,0.05l-0.48,0.08l-0.49,0.05l-0.48,0.06l-0.5,0.03l-0.49,0.02
		l-0.48,0.03h-1.03l-0.53-0.01l-0.54-0.03l-0.53-0.03l-0.53-0.06L85.7,33.2l-0.53-0.08l-0.52-0.07l-0.53-0.09l-0.52-0.09l-0.51-0.11
		l-0.52-0.12l-0.51-0.11l-0.51-0.13l-0.52-0.16l-0.5-0.14l-0.5-0.17l-0.49-0.19l-0.49-0.18l-0.48-0.19l-0.49-0.19l-0.47-0.22
		l-0.47-0.21L76.7,30.5l-0.46-0.23l-0.46-0.25l-0.45-0.25l-0.45-0.27l-0.44-0.28l-0.44-0.28l-0.44-0.29l-0.43-0.28l-0.42-0.31
		l-0.4-0.32l-0.42-0.31l-0.41-0.34l-0.39-0.34l-0.39-0.34l-0.37-0.36l-0.38-0.36l-0.37-0.37l-0.36-0.38l-0.36-0.38l-0.34-0.39
		l-0.34-0.39l-0.35-0.41l-0.33-0.41l-0.32-0.41l-0.3-0.43l-0.31-0.44l-0.29-0.44l-0.29-0.45l-0.28-0.45l-0.26-0.46l-0.26-0.47
		l-0.25-0.47l-0.24-0.48l-0.24-0.48l-0.23-0.48L64.01,17l-0.2-0.52l-0.19-0.5l-0.19-0.5l-0.17-0.52l-0.15-0.46l-0.12-0.45
		l-0.12-0.48l-0.12-0.47l-0.11-0.48l-0.09-0.47l-0.1-0.48l-0.09-0.49l-0.07-0.48l-0.07-0.5l-0.05-0.49l-0.03-0.5l-0.03-0.49
		l-0.05-0.51l-0.01-0.52L62.01,7.17z M89.63,53.82l0.17,0.27l0.17,0.27l0.14,0.28l0.14,0.26l0.11,0.29l0.1,0.28l0.09,0.29l0.07,0.29
		l0.06,0.29l0.05,0.29l0.03,0.29l0.01,0.29v0.29l-0.01,0.29l-0.03,0.3l-0.03,0.29l-0.07,0.28l-0.07,0.29l-0.09,0.27l-0.09,0.28
		l-0.11,0.28l-0.12,0.27L90,60.35l-0.16,0.25l-0.16,0.26l-0.18,0.24l-0.18,0.24l-0.21,0.22l-0.21,0.22l-0.22,0.2l-0.24,0.2
		l-0.26,0.19l-0.25,0.18l-0.28,0.16l-0.27,0.15l-0.28,0.14l-0.28,0.11l-0.29,0.1l-0.28,0.09l-0.28,0.07l-0.29,0.06l-0.3,0.05
		l-0.29,0.03l-0.29,0.01h-0.3L84.2,63.5l-0.29-0.02l-0.29-0.06l-0.29-0.05l-0.28-0.07l-0.29-0.09l-0.27-0.1l-0.27-0.1l-0.28-0.12
		l-0.26-0.15l-0.25-0.15l-0.26-0.16l-0.25-0.18l-0.24-0.19l-0.23-0.2l-0.22-0.21l-0.21-0.22l-0.19-0.24l-0.19-0.26l-0.31-0.42
		L79,60.1l-0.35-0.39l-0.34-0.37l-0.36-0.36l-0.37-0.35L77.2,58.3L76.8,58l-0.12-0.09l-0.14-0.11l-0.44-0.3l-0.45-0.29l-0.48-0.27
		l-0.47-0.24l-0.49-0.24l-0.48-0.2l-0.52-0.18l-0.51-0.17l-0.5-0.15l-0.53-0.12l-0.52-0.11l-0.54-0.08l-0.53-0.08l-0.54-0.05
		l-0.53-0.03l-0.54-0.01l-0.56,0.01l-0.57,0.03l-0.56,0.07l-0.57,0.07l-0.55,0.1l-0.56,0.11l-0.55,0.15l-0.54,0.16l-0.55,0.19
		l-0.53,0.2L62.4,56.6l-0.52,0.25l-0.52,0.27l-0.5,0.27l-0.49,0.31l-0.47,0.34l-0.44,0.31l-0.43,0.34l-0.42,0.36l-0.39,0.37
		l-0.4,0.39l-0.38,0.4l-0.36,0.42l-0.35,0.45l-0.2,0.25l-0.2,0.25l-0.21,0.21l-0.24,0.2l-0.22,0.2l-0.25,0.18l-0.26,0.17l-0.25,0.15
		l-0.27,0.15l-0.27,0.13l-0.27,0.1l-0.28,0.1l-0.27,0.1l-0.29,0.07l-0.29,0.06l-0.29,0.05l-0.29,0.03l-0.29,0.02h-0.29l-0.3-0.01
		l-0.29-0.02l-0.29-0.03l-0.29-0.06l-0.29-0.07l-0.28-0.09l-0.29-0.09l-0.28-0.11l-0.28-0.12l-0.27-0.15l-0.27-0.16l-0.26-0.17
		l-0.26-0.18l-0.25-0.19l-0.22-0.21l-0.24-0.21l-0.2-0.24l-0.19-0.22l-0.19-0.25l-0.17-0.25l-0.15-0.26l-0.14-0.27l-0.12-0.26
		l-0.11-0.27l-0.1-0.28l-0.09-0.28l-0.08-0.29l-0.05-0.29l-0.06-0.28l-0.03-0.29l-0.01-0.29l-0.01-0.29l0.01-0.3l0.03-0.29
		l0.05-0.29l0.06-0.29l0.05-0.29l0.09-0.28l0.1-0.29l0.1-0.28l0.12-0.28l0.15-0.27l0.16-0.26l0.17-0.27l0.18-0.26l0.32-0.41
		l0.34-0.4l0.32-0.39l0.34-0.38l0.34-0.38l0.36-0.36l0.35-0.36l0.36-0.37l0.37-0.34l0.37-0.34l0.38-0.32l0.38-0.33l0.39-0.32
		l0.38-0.3l0.41-0.3l0.4-0.29l0.43-0.3l0.45-0.29l0.45-0.29l0.45-0.27l0.46-0.26l0.46-0.27l0.46-0.25l0.48-0.24l0.47-0.23l0.48-0.21
		l0.47-0.21l0.48-0.2l0.48-0.19l0.51-0.18l0.49-0.17l0.5-0.16l0.5-0.16l0.49-0.15l0.5-0.13l0.52-0.12l0.5-0.1l0.5-0.11l0.53-0.1
		l0.5-0.08l0.51-0.08l0.53-0.05l0.5-0.07l0.53-0.05l0.52-0.03l0.5-0.02l0.53-0.01l0.52-0.01L69,43.06l0.5,0.01l0.5,0.02l0.52,0.03
		l0.5,0.05l0.5,0.05l0.51,0.06l0.5,0.08l0.49,0.07l0.49,0.1l0.51,0.09l0.49,0.11l0.5,0.12l0.5,0.12L76,44.11l0.5,0.14l0.48,0.16
		l0.47,0.18l0.5,0.18l0.47,0.18l0.47,0.19l0.47,0.23l0.47,0.2l0.46,0.22l0.46,0.25l0.45,0.24l0.46,0.26l0.45,0.27l0.44,0.28
		l0.44,0.29l0.44,0.28l0.44,0.32l0.09,0.07l0.11,0.07l0.1,0.08l0.09,0.07l0.38,0.29L85,48.84l0.37,0.3l0.36,0.32l0.35,0.33
		l0.36,0.33l0.34,0.33l0.34,0.36l0.34,0.35l0.33,0.35l0.32,0.38l0.33,0.37l0.3,0.38l0.32,0.39l0.3,0.4L89.63,53.82z"/>
	<path class="st1" d="M57.49,31.44l0.38-0.16l0.37-0.16l0.38-0.17l0.37-0.17l0.37-0.18l0.36-0.18l0.37-0.19l0.35-0.19l0.36-0.2
		l0.36-0.2l0.34-0.2l0.35-0.22l0.68-0.43l0.66-0.46l0.34-0.26l0.35-0.26l0.32-0.25l0.32-0.27l0.32-0.27l0.31-0.27l0.32-0.27
		l0.3-0.29l0.31-0.29l0.29-0.29l0.3-0.3l0.29-0.3l0.29-0.3l0.29-0.32l0.28-0.31l0.27-0.32l-0.39-0.48l-0.39-0.49l-0.37-0.52
		l-0.36-0.5l-0.36-0.52l-0.33-0.54l-0.32-0.54l-0.31-0.55l-0.29-0.57l-0.29-0.56l-0.28-0.57l-0.27-0.59l-0.24-0.59l-0.25-0.59
		l-0.21-0.61l-0.21-0.62l-0.15-0.46l-0.12-0.45l-0.12-0.48l-0.12-0.47l-0.11-0.48l-0.09-0.47l-0.1-0.48l-0.09-0.49l-0.07-0.48
		l-0.07-0.5l-0.05-0.49l-0.03-0.5l-0.03-0.49l-0.05-0.51L62,7.63l-0.01-0.5l-0.01,0.54L61.94,8.2l-0.05,0.53l-0.08,0.52l-0.1,0.5
		l-0.1,0.5l-0.13,0.49l-0.15,0.49l-0.18,0.54l-0.22,0.54l-0.22,0.52l-0.25,0.49l-0.28,0.49l-0.29,0.48l-0.3,0.48l-0.33,0.46
		l-0.34,0.44l-0.37,0.43l-0.38,0.43l-0.4,0.4l-0.4,0.38l-0.42,0.37l-0.44,0.36l-0.46,0.34l-0.47,0.32l-0.47,0.31l-0.5,0.28
		l-0.49,0.27l-0.5,0.25l-0.52,0.24l-0.53,0.2l-0.54,0.19l-0.54,0.16l-0.55,0.15l-0.55,0.13l-0.55,0.1l-0.57,0.07L48.7,21.1
		l-0.28,0.03l-0.27,0.01h-1.02l-0.44-0.03l-0.45-0.05l-0.45-0.05l-0.44-0.07l-0.45-0.08l-0.45-0.11l-0.44-0.1l0.45,0.16L44.93,21
		l0.44,0.17l0.44,0.18l0.44,0.19l0.43,0.21l0.41,0.19l0.41,0.21l0.41,0.22l0.4,0.21l0.39,0.25l0.39,0.23l0.38,0.25l0.39,0.26
		l0.37,0.25l0.38,0.26l0.51,0.38l0.51,0.4l0.49,0.39l0.48,0.43l0.47,0.44l0.47,0.44L54,26.99l0.44,0.46l0.42,0.47l0.43,0.48
		l0.39,0.48l0.39,0.49l0.37,0.52l0.37,0.5l0.35,0.52L57.49,31.44z M39.62,32.12h0.05l0.49,0.14l0.5,0.14l0.49,0.13l0.49,0.12
		l0.49,0.1l0.49,0.1l0.5,0.1l0.49,0.08l0.49,0.05l0.49,0.08l0.5,0.05l0.5,0.06l0.49,0.03l0.49,0.02l0.49,0.03h1.15l0.66-0.03
		l0.65-0.03l0.65-0.06l0.66-0.07l0.65-0.08l0.64-0.1l0.65-0.11l0.62-0.13l0.65-0.13l0.62-0.16l0.61-0.18l0.61-0.18l0.61-0.2
		l0.61-0.22l0.59-0.21l0.23,0.35l0.21,0.36l0.23,0.38l0.19,0.36l0.21,0.38l0.2,0.37l0.18,0.37l0.18,0.39l0.17,0.37l0.17,0.39
		l0.16,0.4l0.16,0.38l0.15,0.39l0.15,0.39l0.15,0.4l0.14,0.39l0.13,0.41l0.11,0.38l0.1,0.4l0.11,0.4l0.1,0.39l0.09,0.4l0.09,0.4
		l0.09,0.4l0.07,0.41l0.06,0.39l0.08,0.41l0.05,0.41l0.06,0.4l0.05,0.42l0.03,0.41l0.03,0.4l-0.59,0.16l-0.59,0.17l-0.59,0.2
		l-0.59,0.19l-0.58,0.21l-0.58,0.23l-0.57,0.24l-0.57,0.26l-0.57,0.27l-0.54,0.26l-0.56,0.29l-0.55,0.3l-0.53,0.32l-0.53,0.32
		l-0.52,0.35l-0.52,0.35l-0.41,0.29l-0.41,0.3l-0.39,0.3l-0.4,0.31l-0.39,0.32l-0.39,0.33l-0.37,0.34l-0.38,0.34l-0.36,0.37
		l-0.35,0.36l-0.36,0.36l-0.34,0.38l-0.34,0.38l-0.33,0.39l-0.34,0.4l-0.32,0.4l-0.05,0.07l-0.03,0.05l0.31-0.44l0.28-0.45
		l0.25-0.45l0.26-0.46l0.21-0.47l0.22-0.46l0.18-0.47l0.17-0.48l0.17-0.54l0.15-0.56l0.12-0.56l0.11-0.56l0.07-0.57l0.06-0.56
		l0.03-0.56l0.01-0.57l-0.01-0.57l-0.03-0.55l-0.07-0.57l-0.07-0.56l-0.1-0.55l-0.12-0.55l-0.15-0.54l-0.16-0.55l-0.18-0.53
		l-0.19-0.52l-0.24-0.51l-0.23-0.5l-0.27-0.49l-0.28-0.49l-0.31-0.47l-0.32-0.46l-0.34-0.46l-0.36-0.43l-0.38-0.43l-0.41-0.41
		l-0.41-0.39l-0.43-0.39l-0.45-0.36l-0.48-0.36l-0.43-0.28l-0.44-0.28l-0.45-0.27l-0.46-0.25l-0.49-0.23l-0.49-0.21l-0.52-0.2
		L39.62,32.12z"/>
	<path class="st1" d="M61.65,43.93l0.05,0.63l0.03,0.63v1.27L61.7,47.1l-0.05,0.63l-0.05,0.63l-0.08,0.62l-0.08,0.63l-0.1,0.63
		l-0.12,0.62l-0.11,0.63l-0.16,0.62l-0.16,0.62l-0.19,0.62l-0.18,0.61l-0.16,0.45l-0.16,0.44l-0.17,0.44l-0.17,0.43l-0.18,0.44
		l-0.2,0.43l-0.19,0.43L59,57.43l-0.22,0.43l-0.22,0.43l-0.24,0.42l-0.24,0.42l-0.25,0.4l-0.27,0.42l-0.26,0.39l-0.27,0.4l0.31-0.38
		L57.69,60l0.34-0.35l0.36-0.36l0.36-0.32l0.36-0.32l0.39-0.3l0.39-0.27l0.47-0.34l0.49-0.31l0.5-0.27l0.52-0.27l0.52-0.25
		l0.54-0.22l0.53-0.21L64,56.02l0.54-0.16l0.55-0.15l0.56-0.11l0.55-0.1l0.57-0.07l0.56-0.07l0.57-0.03l0.56-0.01L69,55.34
		l0.53,0.03l0.54,0.05l0.53,0.08l0.54,0.08l0.52,0.11l0.53,0.12l0.5,0.15l0.5,0.17l0.51,0.18l0.48,0.2l0.49,0.24l0.47,0.24
		l0.48,0.27l0.45,0.29l0.44,0.3l0.13,0.11l0.12,0.09l0.32,0.26l0.31,0.27l0.31,0.28l0.3,0.27l0.29,0.3l0.29,0.32l0.28,0.33
		l0.27,0.34l-0.25-0.38l-0.25-0.38l-0.24-0.39l-0.23-0.38l-0.24-0.4l-0.21-0.41l-0.21-0.39l-0.19-0.41l-0.19-0.4l-0.2-0.41
		l-0.17-0.42l-0.17-0.4l-0.17-0.42l-0.16-0.42l-0.14-0.41L76,53.96l-0.19-0.62l-0.18-0.62l-0.16-0.63l-0.14-0.63l-0.14-0.63
		l-0.12-0.63l-0.1-0.64l-0.08-0.64l-0.08-0.64l-0.05-0.63L74.74,47l-0.03-0.64l-0.03-0.64l0.03-0.63l0.03-0.65l0.03-0.63L74,43.62
		l-0.79-0.15l-0.79-0.14l-0.79-0.1l-0.78-0.08l-0.8-0.05l-0.81-0.03l-0.79-0.01l-0.44,0.01l-0.41,0.01l-0.43,0.01l-0.44,0.02
		l-0.43,0.03l-0.43,0.03l-0.44,0.05l-0.41,0.05l-0.43,0.05l-0.43,0.07l-0.43,0.07l-0.42,0.09l-0.42,0.08l-0.41,0.09l-0.42,0.1
		L61.65,43.93z M73.02,28.35l0.34,0.22l0.34,0.24l0.34,0.21l0.34,0.21l0.35,0.23l0.36,0.2l0.34,0.2l0.36,0.2l0.36,0.19l0.36,0.18
		l0.36,0.18l0.37,0.19l0.37,0.17l0.37,0.17l0.37,0.16l0.38,0.14l0.34-0.53l0.35-0.52l0.37-0.51l0.37-0.5l0.4-0.5l0.39-0.49
		l0.41-0.47l0.43-0.47l0.44-0.46l0.45-0.45l0.47-0.45l0.47-0.43l0.48-0.43l0.5-0.39l0.52-0.41l0.52-0.38l0.38-0.26l0.36-0.25
		l0.39-0.25l0.37-0.25l0.39-0.23l0.39-0.23l0.4-0.22l0.4-0.22l0.4-0.2l0.43-0.2l0.41-0.19l0.43-0.2l0.44-0.18l0.43-0.17l0.45-0.17
		l0.44-0.17l-0.41,0.11l-0.44,0.09l-0.44,0.08l-0.44,0.07l-0.43,0.05l-0.44,0.05l-0.43,0.03h-1l-0.28-0.01l-0.29-0.03l-0.56-0.07
		l-0.56-0.07l-0.56-0.1l-0.56-0.13l-0.54-0.15l-0.54-0.16l-0.55-0.19l-0.52-0.2l-0.52-0.24l-0.52-0.25l-0.49-0.27l-0.49-0.28
		l-0.49-0.31l-0.46-0.31l-0.46-0.34l-0.43-0.36l-0.44-0.37l-0.41-0.38l-0.39-0.4l-0.38-0.43l-0.37-0.43l-0.35-0.44l-0.33-0.46
		l-0.3-0.48l-0.3-0.48l-0.27-0.49l-0.13-0.24l-0.12-0.26l-0.1-0.27l-0.12-0.25l-0.11-0.27l-0.09-0.27l-0.1-0.27l-0.09-0.27
		l-0.14-0.49l-0.12-0.49l-0.11-0.5l-0.1-0.5l-0.07-0.53l-0.05-0.53l-0.03-0.54l-0.03-0.54v0.5l-0.02,0.52l-0.03,0.52l-0.05,0.49
		l-0.05,0.5l-0.05,0.49l-0.08,0.5l-0.07,0.48l-0.09,0.49l-0.08,0.48l-0.1,0.47l-0.11,0.48l-0.11,0.47l-0.14,0.48l-0.13,0.45
		l-0.14,0.46l-0.22,0.62l-0.21,0.61l-0.23,0.59l-0.26,0.59l-0.26,0.59l-0.28,0.57l-0.29,0.56l-0.3,0.57l-0.31,0.55l-0.33,0.54
		l-0.34,0.54l-0.34,0.52l-0.37,0.5l-0.37,0.52l-0.39,0.49l-0.39,0.48l0.27,0.33l0.28,0.31l0.29,0.31l0.28,0.3l0.3,0.3l0.29,0.3
		l0.3,0.29l0.32,0.29l0.3,0.29l0.32,0.27l0.32,0.27l0.32,0.27l0.34,0.27l0.34,0.25l0.32,0.26L73.02,28.35z"/>
	<path class="st1" d="M96.56,32.13l-0.5,0.18l-0.5,0.2l-0.49,0.21l-0.48,0.23l-0.46,0.25l-0.45,0.27l-0.45,0.28l-0.43,0.28
		l-0.46,0.36l-0.45,0.36l-0.43,0.39l-0.41,0.4l-0.39,0.42l-0.37,0.43l-0.35,0.43l-0.35,0.46l-0.32,0.46l-0.29,0.47l-0.28,0.5
		l-0.26,0.5l-0.25,0.51l-0.21,0.51l-0.21,0.53l-0.17,0.53l-0.17,0.55l-0.14,0.54l-0.12,0.55l-0.09,0.55l-0.09,0.56l-0.05,0.58
		l-0.03,0.55l-0.03,0.57l0.03,0.58l0.03,0.56l0.05,0.56l0.08,0.58l0.09,0.56l0.13,0.56l0.15,0.56l0.17,0.54l0.17,0.48l0.18,0.47
		l0.21,0.47l0.22,0.47l0.25,0.46l0.27,0.45l0.28,0.45l0.3,0.44l0.19,0.28l0.16,0.21l0.1,0.13l0.03,0.05l-0.03-0.03l-0.08-0.1
		l-0.16-0.21l-0.2-0.3l-0.29-0.4l-0.3-0.4l-0.31-0.39l-0.3-0.38l-0.32-0.37l-0.32-0.38l-0.32-0.35l-0.34-0.35l-0.34-0.36l-0.34-0.33
		l-0.36-0.33l-0.35-0.33l-0.36-0.32l-0.37-0.3l-0.36-0.29l-0.38-0.3l-0.09-0.07l-0.1-0.08l-0.11-0.07l-0.09-0.07l-0.52-0.37
		l-0.53-0.35l-0.54-0.36l-0.54-0.33l-0.55-0.31l-0.56-0.3l-0.55-0.27l-0.57-0.27l-0.57-0.26l-0.57-0.24l-0.58-0.24l-0.57-0.2
		l-0.59-0.19l-0.58-0.19l-0.6-0.17l-0.59-0.15l0.03-0.41l0.03-0.4l0.05-0.39l0.05-0.41l0.05-0.42l0.07-0.39l0.07-0.4l0.08-0.39
		l0.17-0.81l0.18-0.79l0.22-0.78l0.22-0.78l0.14-0.39l0.13-0.4l0.15-0.4l0.16-0.39l0.14-0.38l0.17-0.4l0.17-0.39l0.17-0.37l0.18-0.4
		l0.19-0.37l0.19-0.37l0.19-0.38l0.2-0.36l0.21-0.38l0.21-0.36l0.22-0.36l0.59,0.23l0.59,0.23l0.6,0.2l0.61,0.18l0.62,0.17
		l0.62,0.16L83,32.75l0.63,0.14L84.26,33l0.64,0.1l0.63,0.08l0.65,0.07l0.64,0.05l0.65,0.03l0.65,0.03h1.13l0.48-0.03l0.48-0.03
		l0.49-0.03l0.48-0.05l0.48-0.05l0.48-0.08l0.48-0.06l0.49-0.08l0.49-0.1l0.48-0.1l0.48-0.1l0.49-0.12l0.48-0.14l0.47-0.14
		l0.48-0.14L96.56,32.13z"/>
</g>
<g id="Layer_2" class="st0">
	<path class="st1" d="M252.49,12.25c0-2.83-2.22-5.09-5-5.09h-0.03c-2.78,0-5.04,2.26-5.04,5.09c0,2.87,2.26,5.11,5.04,5.11
		C250.27,17.36,252.49,15.12,252.49,12.25z M243.39,12.25c0-2.37,1.83-4.3,4.07-4.3h0.03c2.26,0,4.07,1.92,4.07,4.32
		c0,2.39-1.81,4.32-4.07,4.29C245.23,16.56,243.39,14.66,243.39,12.25z M245.61,15.21h0.9v-2.44h0.64c0.72,0,1.09,0.27,1.22,1
		c0.11,0.75,0.25,1.27,0.38,1.45h0.95c-0.09-0.18-0.23-0.52-0.36-1.4c-0.11-0.84-0.45-1.29-0.95-1.38v-0.04
		c0.61-0.18,1.11-0.63,1.11-1.38c0-0.54-0.18-0.93-0.52-1.18c-0.34-0.25-0.91-0.43-1.77-0.43c-0.65,0-1.09,0.06-1.54,0.12
		l-0.07,0.01V15.21z M247.17,12.07h-0.66v-1.92c0.16-0.02,0.36-0.05,0.66-0.05c1.02,0,1.38,0.5,1.38,1
		C248.55,11.79,247.92,12.07,247.17,12.07z M52.68,47.88c-0.04,0.01-0.08,0.02-0.13,0.02l0.01-0.02
		c-6.51,1.31-12.88,1.37-13.82,1.37h-0.01h-0.12l-3.4,8.14h0.19h13.57h0.19L52.68,47.88z M219.82,42.49c14,0,22.49-6.92,22.49-17.66
		c0-10.21-7.75-17.67-22.49-17.67h-26.67v48.17l-14.32-15.57c2.2-1,10.11-4.87,10.11-14.93c0-10.05-8.14-17.67-24.76-17.67h-24.44
		v46.36L121.86,7.16h-20.44l-12.87,31.5L76.4,7.16h-8.62H57.75h-1.76L43.71,37.15c-1.53,0.15-3.18,0.25-5.11,0.25
		c-11.33,0-21.16-6.35-22.18-7.01l-3.93,9.6c0.01,0.01,0.03,0.02,0.05,0.04c0.97,0.66,11.03,7.52,25.47,7.52
		c4.6,0,8.29-0.55,11.95-1.08c3.59-0.53,7.15-1.05,11.49-1.05c11.32,0,19.22,3.99,22.04,5.67l-0.78,1.91
		c-1.75-1.04-5.26-2.92-9.85-4.05l3.05,8.45h18.71l4.13-11.12l0,0c0.29-0.05,4.54-0.8,9.33-0.8c4.84,0,8.93,0.77,9.19,0.82
		l4.03,11.1h36.69V37.16l15.35,20.23h38.04v-14.9H219.82z M62.71,20.84l5.61,15.47l-0.02,0c-0.43-0.08-3.69-0.71-8.09-0.71
		c-1.07,0-2.07,0.02-3,0.06L62.71,20.84z M108.1,21.03l5.6,14.96c-0.27-0.04-3.07-0.39-5.6-0.39c-2.37,0-5.44,0.36-5.7,0.39
		L108.1,21.03z M160.7,15.44c6.96,0,9.47,4.4,9.47,9.39c0,5.8-3.21,9.35-9.47,9.35h-2.68V15.44H160.7z M215.11,15.44
		c5.53,0,8.43,3.93,8.43,9.39c0,5.84-3.24,9.35-8.43,9.35h-3.71V15.44H215.11z"/>
</g>
<g id="Layer_3" class="st0">
	<path class="st3" d="M23.07,47.11c-4.49-0.04-8.82-1.71-12.17-4.66c-0.69-0.61-1.31-1.35-1.76-2.2c-0.25-0.29-0.16-0.69,0.08-0.9
		c0.98-0.82,1.88-1.63,2.82-2.49c0.45-0.45,0.65-0.37,1.02,0.12c3.55,4.74,9.84,6.57,15.39,4.49c3.19-1.06,4.94-4.49,3.88-7.68
		c-0.49-1.51-1.59-2.78-3.02-3.51c-2.33-1.1-4.74-1.96-7.27-2.45c-2.12-0.49-4.25-1.18-6.25-2.08c-7.27-3.27-7.47-13.11-2.45-17.48
		c2.86-2.53,6.57-3.88,10.37-3.76c4.25-0.12,8.37,1.31,11.6,4.04c1.76,1.55,1.76,1.63,0,3.1c-0.61,0.53-1.22,1.06-1.88,1.59
		c-0.65,0.57-0.57,0.29-0.9,0c-3.55-3.63-8.9-4.82-13.64-3.06c-2.9,0.94-4.61,3.96-3.96,6.9c0.25,1.72,1.35,3.14,2.9,3.84
		c2.04,0.98,4.21,1.67,6.41,2.08c2.53,0.57,4.98,1.39,7.31,2.45c4.12,1.76,6.62,5.96,6.21,10.45c-0.08,4.49-2.94,8.49-7.19,9.96
		C28.3,46.83,25.69,47.28,23.07,47.11z"/>
	<path class="st3" d="M240.85,44.62c-4.29,3.76-10.82,3.35-14.58-0.94c-1.23-1.39-2.04-3.06-2.41-4.9
		c-0.41-1.63-0.57-3.31-0.57-4.98V17.83c0-0.82,0.2-1.02,1.02-1.02h2.82c0.9,0,1.18,0.16,1.18,1.14v15.48
		c-0.04,1.55,0.16,3.06,0.65,4.53c0.53,2.21,2.41,3.84,4.65,4.04c2.25,0.25,4.41-0.69,5.72-2.53c1.06-1.43,1.63-3.23,1.55-5.02
		V17.83c0-0.86,0.2-1.06,1.1-1.06h3.1c0.65,0,0.9,0.16,0.9,0.86v31.08c0.04,2.7-0.65,5.35-2.04,7.68c-2.25,3.1-6,4.74-9.8,4.25
		c-0.41,0-0.45-0.24-0.45-0.57V56.1c0-0.53,0.29-0.57,0.65-0.57c0.82,0.04,1.67-0.08,2.45-0.37c2.41-0.82,4-3.06,3.96-5.59
		C240.93,48.09,240.81,46.42,240.85,44.62z"/>
	<path class="st3" d="M48.31,19.02c3.8-3.06,9.15-3.31,13.23-0.65c2.49,1.88,4.08,4.7,4.45,7.8c0.16,1.1,0.25,2.16,0.25,3.27v16.37
		c0,0.74-0.2,1.02-0.94,0.98c-1.06-0.08-2.12-0.08-3.19,0c-0.74,0-0.9-0.2-0.9-0.9V29.63c0-1.47-0.25-2.9-0.74-4.25
		c-1.06-3.06-4.37-4.66-7.43-3.59c-0.9,0.33-1.72,0.86-2.37,1.55c-1.63,1.55-2.49,3.8-2.33,6.04v16.25c0,1.02-0.29,1.27-1.22,1.18
		c-0.94-0.08-1.88,0-2.98,0c-0.78,0-0.9-0.24-0.9-0.94V6.07c0-0.86,0.2-1.06,1.06-1.06h3.1c0.82,0,1.1,0.16,1.1,1.06V18
		c-0.04,0.37-0.04,0.74,0,1.1"/>
	<path class="st3" d="M94.29,27.39c-0.12,2.82,0.2,6.25-0.2,9.68c-0.53,6.17-5.96,10.74-12.13,10.25c-1.71-0.16-3.39-0.69-4.9-1.59
		c-3.23-1.92-5.19-5.35-5.23-9.11c-0.37-5.06-0.16-10.09-0.16-15.19v-3.88c0-0.61,0.2-0.74,0.78-0.78h3.39c0.78,0,0.9,0.25,0.9,0.94
		v16.54c-0.04,1.39,0.2,2.78,0.69,4.08c1.18,3.06,4.66,4.57,7.72,3.39c1.67-0.65,2.94-2.04,3.51-3.76c0.41-1.31,0.65-2.69,0.61-4.08
		V17.79c0-0.78,0.2-1.02,0.94-0.94c1.1,0.04,2.21,0.04,3.31,0c0.65,0,0.82,0.16,0.82,0.82c0,3.02,0,6.04,0,9.72"/>
	<path class="st3" d="M102.66,29.47v-6.82c0-0.57-0.16-0.82-0.78-0.78c-0.61,0.04-1.35,0-2.04,0c-0.69,0-0.9-0.12-0.86-0.78v-3.47
		c0-0.65,0.25-0.82,0.86-0.78c0.61,0.04,1.35,0,2.04,0c0.69,0,0.78-0.29,0.78-0.86V6.11c0-1.02,0.29-1.18,1.23-1.18h3.1
		c0.65,0,0.82,0.2,0.82,0.82v10.05c0,0.82,0.2,1.06,1.02,1.02h5.43c0.74,0,0.94,0.2,0.9,0.94v3.39c0,0.61-0.2,0.78-0.78,0.74h-5.8
		c-0.45,0-0.74,0-0.74,0.61c0,4.37,0,8.78,0.12,13.11c-0.2,3.35,2.37,6.17,5.68,6.37h0.04c0.29,0.04,0.57,0.04,0.86,0
		c0.45,0,0.57,0.08,0.57,0.53v4c0,0.53-0.29,0.61-0.74,0.61c-5.8,0-10-2.33-11.35-8.94C102.62,35.31,102.5,32.41,102.66,29.47z"/>
	<path class="st3" d="M197.93,34.37v11.52c0,0.65-0.2,0.9-0.9,0.86c-1.06-0.08-2.12-0.08-3.19,0c-0.78,0-1.02-0.16-1.02-1.02v-22.7
		c0-0.9-0.2-0.98-1.1-0.98s-1.88,0.2-2.41-0.37c-0.53-0.57-0.37-1.55-0.37-2.41c0-0.86-0.16-1.88,0.33-2.37
		c0.49-0.49,0.94-0.29,2.33-0.29c0.9,0,1.18,0,1.27-0.94c-0.04-3.23,1.22-6.37,3.51-8.66c2.33-2,5.39-2.98,8.45-2.7
		c0.53,0,0.41,0.37,0.41,0.65v3.63c0,0.69-0.2,0.82-0.86,0.82c-2.33-0.16-4.49,1.02-5.6,3.06c-0.53,1.06-0.86,2.25-0.94,3.43
		c0,0.65,0,0.9,0.78,0.9h5.84c0.57,0,0.78,0.16,0.74,0.74c0.08,1.18,0.08,2.37,0,3.55c0,0.65-0.2,0.74-0.78,0.74h-5.8
		c-0.65,0-0.82,0.2-0.82,0.82C197.89,26.57,197.89,30.45,197.93,34.37z"/>
	<path class="st3" d="M127.57,29.47c-0.08,2.29,0,4.61,0.2,6.9c0.16,3.27,2.98,5.8,6.25,5.59h0.24c0.53,0,0.65,0.2,0.65,0.65v3.55
		c0,0.69-0.2,0.9-0.86,0.9c-5.68,0.57-10.74-3.59-11.31-9.27c0-0.04,0-0.04,0-0.08c-0.2-1.43-0.29-2.9-0.2-4.33V22.86
		c0-0.9-0.25-1.1-1.1-1.06c-0.69,0.04-1.35,0.04-2.04,0c-0.69,0-0.57-0.12-0.57-0.57v-3.8c0-0.45,0.12-0.65,0.61-0.61
		c0.49,0.04,1.1,0,1.63,0c1.39,0,1.39,0,1.39-1.47V5.79c0-0.78,0.2-0.94,0.98-0.94h3.35c0.65,0,0.82,0.2,0.82,0.82v10.17
		c0,0.69,0.16,0.94,0.9,0.9h5.72c0.57,0,0.82,0.16,0.78,0.78v3.63c0,0.57-0.2,0.69-0.69,0.69h-5.84c-0.69,0-0.86,0.2-0.86,0.9
		c0,2.12,0,4.29,0,6.78"/>
	<path class="st3" d="M211.85,25.8V5.99c0-0.82,0.16-1.02,0.98-1.02h3.1c0.86,0,1.06,0.25,0.94,1.02c-0.12,0.78,0,1.14,0,1.76v37.94
		c0,0.86-0.16,1.06-1.1,1.1s-1.88,0.04-2.82,0c-0.9,0-1.18-0.16-1.18-1.14c0.16-6.62,0-13.23,0-19.85"/>
	<path class="st3" d="M175.06,20c2.25-2.53,5.55-3.8,8.9-3.35c0.53,0,0.74,0.16,0.74,0.74v3.8c0,0.49-0.12,0.65-0.65,0.57
		c-4.21-0.69-8.21,2.12-8.9,6.33c-0.08,0.53-0.08,1.1,0,1.63v16.05c0,0.78-0.2,0.98-0.98,0.94c-1.06-0.04-2.12-0.04-3.19,0
		c-0.82,0-0.94-0.24-0.94-0.98V17.67c0-0.65,0.2-0.9,0.9-0.86h3.39c0.69,0,0.9,0.2,0.86,0.9c-0.04,0.69,0,1.35,0,2.25"/>
	<path class="st3" d="M163.63,26.04c-1.55-5.1-4.66-8.53-10.09-9.35c-5.1-1.06-10.33,1.18-13.11,5.59
		c-2.29,3.51-3.19,7.8-2.53,11.96c0.37,3.43,1.88,6.62,4.33,9.07c5.88,5.35,14.95,4.94,20.3-0.9c0.2-0.2,0.41-0.45,0.57-0.65
		c0.2-0.2,0.2-0.53,0-0.78c-0.69-0.57-1.39-1.18-2-1.88c-0.61-0.69-0.86-0.53-1.35,0c-1.84,2-4.37,3.14-7.06,3.27
		c-4.82,0.49-9.15-2.98-9.8-7.8c-0.12-0.78,0.12-0.9,0.82-0.9h19.85c0.65,0,0.82-0.2,0.86-0.82c0.08-2.33-0.16-4.66-0.78-6.9V26.04z
		 M157.75,29.72h-14.21c-0.29,0-0.69,0.16-0.65-0.45c0.29-3.51,2.49-6.57,5.72-7.92c5.02-1.67,9.35,1.06,10.58,6.62
		c0.45,1.88,0.45,1.88-1.43,1.88V29.72z"/>
	<path class="st3" d="M251.34,40.86c-1.55,0-2.82,1.27-2.82,2.82c0,1.55,1.27,2.82,2.82,2.82c1.51-0.04,2.69-1.27,2.65-2.78
		c0.08-1.51-1.06-2.78-2.57-2.86c0,0,0,0-0.04,0h-0.16H251.34z M251.3,45.89c-1.22-0.08-2.21-1.1-2.12-2.37
		c0.08-1.23,1.1-2.21,2.37-2.12c1.18,0.04,2.12,1.02,2.12,2.21c-0.04,1.27-1.02,2.25-2.29,2.25L251.3,45.89z"/>
	<path class="st3" d="M250.28,42.34h1.02c0.57,0,1.1,0.16,1.1,0.73c0,0.37-0.33,0.69-0.69,0.69l0.78,1.14h-0.61l-0.69-1.1h-0.41v1.1
		h-0.49V42.34z M251.22,43.44c0.29,0,0.65,0,0.65-0.37c0-0.37-0.33-0.33-0.61-0.33h-0.45v0.69H251.22z"/>
</g>
<g id="Layer_4" class="st0">
	<path class="st3" d="M115.73,43.24c7.6,0,9.8-13.28,9.8-17.19c0-2.97-1.63-5.02-4.65-5.02c-7.9,0-10.05,12.98-10.05,16.8
		C110.84,41.1,112.73,43.24,115.73,43.24z M121.12,18.15c7.37,0,10.96,4.15,10.96,9.95c0,6.94-4.88,18-16.77,18
		c-7,0-11.1-4.14-11.1-10.31C104.22,28.75,109.53,18.15,121.12,18.15z"/>
	<path class="st3" d="M171.11,18.52l-4.33,17.61c-1.22,4.79,1.7,6.79,5.15,6.79c5.81,0,7.34-4.9,8.36-9.02l3.84-15.37h4.4
		l-4.28,17.35c-2,7.86-7.61,10.23-13.61,10.23c-8.94,0-11.28-5.08-10.06-10.15l4.16-17.43H171.11z"/>
	<path class="st3" d="M200.92,18.52l-5.93,24.05h8.94l-2,3.16h-13.96l6.64-27.21H200.92z"/>
	<path class="st3" d="M217.98,34.97h5.62l-1.58-9.49l-12.35,20.25h-4.95l17.55-27.21h3.74l5.52,27.21h-6l-1.43-7.94h-7.67
		L217.98,34.97z"/>
	<path class="st3" d="M245.33,31.03h2.3c5.8,0,6.98-4.07,6.98-6.55c0-2.35-1.89-3.06-4.61-3.06h-3.26l-5.86,24.31h-6.1l6.63-27.22
		h8.98c4.55,0,10.61,0.59,10.61,5.78c0,3.85-3.53,7.61-9.01,8.43l7.54,13.01h-6.66L245.33,31.03z"/>
	<path class="st3" d="M88.42,32.58h0.05c6.51,0,8.4-5.66,8.4-8.03c0-1.72-1.08-3.13-4.89-3.13H88.7l-6,24.31h-6.33l6.68-27.22h10.08
		c4.92,0,10.45,1.3,10.45,5.99c0,4.55-3.65,9.42-13.81,9.42h-1.62l0.28-1.35"/>
	<path class="st3" d="M144.55,32.58h0.04c6.45,0,8.35-5.66,8.35-8.03c0-1.72-1.07-3.13-4.9-3.13h-3.2l-6.04,24.31h-6.4l6.73-27.22
		h10.01c4.98,0,10.55,1.3,10.55,5.99c0,4.55-3.65,9.42-13.79,9.42h-1.64l0.28-1.35"/>
	<g class="st4">
		<path class="st5" d="M61.28,29.87l-13.58,1.2v-0.02c-0.05-0.4-0.1-0.76-0.16-1.16l13.38-2.55C61.08,28.21,61.2,29,61.28,29.87z
			 M60.15,24.2L47.1,28.11h-0.02c-0.12-0.38-0.26-0.75-0.4-1.11l12.64-5.24C59.64,22.55,59.92,23.37,60.15,24.2z M57.88,18.83
			l-12,6.45c0,0,0,0,0,0h-0.01l0.01,0c-0.24-0.4-0.49-0.78-0.76-1.14l11.11-7.91C56.82,17.06,57.37,17.93,57.88,18.83z M54.17,13.63
			l-10.24,9c-0.3-0.35-0.62-0.69-0.95-1.01l8.98-10.13C52.74,12.17,53.48,12.88,54.17,13.63z M49.34,9.38l-7.91,11.05
			c-0.47-0.31-0.96-0.6-1.46-0.87L46.3,7.52C47.36,8.08,48.37,8.7,49.34,9.38z M39.84,5.02c1.17,0.29,2.32,0.66,3.45,1.09
			l-5.05,12.63c-0.52-0.2-1.06-0.38-1.6-0.51L39.84,5.02z M36.52,4.42L34.7,17.89v-0.01c-0.56-0.07-1.12-0.1-1.69-0.1L32.96,4.2
			C34.15,4.21,35.34,4.28,36.52,4.42z M29.59,4.41l1.51,13.49v0.02c-0.74,0.09-1.47,0.24-2.19,0.45L25.1,5.32
			C26.56,4.88,28.07,4.58,29.59,4.41z M21.93,6.44l5.17,12.57h0.02c-0.83,0.37-1.63,0.8-2.4,1.29L17.05,9.04
			C18.6,8.03,20.23,7.16,21.93,6.44z M14.37,11.12l8.83,10.35v0c-0.69,0.6-1.31,1.26-1.88,1.98l-10.77-8.33
			C11.66,13.64,12.94,12.3,14.37,11.12z M8.57,17.87l11.65,7.12v0c-0.51,0.87-0.93,1.79-1.23,2.75L6.04,23.34
			C6.69,21.44,7.54,19.6,8.57,17.87z M5.11,26.59l13.33,2.96c-0.21,0.99-0.31,1.99-0.31,3L4.5,32.6C4.49,30.58,4.7,28.57,5.11,26.59
			z M4.67,35.98l13.58-1.52c0.14,1.16,0.43,2.3,0.85,3.39L6.37,42.76C5.52,40.58,4.95,38.3,4.67,35.98z M7.76,45.84l12.14-6.21
			l0-0.02c0.63,1.17,1.42,2.25,2.36,3.19l-9.81,9.49C10.59,50.37,9.01,48.2,7.76,45.84z M15,54.59l8.69-10.45
			c1.23,1,2.63,1.78,4.12,2.31l-4.55,12.85C20.25,58.22,17.46,56.62,15,54.59z M32.96,61c-2.19,0-4.37-0.25-6.5-0.76l3.24-13.22
			c1.07,0.24,2.16,0.36,3.25,0.36h0c1.11,0,2.22-0.12,3.3-0.37l3.13,13.24C37.29,60.75,35.13,61,32.96,61z M42.67,59.32l-4.51-12.89
			c2.49-0.89,4.67-2.47,6.3-4.54l10.68,8.53C51.85,54.44,47.54,57.51,42.67,59.32z M61.35,34.28c-0.26,4.75-1.73,9.36-4.27,13.38
			l-11.44-7.31c1.07-1.77,1.75-3.74,2-5.79H36.62l-3.09-1.96h27.91L61.35,34.28z"/>
		<path class="st5" d="M31.09,17.92V17.9L29.59,4.41c-1.52,0.17-3.02,0.47-4.49,0.91l3.81,13.04
			C29.62,18.16,30.35,18.01,31.09,17.92z"/>
		<path class="st5" d="M23.69,44.15L15,54.59c2.47,2.03,5.26,3.62,8.26,4.72l4.55-12.85C26.31,45.93,24.92,45.14,23.69,44.15z"/>
		<path class="st5" d="M19.9,39.61l0,0.02L7.76,45.84c1.25,2.36,2.83,4.54,4.69,6.45l9.81-9.49C21.32,41.85,20.52,40.78,19.9,39.61z
			"/>
		<path class="st5" d="M34.7,17.88v0.01l1.82-13.47c-1.18-0.14-2.37-0.22-3.56-0.22l0.06,13.57C33.57,17.78,34.14,17.81,34.7,17.88z
			"/>
		<path class="st5" d="M18.44,29.55L5.11,26.59C4.7,28.57,4.49,30.58,4.5,32.6l13.63-0.06C18.13,31.54,18.24,30.53,18.44,29.55z"/>
		<path class="st5" d="M27.12,19.01H27.1L21.93,6.44c-1.7,0.72-3.33,1.59-4.87,2.6l7.66,11.25C25.48,19.81,26.29,19.38,27.12,19.01z
			"/>
		<path class="st5" d="M18.25,34.46L4.67,35.98c0.28,2.32,0.85,4.6,1.7,6.79l12.73-4.91C18.68,36.76,18.4,35.62,18.25,34.46z"/>
		<path class="st5" d="M43.28,6.12c-1.12-0.43-2.28-0.8-3.45-1.09l-3.2,13.21c0.54,0.14,1.08,0.31,1.6,0.51L43.28,6.12z"/>
		<path class="st5" d="M20.21,24.99L20.21,24.99L8.57,17.87c-1.03,1.74-1.87,3.57-2.53,5.48l12.95,4.39
			C19.29,26.78,19.7,25.85,20.21,24.99z"/>
		<path class="st5" d="M23.19,21.47L23.19,21.47l-8.83-10.35c-1.42,1.18-2.7,2.52-3.82,3.99l10.77,8.33
			C21.88,22.73,22.51,22.07,23.19,21.47z"/>
		<path class="st5" d="M41.43,20.43l7.91-11.05c-0.97-0.69-1.99-1.31-3.04-1.86l-6.33,12.04C40.47,19.83,40.96,20.12,41.43,20.43z"
			/>
		<path class="st5" d="M38.15,46.43l4.51,12.89c4.87-1.81,9.18-4.88,12.47-8.9l-10.68-8.53C42.82,43.96,40.64,45.54,38.15,46.43z"/>
		<path class="st5" d="M32.96,47.38L32.96,47.38c-1.1,0-2.19-0.12-3.26-0.36l-3.24,13.22c2.13,0.5,4.31,0.76,6.5,0.76
			c2.17,0,4.33-0.25,6.44-0.75l-3.13-13.24C35.18,47.26,34.07,47.38,32.96,47.38z"/>
		<path class="st5" d="M47.71,31.06v0.02l13.58-1.2c-0.09-0.87-0.2-1.67-0.36-2.53l-13.38,2.55C47.6,30.29,47.66,30.66,47.71,31.06z
			"/>
		<path class="st5" d="M43.93,22.64l10.24-9c-0.69-0.75-1.43-1.47-2.21-2.14l-8.98,10.13C43.31,21.95,43.63,22.28,43.93,22.64z"/>
		<path class="st5" d="M47.07,28.11h0.02l13.06-3.92c-0.23-0.83-0.51-1.65-0.84-2.44L46.67,27C46.81,27.36,46.95,27.73,47.07,28.11z
			"/>
		<path class="st5" d="M45.88,25.27l12-6.45c-0.51-0.89-1.06-1.76-1.66-2.6l-11.11,7.91C45.38,24.49,45.64,24.88,45.88,25.27z"/>
		<polygon class="st5" points="45.88,25.28 45.88,25.27 45.87,25.28 		"/>
		<path class="st5" d="M36.62,34.56h11.02c-0.25,2.05-0.94,4.02-2,5.79l11.44,7.31c2.54-4.03,4.01-8.63,4.27-13.38l0.09-1.67H33.53
			L36.62,34.56z"/>
	</g>
</g>
<g id="Layer_5" class="st0">
	<path class="st3" d="M235.38,35.71V21.43h-3.99v-4.7h4.16V7.84h5.72v8.87h7.46v4.7h-7.46V35c0,1.21,0.17,2.26,0.52,3.13
		c0.35,0.88,0.69,1.57,1.21,2.09c0.52,0.52,1.04,0.88,1.57,1.21c0.69,0.35,1.21,0.52,1.73,0.52c0.52,0,1.04,0.17,1.57,0.17
		l1.38-0.17v5.22c-0.52,0-1.21,0.17-2.09,0.17c-1.04,0-1.9,0-2.78-0.17c-0.86-0.17-1.9-0.35-2.95-0.88
		c-1.21-0.52-2.09-1.04-2.95-1.92s-1.57-1.92-2.09-3.3c-0.69-1.73-1.04-3.32-1.04-5.41L235.38,35.71z M210.92,47.04V16.19h5.72v5.41
		l-0.17,2.27h0.17c0.69-2.27,1.9-4.36,3.63-5.74c1.73-1.57,3.64-2.27,6.08-2.27l1.57,0.17v5.74c-0.52-0.17-1.04-0.17-1.73-0.17
		c-1.9,0-3.64,0.69-5.2,1.92c-1.57,1.21-2.78,3.13-3.47,5.22c-0.52,1.57-0.69,3.49-0.69,5.57v12.55l-5.89,0.17L210.92,47.04z
		 M178.13,31.72c0-4.88,1.38-8.71,4.34-11.67c2.95-2.96,6.6-4.36,10.92-4.36c4.32,0,7.46,1.4,9.71,4.01
		c2.26,2.78,3.47,6.1,3.47,10.27l-0.17,2.61h-22.37c0.17,3.32,1.21,5.74,3.3,7.49c2.09,1.73,4.51,2.61,7.29,2.61
		c1.57,0,3.13-0.35,4.68-0.88c1.57-0.52,2.61-1.21,3.3-1.73l1.04-0.88l2.42,4.36c-0.35,0.35-0.86,0.69-1.38,1.21
		c-0.69,0.52-2.09,1.21-3.99,1.92c-2.09,0.88-4.16,1.21-6.41,1.21c-4.68,0-8.67-1.57-11.63-4.53c-2.95-3.3-4.51-7.14-4.51-11.67
		L178.13,31.72z M184.38,28.07h16.31c0-2.61-0.86-4.53-2.26-5.74c-1.38-1.4-3.11-2.09-5.2-2.09c-2.26,0-4.34,0.69-5.89,2.09
		c-1.57,1.4-2.42,3.32-2.95,5.74H184.38z M148.81,31.72c0-4.53,1.57-8.37,4.68-11.5c3.13-3.13,6.93-4.7,11.8-4.7
		c2.26,0,4.34,0.35,6.24,1.04c1.9,0.69,3.3,1.57,4.16,2.27l1.21,1.04l-2.78,4.18c-0.17-0.17-0.52-0.52-1.04-1.04
		c-0.52-0.35-1.38-0.88-2.95-1.57c-1.4-0.69-2.95-1.04-4.51-1.04c-3.13,0-5.56,1.04-7.62,3.13c-2.09,2.09-2.95,4.7-2.95,7.85
		s1.04,5.74,3.13,7.85c2.09,2.09,4.68,3.13,7.81,3.13c1.73,0,3.3-0.35,4.87-1.04c1.57-0.69,2.78-1.4,3.47-2.09l1.04-1.04l2.42,4.36
		l-0.52,0.52c-0.17,0.17-0.69,0.69-1.57,1.23c-0.69,0.52-1.57,1.04-2.42,1.57c-0.88,0.35-2.09,0.88-3.47,1.23
		c-1.4,0.35-2.78,0.52-4.34,0.52c-4.87,0-8.67-1.57-11.8-4.53c-3.3-2.96-4.87-6.79-4.87-11.32V31.72z M138.58,10.11V4h5.89v6.1
		h-5.89V10.11z M138.75,47.04V16.19h5.89v30.83h-5.89V47.04z M109.78,52.62c2.61,1.4,5.37,2.09,8.33,2.09s5.2-0.69,6.93-2.09
		s2.59-3.65,2.59-6.62v-4.18h-0.17c-1.9,3.13-4.87,4.88-9.02,4.88s-7.46-1.57-9.88-4.53c-2.42-2.96-3.64-6.8-3.64-11.32
		s1.21-8.18,3.64-11.15c2.42-2.78,5.72-4.36,9.88-4.36c1.38,0,2.61,0.17,3.82,0.52s2.09,0.69,2.78,1.21
		c0.69,0.52,1.21,0.88,1.73,1.4c0.52,0.52,0.86,0.88,1.04,1.21l0.35,0.35h0.17v-3.84h5.56v29.43c0,2.44-0.52,4.53-1.21,6.45
		c-0.86,1.92-2.09,3.32-3.47,4.36c-1.73,1.21-3.47,2.09-5.2,2.61s-3.64,0.88-5.72,0.88c-3.64,0-7.1-0.88-10.4-2.61l1.9-4.7
		L109.78,52.62z M119.84,41.47c2.42,0,4.34-0.88,5.89-2.44c1.57-1.73,2.26-4.36,2.26-8.02c0-6.97-2.95-10.27-8.67-10.27
		c-2.61,0-4.68,0.88-6.08,2.78c-1.38,1.75-2.26,4.36-2.26,7.49c0,3.32,0.88,5.93,2.42,7.85c1.57,1.73,3.82,2.61,6.41,2.61H119.84z
		 M94.88,10.1V4h5.91v6.1H94.88z M95.05,47.02V16.19h5.89v30.83H95.05z M60.88,31.7c0-4.88,1.21-8.71,3.82-11.67
		c2.61-2.96,5.89-4.36,10.07-4.36c1.38,0,2.61,0.17,3.64,0.52c1.21,0.35,2.09,0.69,2.78,1.21c0.69,0.52,1.21,1.04,1.73,1.4
		c0.52,0.52,0.88,0.88,1.04,1.21l0.17,0.52h0.17c0-0.52-0.17-1.21-0.17-2.09V4.17h5.89v42.86h-5.56v-5.05h-0.17
		c0,0.17-0.17,0.35-0.35,0.52c-0.17,0.17-0.52,0.69-1.04,1.4c-0.52,0.71-1.21,1.21-1.9,1.73s-1.73,1.04-2.95,1.4
		s-2.61,0.52-3.99,0.52c-4.16,0-7.46-1.4-9.88-4.36c-2.09-2.8-3.3-6.8-3.3-11.5V31.7z M66.77,31.7c0,3.32,0.88,5.93,2.42,8.02
		c1.57,2.09,3.64,2.96,6.24,2.96c2.42,0,4.68-0.88,6.24-2.8c1.73-1.92,2.61-4.53,2.61-8.37c0-2.96-0.69-5.57-2.26-7.66
		c-1.57-2.09-3.64-3.3-6.41-3.3c-2.42,0-4.68,1.04-6.24,2.96c-1.73,2.09-2.61,4.7-2.59,8.18H66.77z M55.87,36.34
		c-0.86-10.05-7.77-16.81-13.12-24.08C44.98,8.96,50,10,53.61,10.69c-4.66-3.3-10.18-5.2-16.05-5.72
		C26.34,4.8,17.37,11.38,9.08,18.65c-5-1.57-1.55-6.93-1.55-10.74C3.24,13.82,1.85,20.4,2.01,27.17c0.17,6.08,2.76,11.95,6.21,17.32
		l7.25,8.31c-2.42,3.99-7.25,2.26-10.87,1.57c5.87,4.32,12.43,5.72,19.16,5.54c6.04-0.17,11.91-2.78,17.09-6.24l8.28-7.27
		c2.42,2.78,2.93,7.46,1.55,10.92C54.82,51.42,56.39,44.15,55.87,36.34z M47.93,36.68c-2.07,2.61-4.66,5.72-4.66,5.72
		c-2.59,2.95-4.83,4.32-5.87,5.2c-3.45,2.59-7.77,4.16-12.08,4.32h-1.04l-0.17-0.17l-4.83-4.85c-1.55-1.9-2.93-2.78-5-5.72
		c-2.59-3.64-4.14-7.79-4.32-12.14v-1.57l4.83-4.32c5.7-5.03,11.91-9.53,19.68-9.53h0.34l3.8,5.03c3.62,5.01,8.46,9.88,9.15,16.81
		c0,0,0.17,1.04,0.17,1.21V36.68z M254.1,13.08V6.68h2.01c0.5,0,1.01,0,1.17,0.17c0.34,0.17,0.67,0.34,0.84,0.67
		s0.34,0.67,0.34,1.17c0,0.34-0.17,0.84-0.34,1.01c-0.17,0.34-0.5,0.5-0.84,0.67c0,0,0.17,0.17,0.17,0.34l1.34,2.52h-1.01
		l-1.34-2.52h-1.34v2.52h-1.01v-0.17V13.08z M255.1,9.72h1.34c0.34,0,0.67-0.17,0.84-0.34c0.17-0.17,0.34-0.5,0.34-0.84
		c0-0.5-0.17-0.84-0.5-1.01c-0.17-0.17-0.5-0.17-0.84-0.17h-1.01L255.1,9.72z M256.11,4c-3.19,0-5.89,2.52-5.89,5.89
		s2.52,5.89,5.89,5.89c3.37,0,5.89-2.68,5.89-5.89S259.32,4,256.11,4 M256.11,14.59c-2.52,0-4.72-2.01-4.72-4.72
		c0-2.52,2.01-4.72,4.72-4.72c2.52,0,4.72,2.01,4.72,4.72C260.83,12.39,258.81,14.59,256.11,14.59z"/>
</g>
<g id="Layer_6" class="st0">
	<path class="st3" d="M100.08,28.19c-0.69-2.74-1.69-8.16-7.43-8.16c-2.99,0-5.27,2.03-5.27,5.38c0,8.26,16.83,7.72,16.83,19.22
		c0,7.62-6.64,10.42-12.95,10.42c-4.58,0-7.57-1.22-9.26-2.14c-1.26-3.38-1.53-5.79-1.53-10.09l2.48-0.54
		c0.73,3.22,2.46,10.73,9.2,10.73c3.32,0,5.52-2.37,5.52-5.96c0-9.07-16.3-8.36-16.3-19.37c0-6.81,4.95-9.65,11.72-9.65
		c3.95,0,6.31,0.85,8.26,1.99c0.43,2.64,0.57,5.48,0.57,8.22h-1.85V28.19z"/>
	<path class="st3" d="M125.46,52.28c-1.59,0.98-4.05,2.74-8,2.74c-8.16,0-8.53-4.84-8.53-10.79v-7.78c0-1.87,0-4.3-1.59-4.3
		c-0.79,0-1.47,0.27-1.69,0.31V30.9c3.95-1.35,6.84-1.76,9.59-1.93v15.07c0,4.23,0.79,7.83,5.94,7.83c1.99,0,3.22-0.98,3.95-1.35
		V36.41c0-1.87,0-4.3-1.59-4.3c-0.79,0-1.47,0.27-1.69,0.31v-1.56c3.95-1.35,6.84-1.76,9.59-1.93v16.04c0,4.4,0,6.5,1.79,6.5
		c0.31,0,0.96,0.06,1.47-0.06l0.1,1.39c-2.42,0.85-5.31,1.62-7.94,2.14L125.46,52.28z"/>
	<path class="st3" d="M139.88,36.45c0-1.87,0-4.3-1.59-4.3c-0.79,0-1.47,0.27-1.69,0.31V30.9c3.95-1.35,6.74-1.76,9.47-1.93v3.11
		c1.32-1.18,3.85-3.11,8.31-3.11c4.74,0,7.94,2.3,7.94,9.55v10.57c0,2.84,0.26,3.42,2.16,3.59l1.1,0.1v1.39h-12.84v-1.39l1.1-0.1
		c1.89-0.17,2.16-0.75,2.16-3.59v-7.62c0-4.23,0-9.38-5.48-9.38c-2.16,0-3.52,1.12-4.38,2.03v14.97c0,2.84,0.26,3.42,2.16,3.59
		l1.1,0.1v1.39h-12.74v-1.39l1.1-0.1c1.79-0.17,2.06-0.75,2.06-3.59V36.45H139.88z"/>
	<path class="st3" d="M175.17,52.82l1.26-0.17c2.48-0.48,2.48-0.27,2.48-6.39v-19.7c0-5.21,0-5.85-2.48-6.23l-1.26-0.17V18.8h14.31
		v1.39l-1.26,0.17c-2.46,0.37-2.46,1.02-2.46,6.23v24.85c1.59,0.37,3.22,0.75,4.84,0.75c7.43,0,7.47-3.65,9-8.1l1.89,0.37
		c-0.32,3.49-0.69,6.33-1.83,9.76h-24.49V52.82z"/>
	<path class="st3" d="M202.71,52.82l1.1-0.1c1.89-0.21,2.16-0.75,2.16-3.59V36.47c0-1.87,0-4.3-1.59-4.3
		c-0.79,0-1.46,0.27-1.69,0.31v-1.56c3.95-1.35,6.84-1.76,9.59-1.93v20.11c0,2.84,0.26,3.38,2.16,3.59l1.1,0.1v1.39h-12.84v-1.37
		H202.71z M205.08,20.73c0-2.03,1.59-3.69,3.69-3.69c1.99,0,3.68,1.66,3.68,3.69c0,2.26-1.69,3.82-3.68,3.82
		C206.66,24.53,205.08,22.93,205.08,20.73z"/>
	<path class="st3" d="M220.87,29.8c0-7.45,3.62-15.03,11.89-15.03c2.79,0,4.58,0.85,5.74,1.76c-0.37,1.66-0.79,2.68-2.1,4.03h-0.37
		c-1-0.98-3.42-3.11-5.47-3.11c-3.16,0-3.36,4.34-3.36,9.28v3.05c1.59,0.06,4.78,0.27,6.53,0.48v1.39
		c-2.26,0.27-4.31,0.44-6.53,0.54v16.9c0,2.84,0.26,3.42,2.22,3.59l2.1,0.1v1.39h-13.88v-1.39l1.06-0.1
		c1.95-0.21,2.22-0.75,2.22-3.59v-16.9V29.8H220.87z"/>
	<path class="st3" d="M256.84,51.58c-1.36,1.12-4.68,3.42-9.99,3.42c-6.21,0-12.31-4.03-12.31-12.66c0-8.53,6.05-13.37,12.05-13.37
		c8.47,0,9.83,5.63,10.42,8.74c-4.52,2.14-10.36,3.86-15.84,5.15c0.57,3.22,2.16,9.01,9.36,9.01c2.85,0,5.05-1.18,5.78-1.56
		L256.84,51.58z M250.67,38.07c-0.37-3.86-1.95-7.04-5.27-7.04c-4.58,0-4.58,8.37-4.58,9.34C244.16,39.83,247.47,39.12,250.67,38.07
		z"/>
	<path class="st3" d="M38.93,5.73c-0.1-0.91-0.14-1.87-0.06-2.8c0.04-0.44,0.12-0.89,0.22-1.33c0.02-0.1,0.06-0.29,0.1-0.5
		c0.04-0.19-0.14-0.31-0.28-0.21c-1.24,1.04-2.34,2.43-3.16,3.84c-0.67,1.16-1.16,2.49-1.28,3.86c1.67,0.21,3.3,0.56,4.91,1.08
		C39.44,8.34,39.08,7.04,38.93,5.73z"/>
	<path class="st3" d="M27.17,8.74c1.49-0.25,2.99-0.35,4.48-0.33c-0.04-0.21-0.08-0.42-0.12-0.6c-0.16-0.64-0.55-1.25-0.81-1.85
		c-0.31-0.66-0.57-1.37-0.77-2.08c-0.16-0.54-0.29-1.08-0.35-1.64c-0.04-0.31-0.04-0.62-0.04-0.93c0-0.06,0-0.17,0-0.29
		c0-0.17-0.18-0.25-0.29-0.12c-0.77,1.04-1.3,2.28-1.71,3.55c-0.29,0.89-0.51,1.81-0.53,2.74c-0.02,0.42,0,0.83,0.08,1.22
		C27.11,8.51,27.13,8.63,27.17,8.74z"/>
	<path class="st3" d="M20.02,10.67c0.04,0.08,0.08,0.17,0.14,0.25c0.14-0.06,0.28-0.15,0.43-0.21c1.08-0.5,2.2-0.89,3.3-1.22
		c-0.06-0.15-0.14-0.29-0.22-0.42c-0.29-0.52-0.75-0.93-1.12-1.39c-0.43-0.5-0.81-1.02-1.16-1.58c-0.24-0.42-0.49-0.87-0.67-1.33
		c-0.1-0.25-0.18-0.52-0.24-0.79c-0.02-0.04-0.06-0.15-0.08-0.25c-0.04-0.15-0.22-0.17-0.26-0.02c-0.43,1.06-0.59,2.26-0.63,3.45
		c-0.02,0.81,0,1.66,0.18,2.45C19.76,9.98,19.86,10.34,20.02,10.67z"/>
	<path class="st3" d="M47.89,14.3c1.55,1.27,2.97,2.7,4.23,4.32c0.94-1.27,1.45-2.8,2.16-4.19c0.51-0.98,1.1-1.95,1.81-2.8
		c0.35-0.42,0.69-0.81,1.1-1.16c0.08-0.08,0.26-0.25,0.45-0.42C57.8,9.9,57.7,9.63,57.5,9.65c-1.91,0.17-3.93,0.79-5.68,1.62
		C50.31,12,48.93,13.01,47.89,14.3z"/>
	<path class="st3" d="M55.66,24.59c0.14,0.31,0.26,0.64,0.39,0.95c1.4-1.08,2.36-2.59,3.52-3.86c0.81-0.89,1.67-1.72,2.65-2.43
		c0.47-0.33,0.96-0.64,1.47-0.91c0.12-0.06,0.35-0.19,0.57-0.31c0.2-0.1,0.18-0.42-0.04-0.46c-2.06-0.35-4.34-0.29-6.39,0.1
		c-1.73,0.31-3.44,0.98-4.89,2.03C53.97,21.21,54.91,22.85,55.66,24.59z"/>
	<path class="st3" d="M47.26,8.9c0.2-1,0.47-1.99,0.85-2.95c0.18-0.46,0.41-0.89,0.67-1.31c0.06-0.1,0.16-0.29,0.29-0.48
		c0.1-0.17-0.04-0.37-0.22-0.31c-1.63,0.66-3.26,1.74-4.58,2.95c-1.12,1.02-2.1,2.28-2.67,3.72c1.69,0.73,3.32,1.62,4.82,2.68
		C46.94,11.83,46.98,10.32,47.26,8.9z"/>
	<path class="st3" d="M62.3,35.43c-1.38-0.56-2.91-0.89-4.4-0.79c0.06,1.89-0.08,3.78-0.39,5.62c1.49-0.12,2.87-0.77,4.27-1.16
		c0.96-0.27,1.95-0.48,2.97-0.52c0.49-0.02,0.96-0.02,1.45,0.02c0.1,0.02,0.33,0.02,0.55,0.04c0.2,0.02,0.31-0.21,0.16-0.33
		C65.6,37.11,63.95,36.12,62.3,35.43z"/>
	<path class="st3" d="M67.08,27.87c-1.73-0.85-3.77-1.39-5.68-1.6c-1.63-0.17-3.34-0.04-4.91,0.54c0.65,1.97,1.08,3.99,1.28,6
		c1.53-0.58,2.79-1.68,4.15-2.53c0.94-0.58,1.91-1.08,2.97-1.45c0.49-0.17,1-0.31,1.53-0.42c0.12-0.02,0.35-0.08,0.59-0.12
		C67.23,28.23,67.29,27.96,67.08,27.87z"/>
	<path class="st3" d="M48.83,55.96c-1,0.89-2.06,1.7-3.2,2.45c0.75,0.77,1.73,1.25,2.59,1.85c0.59,0.44,1.16,0.91,1.67,1.45
		c0.24,0.27,0.47,0.54,0.65,0.83c0.04,0.06,0.14,0.19,0.22,0.33c0.08,0.12,0.26,0.08,0.26-0.06c0.04-1.31-0.16-2.72-0.57-3.96
		C50.13,57.78,49.6,56.77,48.83,55.96z"/>
	<path class="st3" d="M53.9,49.88c-0.79,1.31-1.71,2.53-2.71,3.69c1.08,0.58,2.28,0.75,3.42,1.14c0.77,0.25,1.55,0.56,2.26,1
		c0.35,0.21,0.67,0.42,0.98,0.66c0.06,0.06,0.2,0.17,0.37,0.27c0.12,0.1,0.31,0,0.26-0.17c-0.37-1.41-1.08-2.86-1.91-4.07
		C55.85,51.41,54.96,50.5,53.9,49.88z"/>
	<path class="st3" d="M60.63,44.42c-1.06-0.85-2.3-1.56-3.62-1.87c-0.43,1.66-1.02,3.26-1.75,4.79c1.32,0.29,2.67,0.08,3.97,0.12
		c0.92,0.02,1.83,0.12,2.73,0.35c0.43,0.1,0.85,0.25,1.26,0.42c0.1,0.04,0.29,0.1,0.47,0.19c0.16,0.06,0.33-0.1,0.24-0.25
		C63.08,46.76,61.87,45.46,60.63,44.42z"/>
	<path class="st3" d="M26.19,57.5c-4.3,0.54-8.26,0.12-11.44-1.18c1.4,1.16,2.91,2.18,4.52,3.03c3.85,2.03,8.22,3.13,12.84,3.01
		c1.97-0.06,3.89-0.33,5.72-0.79c-3.09-0.35-6.07-1.22-8.81-2.51C28.06,58.57,27.1,58.06,26.19,57.5z"/>
	<path class="st3" d="M49.35,46.39c0,0,0.12-0.19,0-0.33c-0.12-0.12-0.31,0.02-0.31,0.02c-2.56,2.57-5.68,4.94-9.26,6.89
		c-0.67,0.37-1.36,0.73-2.06,1.04c-2.99,1.43-6,2.45-8.92,3.05c0.85,0.5,1.75,0.95,2.67,1.37c2.71,1.22,5.62,2.03,8.65,2.43
		c1.2-0.44,2.36-0.93,3.48-1.54c-1.63-1.25-3.15-2.59-4.6-4.01C43.45,52.87,47.01,49.71,49.35,46.39z"/>
	<path class="st3" d="M7.91,41.35c0.2,0.1,0.41,0.23,0.63,0.33c0.79,0.37,1.69,0.66,2.67,0.87c0.81,0.19,1.69,0.29,2.63,0.35
		c-0.39-0.91-0.71-1.85-1.02-2.8c-0.45-1.47-0.81-2.99-1.04-4.55c-0.08-0.52-0.14-1.04-0.2-1.56c-0.04-0.44-0.08-0.87-0.1-1.33
		c-0.02-0.23-0.02-0.46-0.02-0.71c-0.04-0.89-0.04-1.78,0-2.66c-1.04-0.15-1.93-0.42-2.67-0.81c-0.1-0.04-0.18-0.1-0.26-0.17
		c-0.47-0.29-0.88-0.62-1.18-1.02c-0.16-0.21-0.31-0.44-0.43-0.69c-0.1-0.23-0.18-0.46-0.24-0.71c-0.39,1.06-0.71,2.16-0.98,3.28
		c-0.1,0.44-0.2,0.89-0.26,1.35c-0.16,0.91-0.28,1.83-0.35,2.76c-0.02,0.23-0.02,0.46-0.04,0.66C5,34.66,5,35.35,5,36.05
		c0.02,0.89,0.08,1.78,0.2,2.66C5.81,39.83,6.75,40.68,7.91,41.35z"/>
	<path class="st3" d="M15.63,29.33c-0.69,0.06-1.34,0.1-1.97,0.1c0,0.62,0.02,1.25,0.04,1.89v0.02c0.02,0.21,0.04,0.42,0.04,0.62
		c0.02,0.35,0.04,0.71,0.08,1.06c0.16,1.68,0.45,3.3,0.83,4.86c0.43,1.74,1,3.42,1.67,5.02c3.5-0.15,7.51-1.02,11.64-2.62
		c-1.65-3.05-3.03-6.1-4.21-9.05c-0.2-0.52-0.41-1.06-0.61-1.58c0.77-0.31,1.53-0.64,2.3-1.02c4.82-2.35,8.67-5.4,10.87-8.39
		c0.14-0.21,0.26-0.39,0.41-0.6c0,0,0.14-0.21-0.02-0.37c-0.14-0.15-0.35,0-0.35,0c-0.43,0.42-0.86,0.83-1.34,1.25
		c-2.22,1.93-5.05,3.78-8.28,5.33c-1.47,0.71-2.93,1.29-4.36,1.79c-1.42,0.5-2.81,0.89-4.13,1.18
		C17.38,29.08,16.48,29.22,15.63,29.33z"/>
	<path class="st3" d="M8.67,25.63c0.39,0.37,0.88,0.69,1.47,0.91c0.16,0.06,0.35,0.12,0.51,0.19c0.31,0.1,0.65,0.19,1,0.25
		c0.04-0.42,0.1-0.83,0.16-1.22c0.06-0.33,0.1-0.64,0.16-0.98c0.2-1.08,0.47-2.14,0.77-3.18c0.65-2.22,1.51-4.34,2.59-6.35
		c0.28-0.58,0.59-1.14,0.92-1.66c0.1-0.15,0.18-0.29,0.28-0.46c-0.79,0.54-1.55,1.14-2.26,1.76c-1.1,0.95-2.12,2.01-3.05,3.13
		c-1.4,1.7-2.61,3.57-3.56,5.6c0.04,0.33,0.12,0.66,0.26,0.98C8.08,24.99,8.34,25.32,8.67,25.63z"/>
	<path class="st3" d="M14.28,22.81c-0.08,0.39-0.14,0.81-0.2,1.2c-0.16,1.04-0.28,2.08-0.35,3.13c1.51,0.02,3.22-0.17,5.07-0.58
		c0.96-0.21,1.95-0.5,2.97-0.81c-0.12-0.35-0.22-0.71-0.35-1.04c-0.49-1.49-0.9-2.91-1.26-4.23c-0.12-0.46-0.24-0.91-0.37-1.35
		c-0.2-0.75-0.37-1.45-0.53-2.12c-0.33-1.33-0.59-2.49-0.77-3.47c-0.08-0.42-0.16-0.81-0.22-1.14c-0.02-0.08-0.04-0.17-0.04-0.25
		c-0.08,0.12-0.16,0.27-0.24,0.39c-0.31,0.54-0.57,1.1-0.85,1.66c-0.85,1.79-1.57,3.63-2.12,5.56
		C14.73,20.78,14.49,21.79,14.28,22.81z"/>
	<path class="st3" d="M23.62,55.71c-2.83-2.18-5.29-4.88-7.23-7.93c-0.49-0.77-0.96-1.58-1.38-2.39c-1.79-0.02-3.42-0.23-4.84-0.64
		c-0.77-0.23-1.49-0.52-2.14-0.85c-0.2-0.1-0.39-0.23-0.57-0.33c-0.61-0.39-1.16-0.85-1.61-1.37c0.33,1.29,0.75,2.55,1.26,3.76
		c0.08,0.19,0.16,0.39,0.24,0.58c0.28,0.66,0.61,1.31,0.96,1.93c0.31,0.56,0.63,1.1,0.96,1.64c0.59,0.91,1.22,1.79,1.91,2.62
		C14.02,55.07,18.47,56.08,23.62,55.71z"/>
	<path class="st3" d="M32.89,40.66c-1.24,0.62-2.5,1.18-3.75,1.68c-4.11,1.66-8.1,2.64-11.64,2.95c0.43,0.79,0.88,1.54,1.34,2.28
		c2.02,3.09,4.52,5.73,7.41,7.83c3.2-0.5,6.62-1.49,10.04-2.99c-2.26-2.57-4.23-5.33-6-8.16c0.69-0.31,1.38-0.64,2.08-1
		c6.33-3.22,11.2-7.51,13.86-11.77c0,0,0.14-0.21-0.02-0.35c-0.16-0.17-0.35,0-0.35,0C42.68,34.64,38.2,38,32.89,40.66z"/>
</g>
<g id="Layer_7" class="st0">
	<path class="st3" d="M49.44,51.4c-1.59,0-2.88,1.29-2.88,2.87c0,1.59,1.29,2.88,2.88,2.88c1.59-0.01,2.87-1.29,2.87-2.87
		C52.32,52.7,51.03,51.41,49.44,51.4z M49.45,56.71c-1.41,0-2.43-1.01-2.43-2.43c0-1.41,1.02-2.41,2.43-2.41c0.05,0,0.11,0,0.17,0
		c1.28,0.04,2.29,1.13,2.24,2.41C51.86,55.7,50.85,56.71,49.45,56.71z"/>
	<path class="st3" d="M50.93,53.53c0-0.59-0.29-0.91-1.15-0.91h-1.41v3.3h0.42v-1.46h0.7l0.93,1.46h0.47l-0.98-1.46
		C50.49,54.4,50.93,54.16,50.93,53.53z M49.37,54.06l-0.58,0V53h0.9c0.4,0,0.78,0.06,0.78,0.52C50.47,54.14,49.83,54.06,49.37,54.06
		z"/>
	<path class="st3" d="M99.79,51.4c-1.59,0-2.88,1.29-2.88,2.87c0,1.59,1.29,2.88,2.88,2.88c1.59,0,2.87-1.29,2.87-2.87
		C102.67,52.7,101.38,51.41,99.79,51.4z M99.79,56.7c-1.41,0-2.42-1.01-2.42-2.43c0-0.06,0-0.11,0-0.17
		c0.05-1.29,1.14-2.29,2.42-2.24c0.06,0,0.11,0,0.17,0c1.29,0.04,2.29,1.13,2.24,2.41c0,0.06,0,0.11,0,0.17
		C102.17,55.74,101.08,56.75,99.79,56.7z"/>
	<path class="st3" d="M101.28,53.53c0-0.59-0.29-0.91-1.15-0.91h-1.41v3.3h0.42v-1.46h0.71l0.93,1.46h0.47l-0.98-1.46
		C100.84,54.4,101.28,54.16,101.28,53.53z M99.72,54.06l-0.59,0V53h0.9c0.4,0,0.78,0.06,0.78,0.52
		C100.82,54.14,100.18,54.06,99.72,54.06z"/>
	<path class="st3" d="M40.35,19.56V5.18h-22.9v14.38H3.08v22.99h14.37v14.38h22.9V42.55h14.37V19.56H40.35z M28.94,16.89
		c5.51,0,10.53,3.19,12.86,8.19H31.7c-1.44-0.03-2.07-0.87-2.1-1.56c-0.03-0.81,0.09-1.07,0.76-1.94c0.73-0.97,0.23-2.85-1.42-2.88
		c-1.65,0.03-2.16,1.91-1.42,2.88c0.67,0.87,0.8,1.13,0.76,1.94c-0.03,0.69-0.66,1.53-2.1,1.56h-10.1
		C18.42,20.09,23.43,16.89,28.94,16.89z M14.75,31.1c0-1.76,0.32-3.45,0.91-5.01v0l9.53,0.92c1.79,0.25,2,1.98,1.52,3.02L20.18,42.3
		l0.01-0.02C16.75,39.58,14.74,35.46,14.75,31.1z M36.75,42.98L36.75,42.98c-2.25,1.47-4.92,2.33-7.8,2.33
		c-2.88,0-5.56-0.86-7.8-2.34l-0.01,0v-0.01c0,0,0.01,0,0.01,0l6.92-10.34c0.51-0.72,1.28-0.67,1.77,0L36.75,42.98
		C36.74,42.97,36.75,42.97,36.75,42.98L36.75,42.98z M37.7,42.28l0.01,0.02l-6.52-12.26c-0.48-1.04-0.27-2.78,1.52-3.02l9.53-0.92v0
		l0,0c0.59,1.55,0.9,3.24,0.9,5C43.14,35.46,41.13,39.58,37.7,42.28z"/>
	<path class="st3" d="M25.55,19.34c-2.29,0.67-4.34,1.99-5.89,3.8h6.39c0.11-0.03,0.18-0.17,0.05-0.3
		C25.41,22.11,24.82,20.55,25.55,19.34z"/>
	<path class="st3" d="M24.28,28.85l-7.21-0.67c-0.23,0.93-0.35,1.91-0.35,2.9c0,2.92,1.04,5.75,2.95,7.97l5.05-9.65
		C24.84,29.12,24.8,28.89,24.28,28.85z"/>
	<path class="st3" d="M40.81,28.19l-7.21,0.67c-0.52,0.04-0.56,0.26-0.44,0.56l5.05,9.65c1.84-2.14,2.95-4.93,2.95-7.97
		C41.16,30.09,41.04,29.12,40.81,28.19z"/>
	<path class="st3" d="M31.84,23.15h6.39c-1.55-1.82-3.6-3.14-5.89-3.8c0.72,1.2,0.13,2.77-0.55,3.5
		C31.66,22.98,31.73,23.11,31.84,23.15z"/>
	<path class="st3" d="M21.13,42.98L21.13,42.98c0.01-0.01,0-0.01,0-0.01V42.98z"/>
	<path class="st3" d="M36.74,42.98v-0.01C36.74,42.97,36.74,42.97,36.74,42.98L36.74,42.98z"/>
	<path class="st3" d="M28.95,34.85c-0.07,0-0.14,0.03-0.2,0.11l-4.78,7.31c1.57,0.7,3.26,1.06,4.98,1.06c1.71,0,3.41-0.36,4.98-1.06
		l-4.77-7.31C29.09,34.89,29.02,34.85,28.95,34.85z"/>
	<path class="st3" d="M101.27,4.51c-5.67,2.86-11.32,4.4-17.95,4.42c-6.63,0.02-12.28-1.59-17.95-4.45
		c-3.73,7.33-4.31,19.25-1.09,29.2c3.1,9.59,9.12,18.33,19.04,23.82c9.93-5.49,15.94-14.23,19.04-23.82
		C105.58,23.73,104.99,11.85,101.27,4.51z M98.62,32.54c-2.78,8.19-7.13,15.44-15.3,20.5c0,0,0,0,0.01,0h-0.02c0,0,0,0,0.01,0
		c-8.16-5.06-12.51-12.31-15.29-20.5c-2.48-7.27-3.08-15.78-0.36-22.42c4.08,1.41,6.47,1.84,8.7,2.18c2.3,0.36,4.62,0.55,6.95,0.56
		h0.02c3.03-0.04,4.88-0.24,6.95-0.56c2.22-0.35,4.61-0.78,8.69-2.18C101.7,16.76,101.09,25.26,98.62,32.54z"/>
	<path class="st3" d="M83.31,53.05h0.02c-0.01,0-0.01-0.01-0.01-0.01C83.32,53.05,83.32,53.05,83.31,53.05z"/>
	<path class="st3" d="M90.41,14.2c-2.39,0.32-4.75,0.55-7.08,0.57h-0.02c-2.37-0.04-4.73-0.23-7.07-0.57
		c-2.39-0.32-4.7-0.87-7.17-1.53c-1.73,4.91-1.36,11.1-0.03,16.61c2.5,10.38,8.76,18.27,14.28,21.75
		c5.52-3.48,11.78-11.37,14.28-21.75c1.33-5.51,1.7-11.7-0.03-16.61C95.1,13.33,92.79,13.88,90.41,14.2z M81.94,46.19
		c-0.07,0.53,0.15,0.76,0.09,1.01c-0.09,0.42-0.35,0.29-0.51-0.01c-0.21-0.42-0.35-0.62-0.42-1.25c-0.09-1,0.4-1.48,0.63-1.71
		c0.14-0.14,0.3-0.27,0.48-0.37l0.08,1.67C82.3,45.54,82.02,45.65,81.94,46.19z M84.33,42.98c-0.03,1.48-0.12,4.25-0.13,4.89
		c0,0.28-0.11,0.5-0.64,0.51c-0.45,0.01-0.63-0.15-0.65-0.61c-0.07-2.04-0.16-5.86-0.16-5.86s0.57,0.18,0.84,0.33
		c0.24,0.14,0.45,0.31,0.64,0.51C84.3,42.84,84.34,42.85,84.33,42.98z M85.87,44.03c-0.47,0.38-1.02,0.52-1.02,0.52l0.06-1.51
		c0,0,0.17-0.14,0.12-0.34c-0.08-0.31-1.16-1.03-1.73-1.25c-0.6-0.23-1.37-0.46-1.93-0.7c-1.3-0.57-1.78-1.71-1.25-2.96
		c0.2-0.46,0.72-0.77,1-0.94c0.31-0.18,0.77-0.32,0.77-0.32l0.13,1.77c0,0-0.17,0.06-0.22,0.22c-0.09,0.31,0.19,0.49,0.26,0.52
		c0.86,0.38,2.1,0.87,3,1.41c1.18,0.69,1.55,1.19,1.56,2.01C86.64,43.07,86.36,43.65,85.87,44.03z M82.56,35.62
		c0.85,0.1,1.17,0.12,1.9,0.21l-0.07,3.55l-1.64-0.84L82.56,35.62z M87.74,36.38c-0.15,0.64-0.56,1.15-1.22,1.54
		c-0.7,0.42-1.42,0.45-1.42,0.45l0.06-2.15c0,0,0.16-0.03,0.27-0.18c0.1-0.13,0.14-0.22,0.1-0.41c-0.04-0.16-0.15-0.3-0.31-0.37
		c-0.54-0.12-1.73-0.26-3.74-0.55c-1.87-0.31-3.19-1.39-3.09-3.18c0.08-1.2,1.33-1.57,2.22-1.95c0.25,0.44,0.47,0.89,0.66,1.35
		c0.17,0.49,0.26,0.8,0.26,0.8s-0.4,0.07-0.37,0.4c0.03,0.29,0.35,0.42,0.55,0.44c1.31,0.18,3.05,0.4,3.97,0.72
		c0.61,0.21,1.22,0.56,1.57,1.03C87.79,35.06,87.91,35.64,87.74,36.38z M81.79,27.86c0,0,0.44,0.05,1.51,0.11
		c0.81,0.05,1.37,0.29,1.37,0.29l-0.1,3.91c-0.87-0.17-1.44-0.26-2.26-0.37c-0.27-1.42-0.61-1.9-1.18-2.94
		c-0.13-0.23-0.01-0.32,0.01-0.39c0.08-0.14,0.65-0.28,0.65-0.28L81.79,27.86z M85.3,31.74c0,0,0.11-1.86,0.12-2.75
		c0.49-0.2,0.6-0.67,0.42-1.07c-0.11-0.22-0.47-0.38-0.69-0.44c-1.02-0.26-1.95-0.31-3.01-0.42c-0.92-0.1-1.65-0.22-2.5-0.44
		c-1.73-0.44-3.21-1.25-3.97-2.82c-0.92-1.97-0.14-4.31,1.77-5.35c1.42-0.73,3.01-0.6,4.44-0.05c0.5,0.19,0.76,0.63,1.07,1.04
		c0.14,0.19,0.35,0.26,0.47,0.47c0.07,0.12-0.09,0.18-0.16,0.2c-0.32,0.08-1.36,0.09-1.71,0.06c-0.43-0.05-1.14-0.03-1.57,0.06
		c0.45,0.25,0.93,0.57,1.37,0.73c0.27,0.1,0.49,0.1,0.74,0.23c0.1,0.05,0.4,0.14,0.4,0.28c-0.03,0.13-0.28,0.19-0.46,0.24
		c-0.4,0.12-0.96,0.13-1.47,0.01c-0.82-0.19-1.2-0.67-1.71-0.37c-0.33,0.2-0.34,0.66-0.23,1.12c0.17,0.72,0.94,1.03,1.58,1.24
		c2.23,0.72,4.6,0.31,6.78,1.43c0.84,0.43,1.79,1.31,1.97,2.24C89.69,31.28,85.3,31.74,85.3,31.74z M89.18,19.73
		c-0.12,0.41-0.22,0.4-0.49,0.65c-0.55,0.51-1.28,1.03-2.01,1.72c-0.46,0.44-0.9,0.7-1.23,1.23c-0.07,0.12-0.24,0.45-0.24,0.45
		c-1.23-0.25-2.48-0.27-3.43-0.47l-0.05-1.04c0,0,1.23-0.01,1.35-0.75c0.01-0.04-0.03-0.26-0.16-0.36c-0.19-0.12-0.4-0.22-0.61-0.29
		c0.93,0.14,1.75,0.49,2.7,0.91c0.06-0.1-0.09-0.46-0.17-0.54c-0.13-0.15-0.28-0.26-0.62-0.34c-0.58-0.15-1.98-0.32-1.98-0.32
		l1.19-0.05c0.3-0.05,0.6-0.16,0.67-0.27c0.11-0.25-0.33-0.66-0.62-1.04c-0.14-0.19-0.33-0.57-0.58-0.8
		c-0.31-0.37-1.25-0.72-1.25-0.72s-0.08-0.63,0.08-0.94c0.11-0.23,0.62-0.25,0.77-0.17c0.7,0.4,1.49,0.83,2.43,0.99
		c0.2,0.14,0.2,0.18,0.26,0.47c0.13,0.64-0.11,1.55,0.01,1.99c0.06,0.14,0.2,0.14,0.31,0.08c0.87-0.47,1.47-1.28,2.35-1.66
		C88.27,18.28,89.45,18.87,89.18,19.73z"/>
	<path class="st3" d="M83.33,51.03L83.33,51.03h-0.01H83.33z"/>
	<path class="st3" d="M80.6,18.82c0.28,0.19,0.22,0.55,0.62,0.48c0.2-0.03,0.33-0.16,0.51-0.29c0.1-0.01,0.2,0.01,0.29,0.04
		c-0.44-0.45-1.31-0.45-1.9-0.47C80.27,18.86,80.43,18.71,80.6,18.82z"/>
	<path class="st3" d="M117.2,7.77h11.22c1.13,0.02,2.38,0.08,3.54,0.6c2.15,1.05,2.21,3.17,2.21,3.62c0.02,1.13-0.42,2.21-1.22,3
		c-1.33,1.39-3.09,1.59-4.36,1.73c1.38,0.05,3.63,0.17,5.35,1.93c0.68,0.65,1.5,1.81,1.5,3.66c0,1.3-0.42,2.66-1.5,3.74
		c-1.62,1.61-3.66,1.67-5.41,1.73h-11.32v-0.74h2.74V8.5h-2.74L117.2,7.77L117.2,7.77z M124.45,8.62l-0.05,7.74h1.87
		c1.25,0,2.24-0.4,2.64-0.91c0.48-0.57,0.73-1.5,0.73-2.97c0-3.21-0.99-3.8-3.17-3.86L124.45,8.62z M124.39,17.17l0.05,9.78h2.15
		c0.99-0.05,2.04-0.14,2.94-1.01c1.17-1.19,1.17-3.23,1.17-3.94c0-2.18-0.48-3.34-1.36-4.02c-0.65-0.51-1.78-0.82-3.51-0.8H124.39z
		 M140.07,7.77c1.33-0.03,1.73-0.03,2.97-0.11v19.38h1.95v0.74h-8.26v-0.74h2.12V8.51h-2.12V7.77H140.07z M147.82,14.06
		c1.48-0.02,1.93-0.02,3.31-0.11l-0.05,8.98c0,1.08,0.05,1.9,0.28,2.46c0.37,0.88,1.13,1.28,2.07,1.28c0.82,0,1.53-0.31,2.07-0.82
		c1.1-1.11,1.08-2.58,1.08-3.83l-0.06-7.23h-2.1v-0.74c0,0,4.08-0.02,6.2-0.11v13.06h2.04v0.77h-2.15c-1.81,0-2.46,0.02-3.82,0.11
		l-0.09-2.18c-0.59,0.74-1.98,2.38-5.18,2.38c-2.09,0-3.43-0.79-3.97-1.87c-0.42-0.79-0.39-1.81-0.39-2.67L147,14.79h-2.07v-0.74
		L147.82,14.06L147.82,14.06z M176.99,23.81c-0.73,1.39-2.26,4.28-6.54,4.28c-4.39,0-7.08-3.37-7.08-7.3c0-3.77,2.55-7.11,7.1-7.11
		c2.83,0,4.39,1.22,5.07,1.92c1.56,1.61,1.61,3.32,1.65,4.54h-9.46c0.03,2.41,0.09,4.59,1.27,5.84c0.65,0.68,1.58,0.96,2.52,0.96
		c3.06,0,4.22-2.58,4.62-3.49L176.99,23.81z M172.85,19.28c0.03-2.21,0.05-4.82-2.49-4.82c-2.41,0-2.52,2.41-2.6,4.82H172.85z
		 M197.34,26.36c-2.09,0.76-4.7,1.7-7.96,1.7c-5.83,0-10.16-4.2-10.16-10.32c0-6.6,4.98-10.43,10.62-10.43c1.73,0,4.39,0.4,7.39,1.7
		v5.65h-0.88c-0.14-1.08-0.36-2.84-2.09-4.57c-1.1-1.15-2.61-1.8-4.2-1.81c-1.5,0-3,0.63-3.99,1.61c-1.41,1.42-2.04,3.68-2.04,7.83
		c0,4,0.48,6.46,1.95,7.96c0.82,0.85,2.12,1.53,3.68,1.53c1.5,0,3.28-0.6,4.73-2.13c1.7-1.76,1.9-3.26,2.01-4.34h0.94L197.34,26.36
		L197.34,26.36z M205.15,27.04h2.09v0.74h-8.3v-0.74h2.07V14.8h-2.07v-0.74c0,0,4.47-0.02,6.09-0.11l0.06,2.78
		c0.17-0.68,0.53-1.3,1.02-1.78c0.68-0.72,1.62-1.13,2.61-1.14c1.81,0,2.57,1.44,2.57,2.72c0,1.72-1.13,2.01-1.75,2.01
		c-0.28,0-1.76-0.14-1.76-1.87c0-0.14,0.09-0.85,0.09-0.99c0-0.6-0.43-0.6-0.51-0.6c-0.37,0-0.88,0.45-1.24,1.02
		c-0.94,1.5-0.99,3.71-1.02,5.27L205.15,27.04z M226.52,20.97c0,4.48-3.57,7.11-7.39,7.11c-4.16,0-7.2-3-7.2-7.22
		c0-4.45,3.23-7.11,7.13-7.17C223.67,13.61,226.52,16.86,226.52,20.97z M216.24,20.3c0,4.44,0.28,7,3.01,7
		c2.74,0,2.94-2.58,2.94-6.33c0-3.43-0.17-6.57-2.97-6.54C216.59,14.43,216.24,17.12,216.24,20.3z M229.49,22.56
		c0.11,0.81,0.2,1.5,0.65,2.35c0.45,0.91,1.61,2.32,3.62,2.32c1.68,0,2.78-0.94,2.78-2.07c0-1.28-1.25-1.79-3.06-2.44
		c-2.52-0.94-4.64-1.7-4.64-4.71c0-3.58,3.12-4.39,5.07-4.39c1.55,0,2.83,0.45,4.17,0.91l0.06,3.68h-0.85
		c-0.09-0.52-0.23-1.04-0.43-1.53c-0.36-0.76-1.44-2.12-3.26-2.12c-1.53,0-2.21,1.01-2.21,1.73c0,0.87,0.74,1.25,1.05,1.38
		c0.45,0.2,2.69,1.02,3.2,1.22c1.73,0.71,3.51,1.67,3.51,4.28c0,2.97-2.32,4.94-5.72,4.94c-1.88,0-3.28-0.52-4.76-1.05l-0.06-4.51
		L229.49,22.56L229.49,22.56z M241.85,22.56c0.11,0.81,0.19,1.5,0.65,2.35c0.45,0.91,1.61,2.32,3.63,2.32
		c1.67,0,2.78-0.94,2.78-2.07c0-1.28-1.24-1.79-3.06-2.44c-2.52-0.94-4.64-1.7-4.64-4.71c0-3.58,3.11-4.39,5.07-4.39
		c1.55,0,2.83,0.45,4.16,0.91l0.06,3.68h-0.85c-0.08-0.52-0.23-1.04-0.42-1.53c-0.37-0.76-1.44-2.12-3.25-2.12
		c-1.53,0-2.21,1.01-2.21,1.73c0,0.87,0.74,1.25,1.05,1.38c0.46,0.2,2.69,1.02,3.2,1.22c1.73,0.71,3.51,1.67,3.51,4.28
		c0,2.97-2.32,4.94-5.72,4.94c-1.88,0-3.29-0.52-4.76-1.05l-0.05-4.51L241.85,22.56L241.85,22.56z M117.24,34.33h11.22
		c1.13,0.03,2.38,0.08,3.54,0.59c2.15,1.05,2.21,3.18,2.21,3.63c0.02,1.13-0.42,2.21-1.21,3c-1.33,1.39-3.09,1.59-4.37,1.73
		c1.39,0.06,3.62,0.17,5.35,1.93c0.68,0.65,1.5,1.81,1.5,3.66c0,1.31-0.43,2.66-1.5,3.74c-1.62,1.61-3.65,1.67-5.41,1.72h-11.33
		V53.6h2.74V35.06h-2.74v-0.73H117.24z M124.49,35.18l-0.06,7.74h1.87c1.24,0,2.24-0.4,2.63-0.91c0.48-0.57,0.73-1.5,0.73-2.97
		c0-3.2-0.99-3.8-3.17-3.86L124.49,35.18z M124.43,43.74l0.06,9.78h2.15c0.99-0.05,2.04-0.14,2.94-1.02
		c1.16-1.19,1.16-3.23,1.16-3.94c0-2.18-0.48-3.34-1.36-4.03c-0.65-0.51-1.78-0.82-3.51-0.79H124.43z M140.11,34.33
		c1.33-0.02,1.73-0.02,2.98-0.11V53.6h1.95v0.74h-8.27V53.6h2.13V35.07h-2.13v-0.73H140.11z M147.86,40.62
		c1.47-0.03,1.92-0.03,3.31-0.11l-0.06,8.98c0,1.08,0.06,1.9,0.28,2.47c0.37,0.88,1.13,1.28,2.07,1.28c0.77,0,1.51-0.29,2.07-0.82
		c1.11-1.11,1.08-2.58,1.08-3.82l-0.05-7.23h-2.1v-0.73c0,0,4.08-0.03,6.2-0.11v13.06h2.04v0.76h-2.15c-1.81,0-2.46,0.03-3.82,0.11
		l-0.08-2.18c-0.6,0.74-1.98,2.38-5.18,2.38c-2.09,0-3.43-0.79-3.96-1.87c-0.43-0.79-0.4-1.82-0.4-2.67l-0.05-8.76h-2.07v-0.73
		L147.86,40.62z M176.74,50.37c-0.74,1.39-2.27,4.28-6.54,4.28c-4.39,0-7.08-3.38-7.08-7.31c0-3.77,2.54-7.11,7.1-7.11
		c2.83,0,4.4,1.22,5.07,1.93c1.55,1.61,1.61,3.31,1.64,4.53h-9.46c0.03,2.41,0.08,4.59,1.28,5.84c0.67,0.65,1.58,1,2.52,0.97
		c3.06,0,4.22-2.58,4.61-3.49L176.74,50.37z M172.6,45.84c0.03-2.21,0.06-4.82-2.49-4.82c-2.41,0-2.52,2.41-2.61,4.82H172.6z
		 M179.79,47.51c0.14,0.82,0.28,1.56,0.76,2.55c1.7,3.51,4.79,3.6,5.41,3.6c2.24,0,4.13-1.34,4.13-3.4c0-2.07-1.56-2.75-5.83-4.51
		c-0.68-0.28-1.33-0.54-1.95-0.88c-0.74-0.4-3.17-1.82-3.17-5.07c0-3.51,2.8-5.86,6.74-5.86c2.47,0,4.39,0.81,5.41,1.25l0.28,4.77
		h-0.91c-0.4-1.47-0.62-2.3-1.61-3.29c-0.99-1.02-2.3-1.73-3.71-1.73c-2.15,0-3.29,1.44-3.29,2.92c0,1.81,1.65,2.58,2.38,2.92
		c0.96,0.45,1.92,0.79,2.89,1.19c2.47,0.99,5.55,2.46,5.55,6.35c0,3.66-2.86,6.35-7.65,6.35c-2.44,0-4.31-0.68-6.14-1.33l-0.17-5.81
		H179.79z M197,34.33c1.45,0,1.78-0.02,3.06-0.11l-0.05,8.47c0.54-0.85,1.08-1.65,2.69-2.13c0.68-0.22,1.35-0.31,2.07-0.31
		c2.1,0,3.12,0.82,3.57,1.25c1.05,1.05,1.13,2.29,1.19,3.38l0.05,8.73h1.96v0.74h-8.3v-0.74h2.18l0.05-8.78c0-1.11,0-3.32-2.21-3.32
		c-0.8,0.01-1.56,0.34-2.12,0.91c-0.97,0.96-1.05,2.24-1.14,3.88l0.05,7.31h2.12v0.74h-8.27V53.6h2.07V35.07h-2.07v-0.73H197z
		 M218.29,40.51V53.6h1.95v0.74h-8.27V53.6h2.12V41.36h-2.12v-0.73C211.98,40.62,216.34,40.59,218.29,40.51z M213.85,36.43
		c0-1.22,1.02-2.24,2.27-2.24c1.22,0,2.21,0.99,2.21,2.24c0,1.25-0.99,2.24-2.21,2.24C214.89,38.64,213.9,37.66,213.85,36.43z
		 M234.79,50.37c-0.74,1.39-2.26,4.28-6.54,4.28c-4.4,0-7.08-3.38-7.08-7.31c0-3.77,2.54-7.11,7.1-7.11c2.83,0,4.39,1.22,5.07,1.93
		c1.55,1.61,1.61,3.31,1.64,4.53h-9.46c0.03,2.41,0.08,4.59,1.28,5.84c0.67,0.65,1.58,1,2.52,0.97c3.06,0,4.22-2.58,4.61-3.49
		L234.79,50.37z M230.66,45.84c0.03-2.21,0.05-4.82-2.49-4.82c-2.41,0-2.52,2.41-2.61,4.82H230.66z M239.18,34.33
		c1.33-0.02,1.73-0.02,2.97-0.11V53.6h1.96v0.74h-8.27V53.6h2.12V35.07h-2.12v-0.73H239.18z M255.65,34.33
		c1.65,0,2.16-0.02,3.43-0.11v19.35h2.01v0.76c0,0-4.25,0.03-6.09,0.11v-1.88c-0.65,0.82-1.67,2.07-4.3,2.07
		c-4.25,0-5.95-3.86-5.95-6.97c0-4.44,2.66-7.3,6.32-7.3c1.75,0,2.69,0.57,3.34,1.22c0.28,0.25,0.49,0.58,0.59,0.94l-0.06-7.46
		h-2.09v-0.73H255.65z M250.16,42.24c-0.82,0.85-0.97,2.52-0.97,5.18c0,3.26,0.08,5.98,2.69,5.98c0.82,0.01,1.61-0.32,2.18-0.91
		c0.76-0.79,0.99-1.78,0.99-5.35c0-2.55,0-5.67-3-5.64C251.35,41.47,250.67,41.74,250.16,42.24z"/>
</g>
<g id="Layer_8" class="st0">
	<path class="st3" d="M66.36,45.27c-0.03,0.41-0.06,0.82-0.09,1.28c-0.73,0.08-1.39,0.19-2.06,0.23c-3.67,0.17-7.32-0.04-10.91-0.84
		c-4.43-0.98-7.9-3.35-10.37-7.16c-0.85-1.31-1.47-2.74-1.75-4.29c-0.33-1.82-0.16-3.62,0.32-5.4c0.78-2.94,2.2-5.58,3.93-8.06
		c3.25-4.65,7.31-8.47,11.93-11.72c3.97-2.79,8.23-5.04,12.82-6.61c3.45-1.18,6.99-1.88,10.66-1.66c2.78,0.17,5.42,0.84,7.69,2.54
		c2.1,1.57,3.3,3.69,3.62,6.3c0.37,3.05-0.73,5.53-2.95,7.56c-1.52,1.4-3.27,2.47-5.14,3.3c-2.63,1.17-5.29,2.28-7.97,3.34
		c-4.83,1.91-9.6,3.96-14.15,6.49c-1.9,1.06-3.75,2.19-5.42,3.57c-1.04,0.86-2,1.81-2.76,2.94c-0.48,0.72-0.86,1.48-1.04,2.34
		c-0.32,1.49,0.12,2.75,1.18,3.8c0.69,0.69,1.54,1.14,2.45,1.48c1.14,0.43,2.33,0.63,3.53,0.72c2.1,0.17,4.22,0.11,6.3-0.19
		C66.23,45.25,66.3,45.26,66.36,45.27z"/>
	<path class="st3" d="M82.05,62.6H65.81c0.02-0.07,0.03-0.15,0.07-0.2c0.77-0.86,1.1-1.9,1.3-3c0.39-2.15,0.61-4.33,0.76-6.51
		c0.18-2.71,0.38-5.42,0.56-8.13c0.14-2.12,0.28-4.24,0.42-6.36c0.13-2.02,0.27-4.03,0.41-6.07c0.39-0.15,0.78-0.06,1.16-0.01
		c2.58,0.31,4.73,1.38,6.18,3.62c0.74,1.15,1.16,2.43,1.33,3.78c0.43,3.32,0.82,6.65,1.25,9.97c0.42,3.2,0.87,6.39,1.32,9.59
		C80.74,60.48,81.1,61.6,82.05,62.6z"/>
	<path class="st3" d="M140.33,28.53h4.72l6.32,17.22c0.09-0.18,0.16-0.3,0.2-0.43c1.27-3.69,2.54-7.38,3.81-11.06
		c0.11-0.29,0.1-0.6-0.01-0.88c-0.51-1.4-1.01-2.81-1.51-4.21c-0.07-0.19-0.13-0.38-0.2-0.61h4.6l5.57,16.77l0.11,0.01l5.97-16.77
		h2.95c-2.92,8.04-5.83,16.03-8.75,24.05h-1.93c-1.76-4.97-3.53-9.93-5.29-14.88l-0.13-0.01l-5.3,14.9h-1.93
		C146.48,44.62,143.42,36.62,140.33,28.53z"/>
	<path class="st3" d="M202.75,52.45h-4.58v-23.9c0.18-0.01,0.34-0.03,0.5-0.03c3.33,0,6.67-0.01,10.01,0c1.52,0,3.02,0.2,4.46,0.72
		c0.48,0.17,0.95,0.38,1.39,0.63c1.81,1.04,2.74,2.62,2.86,4.7c0.18,3.13-1.55,4.92-3.74,5.77c-0.44,0.17-0.89,0.31-1.34,0.42
		c-0.45,0.11-0.91,0.16-1.48,0.25c0.38,0.1,0.64,0.16,0.91,0.23c1.56,0.39,2.71,1.32,3.41,2.76c0.32,0.66,0.57,1.35,0.83,2.04
		c0.34,0.9,0.66,1.8,0.99,2.7c0.42,1.2,1.03,2.32,1.8,3.33c0.07,0.09,0.14,0.19,0.25,0.36c-0.2,0.02-0.33,0.04-0.46,0.04
		c-1.39,0-2.78-0.01-4.18,0.01c-0.35,0-0.58-0.09-0.73-0.41c-0.44-0.99-0.92-1.96-1.32-2.96c-0.52-1.31-0.97-2.65-1.47-3.96
		c-0.17-0.46-0.37-0.9-0.61-1.33c-0.5-0.9-1.29-1.4-2.3-1.56c-0.4-0.07-0.81-0.1-1.22-0.11c-1.31-0.01-2.61,0-3.98,0L202.75,52.45z
		 M202.76,30.96v8.7c1.76,0,3.47,0.05,5.18-0.02c0.72-0.03,1.46-0.23,2.14-0.48c1.26-0.46,2.03-1.4,2.31-2.72
		c0.07-0.32,0.11-0.64,0.12-0.97c0.04-1.86-0.64-3.24-2.38-3.96c-0.49-0.2-1.01-0.34-1.53-0.41
		C206.68,30.83,204.74,31.03,202.76,30.96z"/>
	<path class="st3" d="M139.82,40.49c-0.15,4.82-2.11,8.62-6.44,10.93c-5.58,2.98-13.33,1.34-16.63-5.03
		c-2.59-5-1.63-11.73,3.01-15.49c2.62-2.12,5.64-2.96,8.99-2.67c2.96,0.26,5.52,1.42,7.61,3.55s3.18,4.71,3.42,7.67
		C139.79,39.79,139.8,40.14,139.82,40.49z M120.43,40.5c0.06,0.84,0.09,1.67,0.19,2.51c0.16,1.35,0.49,2.65,1.11,3.87
		c1.04,2.04,2.66,3.29,4.96,3.55c2.17,0.25,4.11-0.28,5.63-1.93c1-1.08,1.56-2.39,1.9-3.79c0.54-2.19,0.59-4.41,0.33-6.64
		c-0.14-1.24-0.43-2.46-0.96-3.6c-1.02-2.22-2.67-3.63-5.16-3.92c-2.51-0.29-4.96,0.58-6.42,3.04c-0.27,0.46-0.5,0.94-0.69,1.43
		C120.66,36.78,120.46,38.62,120.43,40.5z"/>
	<path class="st3" d="M176.36,28.54h17.07v2.52h-12.5v7.74h9.15v2.59h-9.16v8.49h13.06v2.56h-17.61V28.54z"/>
	<path class="st3" d="M105.97,31.05v21.32c-0.47,0.13-3.8,0.16-4.6,0.04V31.05h-8.96v-2.43c0.41-0.12,21.66-0.16,22.5-0.03v2.47
		H105.97z"/>
	<path class="st3" d="M77.41,26.07v2.45h2.42v2.45h-12.4v-1.05C70.7,28.53,73.98,27.24,77.41,26.07z"/>
</g>
<g id="Layer_9">
	<g>
		<path class="st5" d="M197.14,29.21c2.74-3.11,5.5-6.2,8.26-9.3c-2.34,0.02-4.67,0.01-7.01,0c-2.55,3.14-5.12,6.25-7.64,9.4
			c0.02-5.94-0.01-11.89,0.02-17.83c-1.91,0-3.83,0-5.75,0c0.03,10.48,0.02,20.97,0,31.46c1.92,0,3.83,0,5.75,0.01
			c-0.02-2.27,0-4.54-0.01-6.81c0.81-0.92,1.61-1.84,2.42-2.77c1.91,3.18,3.77,6.38,5.66,9.56c2.4,0.01,4.79,0.01,7.18,0
			C203.02,38.38,200.1,33.78,197.14,29.21z"/>
		<path class="st5" d="M133.69,30.23c-2.47-1.62-5.56-1.27-8.35-1.76c-0.86-0.1-1.84-0.67-1.85-1.65c-0.18-1.16,0.87-2.07,1.92-2.29
			c2.31-0.39,4.81,0,6.75,1.36c1.18-1.21,2.39-2.4,3.56-3.62c-1.65-1.31-3.62-2.21-5.73-2.44c-3.21-0.47-6.8-0.31-9.46,1.75
			c-3.05,2.25-3.57,7.33-0.85,10.02c2.6,2.28,6.3,1.7,9.45,2.34c0.95,0.17,1.72,1.07,1.59,2.06c-0.03,1.09-1.11,1.77-2.06,2.01
			c-2.83,0.7-5.97,0.03-8.2-1.88c-1.24,1.27-2.5,2.53-3.77,3.78c1.91,1.76,4.34,2.96,6.96,3.13c3.44,0.25,7.28,0.31,10.15-1.91
			C137.21,38.64,137.33,32.61,133.69,30.23z"/>
		<g>
			<path class="st6" d="M151.82,25.98c-1.52-1.99-4.87-2.07-6.51-0.19c-0.83,0.96-1.02,2.26-1.28,3.46
				c2.97,0.03,5.95,0.04,8.92-0.01C152.72,28.11,152.57,26.89,151.82,25.98z"/>
			<path class="st5" d="M158.57,33.24c0.14-3.55-0.08-7.46-2.49-10.3c-2.7-3.35-7.65-4-11.51-2.58c-3.67,1.36-5.69,5.25-6.01,8.97
				c-0.31,3.58-0.02,7.54,2.25,10.49c2.08,2.69,5.69,3.53,8.94,3.41c3.11,0.02,6.03-1.41,8.18-3.62c-1.16-1.15-2.34-2.28-3.51-3.42
				c-2.07,2.17-5.66,2.92-8.27,1.29c-1.46-0.9-1.89-2.65-2.13-4.22C148.87,33.21,153.73,33.25,158.57,33.24z M144.03,29.24
				c0.26-1.2,0.45-2.49,1.28-3.46c1.64-1.88,4.99-1.79,6.51,0.19c0.75,0.92,0.9,2.14,1.13,3.26C149.98,29.28,147,29.27,144.03,29.24
				z"/>
		</g>
		<g>
			<path class="st6" d="M174.51,25.97c-1.58-2.09-5.16-2.04-6.7,0.06c-0.7,0.92-0.84,2.1-1.08,3.21c2.97,0.02,5.94,0.04,8.91-0.01
				C175.42,28.11,175.27,26.89,174.51,25.97z"/>
			<path class="st5" d="M181.27,33.25c0.11-3.45-0.05-7.23-2.3-10.05c-2.64-3.57-7.79-4.3-11.76-2.82
				c-3.63,1.38-5.63,5.23-5.96,8.93c-0.31,3.59-0.04,7.57,2.25,10.52c2.08,2.69,5.68,3.53,8.93,3.41c3.12,0.02,6.02-1.42,8.19-3.6
				c-1.17-1.16-2.36-2.29-3.52-3.46c-2.05,2.21-5.67,2.94-8.27,1.31c-1.45-0.9-1.87-2.65-2.12-4.22
				C171.57,33.22,176.42,33.24,181.27,33.25z M166.74,29.24c0.23-1.1,0.38-2.28,1.08-3.21c1.54-2.1,5.12-2.15,6.7-0.06
				c0.75,0.92,0.9,2.14,1.13,3.26C172.67,29.28,169.7,29.26,166.74,29.24z"/>
		</g>
		<g>
			<path class="st5" d="M103.98,16.69c-2.91-5.41-7.43-9.92-12.82-12.84c-5.99-3.29-13.04-4.47-19.8-3.55
				C61.04,1.72,51.69,8.54,47.19,17.92c-3.41,6.97-4.11,15.2-1.98,22.65c1.6,5.65,4.79,10.82,9.13,14.78
				c5.77,5.3,13.55,8.39,21.39,8.35c6.78,0.09,13.55-2.1,19.01-6.11c5.71-4.13,9.95-10.24,11.87-17.02
				C108.87,32.67,107.93,23.9,103.98,16.69z M50.13,25.2c0.41-0.65,1.46,0.08,0.98,0.68C50.7,26.53,49.65,25.81,50.13,25.2z
				 M51.28,39.28c-0.41,0.65-1.46-0.08-0.98-0.68C50.71,37.95,51.76,38.67,51.28,39.28z M51.29,32.59
				c-0.41,0.65-1.46-0.08-0.98-0.69C50.72,31.26,51.76,31.98,51.29,32.59z M71.59,24.02c1.1-0.79,2.8,0.3,2.64,1.6
				c0.04,1.36-1.73,2.08-2.77,1.34C70.48,26.31,70.51,24.56,71.59,24.02z M54.08,39.86c-0.48,0-0.86-0.39-0.86-0.86
				c0-0.48,0.39-0.86,0.86-0.86c0.48,0,0.86,0.39,0.86,0.86C54.94,39.47,54.55,39.86,54.08,39.86z M54.13,33.06
				c-0.48,0-0.86-0.39-0.86-0.87c0-0.48,0.39-0.86,0.86-0.86c0.48,0,0.86,0.39,0.86,0.86C54.99,32.67,54.6,33.06,54.13,33.06z
				 M54.13,26.37c-0.48,0-0.86-0.39-0.86-0.86c0-0.48,0.39-0.86,0.86-0.86c0.48,0,0.86,0.39,0.86,0.86
				C54.99,25.98,54.6,26.37,54.13,26.37z M58.19,24.52c0.6,0,1.08,0.48,1.08,1.08c0,0.6-0.48,1.08-1.08,1.08
				c-0.6,0-1.08-0.48-1.08-1.08C57.11,25,57.6,24.52,58.19,24.52z M58.21,31.19c0.6,0,1.08,0.48,1.08,1.08s-0.48,1.08-1.08,1.08
				c-0.6,0-1.08-0.48-1.08-1.08S57.62,31.19,58.21,31.19z M58.22,40.03c-0.6,0-1.08-0.48-1.08-1.08s0.48-1.08,1.08-1.08
				c0.6,0,1.08,0.48,1.08,1.08S58.82,40.03,58.22,40.03z M62.34,40.25c-0.72,0-1.3-0.58-1.3-1.3c0-0.72,0.58-1.3,1.3-1.3
				s1.3,0.58,1.3,1.3C63.63,39.67,63.05,40.25,62.34,40.25z M62.45,33.55c-0.72,0-1.3-0.58-1.3-1.3c0-0.72,0.58-1.3,1.3-1.3
				c0.72,0,1.3,0.58,1.3,1.3C63.74,32.96,63.16,33.55,62.45,33.55z M62.45,26.84c-0.72,0-1.3-0.58-1.3-1.3c0-0.72,0.58-1.3,1.3-1.3
				c0.72,0,1.3,0.58,1.3,1.3C63.74,26.26,63.16,26.84,62.45,26.84z M66.28,40.04c-0.82-0.68-0.55-2.15,0.44-2.52
				c0.96-0.44,2.23,0.44,2.07,1.5C68.81,40.22,67.1,40.92,66.28,40.04z M66.31,33.35c-0.82-0.68-0.55-2.16,0.44-2.52
				c0.96-0.44,2.23,0.44,2.07,1.5C68.83,33.53,67.13,34.24,66.31,33.35z M67.39,27.04c-1.34,0.21-2.18-1.76-1.11-2.59
				c0.65-0.71,1.87-0.48,2.32,0.34C69.23,25.67,68.45,27.05,67.39,27.04z M71.46,40.35c-0.98-0.65-0.95-2.41,0.13-2.94
				c1.1-0.79,2.8,0.3,2.64,1.6C74.27,40.38,72.5,41.1,71.46,40.35z M74.02,33.07c-0.53,1.14-2.37,1.17-3.01,0.12
				c-0.48-0.81-0.29-2.08,0.63-2.48C73.03,29.73,74.98,31.68,74.02,33.07z M78.08,10.24c1.46-0.5,3.01,1.07,2.49,2.52
				c-0.38,1.52-2.65,1.89-3.52,0.61C76.22,12.33,76.77,10.56,78.08,10.24z M80.63,19.19c-0.18,1.42-2.03,2.18-3.15,1.29
				c-1.34-0.84-0.96-3.17,0.58-3.54C79.41,16.47,80.94,17.78,80.63,19.19z M77.58,54.05c-1.37-0.79-1.13-3.09,0.39-3.55
				c1.15-0.42,2.6,0.38,2.68,1.64C80.9,53.71,78.87,55.06,77.58,54.05z M77.66,37.17c1.19-0.65,2.89,0.1,2.98,1.51
				c0.27,1.56-1.76,2.93-3.06,1.91C76.29,39.9,76.4,37.83,77.66,37.17z M77.58,47.28c-1.37-0.79-1.13-3.09,0.39-3.55
				c1.15-0.42,2.6,0.38,2.68,1.64C80.9,46.95,78.87,48.3,77.58,47.28z M77.54,33.88c-1.24-0.73-1.13-2.76,0.13-3.41
				c1.28-0.72,3.08,0.3,2.98,1.8C80.69,33.77,78.75,34.82,77.54,33.88z M80.44,26.44c-0.55,1.19-2.28,1.48-3.19,0.55
				c-1.06-0.96-0.62-2.97,0.79-3.35C79.62,23.04,81.31,24.96,80.44,26.44z M83.91,36.99c1.42-1,3.53,0.32,3.35,2.02
				c-0.05,1.67-2.23,2.66-3.54,1.63C82.47,39.76,82.58,37.72,83.91,36.99z M83.73,47.38c-1.25-0.87-1.14-2.91,0.19-3.64
				c1.42-1,3.53,0.32,3.35,2.02C87.21,47.43,85.04,48.42,83.73,47.38z M83.83,34.02c-1.25-0.87-1.14-2.91,0.19-3.65
				c1.42-1,3.53,0.32,3.35,2.02C87.32,34.06,85.14,35.06,83.83,34.02z M84.02,23.72c1.42-1,3.53,0.32,3.35,2.02
				c-0.05,1.67-2.23,2.66-3.54,1.63C82.58,26.5,82.68,24.46,84.02,23.72z M83.84,20.63c-1.25-0.87-1.14-2.91,0.19-3.65
				c1.42-1,3.53,0.32,3.35,2.02C87.33,20.68,85.15,21.67,83.84,20.63z M90.57,41.02c-1.56-0.93-1.44-3.4,0.13-4.26
				c1.6-0.85,3.84,0.33,3.7,2.23C94.47,40.86,92.07,42.11,90.57,41.02z M90.29,34.12c-1.42-1.13-0.95-3.65,0.77-4.19
				c1.57-0.59,3.44,0.66,3.35,2.37C94.48,34.32,91.75,35.51,90.29,34.12z M94.27,26.38c-0.55,1.85-3.36,2.23-4.37,0.6
				c-0.97-1.24-0.3-3.27,1.18-3.75C92.94,22.49,95.04,24.49,94.27,26.38z M97.71,34.7c-1.99-0.83-1.97-3.99,0.01-4.83
				c1.67-0.96,3.99,0.5,3.92,2.41C101.75,34.2,99.38,35.7,97.71,34.7z"/>
			<path class="st6" d="M80.57,12.76c0.51-1.45-1.04-3.02-2.49-2.52c-1.31,0.32-1.86,2.09-1.03,3.13
				C77.92,14.64,80.19,14.27,80.57,12.76z"/>
			<path class="st6" d="M78.06,16.94c-1.53,0.37-1.91,2.7-0.58,3.54c1.12,0.89,2.97,0.13,3.15-1.29
				C80.94,17.78,79.41,16.47,78.06,16.94z"/>
			<path class="st6" d="M91.07,23.23c-1.48,0.48-2.15,2.51-1.18,3.75c1.01,1.63,3.83,1.25,4.37-0.6
				C95.04,24.49,92.94,22.49,91.07,23.23z"/>
			<path class="st6" d="M78.03,23.64c-1.41,0.37-1.85,2.39-0.79,3.35c0.91,0.93,2.64,0.64,3.19-0.55
				C81.31,24.96,79.62,23.04,78.03,23.64z"/>
			<path class="st6" d="M66.28,24.45c-1.08,0.83-0.23,2.8,1.11,2.59c1.06,0.02,1.84-1.37,1.21-2.25
				C68.15,23.97,66.93,23.74,66.28,24.45z"/>
			<path class="st6" d="M51.11,25.89c0.47-0.61-0.57-1.33-0.98-0.68C49.65,25.81,50.7,26.53,51.11,25.89z"/>
			<path class="st6" d="M50.3,31.91c-0.47,0.6,0.57,1.33,0.98,0.69C51.76,31.98,50.72,31.26,50.3,31.91z"/>
			<path class="st6" d="M50.3,38.6c-0.47,0.61,0.57,1.33,0.98,0.68C51.76,38.67,50.71,37.95,50.3,38.6z"/>
			<path class="st6" d="M91.06,29.93c-1.72,0.55-2.19,3.06-0.77,4.19c1.45,1.39,4.18,0.2,4.12-1.83
				C94.5,30.58,92.63,29.33,91.06,29.93z"/>
			<path class="st6" d="M97.72,29.87c-1.97,0.84-2,4-0.01,4.83c1.67,1,4.04-0.5,3.92-2.42C101.72,30.37,99.39,28.91,97.72,29.87z"/>
			<path class="st6" d="M77.67,30.46c-1.26,0.65-1.38,2.69-0.13,3.41c1.21,0.95,3.15-0.11,3.11-1.62
				C80.76,30.76,78.95,29.74,77.67,30.46z"/>
			<path class="st6" d="M71.64,30.71c-0.93,0.4-1.11,1.67-0.63,2.48c0.65,1.04,2.48,1.01,3.01-0.12
				C74.98,31.68,73.03,29.73,71.64,30.71z"/>
			<path class="st6" d="M90.7,36.76c-1.57,0.85-1.69,3.33-0.13,4.26c1.5,1.09,3.91-0.16,3.83-2.03
				C94.54,37.09,92.3,35.91,90.7,36.76z"/>
			<path class="st6" d="M77.58,40.59c1.3,1.02,3.33-0.35,3.06-1.91c-0.09-1.41-1.79-2.16-2.98-1.51
				C76.4,37.83,76.29,39.9,77.58,40.59z"/>
			<path class="st6" d="M66.72,37.52c-0.99,0.36-1.26,1.84-0.44,2.52c0.82,0.89,2.52,0.18,2.51-1.02
				C68.95,37.96,67.68,37.09,66.72,37.52z"/>
			<path class="st6" d="M71.59,37.41c-1.09,0.53-1.12,2.29-0.13,2.94c1.04,0.74,2.81,0.02,2.77-1.34
				C74.39,37.71,72.69,36.62,71.59,37.41z"/>
			<path class="st6" d="M77.97,43.74c-1.52,0.45-1.76,2.75-0.39,3.55c1.3,1.02,3.33-0.33,3.07-1.9
				C80.56,44.12,79.12,43.32,77.97,43.74z"/>
			<path class="st6" d="M83.91,43.74c-1.33,0.73-1.44,2.78-0.19,3.64c1.31,1.04,3.49,0.05,3.54-1.62
				C87.45,44.05,85.33,42.74,83.91,43.74z"/>
			<path class="st6" d="M83.72,40.63c1.31,1.04,3.49,0.05,3.54-1.63c0.19-1.7-1.93-3.02-3.35-2.02
				C82.58,37.72,82.47,39.76,83.72,40.63z"/>
			<path class="st6" d="M84.02,30.37c-1.33,0.74-1.44,2.78-0.19,3.65c1.31,1.04,3.49,0.05,3.54-1.63
				C87.55,30.69,85.44,29.37,84.02,30.37z"/>
			<path class="st6" d="M83.83,27.37c1.31,1.04,3.49,0.05,3.54-1.63c0.18-1.7-1.93-3.02-3.35-2.02
				C82.68,24.46,82.58,26.5,83.83,27.37z"/>
			<path class="st6" d="M84.03,16.99c-1.33,0.73-1.44,2.78-0.19,3.65c1.31,1.04,3.49,0.05,3.54-1.63
				C87.56,17.31,85.45,15.99,84.03,16.99z"/>
			<path class="st6" d="M77.97,50.5c-1.52,0.45-1.76,2.76-0.39,3.55c1.3,1.02,3.33-0.33,3.07-1.9
				C80.56,50.88,79.12,50.09,77.97,50.5z"/>
			<path class="st6" d="M71.46,26.96c1.04,0.74,2.81,0.02,2.77-1.34c0.16-1.3-1.54-2.39-2.64-1.6
				C70.51,24.56,70.48,26.31,71.46,26.96z"/>
			<path class="st6" d="M66.75,30.83c-1,0.36-1.26,1.84-0.44,2.52c0.82,0.89,2.52,0.18,2.51-1.02
				C68.98,31.28,67.71,30.4,66.75,30.83z"/>
			<path class="st6" d="M62.34,37.66c-0.72,0-1.3,0.58-1.3,1.3c0,0.72,0.58,1.3,1.3,1.3s1.3-0.58,1.3-1.3
				C63.63,38.24,63.05,37.66,62.34,37.66z"/>
			<path class="st6" d="M62.45,30.95c-0.72,0-1.3,0.58-1.3,1.3c0,0.72,0.58,1.3,1.3,1.3c0.72,0,1.3-0.58,1.3-1.3
				C63.74,31.53,63.16,30.95,62.45,30.95z"/>
			<path class="st6" d="M62.45,24.25c-0.72,0-1.3,0.58-1.3,1.3c0,0.72,0.58,1.3,1.3,1.3c0.72,0,1.3-0.58,1.3-1.3
				C63.74,24.83,63.16,24.25,62.45,24.25z"/>
			<path class="st6" d="M58.22,37.87c-0.6,0-1.08,0.48-1.08,1.08s0.48,1.08,1.08,1.08c0.6,0,1.08-0.48,1.08-1.08
				S58.82,37.87,58.22,37.87z"/>
			<path class="st6" d="M58.21,33.35c0.6,0,1.08-0.48,1.08-1.08s-0.48-1.08-1.08-1.08c-0.6,0-1.08,0.48-1.08,1.08
				S57.62,33.35,58.21,33.35z"/>
			<path class="st6" d="M58.19,26.68c0.6,0,1.08-0.48,1.08-1.08c0-0.6-0.48-1.08-1.08-1.08c-0.6,0-1.08,0.48-1.08,1.08
				C57.11,26.2,57.6,26.68,58.19,26.68z"/>
			<path class="st6" d="M54.08,38.14c-0.48,0-0.86,0.39-0.86,0.86c0,0.48,0.39,0.86,0.86,0.86c0.48,0,0.86-0.39,0.86-0.86
				C54.94,38.52,54.55,38.14,54.08,38.14z"/>
			<path class="st6" d="M54.13,31.33c-0.48,0-0.86,0.39-0.86,0.86c0,0.48,0.39,0.87,0.86,0.87c0.48,0,0.86-0.39,0.86-0.87
				C54.99,31.72,54.6,31.33,54.13,31.33z"/>
			<path class="st6" d="M54.13,24.64c-0.48,0-0.86,0.39-0.86,0.86c0,0.48,0.39,0.86,0.86,0.86c0.48,0,0.86-0.39,0.86-0.86
				C54.99,25.03,54.6,24.64,54.13,24.64z"/>
		</g>
	</g>
</g>
</svg>
