<svg width="62" height="62" viewBox="0 0 62 62" fill="none" xmlns="http://www.w3.org/2000/svg">
<line x1="52.3125" y1="50.375" x2="13.5625" y2="50.375" stroke="#279C6F" stroke-width="1.9375" stroke-linecap="round"/>
<path d="M51.3438 50.375L51.3437 51.3437L53.2812 51.3438L53.2812 50.375L51.3438 50.375ZM53.2813 8.71875C53.2813 8.18372 52.8475 7.75 52.3125 7.75C51.7775 7.75 51.3438 8.18372 51.3438 8.71875L53.2813 8.71875ZM53.2812 50.375L53.2813 8.71875L51.3438 8.71875L51.3438 50.375L53.2812 50.375Z" fill="#279C6F"/>
<path fill-rule="evenodd" clip-rule="evenodd" d="M11.625 2.90625C7.34479 2.90625 3.875 6.37604 3.875 10.6562V50.375V51.3438C3.875 55.624 7.34479 59.0938 11.625 59.0938H12.5925C12.5929 59.0938 12.5933 59.0938 12.5938 59.0938L57.1524 59.0937L57.1563 59.0938L57.1601 59.0937H59.0938V57.1601L59.0938 57.1562L59.0938 55.2187V9.6875C59.0938 8.61745 58.2263 7.75 57.1562 7.75C56.0862 7.75 55.2188 8.61745 55.2188 9.6875L55.2188 55.2187L12.5938 55.2188C12.5934 55.2188 12.5931 55.2188 12.5928 55.2188C9.91813 55.2183 7.75 53.0498 7.75 50.375C7.75 47.6999 9.91862 45.5312 12.5938 45.5312H45.5312H49.4062V6.78125V2.90625H45.5312H11.625ZM7.75 43.1244C9.13541 42.1971 10.8014 41.6562 12.5938 41.6562L45.5312 41.6563V6.78125H11.625C9.4849 6.78125 7.75 8.51615 7.75 10.6562L7.75 43.1244Z" fill="white"/>
<path d="M27.0948 11.625C27.675 11.625 28.2382 11.7979 28.7233 12.125C30.2446 13.1503 33.3046 14.9617 36.706 15.5722C37.2939 15.6777 37.7207 16.1844 37.7207 16.7772V24.1565C37.7207 27.7909 35.8873 31.2098 32.2711 34.3184C30.1691 36.1254 28.035 37.3032 27.0948 37.7812C24.9337 36.6816 16.4688 31.8796 16.4688 24.1566V16.7771C16.4688 16.1844 16.8955 15.6776 17.4834 15.5721C20.8849 14.9616 23.9449 13.1502 25.4661 12.1249C25.9513 11.7979 26.5145 11.625 27.0948 11.625ZM27.0947 20.6162C25.7404 20.6162 24.6426 21.7141 24.6426 23.0684C24.6426 24.1361 25.325 25.0444 26.2774 25.381L26.2773 27.1553C26.2773 27.6067 26.6433 27.9727 27.0947 27.9727C27.5462 27.9727 27.9121 27.6067 27.9121 27.1553L27.9128 25.3807C28.8649 25.0439 29.5469 24.1358 29.5469 23.0684C29.5469 21.7141 28.449 20.6162 27.0947 20.6162Z" fill="#5FC29B"/>
</svg>
