<svg width="70" height="71" viewBox="0 0 70 71" fill="none" xmlns="http://www.w3.org/2000/svg">
<path fill-rule="evenodd" clip-rule="evenodd" d="M29.1399 4L29.5356 4.00164C42.1739 4.10675 52.5773 9.24115 52.5773 16.3355C52.5773 16.4885 52.5725 16.6407 52.5629 16.7919L52.5773 16.7923V31.6704C50.3946 30.6622 48.0449 30.1337 45.6871 30.0849C47.7239 28.7079 48.9009 27.1036 48.9009 25.4729C48.9009 24.8332 48.7172 24.1851 48.3442 23.5372L48.2307 23.6214C46.4499 24.9249 44.1948 26.0191 41.6039 26.8521C41.9191 25.7134 42.0773 24.554 42.0773 23.376V22.7979C46.2737 21.149 48.9009 18.7719 48.9009 16.3355C48.9009 11.8969 40.1816 7.65496 29.1399 7.65496L28.7557 7.65667C17.8967 7.75363 9.37897 11.9485 9.37897 16.3355C9.37897 18.7719 12.0062 21.149 16.2025 22.7979V23.3761C16.2025 24.5962 16.376 25.7564 16.6838 26.8546C14.0348 26.0038 11.7365 24.8799 9.93687 23.5385C9.56215 24.1856 9.37897 24.8328 9.37897 25.4729C9.37897 28.6183 13.7578 31.665 20.2388 33.1733C21.8333 35.0112 23.6711 36.5118 25.3033 37.6511C18.995 37.1276 13.4919 35.326 9.936 32.6753C9.56209 33.3232 9.37897 33.9703 9.37897 34.6103C9.37897 38.9671 17.7801 43.1345 28.5323 43.2865C28.2428 44.4846 28.083 45.7077 28.0529 46.9333C20.607 46.7624 13.9999 44.8421 9.936 41.8126C9.56209 42.4606 9.37897 43.1077 9.37897 43.7477C9.37897 48.1346 17.8967 52.3295 28.7557 52.4265L28.8032 52.4267C29.1875 53.6841 29.7184 54.9063 30.3958 56.0665C30.1103 56.0741 29.8235 56.0791 29.5356 56.0815L29.1399 56.0831C16.5974 56.0831 6.1571 51.1342 5.71696 44.2041L5.70251 44.2045V16.7923L5.71696 16.7919C5.70736 16.6407 5.70251 16.4885 5.70251 16.3355C5.70251 9.16725 16.3238 4 29.1399 4Z" fill="#212121"/>
<path fill-rule="evenodd" clip-rule="evenodd" d="M54.5198 38.169C59.5967 43.2458 59.5967 51.4769 54.5198 56.5537C49.443 61.6305 41.2119 61.6305 36.1351 56.5537C31.0582 51.4769 31.0582 43.2458 36.1351 38.169C41.2119 33.0921 49.443 33.0921 54.5198 38.169ZM50.1917 40.9561C49.3891 40.9522 48.7353 41.5998 48.7314 42.4024L48.7314 42.4145L48.7532 48.6531L41.0974 40.9974C40.5082 40.4081 39.5528 40.4081 38.9635 40.9974C38.3742 41.5867 38.3742 42.5421 38.9635 43.1313L46.6193 50.7871L40.3712 50.7704C39.5713 50.7682 38.9212 51.4149 38.919 52.2148L38.9191 52.2288C38.9247 53.0387 39.5818 53.6929 40.3917 53.695L51.6914 53.7253L51.6612 42.4287C51.659 41.6176 51.0029 40.96 50.1917 40.9561Z" fill="#43494F"/>
<path d="M29.14 12.1982C29.6654 12.1982 30.1755 12.3548 30.6148 12.651C31.9925 13.5796 34.7636 15.22 37.844 15.7728C38.3764 15.8684 38.7629 16.3273 38.7629 16.8641V23.5469C38.7629 26.8382 37.1025 29.9344 33.8277 32.7496C31.9241 34.386 29.9915 35.4526 29.14 35.8855C27.1828 34.8897 19.517 30.541 19.517 23.5469V16.864C19.517 16.3272 19.9034 15.8683 20.4359 15.7727C23.5163 15.2199 26.2874 13.5795 27.665 12.6509C28.1044 12.3548 28.6145 12.1982 29.14 12.1982ZM29.1399 20.3407C27.9135 20.3407 26.9192 21.335 26.9192 22.5614C26.9192 23.5284 27.5372 24.3509 28.3998 24.6558L28.3997 26.2626C28.3997 26.6714 28.7311 27.0028 29.1399 27.0028C29.5487 27.0028 29.8802 26.6714 29.8802 26.2626L29.8808 24.6555C30.743 24.3505 31.3606 23.5281 31.3606 22.5614C31.3606 21.335 30.3664 20.3407 29.1399 20.3407Z" fill="#285AE6"/>
</svg>
