<?xml version="1.0" encoding="utf-8"?>
<!-- Generator: Adobe Illustrator 27.0.0, SVG Export Plug-In . SVG Version: 6.00 Build 0)  -->
<svg version="1.1"
	 id="svg3336" xmlns:inkscape="http://www.inkscape.org/namespaces/inkscape" xmlns:dc="http://purl.org/dc/elements/1.1/" xmlns:rdf="http://www.w3.org/1999/02/22-rdf-syntax-ns#" xmlns:sodipodi="http://sodipodi.sourceforge.net/DTD/sodipodi-0.dtd" xmlns:cc="http://creativecommons.org/ns#" xmlns:svg="http://www.w3.org/2000/svg"
	 xmlns="http://www.w3.org/2000/svg" xmlns:xlink="http://www.w3.org/1999/xlink" x="0px" y="0px" viewBox="0 0 100 23"
	 style="enable-background:new 0 0 100 23;" xml:space="preserve">
<style type="text/css">
	.st0{fill:#FFFFFF;}
</style>
<sodipodi:namedview  bordercolor="#666666" borderopacity="1" gridtolerance="10" guidetolerance="10" id="namedview9" inkscape:current-layer="svg3336" inkscape:cx="48.681217" inkscape:cy="9.7305543" inkscape:pageopacity="0" inkscape:pageshadow="2" inkscape:showpageshadow="false" inkscape:window-height="705" inkscape:window-maximized="1" inkscape:window-width="1366" inkscape:window-x="-8" inkscape:window-y="-8" inkscape:zoom="1" objecttolerance="10" pagecolor="#ffffff" showgrid="false">
	</sodipodi:namedview>
<g id="g3343" transform="matrix(0.44582193,0,0,-0.44582193,-178.93176,216.92246)">
	<path id="path3345" inkscape:connector-curvature="0" class="st0" d="M624.5,469.61l-0.65-7.75h-3.17c-5.05,0-7.68-4.05-7.68-7.93
		v-17.51h-8.96v33.19h8.48l0.19-4.14c1.78,2.84,4.9,4.14,8.74,4.14H624.5z M562.4,436.42h-8.97v17.55c0,3.67-0.32,8.3-5.49,8.3
		c-4.98,0-6.96-3.59-6.96-7.78v-18.07h-8.96v33.19h8.31l0.19-4.24c1.78,2.84,5.1,5.05,9.99,5.05c9.03,0,11.88-6.45,11.88-13.16
		V436.42z M528.12,444.17l-0.63-7.55c-2.15-0.58-4.06-0.78-6.37-0.78c-8.45,0-10.9,3.87-10.9,11.66v31.47h8.96v-9.36h8.92
		l-0.62-7.75h-8.3v-13.69c0-3.12,0.86-4.81,4.06-4.81C524.64,443.36,526.19,443.53,528.12,444.17 M507.28,469.61l-0.69-7.75h-2.44
		c-5.04,0-7.55-4.05-7.55-7.93v-17.51h-8.97v33.19h8.49l0.18-4.14c1.79,2.84,4.91,4.14,8.75,4.14L507.28,469.61z M447.18,440.1
		c-6.08-3.25-12.15-5.13-20.18-4.9c-14.87,0.45-25.6,9.69-25.6,25.29c0,15.53,10.83,25.45,25.61,25.69
		c7.49,0.11,14.19-1.79,19.43-6.41l-6.31-6.38c-3.24,2.76-8.01,4.38-13.71,4.12c-9.3-0.43-14.9-7.19-15.03-16.48
		c-0.12-10.07,6.05-17,15.7-17.26c4.54-0.11,7.79,0.5,10.61,1.76v10.29h-10.03l0.68,8.44h18.83V440.1z M600.05,449.86h-24.58
		c0.7-4.24,4.03-6.79,8.19-6.91c4.04-0.11,6.29,1.11,9.25,4.1l5.85-4.46c-4.16-5.12-9.15-6.98-14.83-6.98
		c-10,0-17.48,6.99-17.48,17.41c0,10.41,7.45,17.4,17.11,17.4c10.65,0,16.5-6.45,16.5-17.9V449.86z M591.07,456.8
		c-0.28,4.19-3.42,6.84-7.74,6.68c-4.35-0.16-7.25-3-7.85-6.68H591.07z M481.99,458.15v-21.73h-7.9l-0.2,3.27
		c-2.42-3-6.36-4.08-10.42-4.08c-6.1,0-11.87,3.01-11.99,10.02c-0.18,11.02,12.4,11.8,20.3,11.8h1.58v0.44
		c0,3.64-2.41,5.61-6.95,5.61c-3.26,0-6.48-1.31-8.85-3.54l-5.17,5.25c4.7,3.81,9.58,5.23,14.79,5.23
		C477.46,470.42,481.99,465.67,481.99,458.15 M473.37,450.89h-1.25c-4.24-0.01-11.7-0.22-11.67-4.66
		c0.04-6.25,12.92-4.27,12.92,3.27V450.89z M617.51,440.28c0,2.11,1.59,3.7,3.64,3.7c2.02,0,3.62-1.59,3.62-3.7
		c0-2.15-1.6-3.74-3.62-3.74C619.1,436.54,617.51,438.13,617.51,440.28 M621.15,435.8c2.43,0,4.51,1.89,4.51,4.48
		c0,2.56-2.08,4.45-4.51,4.45c-2.46,0-4.53-1.89-4.53-4.45C616.61,437.69,618.69,435.8,621.15,435.8 M620.2,439.92h0.9l1.36-2.23
		h0.88l-1.46,2.27c0.76,0.09,1.33,0.5,1.33,1.42c0,1.01-0.6,1.46-1.82,1.46h-1.96v-5.15h0.78L620.2,439.92z M620.2,440.59v1.59h1.06
		c0.54,0,1.12-0.12,1.12-0.76c0-0.79-0.59-0.84-1.25-0.84L620.2,440.59z"/>
</g>
</svg>
