<?xml version="1.0" encoding="utf-8"?>
<!-- Generator: Adobe Illustrator 27.0.0, SVG Export Plug-In . SVG Version: 6.00 Build 0)  -->
<svg version="1.1" id="Layer_1" xmlns="http://www.w3.org/2000/svg" xmlns:xlink="http://www.w3.org/1999/xlink" x="0px" y="0px"
	 viewBox="0 0 500 500" style="enable-background:new 0 0 500 500;" xml:space="preserve">
<style type="text/css">
	.st0{fill:#F5730D;}
	.st1{fill-rule:evenodd;clip-rule:evenodd;fill:#FFFFFF;}
</style>
<path class="st0" d="M72.9,459.62H49.39c-13-0.04-25.45-5.22-34.65-14.41c-9.19-9.19-14.37-21.65-14.41-34.65V265.43
	c0.03-13,5.22-25.45,14.41-34.65c9.19-9.19,21.65-14.37,34.65-14.41H72.9c3.96,0.03,7.91,0.53,11.75,1.48
	c10.66,2.58,20.14,8.68,26.9,17.31c6.77,8.63,10.43,19.29,10.39,30.25v145.14c-0.03,13-5.22,25.45-14.41,34.65
	C98.36,454.41,85.9,459.58,72.9,459.62z M49.39,243.4c-2.89,0-5.76,0.57-8.43,1.68c-2.67,1.1-5.1,2.73-7.15,4.77
	s-3.67,4.48-4.77,7.15c-1.11,2.67-1.68,5.54-1.68,8.43v145.14c0,2.89,0.57,5.76,1.68,8.43c1.11,2.67,2.73,5.1,4.77,7.15
	c2.05,2.04,4.48,3.67,7.15,4.77c2.67,1.11,5.54,1.68,8.43,1.68H72.9c2.89,0,5.76-0.57,8.43-1.68c2.67-1.1,5.1-2.73,7.15-4.77
	c2.05-2.05,3.67-4.48,4.77-7.15c1.11-2.67,1.68-5.54,1.68-8.43V265.43c-0.01-4.92-1.67-9.69-4.7-13.57
	c-3.04-3.87-7.28-6.61-12.06-7.79c-1.75-0.19-3.52-0.19-5.27,0L49.39,243.4z"/>
<path class="st0" d="M451.28,459.62h-23.52c-13-0.04-25.45-5.22-34.65-14.41c-9.19-9.19-14.37-21.65-14.41-34.65V265.43
	c-0.03-10.96,3.63-21.63,10.39-30.25c6.77-8.63,16.24-14.73,26.9-17.31c3.84-0.96,7.79-1.46,11.75-1.48h23.52
	c13,0.03,25.45,5.22,34.65,14.41c9.19,9.19,14.37,21.65,14.41,34.65v145.14c-0.03,13-5.22,25.45-14.41,34.65
	C476.74,454.41,464.28,459.58,451.28,459.62z M427.77,243.4c-1.75-0.19-3.52-0.19-5.27,0c-4.89,1.2-9.22,4.05-12.27,8.06
	c-3.05,4.01-4.64,8.94-4.49,13.98v145.14c0,2.89,0.57,5.76,1.68,8.43c1.11,2.67,2.73,5.1,4.77,7.15c2.05,2.04,4.48,3.67,7.15,4.77
	c2.67,1.11,5.54,1.68,8.43,1.68h23.52c5.84,0,11.44-2.32,15.58-6.45c4.13-4.13,6.45-9.74,6.45-15.58V265.43
	c0-2.89-0.57-5.76-1.68-8.43c-1.11-2.67-2.73-5.1-4.77-7.15s-4.48-3.67-7.15-4.77c-2.67-1.11-5.54-1.68-8.43-1.68L427.77,243.4
	L427.77,243.4z"/>
<path class="st0" d="M365.2,459.62H135.47c-10.75,0-21.07-4.27-28.67-11.88c-7.61-7.6-11.87-17.91-11.87-28.67V338h310.81v81.08
	c0,10.76-4.27,21.07-11.87,28.67C386.27,455.35,375.95,459.62,365.2,459.62z M121.96,365.02v54.06c0,3.59,1.42,7.03,3.96,9.56
	c2.53,2.53,5.97,3.96,9.56,3.96H365.2c3.59,0,7.02-1.42,9.56-3.96c2.53-2.53,3.96-5.97,3.96-9.56v-54.06H121.96z"/>
<path class="st0" d="M405.74,365.02H94.93v-40.54c0-17.92,7.12-35.1,19.79-47.78s29.86-19.79,47.78-19.79h175.68
	c17.92,0,35.1,7.12,47.78,19.79s19.79,29.86,19.79,47.78L405.74,365.02L405.74,365.02z M121.96,338h256.76v-13.51
	c0-10.76-4.27-21.07-11.87-28.67c-7.61-7.61-17.92-11.87-28.67-11.87H162.49c-10.75,0-21.06,4.27-28.67,11.87
	c-7.61,7.61-11.87,17.92-11.87,28.67V338z"/>
<path class="st0" d="M405.74,324.49h-27.03c0-10.76-4.27-21.07-11.87-28.67c-7.61-7.61-17.92-11.87-28.67-11.87H162.49
	c-10.75,0-21.06,4.27-28.67,11.87c-7.61,7.61-11.87,17.92-11.87,28.67H94.93v-59.06c-0.01-4.92-1.67-9.69-4.7-13.57
	c-3.04-3.87-7.28-6.61-12.06-7.79l-10.27-2.44V135.29c0-25.08,9.96-49.15,27.71-66.89s41.8-27.71,66.89-27.71h175.68
	c25.09,0,49.15,9.96,66.89,27.71c17.74,17.74,27.71,41.8,27.71,66.89v106.35l-10.27,2.44c-4.77,1.18-9.02,3.92-12.06,7.79
	c-3.04,3.87-4.69,8.65-4.7,13.57V324.49z M162.49,256.91h175.68c14.62,0,28.85,4.74,40.54,13.51v-5c-0.04-9.1,2.48-18.02,7.25-25.76
	c4.77-7.74,11.63-13.98,19.78-18.03v-86.34c0-17.92-7.12-35.1-19.79-47.78c-12.67-12.67-29.86-19.79-47.78-19.79H162.49
	c-17.92,0-35.1,7.12-47.78,19.79c-12.67,12.67-19.79,29.86-19.79,47.78v86.35c8.15,4.05,15,10.29,19.78,18.03
	c4.77,7.74,7.29,16.66,7.25,25.76v5C133.65,261.66,147.87,256.91,162.49,256.91z"/>
<path class="st1" d="M309.89,211.89h-8.71h-8.71v17.42h17.42L309.89,211.89L309.89,211.89z M208.7,115.11h-8.71h-8.71v17.42h17.42
	L208.7,115.11L208.7,115.11z"/>
<path class="st1" d="M289.24,139.42c12.92,0,20.65,8.99,20.65,23.18v41.02h-17.42v-37.36c0-6.74-2.95-11.23-8.99-11.23
	c-4.5,0-8.57,2.81-9.69,8.15v40.45h-17.56v-37.36c0-6.74-2.81-11.23-8.85-11.23c-4.5,0-8.71,2.81-9.83,8.15v40.45h-17.42v-62.78
	h17.42v5.2c3.09-3.93,8.85-6.6,15.87-6.6c7.45,0,13.34,3.37,16.85,8.01C274.35,142.93,280.39,139.42,289.24,139.42z M208.7,203.6
	h-17.42v-62.78h8.71h8.71L208.7,203.6L208.7,203.6z"/>
</svg>
