<svg width="62" height="62" viewBox="0 0 62 62" fill="none" xmlns="http://www.w3.org/2000/svg">
<path fill-rule="evenodd" clip-rule="evenodd" d="M37.8705 26.0027C38.0822 26.1153 38.2555 26.2885 38.3681 26.5003L46.6141 42.0006C46.9264 42.5878 46.7037 43.317 46.1165 43.6294C45.9423 43.722 45.7481 43.7705 45.5508 43.7705H29.0589C28.3938 43.7705 27.8546 43.2313 27.8546 42.5662C27.8546 42.3689 27.9031 42.1747 27.9957 42.0006L36.2417 26.5003C36.5541 25.9131 37.2833 25.6903 37.8705 26.0027ZM37.3049 40.1576C36.6388 40.1576 36.0989 40.6968 36.0989 41.3619C36.0989 42.027 36.6388 42.5662 37.3049 42.5662C37.9709 42.5662 38.5109 42.027 38.5109 41.3619C38.5109 40.6968 37.9709 40.1576 37.3049 40.1576ZM37.3049 31.4264C37.2837 31.4264 37.2626 31.427 37.2415 31.4282C36.6125 31.4632 36.1309 32.0015 36.1659 32.6305L36.4562 37.8495C36.4813 38.2998 36.8538 38.6522 37.3049 38.6522C37.756 38.6522 38.1285 38.2998 38.1535 37.8495L38.4439 32.6305C38.445 32.6094 38.4456 32.5883 38.4456 32.5672C38.4456 31.9371 37.9349 31.4264 37.3049 31.4264Z" fill="#212121"/>
<path d="M24.1355 23.6376C31.5169 16.2562 43.4844 16.2562 50.8658 23.6376C57.7721 30.5439 58.2166 41.4652 52.1991 48.8883L61.4172 58.1056C62.1942 58.8826 62.1942 60.1423 61.4172 60.9193C60.6402 61.6963 59.3805 61.6963 58.6035 60.9193L49.3854 51.7018C41.9624 57.7186 31.0416 57.274 24.1355 50.3679C16.7541 42.9865 16.7541 31.019 24.1355 23.6376ZM26.9492 26.4513C21.1218 32.2787 21.1218 41.7268 26.9492 47.5542C32.7766 53.3816 42.2247 53.3816 48.0521 47.5542C53.8795 41.7268 53.8795 32.2787 48.0521 26.4513C42.2247 20.6239 32.7766 20.6239 26.9492 26.4513Z" fill="#285AE6"/>
<path d="M19.3986 0L19.7798 0.00197254C30.0517 0.108347 38.5841 4.50688 38.7932 10.7093L38.7971 10.9428L38.7979 12.9528C38.4677 12.9392 38.1358 12.9324 37.8023 12.9324C36.4532 12.9324 35.1302 13.0443 33.8421 13.2593C34.4743 12.5147 34.8179 11.729 34.8179 10.9428C34.8179 7.45577 28.0579 3.97919 19.3986 3.97919C10.7392 3.97919 3.97919 7.45577 3.97919 10.9428C3.97919 14.4298 10.7392 17.9064 19.3986 17.9064C20.855 17.9064 22.2576 17.808 23.5834 17.6278C21.9343 18.8509 20.4489 20.2827 19.1654 21.8835L19.3986 21.8856C13.5042 21.8856 8.15146 20.4737 4.5692 18.1143C4.17174 18.7152 3.97919 19.3131 3.97919 19.896C3.97919 22.9355 9.11542 25.967 16.1687 26.6951C15.5937 27.9222 15.1203 29.2066 14.7591 30.5372C10.7386 30.0058 7.1827 28.7888 4.5692 27.0675C4.17174 27.6684 3.97919 28.2663 3.97919 28.8492C3.97919 31.563 8.07379 34.2705 13.9716 35.3378C13.9422 35.8239 13.9272 36.314 13.9272 36.8075C13.9272 37.6811 13.9741 38.5438 14.0656 39.3931C10.3305 38.8165 7.03157 37.6424 4.5692 36.0207C4.17174 36.6216 3.97919 37.2195 3.97919 37.8023C3.97919 40.6992 8.64469 43.5889 15.1888 44.484C15.685 45.9484 16.3204 47.3496 17.0787 48.6713C7.56802 48.0617 0 43.7301 0 37.8023V10.9428L0.00383222 10.7122C0.212988 4.43163 8.95586 0 19.3986 0Z" fill="#212121"/>
</svg>
