<svg width="62" height="62" viewBox="0 0 62 62" fill="none" xmlns="http://www.w3.org/2000/svg">
<path fill-rule="evenodd" clip-rule="evenodd" d="M33.69 2.64441C33.8137 1.68617 34.6296 0.96875 35.5958 0.96875V0.96875C36.7547 0.96875 37.6499 1.98687 37.5016 3.13623L30.2475 59.3556C30.1238 60.3138 29.3079 61.0312 28.3417 61.0312V61.0312C27.1828 61.0312 26.2876 60.0131 26.4359 58.8638L33.69 2.64441Z" fill="#212121"/>
<mask id="mask0_1492_5408" style="mask-type:alpha" maskUnits="userSpaceOnUse" x="0" y="0" width="31" height="62">
<path fill-rule="evenodd" clip-rule="evenodd" d="M0.0484428 0L30.1137 0L22.2812 62H0L0.0484428 0Z" fill="white"/>
</mask>
<g mask="url(#mask0_1492_5408)">
<rect x="17.1" y="46.1396" width="12.3645" height="6.71448" rx="3.35724" fill="#5E89FF"/>
<ellipse cx="11.409" cy="49.4967" rx="2.41558" ry="2.37463" fill="#5E89FF"/>
<ellipse cx="13.8655" cy="39.917" rx="2.74311" ry="2.70217" fill="#285AE6"/>
<ellipse cx="21.3989" cy="39.917" rx="2.74311" ry="2.70217" fill="#285AE6"/>
<ellipse cx="6.33218" cy="39.9992" rx="2.08804" ry="2.0471" fill="#5E89FF"/>
<ellipse cx="11.9822" cy="30.3358" rx="3.3163" ry="3.35724" fill="#5E89FF"/>
<ellipse cx="3.05679" cy="30.3362" rx="2.08804" ry="2.0471" fill="#5E89FF"/>
<rect x="18.41" y="26.9785" width="12.3645" height="6.71448" rx="3.35724" fill="#285AE6"/>
<rect x="8.82959" y="17.8086" width="9.90796" height="5.40434" rx="2.70217" fill="#285AE6"/>
<ellipse cx="3.46624" cy="20.5104" rx="2.41558" ry="2.37463" fill="#5E89FF"/>
<ellipse cx="24.1829" cy="20.5105" rx="2.90688" ry="2.86594" fill="#285AE6"/>
<ellipse cx="9.8532" cy="11.4205" rx="2.41558" ry="2.37463" fill="#5E89FF"/>
<rect x="15.7898" y="8.71875" width="9.90796" height="5.40434" rx="2.70217" fill="#5E89FF"/>
</g>
<path fill-rule="evenodd" clip-rule="evenodd" d="M41.9636 7.9502L41.4036 12.4767C41.4541 12.4754 41.5048 12.4748 41.5556 12.4748C44.8702 12.4748 47.565 15.1685 47.565 18.4817C47.565 19.5893 47.2646 20.6311 46.7387 21.5228C47.011 21.4946 47.2927 21.4852 47.565 21.4852C52.5416 21.4852 56.5792 25.5211 56.5792 30.4957C56.5792 32.2432 56.0809 33.8749 55.2187 35.2565V41.55C58.731 39.1102 61.0312 35.0482 61.0312 30.4515C61.0312 24.655 57.3524 19.59 51.9937 17.7047C51.6285 12.4127 47.3291 8.17684 41.9636 7.9502ZM35.9996 56.1572C36.4273 56.1775 36.86 56.1878 37.2968 56.1878C44.462 56.1878 50.5221 53.4174 51.2668 49.4065H51.3437V48.5689V41.7876V34.8753C51.3437 30.8003 46.1807 27.7905 39.5794 27.2223L39.2329 30.0229C44.5464 30.4635 48.4623 32.6664 48.4623 34.8753H48.4374V35.1812C48.0708 37.4481 43.687 39.6228 38.0238 39.796L37.6741 42.6226C41.6244 42.5679 45.2122 41.6554 47.72 40.1502C48.1283 40.5997 48.3642 41.0499 48.4374 41.4901V42.0884C48.0553 44.4114 43.308 46.636 37.2968 46.636C37.257 46.636 37.2173 46.6359 37.1776 46.6357L36.8353 49.4027C36.9886 49.4052 37.1424 49.4065 37.2968 49.4065C41.4085 49.4065 45.1563 48.4942 47.7446 46.9588C48.1377 47.3992 48.3657 47.8401 48.4374 48.2713V48.8697C48.0553 51.1926 43.308 53.4172 37.2968 53.4172C36.9744 53.4172 36.6556 53.4108 36.3409 53.3984L35.9996 56.1572Z" fill="#212121"/>
</svg>
