<svg width="56" height="57" viewBox="0 0 56 57" fill="none" xmlns="http://www.w3.org/2000/svg">
<path fill-rule="evenodd" clip-rule="evenodd" d="M30.2968 2.40029C30.4055 1.53774 31.139 0.890808 32.0084 0.890808C33.0466 0.890808 33.8496 1.8013 33.7199 2.83142L27.1997 54.6001C27.0911 55.4626 26.3575 56.1096 25.4882 56.1096C24.4499 56.1096 23.6469 55.1991 23.7766 54.1689L30.2968 2.40029Z" fill="white"/>
<mask id="mask0_242_6653" style="mask-type:alpha" maskUnits="userSpaceOnUse" x="0" y="0" width="28" height="57">
<path fill-rule="evenodd" clip-rule="evenodd" d="M0.10292 0L27.083 0L20.0543 57H0.0594482L0.10292 0Z" fill="white"/>
</mask>
<g mask="url(#mask0_242_6653)">
<rect x="15.4052" y="42.4193" width="11.0957" height="6.17299" rx="3.0865" fill="#F9E5AE"/>
<ellipse cx="10.2979" cy="45.5059" rx="2.1677" ry="2.18313" fill="#F9E5AE"/>
<ellipse cx="12.501" cy="36.6979" rx="2.46162" ry="2.48425" fill="#F9C737"/>
<ellipse cx="19.2618" cy="36.6979" rx="2.46162" ry="2.48425" fill="#F9C737"/>
<ellipse cx="5.74133" cy="36.7729" rx="1.87377" ry="1.88201" fill="#F9E5AE"/>
<ellipse cx="10.8107" cy="27.8895" rx="2.97599" ry="3.0865" fill="#F9E5AE"/>
<ellipse cx="2.80138" cy="27.8892" rx="1.87377" ry="1.88201" fill="#F9E5AE"/>
<rect x="16.5795" y="24.803" width="11.0957" height="6.17299" rx="3.0865" fill="#F9C737"/>
<rect x="7.98242" y="16.3722" width="8.89123" height="4.96851" rx="2.48425" fill="#F9C737"/>
<ellipse cx="3.16953" cy="18.8564" rx="2.1677" ry="2.18313" fill="#F9E5AE"/>
<ellipse cx="21.7603" cy="18.8564" rx="2.60858" ry="2.63481" fill="#F9C737"/>
<ellipse cx="8.90097" cy="10.5001" rx="2.1677" ry="2.18313" fill="#F9E5AE"/>
<rect x="14.2284" y="8.01587" width="8.89123" height="4.96851" rx="2.48425" fill="#F9E5AE"/>
</g>
<mask id="mask1_242_6653" style="mask-type:alpha" maskUnits="userSpaceOnUse" x="0" y="0" width="56" height="57">
<path fill-rule="evenodd" clip-rule="evenodd" d="M0 0H55.5643V56.9247H0V0ZM0 0H37.3285L30.1619 56.9247H0V0Z" fill="white"/>
</mask>
<g mask="url(#mask1_242_6653)">
<path d="M35.8273 12.2781C35.8788 12.3351 35.9543 12.3642 36.0307 12.3566L36.1361 12.3461C36.275 12.3347 36.4141 12.3262 36.5533 12.3205L36.9712 12.3119C42.0121 12.3119 46.2491 15.8953 47.183 20.6926L47.2107 20.8473L47.2793 20.8777C51.7436 22.9049 54.7119 27.3124 54.8244 32.2803L54.8277 32.5731C54.8277 39.5818 49.1963 45.2741 42.2113 45.4189L41.9385 45.4217H33.0989C32.3526 45.4217 31.7476 44.8019 31.7476 44.0373C31.7476 43.9208 31.7619 43.8049 31.7902 43.6921C32.0461 42.674 32.9421 41.9625 33.9682 41.9625H41.9385C47.1685 41.9625 51.402 37.7507 51.402 32.5731C51.402 28.6669 48.9711 25.1925 45.3243 23.8032L45.0794 23.7137L44.0109 23.3395L43.932 22.2004C43.6824 18.5998 40.6536 15.7711 36.9712 15.7711C36.5982 15.7711 36.224 15.802 35.8515 15.863L35.5725 15.9143L35.3601 15.9577" fill="white"/>
</g>
</svg>
