<svg width="60" height="60" viewBox="0 0 60 60" fill="none" xmlns="http://www.w3.org/2000/svg">
<path fill-rule="evenodd" clip-rule="evenodd" d="M59.0592 8.89679C58.942 4.52214 55.6808 0.9375 51.5625 0.9375H8.4375L8.2096 0.94117C4.12385 1.07298 0.9375 4.73767 0.9375 9.14062V41.4844L0.940764 41.7282C1.05799 46.1029 4.31922 49.6875 8.4375 49.6875H27.1875C28.223 49.6875 29.0625 48.848 29.0625 47.8125C29.0625 46.777 28.223 45.9375 27.1875 45.9375H8.4375L8.26017 45.9325C6.3185 45.8224 4.6875 43.9161 4.6875 41.4844V18.75H55.3125V24.375C55.3125 25.4105 56.152 26.25 57.1875 26.25C58.223 26.25 59.0625 25.4105 59.0625 24.375V9.14062L59.0592 8.89679ZM8.4375 4.6875H51.5625C53.5812 4.6875 55.3125 6.63526 55.3125 9.14062V15H4.6875V9.14062L4.69196 8.92105C4.78959 6.52237 6.47821 4.6875 8.4375 4.6875ZM42.1875 8.4375C43.223 8.4375 44.0625 9.27697 44.0625 10.3125C44.0625 11.348 43.223 12.1875 42.1875 12.1875C41.152 12.1875 40.3125 11.348 40.3125 10.3125C40.3125 9.27697 41.152 8.4375 42.1875 8.4375ZM51.5625 10.3125C51.5625 9.27697 50.723 8.4375 49.6875 8.4375C48.652 8.4375 47.8125 9.27697 47.8125 10.3125C47.8125 11.348 48.652 12.1875 49.6875 12.1875C50.723 12.1875 51.5625 11.348 51.5625 10.3125Z" fill="white"/>
<path d="M50.8564 52.8159L52.8121 55.0908L50.8564 52.8159C49.428 54.0439 47.9749 54.9955 46.876 55.6409C45.5285 54.8483 43.6524 53.5967 41.9352 51.9393C39.4812 49.5707 37.6875 46.7088 37.6875 43.4356V36.2629C41.645 35.2823 45.0037 33.256 46.6838 32.1235C46.7493 32.0794 46.8123 32.0625 46.875 32.0625C46.9377 32.0625 47.0006 32.0794 47.066 32.1234L47.0662 32.1236C48.7464 33.2561 52.105 35.2824 56.0625 36.263V43.4355C56.0625 46.476 54.5613 49.631 50.8564 52.8159Z" stroke="#A560FF" stroke-width="6"/>
</svg>
