<svg width="62" height="61" viewBox="0 0 62 61" fill="none" xmlns="http://www.w3.org/2000/svg">
<path d="M24.1355 22.6435C31.5168 15.2621 43.4844 15.2621 50.8658 22.6435C57.7722 29.5498 58.2166 40.4711 52.1991 47.8942L61.4172 57.1115C62.1942 57.8885 62.1942 59.1483 61.4172 59.9252C60.6403 60.7022 59.3805 60.7022 58.6035 59.9252L49.3854 50.7078C41.9623 56.7246 31.0416 56.2799 24.1355 49.3738C16.7541 41.9924 16.7541 30.0248 24.1355 22.6435ZM26.9492 25.4572C21.1218 31.2846 21.1218 40.7327 26.9492 46.5601C32.7766 52.3875 42.2247 52.3875 48.0521 46.5601C53.8795 40.7327 53.8795 31.2846 48.0521 25.4572C42.2247 19.6298 32.7766 19.6298 26.9492 25.4572Z" fill="#285AE6"/>
<path d="M35.5797 39.8249L31.7976 36.3524C31.228 35.8294 30.3446 35.8585 29.8106 36.4178C29.2899 36.9632 29.3099 37.8275 29.8554 38.3482C29.8618 38.3544 29.8682 38.3604 29.8748 38.3664L35.761 43.7708L45.8173 32.7118C46.3256 32.1528 46.2845 31.2877 45.7255 30.7794C45.719 30.7735 45.7124 30.7676 45.7058 30.7618C45.1227 30.2518 44.2387 30.3024 43.7176 30.8755L35.5797 39.8249Z" fill="#212121"/>
<path d="M19.3986 0L19.7799 0.00179323C30.0485 0.0984671 38.5788 4.09464 38.7931 9.73044L38.7972 9.948L38.798 11.958C38.4678 11.9444 38.1359 11.9376 37.8024 11.9376C36.3648 11.9376 34.9569 12.0647 33.5892 12.3082C34.3822 11.5571 34.818 10.7529 34.818 9.948C34.818 6.77799 28.058 3.61746 19.3986 3.61746C10.7392 3.61746 3.9792 6.77799 3.9792 9.948C3.9792 13.118 10.7392 16.2785 19.3986 16.2785C21.2588 16.2785 23.0314 16.1327 24.6681 15.8722C22.9464 17.0083 21.3815 18.3607 20.0111 19.891C19.8082 19.8945 19.6037 19.896 19.3986 19.896C13.6868 19.896 8.48358 18.6907 4.90713 16.6644C4.28089 17.4185 3.9792 18.1717 3.9792 18.9012C3.9792 21.9407 9.11544 24.9723 16.1688 25.7003C15.5937 26.9275 15.1203 28.2119 14.7591 29.5424C10.7386 29.0111 7.18272 27.794 4.56921 26.0727C4.17175 26.6736 3.9792 27.2716 3.9792 27.8544C3.9792 30.5683 8.07381 33.2758 13.9717 34.343C13.9422 34.8292 13.9272 35.3193 13.9272 35.8128C13.9272 36.6864 13.9741 37.5491 14.0656 38.3984C10.3305 37.8218 7.03158 36.6477 4.56921 35.0259C4.17175 35.6268 3.9792 36.2248 3.9792 36.8076C3.9792 39.7045 8.6447 42.5941 15.1888 43.4893C15.685 44.9537 16.3205 46.3549 17.0788 47.6766C7.56804 47.067 0 42.7354 0 36.8076C0 36.4723 0.0248833 36.1406 0.0737829 35.8133L0 35.8128V9.948L0.00402348 9.73321C0.218254 4.02633 8.95902 0 19.3986 0Z" fill="#212121"/>
</svg>
