<svg width="63" height="53" viewBox="0 0 63 53" fill="none" xmlns="http://www.w3.org/2000/svg">
<path fill-rule="evenodd" clip-rule="evenodd" d="M61.0279 9.19335C60.9067 4.67288 57.5368 0.96875 53.2812 0.96875H8.71875L8.48326 0.972542C4.26131 1.10874 0.96875 4.8956 0.96875 9.44531V42.8672L0.972122 43.1191C1.09326 47.6396 4.46319 51.3438 8.71875 51.3438H28.0938C29.1638 51.3438 30.0312 50.4763 30.0312 49.4062C30.0312 48.3362 29.1638 47.4688 28.0938 47.4688H8.71875L8.5355 47.4636C6.52911 47.3499 4.84375 45.3799 4.84375 42.8672V19.375H57.1562V30.5625C57.1562 31.6326 58.0237 32.5 59.0938 32.5C60.1638 32.5 61.0312 31.6326 61.0312 30.5625V9.44531L61.0279 9.19335ZM8.71875 4.84375H53.2812C55.3672 4.84375 57.1562 6.85643 57.1562 9.44531V15.5H4.84375V9.44531L4.84835 9.21841C4.94925 6.73978 6.69415 4.84375 8.71875 4.84375ZM43.5938 8.71875C44.6638 8.71875 45.5312 9.5862 45.5312 10.6562C45.5312 11.7263 44.6638 12.5938 43.5938 12.5938C42.5237 12.5938 41.6562 11.7263 41.6562 10.6562C41.6562 9.5862 42.5237 8.71875 43.5938 8.71875ZM53.2812 10.6562C53.2812 9.5862 52.4138 8.71875 51.3438 8.71875C50.2737 8.71875 49.4062 9.5862 49.4062 10.6562C49.4062 11.7263 50.2737 12.5938 51.3438 12.5938C52.4138 12.5938 53.2812 11.7263 53.2812 10.6562Z" fill="white"/>
<path d="M59.4318 38.7489C60.2873 37.6625 59.7638 37.0532 58.6562 37.8454C55.0312 40.438 49.5274 44.4489 47.9035 46.0392C47.8808 46.0614 47.8595 46.0834 47.837 46.1054C47.7961 46.1035 47.7552 46.1015 47.7138 46.101C45.9755 46.0828 44.5515 47.4771 44.5332 49.2155C44.5149 50.9538 45.9093 52.3779 47.6476 52.3962C49.386 52.4144 50.81 51.0201 50.8283 49.2817C50.8289 49.2249 50.8277 49.1684 50.8254 49.1122C50.8406 49.0977 50.8552 49.0837 50.8703 49.0689C52.4847 47.4882 56.6835 42.2386 59.4318 38.7489Z" fill="white"/>
<path d="M43.5 34.6895C50.3 32.6895 55.8333 35.4956 57.5 37.3289L53.5 40.3289C52 39.3289 47.7357 38.229 44.1357 39.829C39.9493 41.6896 38.4553 45.1896 38.1747 48.329C37.9254 51.1179 36.9321 51.829 35.5 51.829C34.0679 51.829 33 51.129 33 48.329C33 44.829 35 37.1895 43.5 34.6895Z" fill="#F5730D"/>
<path d="M60 39.829L56.5 44C57 44.5 58 46.5 58 48.329C58 50.729 59 51.6896 60.5 51.6896C62 51.6896 63 51 63 48.829C63 45.6041 61.1667 41.4957 60 39.829Z" fill="#F5730D"/>
</svg>
