<svg width="62" height="63" viewBox="0 0 62 63" fill="none" xmlns="http://www.w3.org/2000/svg">
<path fill-rule="evenodd" clip-rule="evenodd" d="M34.2249 2.68664C34.3505 1.71318 35.1794 0.984375 36.1609 0.984375V0.984375C37.3382 0.984375 38.2476 2.01866 38.0969 3.18625L30.7277 60.298C30.6021 61.2714 29.7732 62.0002 28.7917 62.0002V62.0002C27.6144 62.0002 26.705 60.966 26.8556 59.7984L34.2249 2.68664Z" fill="white"/>
<mask id="mask0_1551_6370" style="mask-type:alpha" maskUnits="userSpaceOnUse" x="0" y="0" width="31" height="63">
<path fill-rule="evenodd" clip-rule="evenodd" d="M0.0493338 0L30.5918 0L22.635 62.9841H0.00012207L0.0493338 0Z" fill="white"/>
</mask>
<g mask="url(#mask0_1551_6370)">
<rect x="17.3715" y="46.8721" width="12.5607" height="6.82106" rx="3.41053" fill="#5E89FF"/>
<ellipse cx="11.5901" cy="50.2824" rx="2.45392" ry="2.41233" fill="#5E89FF"/>
<ellipse cx="14.0856" cy="40.5507" rx="2.78665" ry="2.74506" fill="#285AE6"/>
<ellipse cx="21.7386" cy="40.5507" rx="2.78665" ry="2.74506" fill="#285AE6"/>
<ellipse cx="6.43271" cy="40.6343" rx="2.12118" ry="2.07959" fill="#5E89FF"/>
<ellipse cx="12.1725" cy="30.8178" rx="3.36894" ry="3.41053" fill="#5E89FF"/>
<ellipse cx="3.10544" cy="30.8179" rx="2.12118" ry="2.07959" fill="#5E89FF"/>
<rect x="18.7024" y="27.4072" width="12.5607" height="6.82106" rx="3.41053" fill="#285AE6"/>
<rect x="8.96985" y="18.0908" width="10.0652" height="5.49012" rx="2.74506" fill="#285AE6"/>
<ellipse cx="3.5213" cy="20.8362" rx="2.45392" ry="2.41233" fill="#5E89FF"/>
<ellipse cx="24.5668" cy="20.8362" rx="2.95302" ry="2.91143" fill="#285AE6"/>
<ellipse cx="10.0097" cy="11.6028" rx="2.45392" ry="2.41233" fill="#5E89FF"/>
<rect x="16.0405" y="8.85742" width="10.0652" height="5.49012" rx="2.74506" fill="#5E89FF"/>
</g>
<path fill-rule="evenodd" clip-rule="evenodd" d="M36.5713 57.0484C37.0057 57.0689 37.4453 57.0794 37.8891 57.0794C45.168 57.0794 51.3243 54.2651 52.0808 50.1905H52.1589V49.3396V42.4507V35.4286L52.1589 35.4286C52.1589 31.289 46.914 28.2314 40.2078 27.6542L39.8559 30.4993C45.2537 30.9468 49.2318 33.1847 49.2318 35.4286H49.2065V35.7396C48.8341 38.0423 44.3806 40.2516 38.6276 40.4275L38.2723 43.299C42.2853 43.2434 45.9301 42.3163 48.4777 40.7873C48.8924 41.2439 49.1321 41.7013 49.2065 42.1484V42.7563C48.8183 45.1161 43.9957 47.376 37.8891 47.376C37.8487 47.376 37.8083 47.3759 37.768 47.3757L37.4202 50.1866C37.5759 50.1892 37.7323 50.1905 37.8891 50.1905C42.0661 50.1905 45.8733 49.2638 48.5027 47.7039C48.9021 48.1513 49.1336 48.5992 49.2065 49.0373V49.6452C48.8183 52.005 43.9957 54.2649 37.8891 54.2649C37.5615 54.2649 37.2377 54.2584 36.918 54.2458L36.5713 57.0484ZM42.63 8.07617L42.0611 12.6745C42.1123 12.6732 42.1638 12.6726 42.2153 12.6726C45.5826 12.6726 48.3202 15.4091 48.3202 18.7749C48.3202 19.9 48.015 20.9584 47.4808 21.8642C47.7574 21.8356 48.0436 21.826 48.3202 21.826C53.3758 21.826 57.4775 25.926 57.4775 30.9795C57.4775 32.7548 56.9713 34.4123 56.0954 35.8159V42.2093C59.6634 39.7308 62.0002 35.6043 62.0002 30.9347C62.0002 25.0461 58.2629 19.9008 52.8192 17.9856C52.4482 12.6095 48.0806 8.30641 42.63 8.07617Z" fill="white"/>
</svg>
