<svg width="62" height="62" viewBox="0 0 62 62" fill="none" xmlns="http://www.w3.org/2000/svg">
<line x1="54" y1="52" x2="14" y2="52" stroke="#279C6F" stroke-width="2" stroke-linecap="round"/>
<path d="M53 52L53 53L55 53L55 52L53 52ZM55 9C55 8.44772 54.5523 8 54 8C53.4477 8 53 8.44772 53 9L55 9ZM55 52L55 9L53 9L53 52L55 52Z" fill="#279C6F"/>
<path fill-rule="evenodd" clip-rule="evenodd" d="M12 3C7.58172 3 4 6.58172 4 11V52V53C4 57.4183 7.58172 61 12 61H12.9988C12.9992 61 12.9996 61 13 61L58.9961 61L59 61L59.0039 61H61V59.0039L61 59L61 57V10C61 8.89543 60.1046 8 59 8C57.8954 8 57 8.89543 57 10L57 57L13 57C12.9997 57 12.9994 57 12.9991 57C10.2381 56.9995 8 54.7611 8 52C8 49.2386 10.2386 47 13 47H47H51L51 7V3H47H12ZM8 44.5155C9.4301 43.5583 11.1499 43 13 43L47 43V7H12C9.79086 7 8 8.79086 8 11L8 44.5155Z" fill="#212121"/>
<path d="M27.0948 11.625C27.675 11.625 28.2382 11.7979 28.7233 12.125C30.2446 13.1503 33.3046 14.9617 36.706 15.5722C37.2939 15.6777 37.7207 16.1844 37.7207 16.7772V24.1565C37.7207 27.7909 35.8873 31.2098 32.2711 34.3184C30.1691 36.1254 28.035 37.3032 27.0948 37.7812C24.9337 36.6816 16.4688 31.8796 16.4688 24.1566V16.7771C16.4688 16.1844 16.8955 15.6776 17.4834 15.5721C20.8849 14.9616 23.9449 13.1502 25.4661 12.1249C25.9513 11.7979 26.5145 11.625 27.0948 11.625ZM27.0947 20.6162C25.7404 20.6162 24.6426 21.7141 24.6426 23.0684C24.6426 24.1361 25.325 25.0444 26.2774 25.381L26.2773 27.1553C26.2773 27.6067 26.6433 27.9727 27.0947 27.9727C27.5462 27.9727 27.9121 27.6067 27.9121 27.1553L27.9128 25.3807C28.8649 25.0439 29.5469 24.1358 29.5469 23.0684C29.5469 21.7141 28.449 20.6162 27.0947 20.6162Z" fill="#5FC29B"/>
</svg>
