<svg width="62" height="64" viewBox="0 0 62 64" fill="none" xmlns="http://www.w3.org/2000/svg">
<path fill-rule="evenodd" clip-rule="evenodd" d="M34.2663 2.68967C34.392 1.71504 35.2219 0.985352 36.2046 0.985352C37.3834 0.985352 38.2939 2.02089 38.143 3.1899L30.7648 60.3708C30.6391 61.3455 29.8092 62.0752 28.8265 62.0752C27.6478 62.0752 26.7373 61.0396 26.8881 59.8706L34.2663 2.68967Z" fill="white"/>
<mask id="mask0_1543_4151" style="mask-type:alpha" maskUnits="userSpaceOnUse" x="0" y="0" width="31" height="64">
<path d="M0.0492714 0L30.6288 0L22.6624 63.0605H0L0.0492714 0Z" fill="white"/>
</mask>
<g mask="url(#mask0_1543_4151)">
<path d="M27.5389 46.9287H21.7922C19.9064 46.9287 18.3776 48.4575 18.3776 50.3434C18.3776 52.2292 19.9064 53.758 21.7922 53.758H27.5389C29.4247 53.758 30.9535 52.2292 30.9535 50.3434C30.9535 48.4575 29.4247 46.9287 27.5389 46.9287Z" fill="#C294FF"/>
<path d="M12.5893 52.7582C13.9462 52.7582 15.0462 51.6769 15.0462 50.343C15.0462 49.0091 13.9462 47.9277 12.5893 47.9277C11.2324 47.9277 10.1324 49.0091 10.1324 50.343C10.1324 51.6769 11.2324 52.7582 12.5893 52.7582Z" fill="#C294FF"/>
<path d="M15.0879 43.3483C16.6288 43.3483 17.8779 42.1178 17.8779 40.6C17.8779 39.0821 16.6288 37.8516 15.0879 37.8516C13.547 37.8516 12.2979 39.0821 12.2979 40.6C12.2979 42.1178 13.547 43.3483 15.0879 43.3483Z" fill="#A560FF"/>
<path d="M22.7501 43.3483C24.291 43.3483 25.5401 42.1178 25.5401 40.6C25.5401 39.0821 24.291 37.8516 22.7501 37.8516C21.2092 37.8516 19.9601 39.0821 19.9601 40.6C19.9601 42.1178 21.2092 43.3483 22.7501 43.3483Z" fill="#A560FF"/>
<path d="M7.42576 42.7658C8.59867 42.7658 9.54951 41.8336 9.54951 40.6837C9.54951 39.5338 8.59867 38.6016 7.42576 38.6016C6.25284 38.6016 5.302 39.5338 5.302 40.6837C5.302 41.8336 6.25284 42.7658 7.42576 42.7658Z" fill="#C294FF"/>
<path d="M13.1723 34.2698C15.0352 34.2698 16.5454 32.741 16.5454 30.8551C16.5454 28.9692 15.0352 27.4404 13.1723 27.4404C11.3095 27.4404 9.79932 28.9692 9.79932 30.8551C9.79932 32.741 11.3095 34.2698 13.1723 34.2698Z" fill="#C294FF"/>
<path d="M4.09434 32.9367C5.26725 32.9367 6.21809 32.0045 6.21809 30.8546C6.21809 29.7047 5.26725 28.7725 4.09434 28.7725C2.92142 28.7725 1.97058 29.7047 1.97058 30.8546C1.97058 32.0045 2.92142 32.9367 4.09434 32.9367Z" fill="#C294FF"/>
<path d="M28.8715 27.4404H23.1249C21.239 27.4404 19.7102 28.9692 19.7102 30.8551C19.7102 32.741 21.239 34.2698 23.1249 34.2698H28.8715C30.7574 34.2698 32.2862 32.741 32.2862 30.8551C32.2862 28.9692 30.7574 27.4404 28.8715 27.4404Z" fill="#A560FF"/>
<path d="M17.2949 18.1133H12.7142C11.1963 18.1133 9.96582 19.3438 9.96582 20.8617C9.96582 22.3796 11.1963 23.6101 12.7142 23.6101H17.2949C18.8127 23.6101 20.0432 22.3796 20.0432 20.8617C20.0432 19.3438 18.8127 18.1133 17.2949 18.1133Z" fill="#A560FF"/>
<path d="M4.51073 23.2768C5.86763 23.2768 6.96762 22.1954 6.96762 20.8615C6.96762 19.5276 5.86763 18.4463 4.51073 18.4463C3.15382 18.4463 2.05383 19.5276 2.05383 20.8615C2.05383 22.1954 3.15382 23.2768 4.51073 23.2768Z" fill="#C294FF"/>
<path d="M25.5816 23.7762C27.2145 23.7762 28.5382 22.4711 28.5382 20.8612C28.5382 19.2514 27.2145 17.9463 25.5816 17.9463C23.9487 17.9463 22.625 19.2514 22.625 20.8612C22.625 22.4711 23.9487 23.7762 25.5816 23.7762Z" fill="#A560FF"/>
<path d="M11.0069 14.0317C12.3638 14.0317 13.4638 12.9503 13.4638 11.6164C13.4638 10.2825 12.3638 9.20117 11.0069 9.20117C9.65004 9.20117 8.55005 10.2825 8.55005 11.6164C8.55005 12.9503 9.65004 14.0317 11.0069 14.0317Z" fill="#C294FF"/>
<path d="M24.3742 8.86816H19.7936C18.2757 8.86816 17.0452 10.0987 17.0452 11.6166C17.0452 13.1344 18.2757 14.3649 19.7936 14.3649H24.3742C25.8921 14.3649 27.1226 13.1344 27.1226 11.6166C27.1226 10.0987 25.8921 8.86816 24.3742 8.86816Z" fill="#C294FF"/>
</g>
<path d="M42.4802 8.86816C42.8756 8.86816 43.2215 9.1344 43.3227 9.51669L44.2415 12.9874C45.93 13.4328 47.5273 14.1026 48.9996 14.9631L52.0328 13.1996C52.3747 13.0009 52.8075 13.0572 53.0871 13.3369L57.5313 17.781C57.8109 18.0607 57.8673 18.4935 57.6685 18.8354L55.9051 21.8686C56.7654 23.3406 57.4351 24.9376 57.8805 26.6257L61.3515 27.5454C61.7338 27.6466 62 27.9926 62 28.388V34.673C62 35.0685 61.7338 35.4144 61.3515 35.5156L57.8805 36.4353C57.4371 38.1159 56.7714 39.7061 55.9166 41.1726L57.7217 44.2788C57.9204 44.6207 57.8641 45.0535 57.5844 45.3331L53.1403 49.7773C52.8606 50.0569 52.4278 50.1133 52.0859 49.9145L48.9798 48.1095C47.5069 48.9679 45.9093 49.6357 44.2208 50.079L43.3227 53.4692C43.2215 53.8515 42.8756 54.1177 42.4802 54.1177H36.1952C36.0381 54.1177 35.8889 54.0758 35.7598 54.0012L36.7352 47.0729L37.3062 47.223L38.2077 50.6309H40.4671L41.3707 47.2227L43.3354 46.7068C44.5497 46.388 45.7169 45.9243 46.8154 45.3273L47.2241 45.0973L48.9772 44.0755L52.0978 45.8886L53.696 44.2904L51.8827 41.17L52.9044 39.417C53.5317 38.3407 54.0285 37.1935 54.383 35.997L54.5093 35.546L55.0267 33.5847L58.5132 32.6597V30.3994L55.0267 29.4763L54.5093 27.515C54.189 26.301 53.7239 25.1343 53.1256 24.0363L52.895 23.6279L51.8695 21.8732L53.6418 18.8219L52.0446 17.2247L48.995 18.9987L47.2403 17.9732C46.1597 17.3417 45.0075 16.8418 43.8054 16.4855L43.3523 16.3587L41.3903 15.8412L41.2174 15.19L42.1071 8.86816H42.4802ZM48.9256 31.5305C48.9256 36.8258 44.6329 41.1184 39.3377 41.1184C38.7425 41.1184 38.16 41.0642 37.5948 40.9604L38.0806 37.5023C38.4862 37.5872 38.9067 37.6319 39.3377 37.6319C42.7074 37.6319 45.4391 34.9002 45.4391 31.5305C45.4391 28.3082 42.9412 25.6694 39.7761 25.4446L40.2624 21.9866C45.1238 22.4519 48.9256 26.5472 48.9256 31.5305Z" fill="white"/>
</svg>
