<?xml version="1.0" encoding="utf-8"?>
<!-- Generator: Adobe Illustrator 27.0.0, SVG Export Plug-In . SVG Version: 6.00 Build 0)  -->
<svg version="1.1" id="Layer_1" xmlns="http://www.w3.org/2000/svg" xmlns:xlink="http://www.w3.org/1999/xlink" x="0px" y="0px"
	 viewBox="0 0 2000 400" style="enable-background:new 0 0 2000 400;" xml:space="preserve">
<style type="text/css">
	.st0{fill:#FFFFFF;}
</style>
<g>
	<g>
		<g>
			<path class="st0" d="M1968.76,190.71c-17.28,0-31.24-13.96-31.24-31.24s13.96-31.24,31.24-31.24c17.28,0,31.24,13.96,31.24,31.24
				C2000.13,176.63,1986.04,190.71,1968.76,190.71z M1968.76,131.3c-15.24,0-27.66,12.8-27.66,28.04
				c0,15.24,12.42,28.04,27.66,28.04c15.24,0,27.66-12.8,27.66-28.04C1996.41,144.11,1983.99,131.3,1968.76,131.3z M1977.08,175.86
				l-8.58-14.08h-5.76v14.08h-3.84v-33.8h11.01c5.76,0,10.75,4.23,10.75,9.99c0,4.99-3.33,8.19-7.81,9.47l8.71,14.47h-4.48V175.86z
				 M1969.53,145.77h-6.79v12.29h6.79c4.1,0,7.3-2.43,7.3-6.15C1976.83,148.21,1973.75,145.77,1969.53,145.77z"/>
		</g>
		<path class="st0" d="M1520.52,128.87c-1.02,0-1.41,0.38-10.88,0.77c-9.73,0.38-28.04,0.77-65.3,0.77h-17.28h-10.5h-17.28
			c-37.13,0-55.57-0.38-65.3-0.77c-9.35-0.38-9.73-0.77-10.88-0.77c-4.35,0-4.35,2.94-4.35,11.14v33.16c0,1.79,0,6.15,3.58,6.15
			c3.97,0,4.74-1.41,11.14-14.72c4.23-9.22,12.8-22.66,61.84-23.05c5.12,0.13,7.3,1.28,7.3,9.35v167.72c0,14.08,0,23.81-18.05,24.84
			c-7.55,0.77-12.55,1.02-12.55,6.15c0,5.38,4.61,5.38,7.55,5.38c6.91,0,36.11-1.41,42.12-1.41c11.91,0,30.73,1.41,42.51,1.41
			c2.94,0,7.55,0,7.55-5.38s-4.99-5.76-12.68-6.15c-18.05-1.02-18.05-10.88-18.05-25.61V153.45c0-9.35,1.15-11.39,11.65-11.78
			c44.94,1.15,53.01,14.08,57.1,22.92c6.53,13.32,7.17,14.72,11.14,14.72c3.58,0,3.58-4.35,3.58-6.15v-33.16
			C1524.87,131.69,1524.87,128.87,1520.52,128.87z"/>
		<path class="st0" d="M1130.79,297.62c-3.2,0-3.97,1.41-10.5,14.08c-15.88,30.73-38.15,30.73-54.03,30.73
			c-30.34,0-37.9-3.97-37.9-29.58v-61.97c0-10.75,2.82-10.75,20.1-10.75c29.58,0,39.69,0.38,47.24,28.17
			c1.79,6.91,3.97,8.71,6.79,8.71c4.35,0,4.35-4.99,4.35-7.17c0-2.94-1.02-15.49-1.02-18.05c0-7.94,2.56-45.07,2.56-50.06
			c0-3.97-1.79-5.12-3.97-5.12c-1.79,0-3.58,0.77-5.38,5.38c-6.53,19.08-9.73,27.01-49.8,27.01c-20.87,0-20.87-2.94-20.87-14.47
			v-52.24c0-18.05,1.41-20.49,19.46-20.49c51.21,0,59.92,13.7,64.14,23.05c6.53,13.32,7.17,14.72,11.14,14.72
			c3.58,0,3.58-4.35,3.58-6.15v-33.16c0-8.32,0-11.14-4.35-11.14c-1.02,0-1.41,0.38-10.75,0.77c-9.73,0.38-28.17,0.77-65.3,0.77
			H1029c-30.73,0-46.22-0.38-54.16-0.77c-7.94-0.38-8.32-0.77-9.09-0.77c-2.56,0-7.17,0-7.17,5.12c0,5.38,5.12,5.76,12.93,6.15
			c18.05,1.15,18.05,10.75,18.05,25.61v152.23c0,14.72,0,24.58-18.05,25.61c-7.55,0.77-12.93,1.02-12.93,6.15
			c0,5.38,4.74,5.38,7.55,5.38c2.56,0,5.38-0.38,11.14-0.77c5.76-0.38,14.72-0.77,29.58-0.77h4.35c2.18,0,19.08,0.38,39.69,0.77
			c20.87,0.38,46.09,0.77,64.53,0.77c10.5,0,14.08-3.97,14.47-10.88c1.15-13.32,5.12-36.49,5.12-41.1
			C1135.01,300.95,1133.99,297.62,1130.79,297.62z"/>
		<path class="st0" d="M1719.35,297.62c-3.2,0-3.97,1.41-10.5,14.08c-15.88,30.73-38.15,30.73-54.03,30.73
			c-30.34,0-37.9-3.97-37.9-29.58v-61.97c0-10.75,2.82-10.75,20.1-10.75c29.58,0,39.69,0.38,47.24,28.17
			c1.79,6.91,3.97,8.71,6.79,8.71c4.35,0,4.35-4.99,4.35-7.17c0-2.94-1.02-15.49-1.02-18.05c0-7.94,2.56-45.07,2.56-50.06
			c0-3.97-1.79-5.12-3.97-5.12c-1.79,0-3.58,0.77-5.38,5.38c-6.53,19.08-9.73,27.01-49.8,27.01c-20.87,0-20.87-2.94-20.87-14.47
			v-52.24c0-18.05,1.41-20.49,19.46-20.49c51.21,0,59.92,13.7,64.14,23.05c6.53,13.32,7.17,14.72,11.14,14.72
			c3.58,0,3.58-4.35,3.58-6.15v-33.16c0-8.32,0-11.14-4.35-11.14c-1.02,0-1.41,0.38-10.75,0.77c-9.73,0.38-28.17,0.77-65.3,0.77
			h-17.28c-30.73,0-46.22-0.38-54.16-0.77c-7.94-0.38-8.32-0.77-9.09-0.77c-2.56,0-7.17,0-7.17,5.12c0,5.38,5.12,5.76,12.93,6.15
			c18.05,1.15,18.05,10.75,18.05,25.61v152.23c0,14.72,0,24.58-18.05,25.61c-7.55,0.77-12.93,1.02-12.93,6.15
			c0,5.38,4.74,5.38,7.55,5.38c2.56,0,5.38-0.38,11.14-0.77c5.76-0.38,14.72-0.77,29.58-0.77h4.35c2.18,0,19.08,0.38,39.69,0.77
			c20.87,0.38,46.09,0.77,64.53,0.77c10.5,0,14.08-3.97,14.47-10.88c1.15-13.32,5.12-36.49,5.12-41.1
			C1723.58,300.95,1722.55,297.62,1719.35,297.62z"/>
		<path class="st0" d="M1244.35,215.93c-29.45-12.16-50.83-21.38-50.83-47.5c0-14.34,11.52-35.21,40.07-34.82
			c30.6,0.26,37.13,20.61,41.61,34.82c3.71,11.39,5.12,13.57,8.83,13.57c5.12,0,5.12-2.94,5.12-11.01c0-32.39,0-35.72-4.48-38.28
			c-5.12-2.56-26.89-8.45-48.14-8.45c-46.73,0-72.47,29.45-72.47,63.25c0,39.05,29.06,53.39,58.9,66.58
			c26.5,12.16,51.47,26.12,51.47,54.8c0,29.83-29.06,39.95-44.43,39.95c-26.12,0-51.34-22.02-58.38-54.16
			c-0.77-3.33-1.15-7.04-4.48-7.04c-4.48,0-4.61,5.12-4.61,6.66c-0.26,13.32,1.41,29.06,1.92,33.8c1.02,9.09,2.43,16.52,6.53,19.59
			c6.66,4.74,24.84,11.78,53.52,11.78c48.91,0,79.12-34.18,79.12-75.03C1303.63,242.82,1264.96,224.77,1244.35,215.93z"/>
		<path class="st0" d="M377.44,124.39c-70.67,0-123.94,50.7-123.94,117.02c0,70.29,59.15,118.05,122.91,118.05
			c61.97,0,122.53-50.06,122.53-121.38C498.82,174.84,445.68,124.39,377.44,124.39z M379.23,349.34
			c-48.52,0-83.22-56.33-83.22-115.61c0-51.98,32.52-99.23,77.08-99.23c57.23,0,82.97,61.46,82.97,104.99
			C456.05,292.63,429.68,349.34,379.23,349.34z"/>
		<path class="st0" d="M230.46,41.17c-0.51,0-1.02,0.51-15.11,1.02c-13.57,0.51-40.84,1.02-95,1.02h-11.39
			c-51.6,0-70.42-0.51-83.99-1.02c-13.06-0.51-13.57-1.02-14.6-1.02c-3.58,0-10.37,0-10.37,7.3s7.81,7.81,18.69,8.83
			c26.12,1.54,26.12,15.62,26.12,37v140.58v75.28c0,17.28,0,29.32-22.28,30.6c-9.35,0.9-15.49,1.28-15.49,7.55
			c0,6.66,5.76,6.66,9.35,6.66c8.45,0,45.2-1.79,52.75-1.79c14.72,0,38.54,1.79,53.13,1.79c3.58,0,9.35,0,9.35-6.66
			s-6.15-7.17-15.49-7.55c-22.15-1.28-22.15-13.32-22.15-31.5v-74.39v-5.63c0-14.72,0-20.61,8.45-22.92
			c5.51-1.54,29.58-1.54,44.94-1.54c13.06,0,46.35,0,53.65,28.17c1.02,2.56,4.48,16.13,5.76,19.85c0.9,2.56,2.94,8.58,8.32,8.32
			c6.27-0.26,6.27-6.27,6.27-9.86l-2.05-24.45c-1.02-12.04-1.02-20.87-1.02-25.48c0-7.81,1.54-43.28,1.54-50.57
			c0-5.25-1.54-8.58-6.27-8.83c-4.61-0.26-7.3,4.23-8.32,8.32c-6.66,27.01-14.08,38.54-56.33,38.54c-7.81,0-38.79,0-46.6-1.02
			c-6.79-1.02-8.32-1.54-8.32-29.7V85.21c0-24.45,8.83-25.48,26.63-25.48c81.04,0,87.83,11.14,103.45,45.84
			c1.92,4.35,3.97,10.37,9.73,10.37c5.76,0,5.76-8.32,5.76-9.86V50.9C239.29,43.73,238.78,41.17,230.46,41.17z"/>
		<path class="st0" d="M709.43,344.1c-10.11-1.54-15.11-10.5-22.28-23.05l-34.95-61.97c-8.32-15.11-12.68-17.28-17.28-20.23
			c12.29-2.56,49.42-11.14,49.42-53.39c0-12.68-5.38-56.59-69.27-56.59c-10.88,0-58.77,1.41-68.5,1.41
			c-4.35,0-22.02-1.41-25.61-1.41c-11.91,0-13.32,0-13.32,5.12c0,4.99,5.12,5.38,12.93,5.76c17.67,1.02,17.67,10.88,17.67,25.61
			v152.87c0,15.11,0,24.58-17.67,25.99c-7.55,0.38-12.93,0.77-12.93,5.76c0,5.38,4.74,4.99,7.55,4.99c6.53,0,35.72-1.41,41.87-1.41
			c1.41,0,36.49,1.41,43.28,1.41c2.82,0,7.55,0.38,7.55-4.74c0-5.38-5.12-5.76-12.93-6.15c-18.05-1.02-18.05-10.88-18.05-25.99
			v-64.91c0-6.15,0.77-8.32,6.91-8.32c16.26,0,18.05,1.41,25.99,16.9l43.66,82.2c3.97,7.55,5.38,10.88,11.91,10.88
			c3.2,0,42.89,0,47.5,0c2.56,0,6.15-0.64,6.15-4.35C718.65,346.66,716.98,345.25,709.43,344.1z M594.71,235.65
			c-18.05,0-18.05-0.77-18.05-13.32v-60.56c0-14.08,0.38-22.66,16.9-22.66c44.68,0,49.8,38.54,49.8,51.6
			C643.36,235.65,607.77,235.65,594.71,235.65z"/>
		<path class="st0" d="M935.66,344.1c-10.11-1.54-15.11-10.5-22.28-23.05l-34.95-61.97c-8.32-15.11-12.68-17.28-17.28-20.23
			c12.29-2.56,49.42-11.14,49.42-53.39c0-12.68-5.38-56.59-69.27-56.59c-10.88,0-58.77,1.41-68.5,1.41
			c-4.35,0-22.02-1.41-25.61-1.41c-11.91,0-13.32,0-13.32,5.12c0,4.99,5.12,5.38,12.93,5.76c17.67,1.02,17.67,10.88,17.67,25.61
			v152.87c0,15.11,0,24.58-17.67,25.99c-7.55,0.38-12.93,0.77-12.93,5.76c0,5.38,4.74,4.99,7.55,4.99c6.53,0,35.72-1.41,41.87-1.41
			c1.41,0,36.49,1.41,43.28,1.41c2.82,0,7.55,0.38,7.55-4.74c0-5.38-5.12-5.76-12.93-6.15c-18.05-1.02-18.05-10.88-18.05-25.99
			v-64.91c0-6.15,0.77-8.32,6.91-8.32c16.26,0,18.05,1.41,25.99,16.9l43.66,82.2c3.97,7.55,5.38,10.88,11.91,10.88
			c3.2,0,42.89,0,47.5,0c2.56,0,6.15-0.64,6.15-4.35C944.88,346.66,943.22,345.25,935.66,344.1z M820.95,235.65
			c-18.05,0-18.05-0.77-18.05-13.32v-60.56c0-14.08,0.38-22.66,16.9-22.66c44.68,0,49.8,38.54,49.8,51.6
			C869.6,235.65,834.01,235.65,820.95,235.65z"/>
		<path class="st0" d="M1945.84,344.1c-10.11-1.54-15.11-10.5-22.28-23.05l-34.95-61.97c-8.32-15.11-12.68-17.28-17.28-20.23
			c12.29-2.56,49.42-11.14,49.42-53.39c0-12.68-5.38-56.59-69.27-56.59c-10.88,0-58.77,1.41-68.5,1.41
			c-4.35,0-22.02-1.41-25.61-1.41c-11.91,0-13.32,0-13.32,5.12c0,4.99,5.12,5.38,12.93,5.76c17.67,1.02,17.67,10.88,17.67,25.61
			v152.87c0,15.11,0,24.58-17.67,25.99c-7.55,0.38-12.93,0.77-12.93,5.76c0,5.38,4.74,4.99,7.55,4.99c6.53,0,35.72-1.41,41.87-1.41
			c1.41,0,36.49,1.41,43.28,1.41c2.82,0,7.55,0.38,7.55-4.74c0-5.38-5.12-5.76-12.93-6.15c-18.05-1.02-18.05-10.88-18.05-25.99
			v-64.91c0-6.15,0.77-8.32,6.91-8.32c16.26,0,18.05,1.41,25.99,16.9l43.66,82.2c3.97,7.55,5.38,10.88,11.91,10.88
			c3.2,0,42.89,0,47.5,0c2.56,0,6.15-0.64,6.15-4.35C1955.19,346.66,1953.4,345.25,1945.84,344.1z M1831.25,235.65
			c-18.05,0-18.05-0.77-18.05-13.32v-60.56c0-14.08,0.38-22.66,16.9-22.66c44.68,0,49.8,38.54,49.8,51.6
			C1879.9,235.65,1844.18,235.65,1831.25,235.65z"/>
	</g>
</g>
</svg>
