<svg width="53" height="60" viewBox="0 0 53 60" fill="none" xmlns="http://www.w3.org/2000/svg">
<path fill-rule="evenodd" clip-rule="evenodd" d="M27.0968 46.4516H23.2258V48.7175C21.576 49.3006 20.2684 50.6082 19.6852 52.258H1.93548C0.866546 52.258 0 53.1246 0 54.1935C0 55.2625 0.866545 56.129 1.93548 56.129H19.6852C20.4823 58.3842 22.6331 60 25.1613 60C27.6895 60 29.8402 58.3842 30.6373 56.129H48.3871C49.456 56.129 50.3226 55.2625 50.3226 54.1935C50.3226 53.1246 49.456 52.258 48.3871 52.258H30.6373C30.0542 50.6082 28.7466 49.3006 27.0968 48.7175V46.4516ZM27.0968 54.1935C27.0968 55.2625 26.2302 56.129 25.1613 56.129C24.0924 56.129 23.2258 55.2625 23.2258 54.1935C23.2258 53.1246 24.0924 52.258 25.1613 52.258C26.2302 52.258 27.0968 53.1246 27.0968 54.1935Z" fill="#879198"/>
<path fill-rule="evenodd" clip-rule="evenodd" d="M2.90332 22.2581C2.90332 9.96527 12.8686 0 25.1614 0C37.1947 0 46.9977 9.54896 47.4062 21.4827C45.6966 20.6546 44.2686 19.7808 43.2827 19.1255C43.2432 18.8954 43.1994 18.6667 43.1515 18.4396C40.2704 16.6687 37.0265 15.4312 33.5561 14.8649C33.429 15.1143 33.2668 15.343 33.0762 15.5443C33.7523 17.4565 34.2285 19.4531 34.4834 21.5048C33.8957 21.7883 33.2752 22.0661 32.6282 22.3277C32.4216 20.2965 31.9825 18.3195 31.3344 16.4287C31.2143 16.4438 31.092 16.4516 30.9678 16.4516C29.7106 16.4516 28.6401 15.6525 28.2364 14.5345C24.7171 14.6645 21.3722 15.4777 18.3305 16.8458C18.3367 16.8767 18.3424 16.9078 18.3476 16.939C22.3284 18.2756 25.8646 20.5806 28.6764 23.5739C28.3988 23.6354 28.1191 23.6916 27.8377 23.7417C27.3987 23.82 27.0254 24.0608 26.7773 24.3945C24.3312 21.9424 21.3401 20.0341 18.0012 18.8668C17.4998 19.7369 16.5603 20.3226 15.484 20.3226C14.7539 20.3226 14.0868 20.0531 13.5767 19.6082C11.0899 21.4209 8.929 23.6542 7.1987 26.204C9.00459 34.4626 16.361 40.6452 25.1614 40.6452C25.9201 40.6452 26.6681 40.5992 27.4027 40.5099C27.8913 41.8027 28.5436 43.0111 29.301 44.1319C27.9597 44.3842 26.576 44.5161 25.1614 44.5161C12.8686 44.5161 2.90332 34.5509 2.90332 22.2581ZM6.81279 23.4577C8.47785 21.3478 10.4345 19.4784 12.6221 17.9103C12.6092 17.8344 12.5992 17.7576 12.5923 17.6798C11.8491 17.6081 11.0957 17.5714 10.3337 17.5714C9.31457 17.5714 8.31117 17.637 7.32743 17.7641C6.96615 19.2023 6.77429 20.7078 6.77429 22.2581C6.77429 22.6611 6.78725 23.0611 6.81279 23.4577ZM15.484 14.5161C16.1836 14.5161 16.8254 14.7636 17.3267 15.1758C20.6624 13.6426 24.3446 12.7334 28.2236 12.5983C28.3829 12.1383 28.6544 11.7309 29.0055 11.4087C27.324 8.59206 25.1296 6.09333 22.5278 4.05816C15.8258 5.0194 10.2906 9.59493 7.96061 15.7464C8.74202 15.6733 9.53362 15.6359 10.3337 15.6359C11.2633 15.6359 12.181 15.6863 13.0844 15.7845C13.6072 15.0188 14.4869 14.5161 15.484 14.5161ZM33.8083 12.945C33.5306 11.6312 32.3643 10.6452 30.9678 10.6452C30.9131 10.6452 30.8588 10.6467 30.8048 10.6497C29.3315 8.12834 27.4774 5.83924 25.3077 3.87154C33.1181 3.93241 39.769 8.86303 42.3736 15.7768C39.7328 14.4056 36.8507 13.4349 33.8083 12.945Z" fill="white"/>
<path d="M44.6342 44.2126L46.378 46.2411L44.6342 44.2126C43.2934 45.3651 41.9296 46.2543 40.9084 46.8513C39.6593 46.12 37.9016 44.9532 36.2939 43.4014C34.0243 41.2108 32.3527 38.5521 32.3527 35.5018V28.8228C36.0134 27.9295 39.1268 26.0525 40.6815 25.0046C40.7563 24.9541 40.8317 24.9332 40.9075 24.9332C40.9831 24.9332 41.0584 24.9541 41.1332 25.0045L41.1335 25.0047C42.6882 26.0526 45.8015 27.9296 49.4622 28.8229V35.5017C49.4622 38.3367 48.0611 41.2666 44.6342 44.2126Z" stroke="#279C6F" stroke-width="5.3502"/>
</svg>
