<svg width="59" height="62" viewBox="0 0 59 62" fill="none" xmlns="http://www.w3.org/2000/svg">
<path d="M26.3947 0L26.8403 0.00185926C41.0734 0.120726 52.7895 5.92713 52.7895 13.95C52.7895 14.1234 52.784 14.2958 52.7731 14.4672L52.7895 14.4667L52.7897 30.3088C50.6233 29.4512 48.268 28.9668 45.8034 28.935C47.6189 27.5117 48.6491 25.9092 48.6491 24.2833C48.6491 23.5602 48.4425 22.8275 48.0226 22.0951L47.8528 22.22C43.0383 25.7381 35.1737 27.9 26.3947 27.9C17.5121 27.9 9.56564 25.6867 4.76739 22.0949C4.3466 22.8278 4.14035 23.5596 4.14035 24.2833C4.14035 29.3029 13.9598 34.1 26.3947 34.1C28.6033 34.1 30.7293 33.9487 32.7325 33.6716C31.2234 34.9649 29.9138 36.4835 28.855 38.1745C28.0441 38.2141 27.2235 38.2333 26.3947 38.2333C17.5121 38.2333 9.56564 36.0201 4.76739 32.4282C4.3466 33.1611 4.14035 33.8929 4.14035 34.6167C4.14035 39.5778 13.7328 44.3217 25.962 44.4314L26.3137 44.4336C26.028 45.7648 25.8775 47.1462 25.8772 48.5625L26.3947 48.5667C17.5121 48.5667 9.56564 46.3534 4.76739 42.7615C4.3466 43.4944 4.14035 44.2262 4.14035 44.95C4.14035 49.9112 13.7328 54.6551 25.962 54.7647L26.3947 54.7667C26.5561 54.7667 26.7169 54.7659 26.8773 54.7643C27.3573 56.2063 28.0005 57.5743 28.785 58.8462C28.1433 58.8752 27.4945 58.8927 26.8403 58.8981L26.3947 58.9C12.2703 58.9 0.512962 53.3038 0.016333 45.4672L0 45.4667V14.4667L0.016333 14.4672C0.0054753 14.2958 0 14.1234 0 13.95C0 5.84356 11.9615 0 26.3947 0ZM26.3947 4.13333L25.962 4.13527C13.7328 4.24492 4.14035 8.98884 4.14035 13.95C4.14035 18.9695 13.9598 23.7667 26.3947 23.7667C38.8296 23.7667 48.6491 18.9695 48.6491 13.95C48.6491 8.93047 38.8296 4.13333 26.3947 4.13333Z" fill="#212121"/>
<path fill-rule="evenodd" clip-rule="evenodd" d="M45.5439 35.1338C52.9756 35.1338 59.0001 41.1481 59.0001 48.5671C59.0001 55.9861 52.9756 62.0005 45.5439 62.0005C38.1123 62.0005 32.0878 55.9861 32.0878 48.5671C32.0878 41.1481 38.1123 35.1338 45.5439 35.1338Z" fill="#285AE6"/>
</svg>
