<?xml version="1.0" encoding="utf-8"?>
<!-- Generator: Adobe Illustrator 26.5.0, SVG Export Plug-In . SVG Version: 6.00 Build 0)  -->
<svg version="1.1" id="Layer_1" xmlns="http://www.w3.org/2000/svg" xmlns:xlink="http://www.w3.org/1999/xlink" x="0px" y="0px"
	 viewBox="0 0 500 500" style="enable-background:new 0 0 500 500;" xml:space="preserve">
<style type="text/css">
	.st0{fill-rule:evenodd;clip-rule:evenodd;fill:#285AE6;}
	.st1{fill:#FFFFFF;}
</style>
<path class="st0" d="M432.65,12.71c0-7.02-5.69-12.71-12.71-12.71c-7.02,0-12.71,5.69-12.71,12.71v118.64
	c0,7.02,5.69,12.71,12.71,12.71c7.02,0,12.71-5.69,12.71-12.71V12.71z M13.16,67.8c-7.02,0-12.71,5.69-12.71,12.71
	c0,7.02,5.69,12.71,12.71,12.71h33.9c7.02,0,12.71-5.69,12.71-12.71c0-7.02-5.69-12.71-12.71-12.71H13.16z M102.15,80.51
	c0-7.02,5.69-12.71,12.71-12.71h16.95c7.02,0,12.71,5.69,12.71,12.71c0,7.02-5.69,12.71-12.71,12.71h-16.95
	C107.84,93.22,102.15,87.53,102.15,80.51z M186.89,80.51c0-7.02,5.69-12.71,12.71-12.71H301.3c7.02,0,12.71,5.69,12.71,12.71
	c0,7.02-5.69,12.71-12.71,12.71H199.6C192.58,93.22,186.89,87.53,186.89,80.51z M369.09,67.8c-7.02,0-12.71,5.69-12.71,12.71
	c0,7.02,5.69,12.71,12.71,12.71h16.95c7.02,0,12.71-5.69,12.71-12.71c0-7.02-5.69-12.71-12.71-12.71H369.09z M441.13,80.51
	c0-7.02,5.69-12.71,12.71-12.71h33.9c7.02,0,12.71,5.69,12.71,12.71c0,7.02-5.69,12.71-12.71,12.71h-33.9
	C446.82,93.22,441.13,87.53,441.13,80.51z M102.15,334.75c0-7.02,5.69-12.71,12.71-12.71h15.19v5.87l0.07,0
	c0.41,6.64,2.49,12.94,6,18.81c-1.35,0.49-2.8,0.75-4.31,0.75h-16.95C107.84,347.46,102.15,341.77,102.15,334.75z M152.99,364.65
	v20.94c0,7.02,5.69,12.71,12.71,12.71c7.02,0,12.71-5.69,12.71-12.71v-7.15C168.72,374.59,160.14,369.96,152.99,364.65z
	 M237.74,390.67v96.62c0,7.02,5.69,12.71,12.71,12.71s12.71-5.69,12.71-12.71v-96.61c-3.52,0.19-7.08,0.31-10.67,0.34l-2.03,0.01
	C246.17,391.02,241.92,390.9,237.74,390.67z M322.48,378.45v108.84c0,7.02,5.69,12.71,12.71,12.71c7.02,0,12.71-5.69,12.71-12.71
	V364.67C340.76,369.97,332.18,374.61,322.48,378.45z M364.8,346.71c1.34,0.48,2.79,0.74,4.3,0.74h16.95
	c7.02,0,12.71-5.69,12.71-12.71c0-7.02-5.69-12.71-12.71-12.71h-15.17v5.87l-0.07,0C370.4,334.54,368.31,340.85,364.8,346.71z
	 M370.88,262.71h15.17c7.02,0,12.71-5.69,12.71-12.71c0-7.02-5.69-12.71-12.71-12.71h-15.17V262.71z M370.83,177.97h116.9
	c7.02,0,12.71-5.69,12.71-12.71c0-7.02-5.69-12.71-12.71-12.71H369.09c-2.56,0-4.95,0.76-6.95,2.06
	C367.39,161.73,370.44,169.58,370.83,177.97z M347.91,140.63V12.71C347.91,5.69,342.22,0,335.2,0c-7.02,0-12.71,5.69-12.71,12.71
	v114.13C332.18,130.69,340.76,135.33,347.91,140.63z M263.16,114.62v-0.21c0-7.02-5.69-12.71-12.71-12.71s-12.71,5.69-12.71,12.71
	v0.22c4.18-0.23,8.43-0.34,12.72-0.34l2.03,0.01C256.09,114.32,259.65,114.43,263.16,114.62z M178.42,126.85V12.71
	C178.42,5.69,172.73,0,165.7,0c-7.02,0-12.71,5.69-12.71,12.71v118.64c0,2.82,0.92,5.42,2.46,7.52
	C162.08,134.31,169.81,130.27,178.42,126.85z M140.37,152.54h-25.51c-7.02,0-12.71,5.69-12.71,12.71c0,7.02,5.69,12.71,12.71,12.71
	h15.23C130.52,168.76,134.15,160.21,140.37,152.54z M130.04,237.29H13.16c-7.02,0-12.71,5.69-12.71,12.71
	c0,7.02,5.69,12.71,12.71,12.71h116.88V237.29z M453.84,322.03c-7.02,0-12.71,5.69-12.71,12.71c0,7.02,5.69,12.71,12.71,12.71h33.9
	c7.02,0,12.71-5.69,12.71-12.71c0-7.02-5.69-12.71-12.71-12.71H453.84z M0.45,334.75c0-7.02,5.69-12.71,12.71-12.71h33.9
	c7.02,0,12.71,5.69,12.71,12.71c0,7.02-5.69,12.71-12.71,12.71h-33.9C6.14,347.46,0.45,341.77,0.45,334.75z M419.94,186.44
	c7.02,0,12.71,5.69,12.71,12.71v186.44c0,7.02-5.69,12.71-12.71,12.71c-7.02,0-12.71-5.69-12.71-12.71V199.15
	C407.23,192.13,412.92,186.44,419.94,186.44z M432.65,453.39c0-7.02-5.69-12.71-12.71-12.71c-7.02,0-12.71,5.69-12.71,12.71v33.9
	c0,7.02,5.69,12.71,12.71,12.71c7.02,0,12.71-5.69,12.71-12.71V453.39z M165.7,440.68c7.02,0,12.71,5.69,12.71,12.71v33.9
	c0,7.02-5.69,12.71-12.71,12.71c-7.02,0-12.71-5.69-12.71-12.71v-33.9C152.99,446.37,158.68,440.68,165.7,440.68z M93.67,12.71
	C93.67,5.69,87.98,0,80.96,0c-7.02,0-12.71,5.69-12.71,12.71V216.1c0,7.02,5.69,12.71,12.71,12.71c7.02,0,12.71-5.69,12.71-12.71
	V12.71z M80.96,271.19c7.02,0,12.71,5.69,12.71,12.71v203.39c0,7.02-5.69,12.71-12.71,12.71c-7.02,0-12.71-5.69-12.71-12.71V283.9
	C68.25,276.88,73.94,271.19,80.96,271.19z M0.45,165.25c0-7.02,5.69-12.71,12.71-12.71h33.9c7.02,0,12.71,5.69,12.71,12.71
	c0,7.02-5.69,12.71-12.71,12.71h-33.9C6.14,177.97,0.45,172.27,0.45,165.25z M114.86,406.78c-7.02,0-12.71,5.69-12.71,12.71
	c0,7.02,5.69,12.71,12.71,12.71h101.69c7.02,0,12.71-5.69,12.71-12.71c0-7.02-5.69-12.71-12.71-12.71H114.86z M0.45,419.49
	c0-7.02,5.69-12.71,12.71-12.71h33.9c7.02,0,12.71,5.69,12.71,12.71c0,7.02-5.69,12.71-12.71,12.71h-33.9
	C6.14,432.2,0.45,426.51,0.45,419.49z M284.35,406.78c-7.02,0-12.71,5.69-12.71,12.71c0,7.02,5.69,12.71,12.71,12.71h16.95
	c7.02,0,12.71-5.69,12.71-12.71c0-7.02-5.69-12.71-12.71-12.71H284.35z M356.38,419.49c0-7.02,5.69-12.71,12.71-12.71h118.64
	c7.02,0,12.71,5.69,12.71,12.71c0,7.02-5.69,12.71-12.71,12.71H369.09C362.07,432.2,356.38,426.51,356.38,419.49z M441.13,250
	c0-7.02,5.69-12.71,12.71-12.71h33.9c7.02,0,12.71,5.69,12.71,12.71c0,7.02-5.69,12.71-12.71,12.71h-33.9
	C446.82,262.71,441.13,257.02,441.13,250z M263.16,12.71c0-7.02-5.69-12.71-12.71-12.71s-12.71,5.69-12.71,12.71v33.9
	c0,7.02,5.69,12.71,12.71,12.71s12.71-5.69,12.71-12.71V12.71z"/>
<path class="st1" d="M250.46,141.95l1.59,0.01c50.8,0.45,92.62,22.27,92.62,52.43c0,0.65-0.02,1.3-0.06,1.94l0.06,0v116.52l-0.06,0
	c-1.75,29.15-42.86,50.05-92.56,50.49l-1.59,0.01c-50.42,0-92.38-21.04-94.15-50.49l-0.06,0V196.33l0.06,0
	c-0.04-0.64-0.06-1.29-0.06-1.94C156.25,163.92,198.95,141.95,250.46,141.95z M327.66,302.68l-0.12,0.09
	c-16.85,13.22-44.5,21.45-75.48,21.72l-1.59,0.01c-31.7,0-60.07-8.32-77.19-21.82c-1.5,2.75-2.24,5.51-2.24,8.22
	c0,18.65,34.24,36.48,77.89,36.89l1.54,0.01c44.38,0,79.43-18.03,79.43-36.9C329.89,308.19,329.16,305.44,327.66,302.68z
	 M327.65,263.84l-0.46,0.36c-17.17,13.29-45.31,21.46-76.74,21.46c-31.7,0-60.07-8.32-77.19-21.82c-1.5,2.76-2.24,5.51-2.24,8.23
	c0,18.65,34.24,36.48,77.89,36.89l1.54,0.01c44.38,0,79.43-18.03,79.43-36.9C329.89,269.35,329.15,266.59,327.65,263.84z
	 M327.65,225l-0.46,0.36c-17.17,13.29-45.31,21.46-76.74,21.46c-31.7,0-60.06-8.32-77.19-21.82c-1.51,2.75-2.24,5.5-2.24,8.22
	c0,18.87,35.05,36.9,79.43,36.9c44.38,0,79.43-18.03,79.43-36.9C329.89,230.51,329.15,227.75,327.65,225z M250.46,157.49l-1.54,0.01
	c-43.65,0.41-77.89,18.24-77.89,36.89c0,18.87,35.05,36.9,79.43,36.9c44.38,0,79.43-18.03,79.43-36.9
	C329.89,175.52,294.84,157.49,250.46,157.49z"/>
</svg>
