<?xml version="1.0" encoding="utf-8"?>
<!-- Generator: Adobe Illustrator 26.5.0, SVG Export Plug-In . SVG Version: 6.00 Build 0)  -->
<svg version="1.1" id="Layer_1" xmlns="http://www.w3.org/2000/svg" xmlns:xlink="http://www.w3.org/1999/xlink" x="0px" y="0px"
	 viewBox="0 0 952 424" style="enable-background:new 0 0 952 424;" xml:space="preserve">
<style type="text/css">
	.st0{fill-rule:evenodd;clip-rule:evenodd;fill:#FFFFFF;}
</style>
<g id="Artboard">
	<g id="Imperva_wordmark_1color_MEDGREY" transform="translate(115.500000, 114.000000)">
		<g id="path-3_3_">
			<path id="path-3_2_" class="st0" d="M248.9,23.2c40.8,0,64,34.1,64,73.7s-23.2,73.4-64,73.4c-15.1,0-28.9-7.3-35.1-14.8v69.3h-39
				V26.4h39V38C220,30.5,233.9,23.2,248.9,23.2z M393.9,23.2c40.8,0,61.9,28.4,61.9,69.9v12.6h-90.5c3.2,22.9,19.8,32.5,40.6,32.5
				c15.4,0,26.4-3.4,40.2-12.3v32.1c-11.7,8.5-27.3,12.3-46.1,12.3c-42.7,0-72-27.7-72-72.4C327.9,53.8,355.6,23.2,393.9,23.2z
				 M774.6,23.2c38.7,0,61.9,19.9,61.9,54.2v89.7h-39v-7.6c-4.8,4.8-18.6,10.1-33.9,10.1c-28.2,0-51.8-16.4-51.8-45.6
				c0-26.8,23.6-45.1,54.3-45.1c12.2,0,25.7,4.1,31.4,8.2v-7.8c0-13.5-11.7-22-31.4-22c-14.2,0-27.3,4.1-38.3,11.4V34.8
				C737.9,28.6,756,23.2,774.6,23.2z M610.1,26.4l32.3,93.6l31.7-93.6h39.2l-53.3,140.8h-37.6L569.3,26.4H610.1z M547.1,23.2
				c6.6,0,12.6,1.3,14.7,2.5v39.1c-5.3-3.2-12.2-4.8-19.5-4.8c-13.3,0-23.9,6.9-26.6,19.9v87.2h-39V26.4h39v13.9
				C521.7,30.2,533.2,23.2,547.1,23.2z M103.6,23.2c28.9,0,46.1,20.1,46.1,52v92h-39V83.4c0-15.1-6.6-25.2-20.1-25.2
				c-10.1,0-19.2,6.2-21.7,18.3v90.7H29.6V83.4c0-15.1-6.2-25.2-19.8-25.2c-10.1,0-19.5,6.2-22,18.3v90.7h-38.8V26.4h39V38
				c6.9-8.9,19.8-14.8,35.5-14.8c16.7,0,29.8,7.6,37.6,17.9C70.3,31.1,83.9,23.2,103.6,23.2z M-76.5,26.4v140.8h-39V26.4H-76.5z
				 M772.7,106.4c-12.2,0-24.8,5.3-24.8,17.4c0,12.3,12.6,17.4,24.8,17.4c11,0,21.3-4.8,24.8-12.3v-10.1
				C794.1,111.1,783.7,106.4,772.7,106.4z M240.1,57.2c-11.7,0-21.7,6.9-26.4,16.4v46.3c4.8,9.8,15.1,16.4,26.4,16.4
				c21.1,0,33.7-17,33.7-39.4C273.8,74.2,261.2,57.2,240.1,57.2z M836.5,185.7v39.1h-39v-39.1H836.5z M394.8,54.5
				c15.4,0,23.9,10.7,24.8,25.8l0,0h-53.2C371,62.5,382,54.5,394.8,54.5z M-76.5-31.3V7.8h-39v-39.1H-76.5z"/>
		</g>
	</g>
</g>
</svg>
