<svg width="62" height="62" viewBox="0 0 62 62" fill="none" xmlns="http://www.w3.org/2000/svg">
<mask id="mask0_1492_5180" style="mask-type:alpha" maskUnits="userSpaceOnUse" x="0" y="0" width="62" height="62">
<path fill-rule="evenodd" clip-rule="evenodd" d="M0 0H62V62H0L0 0ZM0 0H41.652L33.6554 62H0L0 0Z" fill="white"/>
</mask>
<g mask="url(#mask0_1492_5180)">
<path fill-rule="evenodd" clip-rule="evenodd" d="M45.7644 30.809C45.6619 30.9549 45.5754 31.0749 45.4922 31.1963C44.1653 33.1506 42.8388 35.1047 41.5128 37.0586C40.2791 38.8761 39.0442 40.6925 37.808 42.5078C37.7665 42.5655 37.7025 42.6028 37.6319 42.6104C35.8866 42.5954 34.1418 42.5764 32.3973 42.5536C32.378 42.5536 32.358 42.5478 32.3199 42.542C32.334 42.5055 32.3504 42.4699 32.369 42.4355C33.5862 40.547 34.8035 38.659 36.0208 36.7714C37.1005 35.0985 38.1808 33.426 39.2618 31.7539C40.4597 29.896 41.657 28.0368 42.8537 26.1763C43.0304 25.9019 43.2142 25.6328 43.3819 25.3533C43.4249 25.2785 43.4378 25.1902 43.418 25.1062C43.0955 24.0774 42.7666 23.0512 42.4383 22.0249C42.2977 21.5854 42.1506 21.1485 42.0191 20.7064C41.9765 20.5644 41.9062 20.5211 41.7611 20.5218C40.6646 20.5263 39.5746 20.525 38.4814 20.525C38.2737 20.525 38.273 20.525 38.273 20.3198C38.273 18.9747 38.2731 17.6297 38.2692 16.2846C38.2692 16.1349 38.3182 16.1013 38.4588 16.1013C40.6599 16.1052 42.8614 16.1052 45.0633 16.1013C45.1691 16.0878 45.2685 16.1549 45.2955 16.2582C46.4565 19.1802 47.6174 22.1011 48.7784 25.021C50.1328 28.4262 51.4873 31.8318 52.8417 35.2379C53.2622 36.295 53.686 37.3516 54.102 38.4114C54.1516 38.5404 54.2032 38.565 54.3335 38.525C55.4874 38.168 56.6438 37.8208 57.797 37.4632C57.9422 37.4181 57.995 37.4484 58.0402 37.5923C58.4336 38.8296 58.8348 40.0643 59.2334 41.3002C59.2469 41.3428 59.2573 41.3861 59.2734 41.4455C59.1908 41.4758 59.1134 41.51 59.0341 41.5319C56.4112 42.3637 53.7898 43.1958 51.1699 44.0284C51.0448 44.0678 51.0074 44.0252 50.9655 43.92C50.1653 41.8908 49.3632 39.8625 48.5591 37.835C47.7726 35.8497 46.9858 33.8644 46.1985 31.8791C46.0805 31.5809 45.9644 31.2815 45.8463 30.9833C45.8276 30.9323 45.8018 30.8878 45.7644 30.809V30.809Z" fill="#212121"/>
</g>
<path fill-rule="evenodd" clip-rule="evenodd" d="M34.393 5.33686C34.5049 4.46961 35.2433 3.82031 36.1178 3.82031V3.82031C37.1666 3.82031 37.9768 4.74176 37.8426 5.78197L31.2773 56.6628C31.1654 57.5301 30.4269 58.1794 29.5525 58.1794V58.1794C28.5037 58.1794 27.6935 57.2579 27.8277 56.2177L34.393 5.33686Z" fill="#212121"/>
<mask id="mask1_1492_5180" style="mask-type:alpha" maskUnits="userSpaceOnUse" x="4" y="2" width="28" height="58">
<path fill-rule="evenodd" clip-rule="evenodd" d="M4.21853 2.94336L31.4288 2.94336L24.3401 59.0559H4.17468L4.21853 2.94336Z" fill="white"/>
</mask>
<g mask="url(#mask1_1492_5180)">
<rect x="19.6508" y="44.7012" width="11.1904" height="6.07689" rx="3.03844" fill="#C294FF"/>
<ellipse cx="14.5002" cy="47.74" rx="2.1862" ry="2.14914" fill="#C294FF"/>
<ellipse cx="16.7236" cy="39.0696" rx="2.48263" ry="2.44558" fill="#A560FF"/>
<ellipse cx="23.5415" cy="39.0696" rx="2.48263" ry="2.44558" fill="#A560FF"/>
<ellipse cx="9.90551" cy="39.1437" rx="1.88976" ry="1.85271" fill="#C294FF"/>
<ellipse cx="15.019" cy="30.3988" rx="3.00139" ry="3.03844" fill="#C294FF"/>
<ellipse cx="6.94128" cy="30.3986" rx="1.88976" ry="1.85271" fill="#C294FF"/>
<rect x="20.8364" y="27.3604" width="11.1904" height="6.07689" rx="3.03844" fill="#A560FF"/>
<rect x="12.1659" y="19.0605" width="8.96712" height="4.89115" rx="2.44558" fill="#A560FF"/>
<ellipse cx="7.31181" cy="21.5056" rx="2.1862" ry="2.14914" fill="#C294FF"/>
<ellipse cx="26.0613" cy="21.5059" rx="2.63085" ry="2.59379" fill="#A560FF"/>
<ellipse cx="13.0922" cy="13.279" rx="2.1862" ry="2.14914" fill="#C294FF"/>
<rect x="18.4651" y="10.834" width="8.96712" height="4.89115" rx="2.44558" fill="#C294FF"/>
</g>
</svg>
