<svg width="62" height="64" viewBox="0 0 62 64" fill="none" xmlns="http://www.w3.org/2000/svg">
<mask id="mask0_1543_5253" style="mask-type:alpha" maskUnits="userSpaceOnUse" x="-1" y="1" width="63" height="63">
<path fill-rule="evenodd" clip-rule="evenodd" d="M-0.172119 1.04199H61.8279V63.042H-0.172119L-0.172119 1.04199ZM40.9875 4.85975L33.9697 59.2704H-0.172119L-0.172119 4.85079L40.9875 4.85975Z" fill="white"/>
</mask>
<g mask="url(#mask0_1543_5253)">
<path fill-rule="evenodd" clip-rule="evenodd" d="M45.5923 31.851C45.4897 31.9969 45.4033 32.1169 45.3201 32.2383C43.9932 34.1926 42.6667 36.1467 41.3406 38.1006C40.107 39.9181 38.8721 41.7345 37.6359 43.5498C37.5944 43.6074 37.5304 43.6448 37.4598 43.6524C35.7145 43.6374 33.9697 43.6184 32.2252 43.5956C32.2059 43.5956 32.1859 43.5898 32.1478 43.584C32.1619 43.5475 32.1783 43.5119 32.1968 43.4775C33.4141 41.589 34.6314 39.701 35.8487 37.8134C36.9284 36.1404 38.0087 34.468 39.0897 32.7959C40.2876 30.938 41.4849 29.0788 42.6815 27.2182C42.8583 26.9439 43.0421 26.6748 43.2098 26.3953C43.2528 26.3205 43.2657 26.2321 43.2459 26.1481C42.9234 25.1194 42.5945 24.0931 42.2662 23.0669C42.1256 22.6274 41.9785 22.1905 41.8469 21.7484C41.8044 21.6064 41.7341 21.5631 41.5889 21.5638C40.4925 21.5683 39.4025 21.567 38.3093 21.567C38.1016 21.567 38.1009 21.567 38.1009 21.3618C38.1009 20.0167 38.1009 18.6717 38.0971 17.3266C38.0971 17.1769 38.1461 17.1433 38.2867 17.1433C40.4878 17.1472 42.6893 17.1472 44.8912 17.1433C44.997 17.1298 45.0964 17.1969 45.1234 17.3002C46.2844 20.2222 47.4453 23.1431 48.6063 26.063C49.9607 29.4682 51.3151 32.8738 52.6696 36.2799C53.0901 37.337 53.5139 38.3936 53.9299 39.4534C53.9795 39.5824 54.0311 39.607 54.1614 39.5669C55.3153 39.21 56.4717 38.8628 57.6249 38.5052C57.77 38.4601 57.8229 38.4904 57.8681 38.6343C58.2615 39.8716 58.6627 41.1063 59.0613 42.3422C59.0748 42.3848 59.0851 42.4281 59.1013 42.4874C59.0187 42.5178 58.9413 42.552 58.862 42.5739C56.2391 43.4057 53.6177 44.2378 50.9978 45.0704C50.8727 45.1098 50.8353 45.0672 50.7934 44.962C49.9932 42.9328 49.191 40.9045 48.387 38.877C47.6005 36.8917 46.8137 34.9064 46.0264 32.9211C45.9083 32.6229 45.7922 32.3235 45.6742 32.0253C45.6555 31.9743 45.6297 31.9298 45.5923 31.851Z" fill="white"/>
</g>
<path fill-rule="evenodd" clip-rule="evenodd" d="M34.2209 6.37885C34.3328 5.5116 35.0712 4.8623 35.9457 4.8623C36.9945 4.8623 37.8047 5.78375 37.6705 6.82396L31.1052 57.7048C30.9933 58.5721 30.2548 59.2214 29.3804 59.2214C28.3315 59.2214 27.5214 58.2999 27.6556 57.2597L34.2209 6.37885Z" fill="white"/>
<mask id="mask1_1543_5253" style="mask-type:alpha" maskUnits="userSpaceOnUse" x="4" y="3" width="28" height="58">
<path fill-rule="evenodd" clip-rule="evenodd" d="M4.04653 3.98535L31.2568 3.98535L24.1681 60.0979H4.00269L4.04653 3.98535Z" fill="white"/>
</mask>
<g mask="url(#mask1_1543_5253)">
<rect x="19.4786" y="45.7432" width="11.1904" height="6.07689" rx="3.03844" fill="#C294FF"/>
<ellipse cx="14.328" cy="48.782" rx="2.1862" ry="2.14914" fill="#C294FF"/>
<ellipse cx="16.5515" cy="40.1116" rx="2.48263" ry="2.44558" fill="#A560FF"/>
<ellipse cx="23.3695" cy="40.1116" rx="2.48263" ry="2.44558" fill="#A560FF"/>
<ellipse cx="9.73339" cy="40.1857" rx="1.88976" ry="1.85271" fill="#C294FF"/>
<ellipse cx="14.847" cy="31.4408" rx="3.00139" ry="3.03844" fill="#C294FF"/>
<ellipse cx="6.76916" cy="31.4406" rx="1.88976" ry="1.85271" fill="#C294FF"/>
<rect x="20.6643" y="28.4023" width="11.1904" height="6.07689" rx="3.03844" fill="#A560FF"/>
<rect x="11.9938" y="20.1025" width="8.96711" height="4.89115" rx="2.44558" fill="#A560FF"/>
<ellipse cx="7.13969" cy="22.5476" rx="2.1862" ry="2.14914" fill="#C294FF"/>
<ellipse cx="25.8891" cy="22.5479" rx="2.63085" ry="2.59379" fill="#A560FF"/>
<ellipse cx="12.9201" cy="14.321" rx="2.1862" ry="2.14914" fill="#C294FF"/>
<rect x="18.293" y="11.876" width="8.96711" height="4.89115" rx="2.44558" fill="#C294FF"/>
</g>
</svg>
