<svg width="62" height="62" viewBox="0 0 62 62" fill="none" xmlns="http://www.w3.org/2000/svg">
<g clip-path="url(#clip0_1492_5301)">
<path fill-rule="evenodd" clip-rule="evenodd" d="M33.7768 2.72972C33.9044 1.74056 34.7467 1 35.7441 1V1C36.9403 1 37.8644 2.05097 37.7113 3.23739L30.2232 61.2703C30.0956 62.2594 29.2533 63 28.2559 63V63C27.0597 63 26.1356 61.949 26.2887 60.7626L33.7768 2.72972Z" fill="#212121"/>
<mask id="mask0_1492_5301" style="mask-type:alpha" maskUnits="userSpaceOnUse" x="-1" y="0" width="32" height="64">
<path d="M-0.949872 0L30.0852 0L22.0001 64H-0.999878L-0.949872 0Z" fill="white"/>
</mask>
<g mask="url(#mask0_1492_5301)">
<path d="M25.9494 47.6279H20.1172C18.2032 47.6279 16.6516 49.1795 16.6516 51.0935C16.6516 53.0074 18.2032 54.559 20.1172 54.559H25.9494C27.8634 54.559 29.4149 53.0074 29.4149 51.0935C29.4149 49.1795 27.8634 47.6279 25.9494 47.6279Z" fill="#5E89FF"/>
<path d="M10.7771 53.545C12.1542 53.545 13.2706 52.4476 13.2706 51.0938C13.2706 49.74 12.1542 48.6426 10.7771 48.6426C9.39995 48.6426 8.28357 49.74 8.28357 51.0938C8.28357 52.4476 9.39995 53.545 10.7771 53.545Z" fill="#5E89FF"/>
<path d="M13.3128 43.9937C14.8766 43.9937 16.1444 42.7449 16.1444 41.2044C16.1444 39.6639 14.8766 38.415 13.3128 38.415C11.749 38.415 10.4812 39.6639 10.4812 41.2044C10.4812 42.7449 11.749 43.9937 13.3128 43.9937Z" fill="#285AE6"/>
<path d="M21.0892 43.9937C22.653 43.9937 23.9208 42.7449 23.9208 41.2044C23.9208 39.6639 22.653 38.415 21.0892 38.415C19.5253 38.415 18.2576 39.6639 18.2576 41.2044C18.2576 42.7449 19.5253 43.9937 21.0892 43.9937Z" fill="#285AE6"/>
<path d="M5.5365 43.402C6.72689 43.402 7.6919 42.456 7.6919 41.2889C7.6919 40.1219 6.72689 39.1758 5.5365 39.1758C4.34611 39.1758 3.3811 40.1219 3.3811 41.2889C3.3811 42.456 4.34611 43.402 5.5365 43.402Z" fill="#5E89FF"/>
<path d="M11.3688 34.7807C13.2595 34.7807 14.7921 33.2291 14.7921 31.3151C14.7921 29.4012 13.2595 27.8496 11.3688 27.8496C9.47821 27.8496 7.94556 29.4012 7.94556 31.3151C7.94556 33.2291 9.47821 34.7807 11.3688 34.7807Z" fill="#5E89FF"/>
<path d="M2.15552 33.4284C3.34591 33.4284 4.31092 32.4823 4.31092 31.3153C4.31092 30.1482 3.34591 29.2021 2.15552 29.2021C0.965126 29.2021 0.00012207 30.1482 0.00012207 31.3153C0.00012207 32.4823 0.965126 33.4284 2.15552 33.4284Z" fill="#5E89FF"/>
<path d="M27.3018 27.8496H21.4696C19.5556 27.8496 18.004 29.4012 18.004 31.3151C18.004 33.2291 19.5556 34.7807 21.4696 34.7807H27.3018C29.2158 34.7807 30.7674 33.2291 30.7674 31.3151C30.7674 29.4012 29.2158 27.8496 27.3018 27.8496Z" fill="#285AE6"/>
<path d="M15.5527 18.3818H10.9038C9.36333 18.3818 8.1145 19.6307 8.1145 21.1712C8.1145 22.7117 9.36333 23.9605 10.9038 23.9605H15.5527C17.0932 23.9605 18.3421 22.7117 18.3421 21.1712C18.3421 19.6307 17.0932 18.3818 15.5527 18.3818Z" fill="#285AE6"/>
<path d="M2.57809 23.6222C3.95521 23.6222 5.07159 22.5247 5.07159 21.171C5.07159 19.8172 3.95521 18.7197 2.57809 18.7197C1.20097 18.7197 0.0845947 19.8172 0.0845947 21.171C0.0845947 22.5247 1.20097 23.6222 2.57809 23.6222Z" fill="#5E89FF"/>
<path d="M23.9631 24.1297C25.6203 24.1297 26.9637 22.8052 26.9637 21.1713C26.9637 19.5374 25.6203 18.2129 23.9631 18.2129C22.3058 18.2129 20.9624 19.5374 20.9624 21.1713C20.9624 22.8052 22.3058 24.1297 23.9631 24.1297Z" fill="#285AE6"/>
<path d="M9.17111 14.2404C10.5482 14.2404 11.6646 13.1429 11.6646 11.7891C11.6646 10.4353 10.5482 9.33789 9.17111 9.33789C7.79399 9.33789 6.67761 10.4353 6.67761 11.7891C6.67761 13.1429 7.79399 14.2404 9.17111 14.2404Z" fill="#5E89FF"/>
<path d="M22.7374 9H18.0885C16.548 9 15.2992 10.2488 15.2992 11.7893C15.2992 13.3298 16.548 14.5787 18.0885 14.5787H22.7374C24.2779 14.5787 25.5268 13.3298 25.5268 11.7893C25.5268 10.2488 24.2779 9 22.7374 9Z" fill="#5E89FF"/>
</g>
<path d="M62.0002 17.3106C62.0002 17.4713 61.995 17.6311 61.9847 17.7899L62.0002 17.7899V46.5474L61.9847 46.5473C61.5201 53.7408 50.6204 58.8994 37.4403 59.0073L37.0185 59.009C36.7138 59.009 36.4101 59.0063 36.1078 59.0009L36.582 55.1726C36.591 55.1727 36.6 55.1728 36.609 55.1728L37.0185 55.1746C48.7877 55.1746 58.0815 50.7245 58.0815 46.0681C58.0815 45.3973 57.8859 44.7175 57.4885 44.0381L57.377 44.1187C52.9016 47.3477 45.6089 49.3546 37.4403 49.4214L37.2928 49.4221L37.7682 45.5828C49.1799 45.3989 58.0815 41.0394 58.0815 36.4823C58.0815 35.8118 57.8861 35.1324 57.4891 34.4533L57.4693 34.4658C53.1916 37.5954 46.2824 39.5935 38.4817 39.8165L38.9585 35.9624C49.7929 35.5072 58.0815 31.2938 58.0815 26.8964C58.0815 26.2259 57.8861 25.5465 57.4891 24.8675L57.4693 24.88C53.4108 27.8492 46.9835 29.7999 39.6736 30.1824L40.1524 26.3106C50.3959 25.6088 58.0815 21.545 58.0815 17.3106C58.0815 13.3854 51.4774 9.60679 42.3536 8.51683L42.8246 4.70605C53.7437 5.99743 62.0002 10.8885 62.0002 17.3106Z" fill="#212121"/>
</g>
<defs>
<clipPath id="clip0_1492_5301">
<rect width="61.0312" height="62" fill="white"/>
</clipPath>
</defs>
</svg>
