<svg width="63" height="62" viewBox="0 0 63 62" fill="none" xmlns="http://www.w3.org/2000/svg">
<g clip-path="url(#clip0_1551_6363)">
<path fill-rule="evenodd" clip-rule="evenodd" d="M38.0685 26.1391C38.2813 26.2524 38.4555 26.4265 38.5687 26.6393L46.8578 42.2207C47.1718 42.811 46.9479 43.544 46.3576 43.858C46.1825 43.9512 45.9873 43.9999 45.789 43.9999H29.2108C28.5422 43.9999 28.0002 43.4579 28.0002 42.7893C28.0002 42.591 28.0489 42.3957 28.1421 42.2207L36.4312 26.6393C36.7452 26.0491 37.4782 25.8251 38.0685 26.1391ZM37.4999 40.3681C36.8304 40.3681 36.2877 40.9101 36.2877 41.5787C36.2877 42.2473 36.8304 42.7893 37.4999 42.7893C38.1694 42.7893 38.7122 42.2473 38.7122 41.5787C38.7122 40.9101 38.1694 40.3681 37.4999 40.3681ZM37.4999 31.5912C37.4787 31.5912 37.4574 31.5918 37.4362 31.593C36.8039 31.6282 36.3198 32.1693 36.355 32.8017L36.6469 38.0479C36.672 38.5006 37.0465 38.8548 37.4999 38.8548C37.9534 38.8548 38.3278 38.5006 38.353 38.0479L38.6449 32.8017C38.646 32.7804 38.6466 32.7592 38.6466 32.738C38.6466 32.1046 38.1332 31.5912 37.4999 31.5912Z" fill="white"/>
<path d="M24.2617 23.7613C31.6817 16.3413 43.7118 16.3413 51.1318 23.7613C58.0743 30.7037 58.521 41.6821 52.4721 49.144L61.7384 58.4095C62.5195 59.1905 62.5195 60.4569 61.7384 61.2379C60.9574 62.019 59.691 62.019 58.91 61.2379L49.6437 51.9723C42.1818 58.0205 31.204 57.5735 24.2617 50.6313C16.8418 43.2114 16.8418 31.1812 24.2617 23.7613ZM27.0902 26.5897C21.2323 32.4476 21.2323 41.945 27.0902 47.8029C32.948 53.6608 42.4455 53.6608 48.3034 47.8029C54.1612 41.945 54.1612 32.4476 48.3034 26.5897C42.4455 20.7318 32.948 20.7318 27.0902 26.5897Z" fill="#285AE6"/>
<path d="M19.5001 0L19.8834 0.00198286C30.2089 0.108914 38.786 4.53045 38.9962 10.7653L39.0001 11L39.0009 13.0205C38.669 13.0069 38.3354 13 38.0001 13C36.6439 13 35.314 13.1125 34.0192 13.3286C34.6546 12.5802 35.0001 11.7904 35.0001 11C35.0001 7.49476 28.2048 4 19.5001 4C10.7955 4 4.00012 7.49476 4.00012 11C4.00012 14.5052 10.7955 18 19.5001 18C20.9641 18 22.3741 17.9011 23.7069 17.72C22.0491 18.9494 20.5559 20.3888 19.2657 21.9979L19.5001 22C13.575 22 8.19421 20.5807 4.59322 18.209C4.19368 18.8131 4.00012 19.4141 4.00012 20C4.00012 23.0554 9.16321 26.1028 16.2534 26.8347C15.6753 28.0682 15.1995 29.3593 14.8364 30.6968C10.7949 30.1627 7.22038 28.9393 4.59322 27.209C4.19368 27.8131 4.00012 28.4141 4.00012 29C4.00012 31.728 8.11613 34.4497 14.0448 35.5225C14.0152 36.0113 14.0001 36.5039 14.0001 37C14.0001 37.8782 14.0473 38.7453 14.1392 39.5991C10.3846 39.0195 7.06846 37.8393 4.59322 36.209C4.19368 36.8131 4.00012 37.4141 4.00012 38C4.00012 40.912 8.69001 43.8168 15.2683 44.7166C15.7671 46.1887 16.4059 47.5972 17.1682 48.9258C7.60772 48.313 0.00012207 43.9588 0.00012207 38V11L0.00397432 10.7682C0.214224 4.4548 9.00281 0 19.5001 0Z" fill="white"/>
</g>
<defs>
<clipPath id="clip0_1551_6363">
<rect width="63" height="62" fill="white" transform="translate(0.00012207)"/>
</clipPath>
</defs>
</svg>
