<svg width="62" height="61" viewBox="0 0 62 61" fill="none" xmlns="http://www.w3.org/2000/svg">
<path d="M23.8765 22.4005C31.1787 15.0983 43.0179 15.0983 50.3201 22.4005C57.1524 29.2327 57.592 40.0368 51.6391 47.3803L60.7583 56.4987C61.527 57.2674 61.527 58.5136 60.7583 59.2823C59.9897 60.0509 58.7435 60.0509 57.9748 59.2823L48.8556 50.1637C41.5122 56.1159 30.7086 55.676 23.8765 48.844C16.5744 41.5418 16.5744 29.7027 23.8765 22.4005ZM26.6601 25.184C20.8952 30.9489 20.8952 40.2956 26.6601 46.0605C32.425 51.8254 41.7717 51.8254 47.5366 46.0605C53.3014 40.2956 53.3014 30.9489 47.5366 25.184C41.7717 19.4191 32.425 19.4191 26.6601 25.184Z" fill="#285AE6"/>
<path d="M35.198 39.3977L31.4565 35.9624C30.893 35.4451 30.0191 35.4738 29.4908 36.0271C28.9757 36.5667 28.9955 37.4218 29.5351 37.9369C29.5414 37.943 29.5478 37.949 29.5543 37.9549L35.3774 43.3013L45.3258 32.3609C45.8286 31.808 45.788 30.9521 45.235 30.4493C45.2285 30.4434 45.222 30.4376 45.2154 30.4318C44.6386 29.9274 43.7641 29.9774 43.2486 30.5443L35.198 39.3977Z" fill="white"/>
<path d="M19.1905 0L19.5677 0.00177399C29.7261 0.0974106 38.1649 4.05071 38.3769 9.62604L38.381 9.84127L38.3817 11.8297C38.0551 11.8163 37.7268 11.8095 37.3968 11.8095C35.9746 11.8095 34.5818 11.9352 33.2288 12.1761C34.0133 11.4331 34.4444 10.6375 34.4444 9.84127C34.4444 6.70527 27.7569 3.57864 19.1905 3.57864C10.624 3.57864 3.93651 6.70527 3.93651 9.84127C3.93651 12.9773 10.624 16.1039 19.1905 16.1039C21.0307 16.1039 22.7843 15.9596 24.4035 15.7019C22.7002 16.8258 21.1521 18.1637 19.7964 19.6776C19.5956 19.681 19.3934 19.6825 19.1905 19.6825C13.54 19.6825 8.39256 18.4902 4.85449 16.4856C4.23496 17.2316 3.93651 17.9767 3.93651 18.6984C3.93651 21.7053 9.01764 24.7044 15.9953 25.4246C15.4264 26.6386 14.9581 27.9092 14.6008 29.2255C10.6234 28.6998 7.10565 27.4958 4.52019 25.793C4.12699 26.3875 3.93651 26.979 3.93651 27.5556C3.93651 30.2403 7.98718 32.9188 13.8218 33.9746C13.7926 34.4555 13.7778 34.9403 13.7778 35.4286C13.7778 36.2928 13.8242 37.1462 13.9147 37.9864C10.2197 37.416 6.95614 36.2545 4.52019 34.6501C4.12699 35.2446 3.93651 35.8361 3.93651 36.4127C3.93651 39.2785 8.55195 42.1372 15.0258 43.0227C15.5167 44.4714 16.1454 45.8575 16.8955 47.1651C7.48684 46.562 0 42.2769 0 36.4127C0 36.081 0.0246163 35.7529 0.0729913 35.4291L0 35.4286V9.84127L0.00398032 9.62878C0.215912 3.98314 8.8629 0 19.1905 0Z" fill="white"/>
</svg>
