<svg width="62" height="62" viewBox="0 0 62 62" fill="none" xmlns="http://www.w3.org/2000/svg">
<g clip-path="url(#clip0_1492_4608)">
<path fill-rule="evenodd" clip-rule="evenodd" d="M33.69 2.64441C33.8137 1.68617 34.6296 0.96875 35.5958 0.96875V0.96875C36.7547 0.96875 37.6499 1.98687 37.5016 3.13623L30.2475 59.3556C30.1238 60.3138 29.3079 61.0312 28.3417 61.0312V61.0312C27.1828 61.0312 26.2876 60.0131 26.4359 58.8638L33.69 2.64441Z" fill="#212121"/>
<mask id="mask0_1492_4608" style="mask-type:alpha" maskUnits="userSpaceOnUse" x="0" y="0" width="31" height="62">
<path fill-rule="evenodd" clip-rule="evenodd" d="M0.0484428 0L30.1137 0L22.2812 62H0L0.0484428 0Z" fill="white"/>
</mask>
<g mask="url(#mask0_1492_4608)">
<rect x="17.0999" y="46.1396" width="12.3645" height="6.71448" rx="3.35724" fill="#C294FF"/>
<ellipse cx="11.409" cy="49.4967" rx="2.41558" ry="2.37463" fill="#C294FF"/>
<ellipse cx="13.8655" cy="39.917" rx="2.74311" ry="2.70217" fill="#A560FF"/>
<ellipse cx="21.3988" cy="39.917" rx="2.74311" ry="2.70217" fill="#A560FF"/>
<ellipse cx="6.33215" cy="39.9992" rx="2.08804" ry="2.0471" fill="#C294FF"/>
<ellipse cx="11.9821" cy="30.3358" rx="3.3163" ry="3.35724" fill="#C294FF"/>
<ellipse cx="3.05679" cy="30.3362" rx="2.08804" ry="2.0471" fill="#C294FF"/>
<rect x="18.41" y="26.9785" width="12.3645" height="6.71448" rx="3.35724" fill="#A560FF"/>
<rect x="8.82959" y="17.8086" width="9.90796" height="5.40434" rx="2.70217" fill="#A560FF"/>
<ellipse cx="3.46621" cy="20.5104" rx="2.41558" ry="2.37463" fill="#C294FF"/>
<ellipse cx="24.1828" cy="20.5105" rx="2.90688" ry="2.86594" fill="#A560FF"/>
<ellipse cx="9.85317" cy="11.4205" rx="2.41558" ry="2.37463" fill="#C294FF"/>
<rect x="15.7898" y="8.71875" width="9.90796" height="5.40434" rx="2.70217" fill="#C294FF"/>
</g>
<mask id="mask1_1492_4608" style="mask-type:alpha" maskUnits="userSpaceOnUse" x="-1" y="0" width="63" height="62">
<path fill-rule="evenodd" clip-rule="evenodd" d="M-0.0663452 0H61.8518V61.9181H-0.0663452L-0.0663452 0ZM-0.0663452 0H41.5307L33.5446 61.9181H-0.0663452L-0.0663452 0Z" fill="white"/>
</mask>
<g mask="url(#mask1_1492_4608)">
<path fill-rule="evenodd" clip-rule="evenodd" d="M60.5931 11.982C60.1046 11.0694 59.3877 10.3532 58.4742 9.86516C57.5608 9.3771 56.6547 9.11719 54.1561 9.11719L20.7146 9.11727C18.3456 9.12225 17.4305 9.36664 16.5524 9.82228L16.471 9.86516C15.5575 10.3532 14.8406 11.0694 14.3521 11.982C13.8636 12.8946 13.6034 13.7998 13.6034 16.2961L13.6035 46.0662C13.6085 48.433 13.8531 49.3473 14.3092 50.2246L14.3521 50.3059C14.8406 51.2185 15.5575 51.9347 16.471 52.4228C17.3844 52.9108 18.2905 53.1707 20.7891 53.1707L54.2306 53.1707C56.5988 53.1657 57.5141 52.9215 58.392 52.4661L58.4742 52.4228C59.3877 51.9347 60.1046 51.2185 60.5931 50.3059C61.0816 49.3933 61.3418 48.4881 61.3418 45.9918L61.3417 16.2217C61.3367 13.8557 61.0922 12.9412 60.6364 12.0642L60.5931 11.982ZM57.651 47.521C57.651 48.5497 56.8143 49.3866 55.7859 49.3866H19.2283C18.1999 49.3866 17.3631 48.5497 17.3631 47.521V24.0144H57.651V47.521ZM17.3631 20.3334H57.651V14.7134C57.651 13.6805 56.8143 12.8401 55.7859 12.8401H19.2283C18.1999 12.8401 17.3631 13.6805 17.3631 14.7134V20.3334ZM55.2193 16.5539C55.2193 17.5885 54.3807 18.4272 53.3462 18.4272C52.3117 18.4272 51.4731 17.5885 51.4731 16.5539C51.4731 15.5193 52.3117 14.6806 53.3462 14.6806C54.3807 14.6806 55.2193 15.5193 55.2193 16.5539ZM46.8397 18.4272C47.8742 18.4272 48.7128 17.5885 48.7128 16.5539C48.7128 15.5193 47.8742 14.6806 46.8397 14.6806C45.8052 14.6806 44.9666 15.5193 44.9666 16.5539C44.9666 17.5885 45.8052 18.4272 46.8397 18.4272Z" fill="#212121"/>
</g>
</g>
<defs>
<clipPath id="clip0_1492_4608">
<rect width="62" height="62" fill="white"/>
</clipPath>
</defs>
</svg>
