<svg width="62" height="59" viewBox="0 0 62 59" fill="none" xmlns="http://www.w3.org/2000/svg">
<path d="M26.35 0.75C31.7847 0.75 36.5897 3.29639 39.68 7.16923C40.3872 7.024 41.1137 6.94655 41.85 6.94655C47.6044 6.94655 52.2834 11.41 52.6709 17.0256C58.2025 18.9717 62 24.2001 62 30.1836C62 36.5096 57.7796 41.8546 52.0006 43.5583L52.0009 38.675C55.1905 37.1996 57.4044 33.9717 57.4044 30.2291C57.4044 25.0942 53.2366 20.928 48.0994 20.928C47.8184 20.928 47.5276 20.9377 47.2465 20.9668C47.7893 20.0464 48.0994 18.9709 48.0994 17.8277C48.0994 14.4076 45.3176 11.6269 41.8961 11.6269C40.355 11.6269 38.9495 12.1889 37.864 13.119C36.0127 8.60408 31.5734 5.4262 26.3878 5.4262C19.6374 5.4262 14.1473 10.8133 13.9849 17.5218L13.9812 17.9342C8.71805 18.69 4.6762 23.2146 4.6762 28.679C4.6762 32.6561 6.81174 36.1304 10.0002 38.0198L10.0001 43.1232C4.1533 40.9065 0 35.2575 0 28.6345C0 22.283 3.86531 16.6383 9.65844 14.2856C11.2859 6.53022 18.1544 0.75 26.35 0.75Z" fill="white"/>
<path d="M30 26.75C30.7099 26.75 31.3989 26.9615 31.9924 27.3617C33.8536 28.6161 37.5972 30.8322 41.7586 31.579C42.4778 31.7081 43 32.3281 43 33.0533V42.0812C43 46.5277 40.7569 50.7104 36.3329 54.5135C33.7612 56.7243 31.1503 58.1652 30.0001 58.75C27.3561 57.4047 17 51.5298 17 42.0813V33.0531C17 32.328 17.522 31.708 18.2413 31.5789C22.4028 30.8321 26.1465 28.616 28.0075 27.3616C28.601 26.9615 29.2901 26.75 30 26.75ZM30 37.75C28.3431 37.75 27 39.0931 27 40.75C27 42.0563 27.8348 43.1675 29.0001 43.5793L29 45.75C29 46.3023 29.4477 46.75 30 46.75C30.5523 46.75 31 46.3023 31 45.75L31.0009 43.579C32.1656 43.1669 33 42.0559 33 40.75C33 39.0931 31.6568 37.75 30 37.75Z" fill="#285AE6"/>
</svg>
