<svg width="62" height="62" viewBox="0 0 62 62" fill="none" xmlns="http://www.w3.org/2000/svg">
<path d="M18.2331 37.1875H14.5961C13.3809 37.1875 12.3959 38.1726 12.3959 39.3877C12.3959 40.6028 13.3809 41.5879 14.5961 41.5879H18.2331C19.4482 41.5879 20.4333 40.6028 20.4333 39.3877C20.4333 38.1726 19.4482 37.1875 18.2331 37.1875Z" fill="#A560FF"/>
<path d="M51.3669 37.1875C50.1518 37.1875 49.1667 38.1726 49.1667 39.3877C49.1667 40.6028 50.1518 41.5879 51.3669 41.5879C52.582 41.5879 53.5671 40.6028 53.5671 39.3877C53.5671 38.1726 52.582 37.1875 51.3669 37.1875Z" fill="#A560FF"/>
<path d="M32.9294 37.1875C31.7143 37.1875 30.7292 38.1726 30.7292 39.3877C30.7292 40.6028 31.7143 41.5879 32.9294 41.5879C34.1445 41.5879 35.1296 40.6028 35.1296 39.3877C35.1296 38.1726 34.1445 37.1875 32.9294 37.1875Z" fill="#A560FF"/>
<path d="M40.3252 41.5879H43.9622C45.1774 41.5879 46.1624 40.6028 46.1624 39.3877C46.1624 38.1726 45.1774 37.1875 43.9622 37.1875H40.3252C39.1101 37.1875 38.125 38.1726 38.125 39.3877C38.125 40.6028 39.1101 41.5879 40.3252 41.5879Z" fill="#C294FF"/>
<path d="M16.8877 29.4004C18.1029 29.4004 19.0879 28.4153 19.0879 27.2002C19.0879 25.9851 18.1029 25 16.8877 25C15.6726 25 14.6876 25.9851 14.6876 27.2002C14.6876 28.4153 15.6726 29.4004 16.8877 29.4004Z" fill="#C294FF"/>
<path d="M12.2543 27.1275C12.2543 26.1828 11.4885 25.417 10.5438 25.417C9.59917 25.417 8.83337 26.1828 8.83337 27.1275V27.2089C8.83337 28.1535 9.59917 28.9193 10.5438 28.9193C11.4885 28.9193 12.2543 28.1535 12.2543 27.2089V27.1275Z" fill="#A560FF"/>
<path d="M27.3998 25H23.7627C22.5476 25 21.5626 25.9851 21.5626 27.2002C21.5626 28.4153 22.5476 29.4004 23.7627 29.4004H27.3998C28.6149 29.4004 29.5999 28.4153 29.5999 27.2002C29.5999 25.9851 28.6149 25 27.3998 25Z" fill="#A560FF"/>
<path d="M51.022 25.4166C50.0549 25.4166 49.2709 26.2006 49.2709 27.1678C49.2709 28.1349 50.0549 28.9189 51.022 28.9189C51.9892 28.9189 52.7732 28.1349 52.7732 27.1678C52.7732 26.2006 51.9892 25.4166 51.022 25.4166Z" fill="#C294FF"/>
<path d="M44.596 25C43.3809 25 42.3959 25.9851 42.3959 27.2002C42.3959 28.4153 43.3809 29.4004 44.596 29.4004C45.8112 29.4004 46.7962 28.4153 46.7962 27.2002C46.7962 25.9851 45.8112 25 44.596 25Z" fill="#A560FF"/>
<path d="M7.79285 35.0648C8.75999 35.0648 9.54401 34.2808 9.54401 33.3137C9.54401 32.3465 8.75999 31.5625 7.79285 31.5625C6.82571 31.5625 6.04169 32.3465 6.04169 33.3137C6.04169 34.2808 6.82571 35.0648 7.79285 35.0648Z" fill="#A560FF"/>
<path d="M14.1794 35.5459C15.3945 35.5459 16.3795 34.5608 16.3795 33.3457C16.3795 32.1306 15.3945 31.1455 14.1794 31.1455C12.9642 31.1455 11.9792 32.1306 11.9792 33.3457C11.9792 34.5608 12.9642 35.5459 14.1794 35.5459Z" fill="#A560FF"/>
<path d="M41.8877 31.1455C40.6726 31.1455 39.6875 32.1306 39.6875 33.3457C39.6875 34.5608 40.6726 35.5459 41.8877 35.5459C43.1028 35.5459 44.0879 34.5608 44.0879 33.3457C44.0879 32.1306 43.1028 31.1455 41.8877 31.1455Z" fill="#A560FF"/>
<path d="M48.3137 35.0645H51.2323C52.1994 35.0645 52.9835 34.2804 52.9835 33.3133C52.9835 32.3462 52.1994 31.5621 51.2323 31.5621H48.3137C47.3466 31.5621 46.5625 32.3462 46.5625 33.3133C46.5625 34.2804 47.3466 35.0645 48.3137 35.0645Z" fill="#A560FF"/>
<path d="M11.9919 47.7334C13.207 47.7334 14.192 46.7483 14.192 45.5332C14.192 44.3181 13.207 43.333 11.9919 43.333C10.7767 43.333 9.79169 44.3181 9.79169 45.5332C9.79169 46.7483 10.7767 47.7334 11.9919 47.7334Z" fill="#A560FF"/>
<path d="M23.4414 43.333H19.8044C18.5892 43.333 17.6042 44.3181 17.6042 45.5332C17.6042 46.7483 18.5892 47.7334 19.8044 47.7334H23.4414C24.6565 47.7334 25.6416 46.7483 25.6416 45.5332C25.6416 44.3181 24.6565 43.333 23.4414 43.333Z" fill="#C294FF"/>
<path d="M46.5428 47.252H49.4614C50.4286 47.252 51.2126 46.4679 51.2126 45.5008C51.2126 44.5337 50.4286 43.7496 49.4614 43.7496H46.5428C45.5757 43.7496 44.7917 44.5337 44.7917 45.5008C44.7917 46.4679 45.5757 47.252 46.5428 47.252Z" fill="#A560FF"/>
<path d="M39.1793 43.333C37.9642 43.333 36.9792 44.3181 36.9792 45.5332C36.9792 46.7483 37.9642 47.7334 39.1793 47.7334C40.3945 47.7334 41.3795 46.7483 41.3795 45.5332C41.3795 44.3181 40.3945 43.333 39.1793 43.333Z" fill="#C294FF"/>
<path d="M31.2627 43.333C30.0476 43.333 29.0625 44.3181 29.0625 45.5332C29.0625 46.7483 30.0476 47.7334 31.2627 47.7334C32.4778 47.7334 33.4629 46.7483 33.4629 45.5332C33.4629 44.3181 32.4778 43.333 31.2627 43.333Z" fill="#A560FF"/>
<path d="M34.4918 53.7754H38.1289C39.344 53.7754 40.329 52.7903 40.329 51.5752C40.329 50.3601 39.344 49.375 38.1289 49.375H34.4918C33.2767 49.375 32.2917 50.3601 32.2917 51.5752C32.2917 52.7903 33.2767 53.7754 34.4918 53.7754Z" fill="#C294FF"/>
<path d="M50.7292 51.7923C50.7292 52.5138 51.314 53.0986 52.0355 53.0986C52.757 53.0986 53.3419 52.5138 53.3419 51.7923V51.3068C53.3419 50.5853 52.757 50.0004 52.0355 50.0004C51.314 50.0004 50.7292 50.5853 50.7292 51.3068V51.7923Z" fill="#C294FF"/>
<path d="M45.5335 49.375C44.3184 49.375 43.3334 50.3601 43.3334 51.5752C43.3334 52.7903 44.3184 53.7754 45.5335 53.7754C46.7487 53.7754 47.7337 52.7903 47.7337 51.5752C47.7337 50.3601 46.7487 49.375 45.5335 49.375Z" fill="#A560FF"/>
<path d="M8.55434 53.7754H12.1914C13.4065 53.7754 14.3915 52.7903 14.3915 51.5752C14.3915 50.3601 13.4065 49.375 12.1914 49.375H8.55434C7.33921 49.375 6.35416 50.3601 6.35416 51.5752C6.35416 52.7903 7.33921 53.7754 8.55434 53.7754Z" fill="#C294FF"/>
<path d="M19.596 49.375C18.3809 49.375 17.3959 50.3601 17.3959 51.5752C17.3959 52.7903 18.3809 53.7754 19.596 53.7754C20.8112 53.7754 21.7962 52.7903 21.7962 51.5752C21.7962 50.3601 20.8112 49.375 19.596 49.375Z" fill="#A560FF"/>
<path d="M26.9918 49.375C25.7767 49.375 24.7917 50.3601 24.7917 51.5752C24.7917 52.7903 25.7767 53.7754 26.9918 53.7754C28.207 53.7754 29.192 52.7903 29.192 51.5752C29.192 50.3601 28.207 49.375 26.9918 49.375Z" fill="#A560FF"/>
<path d="M51 0H11C4.92487 0 0 4.92487 0 11V51C0 57.0751 4.92487 62 11 62H51C57.0751 62 62 57.0751 62 51V11C62 4.92487 57.0751 0 51 0ZM11 2H51C55.9706 2 60 6.02944 60 11V51C60 55.9706 55.9706 60 51 60H11C6.02944 60 2 55.9706 2 51V11C2 6.02944 6.02944 2 11 2Z" fill="white"/>
<path d="M50 6C53.2384 6 55.8776 8.56557 55.9959 11.7751L56 12V50C56 53.2384 53.4344 55.8776 50.2249 55.9959L50 56H12C8.7616 56 6.12243 53.4344 6.00414 50.2249L6 50V12C6 8.7616 8.56557 6.12243 11.7751 6.00414L12 6H50ZM50 52C51.0544 52 51.9182 51.1841 51.9945 50.1493L52 50V24H48.206V20H52V12C52 10.9456 51.1841 10.0818 50.1493 10.0055L50 10H12C10.9456 10 10.0818 10.8159 10.0055 11.8507L10 12V20H14.206V24H10V50C10 51.0544 10.8159 51.9182 11.8507 51.9945L12 52H50ZM48 13C49.1046 13 50 13.8954 50 15C50 16.1046 49.1046 17 48 17C46.8954 17 46 16.1046 46 15C46 13.8954 46.8954 13 48 13ZM41 13C42.1046 13 43 13.8954 43 15C43 15.276 42.9441 15.5388 42.843 15.778C41.5302 15.3342 40.2843 14.8127 39.1384 14.2678C39.4309 13.5251 40.1541 13 41 13Z" fill="white"/>
<path d="M31.207 14C31.9828 14 32.7357 14.2302 33.3844 14.6657C35.4183 16.0311 39.5094 18.4432 44.0572 19.2561C44.8432 19.3966 45.4138 20.0714 45.4138 20.8607V30.687C45.4138 35.5266 42.9625 40.0793 38.1278 44.2187C35.3174 46.625 32.4641 48.1933 31.207 48.8298C28.3176 47.3656 17 40.9712 17 30.6871V20.8605C17 20.0713 17.5705 19.3964 18.3566 19.2559C22.9044 18.4431 26.9956 16.031 29.0295 14.6657C29.6781 14.2302 30.4311 14 31.207 14ZM38.467 24.0429L29.3819 33.6771L25.1549 29.9346C24.5137 29.367 23.5408 29.399 22.9383 30.0075C22.3774 30.574 22.382 31.488 22.9485 32.0489C22.9676 32.0677 22.9872 32.0861 23.0072 32.1038L29.5845 37.927L40.8121 26.0207C41.362 25.4376 41.335 24.5192 40.752 23.9694C40.7325 23.951 40.7124 23.9331 40.6919 23.9158C40.034 23.361 39.0574 23.4168 38.467 24.0429Z" fill="white"/>
</svg>
